<svg width="236" height="84" viewBox="0 0 236 84" fill="none" xmlns="http://www.w3.org/2000/svg">
<g clip-path="url(#clip0_14547_12482)">
<path d="M80.215 18C67.2408 18 57.4583 28.3428 57.4583 42.0346C57.4583 55.7264 67.1716 66 80.045 66C89.9786 66 97.5013 61.1591 101.259 52.3397L91.2377 50.1679C88.1342 55.4306 84.0172 56.186 80.045 56.186C74.2535 56.186 69.8029 51.9242 68.6068 45.3018V44.9681H102.6V41.1218C102.097 27.9399 92.5219 18 80.215 18ZM68.8838 37.0174V36.6649C69.5543 34.1641 71.0272 31.9525 73.0763 30.3698C75.0917 28.8079 77.5773 27.9757 80.1268 28.0092C82.6362 27.9102 85.0964 28.7243 87.0514 30.3006C89.0439 31.9052 90.4114 34.157 90.9166 36.6649V37.0174H68.8838Z" fill="black"/>
<path d="M33.0899 54.5744C31.0738 54.5658 29.0941 54.0367 27.3424 53.0384C25.5713 52.0245 24.0823 50.5831 23.0114 48.8459C21.9256 47.0772 21.2901 45.0691 21.1607 42.9977C21.0219 40.9196 21.3913 38.8389 22.2371 36.9356C23.0691 35.0581 24.3566 33.418 25.9827 32.1639C27.5765 30.9256 29.4652 30.1235 31.463 29.8366C33.4608 29.5496 35.4989 29.7876 37.3768 30.5272C39.2648 31.2765 40.9339 32.4888 42.2303 34.0524H54.959C53.1862 28.7396 49.5976 24.2215 44.8239 21.2923C40.1295 18.4227 34.5442 17.3787 29.1303 18.3588C23.6837 19.373 18.7874 22.3219 15.344 26.662C11.8338 31.0924 9.95045 36.5935 10.0089 42.2456C10.0673 47.8978 12.064 53.3587 15.6651 57.7156C19.1907 61.9779 24.1385 64.8218 29.5961 65.723C35.038 66.5942 40.6103 65.4335 45.252 62.4621C49.96 59.424 53.4496 54.8269 55.1101 49.4754H42.7339C41.6309 51.0367 40.1751 52.3157 38.4847 53.2084C36.8234 54.0932 34.9722 54.562 33.0899 54.5744Z" fill="black"/>
<path d="M123.311 23.6971C122.189 24.7195 121.26 25.9348 120.567 27.2853V18.3211C118.105 18.3314 115.711 19.13 113.736 20.5999C111.682 22.2118 110.033 24.2822 108.923 26.6456C107.812 29.009 107.27 31.5995 107.341 34.2099V66.0001C109.734 65.9899 112.065 65.2328 114.007 63.8345C115.94 62.3728 117.525 60.502 118.651 58.3559C119.776 56.2099 120.413 53.8416 120.516 51.4206V47.1715C120.656 44.1707 121.315 41.2168 122.461 38.4402C123.408 36.1701 124.945 34.1944 126.912 32.718C130.019 30.6085 133.723 29.5577 137.475 29.7215H139.943L140.572 18.3022C139.586 18.0526 138.567 17.9508 137.551 18.0001C134.911 17.8923 132.277 18.341 129.822 19.3171C127.367 20.2931 125.144 21.7747 123.299 23.6656L123.311 23.6971Z" fill="black"/>
<path d="M215.616 38.245L207.35 35.8529C203.951 34.9401 202.251 33.3348 202.251 30.993C202.251 28.305 204.392 26.5865 207.69 26.5865C209.085 26.5182 210.466 26.8904 211.637 27.6504C212.828 28.4217 213.753 29.5402 214.287 30.8546L224.901 28.5506C222.452 21.8967 216.044 18 207.665 18C197.719 18 191.033 23.7789 191.033 32.3969C191.033 38.8556 194.892 43.1803 202.478 45.264L211.291 47.7443C213.809 48.4241 215.068 49.8846 215.068 52.0627C215.068 54.2408 213.368 57.0988 208.842 57.0988C207.432 57.1961 206.026 56.8718 204.801 56.1671C203.559 55.4526 202.553 54.3916 201.905 53.114L190.391 55.632C191.411 58.9684 195.132 65.9874 208.125 65.9874C219.147 65.9874 226.003 60.3218 226.003 51.1184C226.091 44.5464 222.572 40.209 215.616 38.245Z" fill="black"/>
<path d="M164.305 18C159.593 17.9982 154.988 19.408 151.085 22.0477C147.172 24.6974 144.13 28.4448 142.341 32.8186C140.541 37.2031 140.069 42.0201 140.985 46.6706C141.9 51.3211 144.163 55.5999 147.491 58.9747C149.964 61.4748 152.964 63.3908 156.273 64.5827C159.582 65.7745 163.115 66.212 166.614 65.8633C170.114 65.5145 173.491 64.3884 176.499 62.567C179.508 60.7457 182.071 58.2752 184.002 55.3361C187.052 50.7098 188.423 45.177 187.886 39.6617C187.349 34.1463 184.936 28.9822 181.05 25.0316C178.861 22.8129 176.254 21.0493 173.38 19.8425C170.506 18.6357 167.422 18.0095 164.305 18ZM164.305 54.5115C161.849 54.5115 159.45 53.7747 157.418 52.3963C155.374 51.0132 153.785 49.0577 152.848 46.7748C151.909 44.4849 151.663 41.9695 152.14 39.541C152.618 37.1125 153.799 34.8778 155.536 33.1145C156.826 31.8055 158.392 30.8018 160.121 30.1768C161.849 29.5518 163.695 29.3214 165.524 29.5025C167.353 29.6836 169.118 30.2716 170.69 31.2233C172.262 32.1751 173.602 33.4665 174.61 35.003C176.211 37.4238 176.929 40.3221 176.643 43.2101C176.358 46.0982 175.086 48.7998 173.042 50.8603C171.899 52.0155 170.538 52.9328 169.039 53.5595C167.539 54.1861 165.93 54.5097 164.305 54.5115Z" fill="black"/>
</g>
<defs>
<clipPath id="clip0_14547_12482">
<rect width="216.009" height="48" fill="white" transform="translate(10 18)"/>
</clipPath>
</defs>
</svg>
