<svg width="375" height="84" viewBox="0 0 375 84" fill="none" xmlns="http://www.w3.org/2000/svg">
<path fill-rule="evenodd" clip-rule="evenodd" d="M67.172 10.0099C69.0983 10.0099 70.8806 11.0525 71.7842 12.7455C72.648 14.3689 72.6133 16.2803 71.6898 17.8691L71.66 17.9237L63.5576 31.4773C62.6392 33.0114 60.9859 33.9646 59.2185 33.9845H59.1589H49.9047L53.7524 42.7869L53.7673 42.8117L53.7921 42.8514C54.6956 44.4898 54.6758 46.436 53.7375 48.0445L53.7077 48.0991L45.6053 61.6528C44.6868 63.1869 43.0336 64.1401 41.2661 64.16H41.2066H29.8523L21.6903 72.7687L21.6754 72.7836C20.9059 73.5631 19.8683 74 18.7859 74C18.5179 74 18.2448 73.9702 17.9767 73.9156C16.6561 73.6475 15.5589 72.739 15.0326 71.4928L15.0177 71.4581L10.7233 61.5982L10.6984 61.5585L10.6736 61.5187C10.6736 61.5187 10.6637 61.5038 10.6637 61.4989C9.76011 59.8605 9.77997 57.9144 10.7183 56.3058L10.7481 56.2512L18.6072 43.1046L12.8184 29.8489L12.9226 29.7943V29.7843C12.6744 28.563 12.873 27.2921 13.5035 26.18L13.5383 26.1204L13.568 26.0658L21.6704 12.5121C22.5889 10.978 24.2422 10.0248 26.0096 10H67.1769L67.172 10.0099ZM24.6294 64.0607H16.0206L18.5476 69.9091V69.924C18.5973 70.0282 18.6618 70.0878 18.7661 70.1077C18.8555 70.1275 18.9299 70.1077 18.9994 70.0431L19.0094 70.0332L24.6294 64.0607ZM49.2345 43.9536H23.2145C23.1847 43.9536 23.1549 43.9536 23.1301 43.9536H23.1201L30.2544 60.2726H41.2016C41.6534 60.2726 42.0853 60.0293 42.3335 59.647L42.3534 59.6173L50.4657 46.0537C50.709 45.6515 50.7338 45.1799 50.5452 44.7579C50.3217 44.2714 49.8104 43.9536 49.2394 43.9536H49.2345ZM20.5087 47.3048L14.0695 58.1576C13.8113 58.5896 13.7964 59.096 14.0298 59.5428L14.0546 59.5875L14.0695 59.6073L14.0943 59.652L14.1439 59.7265L14.2035 59.8009L14.2581 59.8655L14.2681 59.8754L14.3028 59.9151L14.3376 59.9449C14.5411 60.1286 14.7894 60.2428 15.0674 60.2676H15.127L15.1617 60.2726H15.2064H26.1337L20.5087 47.2998V47.3048ZM18.8157 34.0093L21.6456 40.4982L21.7002 40.4783C22.1868 40.3145 22.6981 40.2251 23.2145 40.2201H23.2939H48.5196L45.8138 34.0143H18.8207L18.8157 34.0093ZM67.0975 13.793H40.9831L48.1224 30.117H59.0646C59.5164 30.117 59.9483 29.8737 60.1965 29.4865L60.2164 29.4567L68.3287 15.8931C68.572 15.491 68.5968 15.0193 68.4082 14.5973C68.1897 14.1207 67.6932 13.803 67.1372 13.7881H67.1024L67.0975 13.793ZM36.9866 13.793H26.1039C25.6571 13.793 25.2252 14.0313 24.9769 14.4186L24.9571 14.4484L16.8646 28.0119C16.6213 28.4191 16.5965 28.8857 16.7901 29.3077C17.0036 29.7843 17.5001 30.1021 18.0512 30.112H18.0859H44.101L36.9816 13.7881L36.9866 13.793Z" fill="#4B39EF"/>
<path fill-rule="evenodd" clip-rule="evenodd" d="M110.295 30.3357L110.325 22.0247H87.4971V59.8012H96.091V45.9348H107.341L107.371 37.6238H96.091V30.3406H110.295V30.3357ZM115.16 59.8012H123.218V20.4062H115.16V59.8012ZM146.478 32.818V47.5483C146.478 51.381 144.437 53.1088 141.483 53.1088C138.907 53.1088 136.811 51.5449 136.811 48.1987V32.818H128.754V49.3852C128.754 56.6684 133.371 60.5558 138.797 60.5558C142.342 60.5558 145.028 59.26 146.478 57.2642V59.8012H154.535V32.818H146.478ZM176.182 40.5927V32.823H170.651V25.2667L162.593 27.6944V32.823H158.294V40.5927H162.593V50.1448C162.593 57.7011 165.656 60.8835 176.182 59.8062V52.4683C172.637 52.6818 170.651 52.4683 170.651 50.1498V40.5977H176.182V40.5927ZM197.018 40.5927V32.823H191.488V25.2667L183.43 27.6944V32.823H179.131V40.5927H183.43V50.1448C183.43 57.7011 186.493 60.8835 197.018 59.8062V52.4683C193.474 52.6818 191.488 52.4683 191.488 50.1498V40.5977H197.018V40.5927ZM209.321 49.5491H228.39C228.604 48.5214 228.713 47.444 228.713 46.3121C228.713 38.165 222.914 32.0634 215.07 32.0634C206.585 32.0634 200.782 38.2693 200.782 46.3121C200.782 54.3549 206.476 60.5608 215.661 60.5608C220.765 60.5608 224.736 58.6742 227.373 55.0003L220.928 51.2768C219.856 52.4633 217.974 53.3272 215.77 53.3272C212.816 53.3272 210.344 52.3541 209.326 49.5491H209.321ZM209.162 43.5021C209.912 40.7516 211.957 39.2374 215.016 39.2374C217.433 39.2374 219.851 40.3693 220.71 43.5021H209.162ZM241.333 37.6238V32.823H233.276V59.8062H241.333V47.6128C241.333 42.2708 246.06 40.9204 249.391 41.4616V32.2868C246.005 32.2868 242.411 34.0145 241.333 37.6288V37.6238ZM276.215 30.3357L276.245 22.0247H253.417V59.8012H262.011V45.9348H273.261L273.291 37.6238H262.011V30.3406H276.215V30.3357ZM281.081 59.8012H289.139V20.4062H281.081V59.8012ZM307.94 60.5558C315.834 60.5558 322.174 54.3499 322.174 46.3071C322.174 38.2643 315.834 32.0584 307.94 32.0584C300.046 32.0584 293.706 38.2643 293.706 46.3071C293.706 54.3499 300.046 60.5558 307.94 60.5558ZM307.94 52.6768C304.45 52.6768 301.764 50.1399 301.764 46.3071C301.764 42.4744 304.45 39.9374 307.94 39.9374C311.43 39.9374 314.116 42.4744 314.116 46.3071C314.116 50.1399 311.43 52.6768 307.94 52.6768ZM356.281 32.818L352.414 47.2802L348.223 32.818H340.702L336.512 47.2802L332.644 32.818H324.05L332.644 59.8012H340.166L344.465 45.3936L348.765 59.8012H356.286L364.88 32.818H356.286H356.281Z" fill="#1D1D1B"/>
</svg>
