<svg width="200" height="92" viewBox="0 0 200 92" fill="none" xmlns="http://www.w3.org/2000/svg">
<g clip-path="url(#clip0_14810_8173)">
<path d="M10 10V14.9262H45.0366V10H10ZM50.0003 10V14.9262H99.9294C99.9294 14.9262 94.8297 10 88.0754 10H50.001H50.0003ZM109.724 10V14.9262H139.93L138.138 10H109.724ZM161.587 10L159.794 14.9262H189.726V10H161.587ZM10 19.5803V24.5066H45.0366V19.5803H10ZM50.0003 19.5868V24.5058H105.723C105.723 24.5058 105.072 20.7143 103.938 19.5868H50.001H50.0003ZM109.724 19.5868V24.5058H143.242L141.583 19.5868H109.724ZM158.001 19.5868L156.341 24.5058H189.726V19.5868H158.001ZM20.0685 29.1599V34.0934H35.2418V29.1606H20.0685V29.1599ZM60.0695 29.1599V34.0934H75.2428V29.1606H60.0695V29.1599ZM90.0014 29.1599V34.0934H105.175C105.175 34.0934 106.138 31.4884 106.138 29.1606H90.0014V29.1599ZM119.793 29.1599V34.0934H146.694L144.901 29.1606H119.793V29.1599ZM154.696 29.1599L152.896 34.0934H179.932V29.1606H154.696V29.1599ZM20.0685 38.7467V43.673H35.2418V38.7467H20.0685ZM60.0695 38.7467V43.673H98.8257C98.8257 43.673 102.068 41.1458 103.101 38.7467H60.0695ZM119.793 38.7467V43.673H134.966V40.9312L135.929 43.673H163.724L164.758 40.9312V43.673H179.932V38.7467H151.448L149.936 42.9191L148.417 38.7467H119.793ZM20.0685 48.327V53.2533H35.2418V48.327H20.0685ZM60.0695 48.327V53.2533H103.101C102.068 50.8629 98.8257 48.327 98.8257 48.327H60.0695ZM119.793 48.327V53.2533H134.966V48.327H119.793ZM137.723 48.327L139.558 53.2533H160.399L162.142 48.327H137.723ZM164.758 48.327V53.2533H179.931V48.327H164.758ZM20.0685 57.9066V62.8322H35.2418V57.9066H20.0685ZM60.0695 57.9066V62.8322H75.2428V57.9066H60.0695ZM90.0014 57.9066V62.8322H106.138C106.138 60.5073 105.175 57.9066 105.175 57.9066H90.0014ZM119.793 57.9066V62.8322H134.966V57.9066H119.793ZM141.168 57.9066L142.947 62.8322H156.918L158.711 57.9066H141.168ZM164.758 57.9066V62.8322H179.931V57.9066H164.758ZM10.2743 67.487V72.4204H45.311V67.487H10.2743ZM50.0003 67.487V72.4204H103.937C105.072 71.2907 105.723 67.487 105.723 67.487H49.9996H50.0003ZM109.999 67.487V72.4204H134.967V67.487H109.999ZM144.621 67.487L146.449 72.4204H153.557L155.273 67.487H144.621ZM164.758 67.487V72.4204H190V67.487H164.758ZM10.2743 77.0738V82H45.311V77.0738H10.2743ZM50.0003 77.0738V81.9928H88.0746C94.8297 81.9928 99.9294 77.0738 99.9294 77.0738H50.0003ZM109.999 77.0738V82H134.967V77.0738H109.999ZM148.087 77.0738L149.844 81.9863L150.147 81.9928L151.932 77.0738H148.086H148.087ZM164.758 77.0738V82H190V77.0738H164.758Z" fill="#1F70C1"/>
</g>
<defs>
<clipPath id="clip0_14810_8173">
<rect width="180" height="72" fill="white" transform="translate(10 10)"/>
</clipPath>
</defs>
</svg>
