<svg width="346" height="84" viewBox="0 0 346 84" fill="none" xmlns="http://www.w3.org/2000/svg">
<path d="M140.518 23.6626C134.765 23.6626 128.653 26.1794 124.698 31.5727V24.7418H111.394V73.6409H124.698V45.5957C124.698 40.562 128.653 35.1687 135.844 35.1687C141.238 35.1687 146.991 39.1238 146.991 45.5957V73.2812H160.294V43.0789C160.653 31.9325 152.383 23.6626 140.518 23.6626ZM255.935 24.382L243.71 57.82L231.485 24.382H216.384L236.519 73.2812H251.26L271.035 24.382H255.935ZM97.0122 58.1797C91.2592 62.4945 88.0229 63.2139 82.9893 63.2139C78.3154 63.2139 74.7194 61.7757 72.2026 59.2589L106.36 44.8768C105.641 39.4835 103.484 34.809 100.608 31.2136C95.9331 25.8203 89.4612 23.3035 81.1919 23.3035C66.4502 23.3035 55.3038 34.0902 55.3038 48.4722C55.3038 63.2139 66.4502 73.6415 82.6296 73.6415C91.6183 73.6415 100.967 69.3267 105.281 64.2925L97.0122 58.1797ZM71.1241 39.1238C73.2818 35.8875 76.8765 34.0902 81.551 34.0902C86.2249 34.0902 90.18 36.9667 91.978 40.9218L68.6073 50.6299C67.8885 45.9554 69.3267 42.0003 71.1241 39.1238ZM54.2253 61.0562H23.6632V10H10V73.2812H54.2253V61.0562ZM295.126 74C280.385 74 268.879 63.2139 268.879 48.8313C268.879 34.8084 280.385 23.6626 295.126 23.6626C309.867 23.6626 321.374 34.4493 321.374 48.8313C321.733 63.2139 310.227 74 295.126 74ZM295.126 35.1687C287.575 35.1687 282.182 40.9218 282.182 48.8319C282.182 56.3824 287.935 62.4951 295.126 62.4951C302.677 62.4951 308.071 56.7421 308.071 48.8319C308.429 41.2809 302.676 35.1687 295.126 35.1687ZM191.934 74C177.193 74 165.687 63.2139 165.687 48.8313C165.687 34.8084 177.193 23.6626 191.934 23.6626C206.676 23.6626 218.181 34.4493 218.181 48.8313C218.181 63.2133 206.676 74 191.934 74ZM191.934 35.1687C184.384 35.1687 178.99 40.9218 178.99 48.8319C178.99 56.3824 184.743 62.4951 191.934 62.4951C199.485 62.4951 204.878 56.7421 204.878 48.8319C205.238 41.2809 199.485 35.1687 191.934 35.1687ZM323.531 67.5281H321.374V66.4496H327.127V67.5281H324.969V73.2812H323.531V67.5281ZM328.565 66.4502H330.003L332.16 69.6865L334.318 66.4502H335.756V73.6415H334.318V68.6073L332.16 71.8435L330.003 68.6073V73.6415H328.565V66.4502Z" fill="#FF0000"/>
</svg>
