<svg width="413" height="84" viewBox="0 0 413 84" fill="none" xmlns="http://www.w3.org/2000/svg">
<path fill-rule="evenodd" clip-rule="evenodd" d="M91.8207 20.5679C90.9618 21.7202 90.3048 22.6016 90.0308 22.9627C89.4071 23.7492 88.485 24.9966 87.9698 25.7017C87.6096 26.2136 86.9975 27.0303 86.4209 27.7998C86.1727 28.131 85.9311 28.4534 85.7189 28.739C84.9867 29.6881 83.441 31.7492 82.2749 33.322C81.0816 34.8949 76.2816 41.2949 71.6172 47.5593C66.9257 53.8237 60.6884 62.1763 57.7596 66.1356C54.8037 70.0949 52.4715 73.4847 52.5528 73.6746C52.6884 73.9186 55.9427 74 67.5494 74C75.7122 74 82.7088 73.8915 83.0613 73.7831C83.4681 73.6746 84.6613 72.3458 86.1528 70.339C86.7433 69.5595 87.3441 68.7595 87.8678 68.0621L87.8698 68.0595C88.5477 67.1567 89.0963 66.4262 89.3257 66.1356C89.7325 65.6203 92.4172 62.0136 95.2918 58.1356C96.8602 56.0198 98.485 53.8475 99.77 52.1296C100.84 50.6988 101.675 49.5832 102.044 49.078C102.885 47.9932 103.97 46.5288 104.485 45.8237C105 45.1458 109.909 38.6102 115.36 31.2881C119.265 26.0616 123.309 20.6402 125.848 17.238L125.873 17.2036L125.885 17.1878L125.942 17.1108L125.964 17.0821C126.911 15.812 127.637 14.839 128.051 14.2847C129.57 12.2237 130.817 10.4339 130.817 10.2712C130.817 10.1085 125.448 10 115.251 10H99.7122L95.4003 15.7763C94.1243 17.4776 92.8324 19.2106 91.8207 20.5679ZM36.5786 37.6544C35.5316 39.0375 33.8503 41.2585 32.0783 43.6271C31.6607 44.1852 31.2502 44.7338 30.8533 45.264L30.8327 45.2915L30.7886 45.3505L30.7788 45.3636L30.7787 45.3638C28.6068 48.2657 26.8634 50.5951 26.6816 50.8678C26.4647 51.1661 24.024 54.4203 21.285 58.0542C19.1441 60.8458 16.4509 64.4171 14.5256 66.9702L14.5238 66.9726C13.9622 67.7172 13.4661 68.3751 13.0681 68.9017C11.1969 71.4237 9.92233 73.3492 10.0037 73.5932C10.1122 73.9458 12.0647 74 25.1901 74C33.4613 74 40.4579 73.9186 40.702 73.7831C40.9732 73.6746 47.563 65.078 55.3461 54.6644C63.1562 44.278 69.5291 35.7085 69.5291 35.6271C69.5291 35.5458 62.4783 35.4915 53.8545 35.5186H38.2071L37.6376 36.2508C37.5323 36.3944 37.1499 36.8995 36.5788 37.6541L36.5786 37.6544ZM187.739 18.7864C188.716 18.5424 190.288 18.2441 191.265 18.1627C192.241 18.0542 194.248 18 195.739 18.0542C197.231 18.1356 199.373 18.4068 200.485 18.678C201.597 18.9492 203.305 19.5458 204.282 19.9797C205.258 20.4136 206.777 21.2542 207.671 21.878C208.566 22.4746 209.841 23.5051 210.519 24.1559C211.197 24.8068 212.309 26.1898 213.014 27.2475C213.719 28.278 214.641 29.9864 215.048 31.0441C215.482 32.0746 215.997 33.6746 216.187 34.5695C216.298 35.0299 216.417 35.555 216.525 36.0302L216.525 36.0329L216.526 36.0347L216.528 36.0458L216.529 36.048L216.529 36.0498C216.629 36.4903 216.718 36.8863 216.783 37.1458C216.919 37.661 217.027 39.6136 217.027 41.4847C217.027 43.3288 216.838 45.9051 216.594 47.1797C216.377 48.4271 215.888 50.3525 215.536 51.4373C215.156 52.522 214.614 53.8508 214.288 54.4203C213.963 54.9898 213.204 56.1831 212.58 57.078C211.929 57.9729 210.627 59.4102 209.678 60.278C208.729 61.1186 207.21 62.2305 206.316 62.7186C205.421 63.2068 204.146 63.8305 203.468 64.1017C202.79 64.3729 201.814 64.6983 201.299 64.8339C200.783 64.9695 199.319 65.2407 198.044 65.4305C196.417 65.6746 194.79 65.7288 192.485 65.5661C190.099 65.4034 188.58 65.1322 186.79 64.5356C185.461 64.1017 183.509 63.261 182.451 62.6644C181.421 62.0678 179.821 60.9288 178.926 60.1153C178.031 59.3017 176.729 57.7831 176.051 56.7525C175.346 55.7492 174.56 54.4203 174.261 53.8237C173.963 53.2271 173.475 52.0068 173.149 51.1119C172.851 50.2169 172.444 48.6712 172.255 47.722C172.01 46.6102 171.875 44.3593 171.902 41.7559C171.929 39.0169 172.092 36.7932 172.39 35.4373C172.634 34.2712 173.014 32.7525 173.258 32.0475C173.502 31.3424 173.936 30.2847 174.261 29.6881C174.56 29.0915 175.156 28.0339 175.617 27.3831C176.051 26.7051 177.109 25.4305 177.949 24.5627C178.79 23.6949 180.146 22.5288 180.96 21.9593C181.773 21.3898 183.238 20.5492 184.214 20.0881C185.19 19.6271 186.763 19.0305 187.739 18.7864ZM372.688 18.5966C371.007 18.6508 370.004 18.8136 369.814 19.0305C369.651 19.2203 369 21.0102 368.377 23.0441C367.726 25.0508 367.102 26.9492 366.993 27.2475C366.858 27.5458 366.37 28.9288 365.909 30.3661C365.835 30.591 365.715 30.9599 365.555 31.4507L365.551 31.4629L365.54 31.496L365.534 31.5132C364.68 34.1328 362.746 40.0573 360.756 46.0949C360.069 48.1725 359.386 50.2343 358.752 52.1495C357.184 56.8841 355.913 60.7227 355.604 61.6881C355.143 63.0169 354.79 64.3186 354.79 64.5898C354.79 65.0237 355.278 65.078 361.163 65.078C364.661 65.078 367.726 64.9966 367.943 64.9424C368.16 64.861 368.349 64.6441 368.349 64.4542C368.349 64.2644 368.566 63.3966 368.838 62.5017C369.012 61.9798 369.25 61.1997 369.489 60.4196L369.49 60.4156C369.66 59.8592 369.83 59.303 369.977 58.8407C370.302 57.7017 370.736 56.6441 370.899 56.4271C371.143 56.1559 372.77 56.1017 378.655 56.1559L386.085 56.2644C386.6 57.7288 387.034 59.0576 387.36 60.1966C387.685 61.3085 388.146 62.8271 388.39 63.5864L388.851 64.9424C398.912 65.0237 401.949 64.9695 402.058 64.861C402.166 64.7525 401.678 62.8814 400.973 60.739C400.422 58.9765 398.655 53.6166 396.746 47.829C396.305 46.4924 395.857 45.133 395.414 43.7898C394.514 41.0596 393.551 38.136 392.646 35.3863C391.177 30.9255 389.858 26.922 389.204 24.9424C388.146 21.7153 387.088 18.9492 386.844 18.7593C386.492 18.4881 384.973 18.4339 380.824 18.461C379.251 18.4889 377.521 18.5167 376.018 18.5409L376.018 18.5409C374.594 18.5638 373.375 18.5834 372.688 18.5966ZM152.892 53.5254C153.407 52.4949 153.434 51.8441 153.516 35.5729L153.57 18.7051H166.044V35.1119C166.044 48.6983 165.963 51.8441 165.638 53.4712C165.421 54.5559 164.824 56.2373 164.336 57.1864C163.821 58.2441 162.763 59.6814 161.705 60.7661C160.349 62.122 159.4 62.8 157.638 63.6407C156.363 64.2373 154.736 64.8881 153.977 65.0508C153.244 65.2407 151.59 65.4576 150.316 65.5932C148.824 65.7288 147.116 65.6746 145.434 65.4576C144.024 65.2949 142.261 64.9153 141.502 64.6712C140.77 64.4 139.604 63.9119 138.926 63.5593C138.248 63.2339 137.217 62.5288 136.621 62.0136C136.024 61.4983 135.102 60.4407 134.56 59.6271C134.017 58.8136 133.312 57.4305 133.014 56.5356C132.661 55.5593 132.39 54.0678 132.282 50.8407L138.383 50.7593C143.021 50.7051 144.539 50.7864 144.675 51.0305C144.783 51.2203 144.892 51.6814 144.892 52.061C144.892 52.4136 145.163 53.2 145.516 53.7966C145.841 54.3661 146.546 55.0712 147.061 55.3424C147.577 55.6136 148.553 55.8576 149.231 55.8576C150.044 55.8576 150.749 55.6678 151.4 55.2339C151.916 54.9085 152.594 54.122 152.892 53.5254ZM221.394 18.7593C221.394 18.7864 221.665 19.7356 222.044 20.8475C222.397 21.9593 222.858 23.3695 223.102 23.9661C223.319 24.5627 224.756 28.9017 226.275 33.5932C226.783 35.1349 227.434 37.1187 228.151 39.3022L228.169 39.3571L228.182 39.3974C229.641 43.8386 231.364 49.0872 232.702 53.1186C234.709 59.1661 236.471 64.3186 236.607 64.5898C236.824 65.0237 237.529 65.0508 245.312 65.0508L253.8 65.078C254.316 63.9119 255.699 59.7898 257.217 55.1525C257.758 53.5111 258.491 51.2784 259.312 48.7799L259.321 48.7508C260.803 44.238 262.568 38.8639 263.997 34.5424C265.561 29.8306 267.031 25.347 267.87 22.7905L267.87 22.7885L267.879 22.7628L267.884 22.7469L267.885 22.7446C268.23 21.6917 268.466 20.9735 268.553 20.7119C268.851 19.8169 269.095 19.0034 269.122 18.8949C269.122 18.7593 265.949 18.678 262.071 18.678H255.021C254.343 20.8746 254.044 21.9051 253.936 22.339C253.924 22.3784 253.909 22.4294 253.891 22.4911L253.784 22.8595C253.536 23.709 253.066 25.3208 252.58 26.9492C251.956 29.0373 251.332 31.1525 251.197 31.6407C251.061 32.1017 250.817 32.9424 250.682 33.4576C250.566 33.8233 250.423 34.3529 250.302 34.8041L250.301 34.8057L250.243 35.0219C250.215 35.1233 250.19 35.2177 250.166 35.3017C250.031 35.7627 249.407 37.878 248.783 39.9661C248.16 42.0542 247.536 44.1424 247.427 44.5763C247.372 44.7642 247.281 45.0874 247.17 45.4796L247.169 45.4821L247.168 45.4882C247.007 46.0567 246.806 46.7685 246.614 47.4237C246.288 48.5356 245.963 49.7831 245.909 50.2169C245.827 50.6237 245.61 50.9492 245.394 50.9492C245.149 50.9492 244.932 50.7864 244.878 50.6237C244.855 50.5436 244.808 50.3717 244.747 50.1487L244.747 50.1482L244.747 50.1469C244.663 49.8419 244.554 49.4419 244.444 49.0508C244.308 48.5627 244.143 47.9901 244.021 47.5661L244.017 47.5542L244.014 47.543L244.008 47.5202L243.961 47.3594C243.939 47.281 243.919 47.2112 243.902 47.1525C243.766 46.7729 243.414 45.5797 243.116 44.522C242.81 43.5028 242.36 41.909 242.06 40.8428L242.059 40.8398L242.004 40.6441C241.926 40.3771 241.835 40.061 241.736 39.7208C241.453 38.7476 241.113 37.5769 240.892 36.7932C240.566 35.7085 240.078 34.0271 239.807 33.0508C239.509 32.0746 239.156 30.8542 239.021 30.339C238.927 30.0413 238.769 29.4991 238.596 28.9009C238.469 28.4637 238.333 27.9965 238.207 27.5729C237.981 26.7933 237.647 25.6724 237.369 24.7383L237.353 24.6848L237.347 24.6665C237.266 24.3928 237.189 24.1367 237.122 23.9119L236.956 23.3364C236.695 22.4368 236.415 21.4726 236.282 20.9831C236.119 20.3864 235.875 19.6271 235.739 19.3017L235.495 18.678C224.566 18.678 221.394 18.7051 221.394 18.7593ZM278.882 26.0084C280.128 22.2019 281.118 19.1749 281.19 19.0305C281.271 18.7593 283.278 18.678 298.682 18.678L304.268 35.7085C306.204 41.5668 308.235 47.7442 309.737 52.3098L309.777 52.4306L309.791 52.4742L309.799 52.4977C310.666 55.1343 311.349 57.2136 311.726 58.3525C312.756 61.4441 313.597 64.2102 313.597 64.5085C313.597 65.0237 313.407 65.0508 307.143 65.0508C302.207 65.078 300.634 64.9966 300.417 64.7254C300.255 64.5356 299.848 63.4508 299.522 62.339C299.359 61.8251 299.196 61.2881 299.055 60.8216L299.055 60.8212L299.053 60.8168L299.052 60.8129L299.051 60.809L299.05 60.805C298.887 60.2696 298.754 59.8292 298.682 59.6271C298.546 59.2475 298.275 58.3525 298.085 57.6475C297.841 56.7525 297.57 56.3186 297.19 56.2102C296.892 56.1559 293.421 56.1288 282.329 56.2373L281.949 57.322C281.76 57.9186 281.217 59.6814 280.756 61.2542C280.295 62.8271 279.834 64.2915 279.699 64.5085C279.536 64.861 278.451 64.9153 273.027 64.9966C269.448 65.0237 266.438 64.9695 266.329 64.861C266.194 64.7254 266.275 64.1559 266.492 63.5593C266.709 62.9627 268.878 56.4271 271.292 49.0508C273.705 41.6746 276.905 31.9661 278.397 27.4915L278.882 26.0084ZM310.343 18.8136C310.343 18.8949 310.587 19.4102 310.912 19.9797C311.238 20.522 312.16 22.2576 312.973 23.8305C313.526 24.8991 314.216 26.1931 314.764 27.2191L314.766 27.2234L314.773 27.2354C315.027 27.7127 315.251 28.1312 315.414 28.4407C315.705 28.9639 316.057 29.6116 316.385 30.2129C316.669 30.7337 316.934 31.2195 317.122 31.5593C317.207 31.717 317.31 31.9085 317.426 32.1235L317.427 32.1251L317.431 32.1335C317.873 32.9535 318.496 34.1102 318.966 35.0305C319.59 36.1695 320.621 38.0678 321.217 39.2339C321.841 40.3729 322.573 41.7017 322.817 42.1356C322.925 42.3389 323.191 42.8324 323.543 43.4857L323.543 43.4867C323.989 44.3145 324.574 45.3988 325.149 46.4746L327.021 50L327.292 64.9153L339.631 65.0508V55.8305V50.8136C341.149 47.8847 341.909 46.4203 342.316 45.661C342.749 44.9288 343.78 42.9763 344.648 41.322C345.516 39.6949 346.302 38.2305 346.41 38.0678C346.519 37.9322 347.495 36.0881 348.58 34C349.665 31.9119 350.641 30.0949 350.749 29.9322C350.858 29.7966 351.536 28.5763 352.241 27.2203C352.437 26.8509 352.673 26.4039 352.929 25.919C353.593 24.6597 354.393 23.1447 354.98 22.0678C355.766 20.5763 356.417 19.1932 356.39 19.0034C356.363 18.7322 354.871 18.678 349.556 18.7322L342.749 18.8136C339.387 25.5932 337.678 29.0644 336.81 30.9085C335.916 32.7525 334.912 34.922 334.56 35.7085C334.207 36.4949 333.746 37.1186 333.529 37.1186C333.285 37.1186 332.77 36.3593 332.255 35.3017C331.794 34.2712 330.329 31.2068 329 28.4407C328.299 26.9809 327.522 25.37 326.853 23.9827L326.842 23.959L326.838 23.952L326.823 23.9209C326.238 22.7062 325.737 21.6689 325.448 21.0644L324.309 18.678C313.488 18.678 310.343 18.7322 310.343 18.8136ZM190.776 29.6068C191.156 29.5254 191.563 29.3356 191.671 29.2271C191.78 29.0915 192.892 28.9831 194.139 28.9831C195.848 28.9831 196.851 29.1458 198.017 29.5797C198.966 29.9593 199.997 30.6102 200.729 31.3424C201.353 31.9932 202.193 33.2136 202.6 34.0542C202.98 34.922 203.468 36.4136 203.685 37.3898C203.875 38.3661 204.038 40.3458 204.038 41.7831C204.038 43.2475 203.902 45.0915 203.739 45.8508C203.576 46.6373 203.197 47.9661 202.899 48.7797C202.573 49.5932 201.895 50.8136 201.407 51.4915C200.892 52.1695 200.051 52.9831 199.536 53.3085C199.021 53.661 197.854 54.122 196.932 54.3661C195.685 54.6915 194.709 54.7458 193.326 54.6102C192.268 54.5017 190.939 54.1763 190.343 53.9051C189.746 53.6339 188.851 52.9831 188.336 52.4949C187.821 52.0339 187.115 51.1661 186.763 50.5966C186.41 50.0542 185.868 48.7797 185.543 47.7492C185.027 46.1763 184.946 45.3627 184.946 41.7288C184.973 37.878 185.027 37.3627 185.705 35.4915C186.085 34.3797 186.736 32.9695 187.17 32.4C187.576 31.8034 188.39 30.9898 188.987 30.5559C189.583 30.122 190.397 29.6881 190.776 29.6068ZM288.376 36.0339C288.713 34.9489 289.063 33.8511 289.292 33.1319C289.395 32.8085 289.473 32.5617 289.515 32.4271C289.651 32.0203 289.895 31.6949 290.031 31.6949C290.166 31.6949 290.519 32.5898 290.844 33.6475C291.17 34.7322 291.522 35.9254 291.631 36.3051C291.766 36.6847 292.146 37.9051 292.471 39.0169C292.797 40.1288 293.421 42.1627 293.854 43.4915C294.261 44.8203 294.614 46.1492 294.614 46.3932C294.614 46.8271 294.207 46.8814 285.393 46.8814V46.2034C285.393 45.8237 285.502 45.2542 285.638 44.9017C285.773 44.5763 286.153 43.383 286.478 42.2712C286.664 41.6379 286.867 40.9693 287.027 40.441L287.029 40.4331L287.029 40.4328C287.149 40.0375 287.245 39.7216 287.292 39.5593C287.427 39.1797 287.915 37.6068 288.376 36.0339ZM377.949 32.5627C377.76 33.0508 377.244 34.7864 376.783 36.4407C376.322 38.0949 375.699 40.1017 375.427 40.9153C375.156 41.7288 374.668 43.3017 374.37 44.3593C374.044 45.4441 373.854 46.4475 373.936 46.6102C374.017 46.7729 375.78 46.8814 378.41 46.8814C382.288 46.8814 382.776 46.8271 382.912 46.3932C383.021 46.1492 382.939 45.4441 382.749 44.8475C382.56 44.2508 382.315 43.4644 382.207 43.0847C382.099 42.7051 381.882 41.9729 381.719 41.4576C381.556 40.9424 381.041 39.2339 380.58 37.661C380.52 37.4675 380.458 37.2683 380.396 37.0662C380.331 36.8587 380.266 36.6481 380.201 36.4375L380.2 36.4317L380.198 36.4281C379.813 35.1792 379.427 33.9313 379.224 33.322C378.98 32.5085 378.654 31.8034 378.519 31.7492C378.356 31.722 378.112 32.0746 377.949 32.5627Z" fill="#070707"/>
</svg>
