<svg width="375" height="84" viewBox="0 0 375 84" fill="none" xmlns="http://www.w3.org/2000/svg">
<path d="M108.334 36.8332C107.825 38.2656 107.331 39.698 106.809 41.1242C104.978 46.1173 103.151 51.1105 101.284 56.0881C101.141 56.4671 100.753 56.8679 100.377 57.0326C92.3542 60.5561 84.3192 64.0454 76.2842 67.5409C71.6391 69.5605 66.9939 71.5864 62.3394 73.5811C61.833 73.7986 61.252 73.8856 60.6989 73.9416C58.1728 74.1932 55.8487 73.6122 53.509 72.5775C41.6709 67.3327 29.7799 62.206 17.9169 57.0202C17.5938 56.8804 17.2272 56.5759 17.1122 56.2652C14.7725 49.9484 12.4639 43.6192 10.1554 37.29C10.0963 37.1284 10.0808 36.9513 10 36.5878C10.668 36.8426 11.2118 37.029 11.7369 37.2527C19.486 40.5587 27.2352 43.8678 34.9813 47.1799C42.777 50.5139 50.5635 53.8602 58.3717 57.1662C58.816 57.3527 59.4685 57.3806 59.9066 57.1942C67.5749 53.9628 75.2278 50.691 82.8806 47.4161C91.0306 43.9299 99.1775 40.4313 107.327 36.9451C107.601 36.827 107.887 36.7493 108.169 36.653L108.337 36.8332H108.334Z" fill="black"/>
<path d="M297.536 47.1456V46.2384C297.536 39.6233 297.536 33.0082 297.536 26.3932C297.536 25.7283 297.879 25.3948 298.567 25.3927C300.198 25.3927 301.827 25.3927 303.458 25.3927C304.539 25.3927 304.542 25.3927 304.542 26.4491C304.542 33.0114 304.542 39.5767 304.542 46.1389C304.542 50.1689 304.524 54.2019 304.558 58.2319C304.564 58.99 304.381 59.2852 303.567 59.2572C301.836 59.1982 300.099 59.2137 298.365 59.2541C297.741 59.2696 297.386 59.0521 297.063 58.5239C292.993 51.8188 288.901 45.1291 284.812 38.4364C284.607 38.1039 284.374 37.7901 284.153 37.467C284.082 37.4918 284.01 37.5167 283.942 37.5415V38.4364C283.942 45.0266 283.942 51.6137 283.942 58.2039C283.942 58.8937 283.608 59.2386 282.941 59.2386C281.208 59.2386 279.474 59.223 277.74 59.2479C277.181 59.2572 276.966 59.0925 276.966 58.5053C276.979 47.7049 276.979 36.9046 276.966 26.1011C276.966 25.5636 277.15 25.3772 277.687 25.3834C279.576 25.4051 281.466 25.4207 283.355 25.3772C284.035 25.3616 284.231 25.8122 284.495 26.244C288.637 33.0269 292.776 39.8097 296.917 46.5895C297.048 46.8039 297.197 47.0089 297.337 47.2171C297.405 47.1923 297.47 47.1705 297.539 47.1456H297.536Z" fill="black"/>
<path d="M227.247 40.2697C227.697 39.6576 228.138 39.0362 228.605 38.4334C231.827 34.2326 235.052 30.0317 238.293 25.8465C238.46 25.6321 238.79 25.4208 239.044 25.4177C241.605 25.3897 244.168 25.4052 246.731 25.4115C246.806 25.4115 246.878 25.4518 247.076 25.514C246.899 25.7874 246.759 26.0391 246.582 26.2628C243.003 30.7433 239.427 35.2268 235.822 39.6856C235.369 40.2448 235.356 40.6426 235.751 41.2422C239.517 46.9189 243.255 52.6112 246.999 58.3003C247.163 58.5489 247.319 58.8068 247.555 59.1765C247.17 59.2076 246.924 59.2418 246.682 59.2418C244.457 59.2449 242.229 59.2262 240.005 59.2573C239.436 59.2666 239.125 59.0491 238.83 58.5862C236.27 54.5593 233.685 50.5449 231.103 46.5305C230.954 46.2975 230.783 46.0831 230.546 45.7569C229.866 46.4808 229.316 47.211 228.629 47.7703C227.259 48.8857 226.855 50.2498 226.97 51.9804C227.113 54.115 226.983 56.2683 227.017 58.4122C227.026 59.0522 226.818 59.2697 226.175 59.2573C224.363 59.2231 222.552 59.2325 220.74 59.2542C220.178 59.2604 219.905 59.1392 219.908 58.4867C219.926 47.7113 219.923 36.9358 219.911 26.1634C219.911 25.5917 220.094 25.3866 220.669 25.3959C222.505 25.4208 224.345 25.427 226.181 25.3959C226.833 25.3835 227.02 25.6227 227.017 26.2535C226.995 30.5941 227.004 34.9348 227.004 39.2754V40.1889C227.085 40.22 227.166 40.2511 227.247 40.2821V40.2697Z" fill="black"/>
<path d="M191.03 59.1951C190.62 59.2138 190.344 59.2386 190.067 59.2386C188.203 59.2417 186.338 59.1951 184.477 59.2635C183.707 59.2914 183.452 58.9528 183.247 58.3158C182.663 56.5013 182.013 54.7084 181.435 52.8939C181.286 52.4247 181.035 52.2911 180.596 52.2911C176.949 52.2942 173.298 52.3066 169.65 52.2818C169.054 52.2787 168.898 52.6329 168.758 53.0523C168.196 54.7364 167.634 56.4236 167.09 58.117C166.729 59.2386 166.748 59.2417 165.552 59.2417C163.793 59.2417 162.031 59.2417 160.273 59.2417C159.993 59.2417 159.714 59.2417 159.263 59.2417C159.558 58.4059 159.801 57.6944 160.065 56.9891C162.724 49.8427 165.387 42.6994 168.047 35.5562C169.206 32.4428 170.38 29.3326 171.517 26.2099C171.747 25.5761 172.083 25.3555 172.763 25.3803C174.392 25.4332 176.023 25.4083 177.654 25.3897C178.164 25.3834 178.431 25.5512 178.62 26.0577C181.575 33.9715 184.555 41.8791 187.525 49.7868C188.681 52.869 189.822 55.9575 191.027 59.1951H191.03ZM179.304 46.4932C177.921 42.3887 176.579 38.4054 175.237 34.4252C175.143 34.4376 175.053 34.4469 174.96 34.4593C173.64 38.4333 172.322 42.4074 170.964 46.4932H179.304Z" fill="black"/>
<path d="M250.143 42.2955C250.143 36.9979 250.156 31.7003 250.128 26.4026C250.125 25.6414 250.314 25.3711 251.122 25.3742C258.057 25.4021 264.995 25.399 271.93 25.3804C272.617 25.3804 272.912 25.542 272.881 26.2877C272.828 27.5771 272.838 28.8728 272.881 30.1622C272.903 30.8396 272.67 31.0571 271.989 31.054C267.382 31.0291 262.777 31.0602 258.169 31.0229C257.395 31.0167 257.14 31.2062 257.162 32.0079C257.218 34.099 257.203 36.1932 257.168 38.2874C257.159 38.8995 257.339 39.0859 257.958 39.0797C261.866 39.0548 265.775 39.0797 269.681 39.0548C270.349 39.0486 270.604 39.2226 270.576 39.9217C270.526 41.1863 270.526 42.454 270.576 43.7186C270.604 44.4488 270.327 44.6321 269.628 44.6259C265.772 44.5979 261.916 44.6259 258.06 44.5979C257.405 44.5948 257.153 44.744 257.165 45.4555C257.209 47.8853 257.212 50.315 257.165 52.7417C257.15 53.4936 257.426 53.6303 258.104 53.6272C262.659 53.6024 267.214 53.6148 271.769 53.6148C272.548 53.6148 272.938 54.0156 272.94 54.8172C272.94 55.9544 272.94 57.0917 272.94 58.2289C272.94 58.9 272.59 59.2366 271.89 59.2387C265.005 59.2387 258.122 59.2387 251.237 59.2387C250.512 59.2387 250.148 58.8627 250.146 58.1108C250.146 52.838 250.146 47.5683 250.146 42.2955H250.143Z" fill="black"/>
<path d="M341.769 42.3357C341.769 37.0381 341.769 31.7404 341.769 26.4428C341.769 25.3988 341.772 25.3957 342.788 25.3957C349.673 25.3957 356.555 25.3957 363.441 25.3957C364.139 25.3957 364.49 25.7333 364.494 26.4086C364.494 27.6484 364.46 28.8912 364.507 30.1278C364.534 30.8456 364.286 31.06 363.574 31.0569C358.966 31.0289 354.362 31.0569 349.754 31.0289C349.014 31.0227 348.769 31.2122 348.788 31.9735C348.837 34.0646 348.828 36.1588 348.791 38.253C348.778 38.8961 348.974 39.0888 349.62 39.0857C353.501 39.0577 357.385 39.0857 361.266 39.0577C361.968 39.0515 362.229 39.2348 362.198 39.965C362.145 41.2016 362.142 42.4476 362.198 43.6842C362.232 44.4548 361.934 44.635 361.21 44.6319C357.379 44.6008 353.548 44.6319 349.72 44.6039C349.036 44.5977 348.769 44.75 348.784 45.4988C348.834 47.8757 348.831 50.2527 348.784 52.6296C348.769 53.3878 348.94 53.6456 349.76 53.6363C354.29 53.5928 358.817 53.6146 363.348 53.6146C364.153 53.6146 364.556 54.0289 364.556 54.8574C364.556 55.9698 364.556 57.079 364.556 58.1914C364.556 58.8874 364.194 59.2364 363.469 59.2385C356.611 59.2385 349.751 59.2385 342.893 59.2385C342.144 59.2385 341.768 58.849 341.766 58.0702C341.766 52.8254 341.766 47.5774 341.766 42.3326L341.769 42.3357Z" fill="black"/>
<path d="M56.7964 52.6702C55.5442 52.1358 54.2858 51.6107 53.0368 51.0669C42.8703 46.6517 32.7038 42.2334 22.5373 37.8151C21.4715 37.3521 20.3965 36.9047 19.3649 36.3734C18.992 36.1807 18.5943 35.8141 18.4545 35.435C16.7611 30.9173 15.1113 26.3809 13.4552 21.8476C13.4054 21.714 13.4179 21.5617 13.3837 21.2821C13.7317 21.3877 13.9958 21.4406 14.2413 21.5462C24.414 25.8868 34.5836 30.2337 44.7532 34.5775C46.1545 35.1771 47.5745 35.7364 48.9509 36.3889C49.3548 36.5816 49.7681 36.9637 49.9545 37.3614C52.2289 42.1682 54.4598 46.9904 56.7001 51.8127C56.8057 52.0364 56.8741 52.2787 56.958 52.5118C56.9051 52.5615 56.8523 52.6143 56.7995 52.664L56.7964 52.6702Z" fill="black"/>
<path d="M105.013 21.4499C104.674 22.41 104.342 23.3701 103.994 24.3271C102.664 27.9904 101.34 31.6568 99.9698 35.3076C99.8175 35.7147 99.4385 36.1621 99.0532 36.333C91.0586 39.8502 83.0484 43.3302 75.0445 46.8195C70.8747 48.6341 66.7081 50.4517 62.5383 52.2663C62.2152 52.4061 61.8827 52.5335 61.3576 52.7448C61.5005 52.3129 61.5627 52.055 61.6714 51.8189C63.893 47.0153 66.1301 42.221 68.3331 37.4112C68.6096 36.8084 69.0571 36.5132 69.6163 36.274C73.494 34.6272 77.3655 32.9742 81.2401 31.3181C88.8432 28.068 96.4432 24.818 104.046 21.5711C104.298 21.4623 104.562 21.3815 104.823 21.2883C104.888 21.3411 104.951 21.394 105.016 21.4499H105.013Z" fill="black"/>
<path d="M316.871 42.3887C316.756 44.6879 316.797 46.9717 317.409 49.2243C318.223 52.2103 320.314 53.9223 323.406 53.944C324.102 53.9503 324.816 53.9627 325.49 53.8167C328.445 53.1797 329.794 51.6727 330.154 48.6433C330.219 48.1027 330.468 47.938 330.956 47.9411C332.82 47.9473 334.681 47.9504 336.546 47.9411C337.127 47.938 337.307 48.1493 337.226 48.7427C336.549 53.6085 334.051 57.076 329.374 58.7818C326.37 59.8755 323.247 60.0185 320.131 59.3132C314.56 58.0486 311.564 54.2517 310.272 48.9447C309.299 44.952 309.315 40.8755 310.029 36.8642C310.862 32.1849 313.09 28.3383 317.605 26.2006C319.95 25.0882 322.449 24.793 325.015 24.967C327.914 25.1628 330.599 25.9489 332.888 27.8256C335.122 29.6557 336.39 32.0451 337.002 34.8228C337.024 34.9223 337.027 35.0279 337.046 35.1304C337.267 36.3153 336.787 36.9077 335.604 36.9077C334.156 36.9077 332.705 36.8673 331.257 36.9232C330.477 36.9543 330.238 36.6498 330.154 35.9165C329.949 34.1082 329.337 32.4366 327.616 31.551C324.359 29.8794 318.745 30.0689 317.4 35.7146C317.204 36.5411 316.946 37.3707 316.896 38.2127C316.812 39.6016 316.874 40.9998 316.874 42.3949L316.871 42.3887Z" fill="black"/>
<path d="M158.912 25.5513C158.377 27.1017 157.865 28.6087 157.343 30.1094C155.727 34.7546 154.108 39.3997 152.489 44.0448C150.812 48.8609 149.131 53.6738 147.459 58.493C147.279 59.0118 147.03 59.2697 146.412 59.2542C144.473 59.2076 142.531 59.2231 140.592 59.248C140.083 59.2542 139.812 59.1206 139.635 58.6017C138.346 54.8235 137.022 51.0576 135.711 47.2856C134.002 42.3732 132.293 37.4578 130.584 32.5454C129.829 30.3797 129.071 28.2172 128.322 26.0515C128.266 25.8899 128.282 25.7066 128.26 25.4891C128.468 25.4518 128.642 25.399 128.813 25.399C130.96 25.3928 133.107 25.399 135.254 25.3897C135.695 25.3897 135.938 25.5109 136.081 25.9894C138.209 33.1233 140.365 40.2479 142.512 47.3757C142.749 48.1649 142.966 48.9603 143.208 49.7495C143.261 49.9204 143.379 50.0758 143.581 50.4486C144.007 49.0753 144.364 47.9319 144.712 46.7853C145.818 43.1376 146.918 39.4867 148.018 35.8358C148.994 32.6044 149.951 29.3699 150.958 26.1478C151.051 25.8527 151.411 25.4332 151.657 25.427C153.959 25.3773 156.261 25.4052 158.564 25.4146C158.635 25.4146 158.707 25.4674 158.918 25.5482L158.912 25.5513Z" fill="black"/>
<path d="M194.1 42.3358C194.1 36.9915 194.112 31.6442 194.084 26.2999C194.081 25.5977 194.261 25.3585 194.991 25.3802C196.697 25.4299 198.406 25.3958 200.112 25.3958C201.119 25.3958 201.122 25.3989 201.122 26.4491C201.122 34.6084 201.122 42.7708 201.122 50.9301C201.122 51.5484 201.153 52.1729 201.112 52.7881C201.072 53.4313 201.327 53.6302 201.964 53.6271C206.283 53.6053 210.602 53.6333 214.92 53.5991C215.697 53.5929 215.968 53.7886 215.927 54.5872C215.862 55.9015 215.89 57.222 215.918 58.5363C215.93 59.08 215.735 59.2478 215.197 59.2447C208.396 59.2323 201.591 59.2292 194.789 59.2478C194.149 59.2478 194.087 58.962 194.09 58.4462C194.103 53.074 194.097 47.7018 194.097 42.3327L194.1 42.3358Z" fill="black"/>
<path d="M47.0863 31.464C46.1945 31.0818 45.3028 30.7027 44.4141 30.3175C37.0689 27.1296 29.7268 23.9323 22.3691 20.7662C21.4774 20.3809 20.9212 19.8589 20.6012 18.9081C19.6535 16.0962 18.6002 13.3215 17.5935 10.5313C17.55 10.4132 17.5313 10.289 17.4568 10C17.8607 10.1274 18.1652 10.1989 18.451 10.32C26.1474 13.6074 33.8468 16.8947 41.5276 20.2131C41.9782 20.4089 42.4567 20.819 42.6679 21.254C44.1407 24.2959 45.5482 27.3688 46.9713 30.4355C47.0956 30.7059 47.1764 30.9948 47.2789 31.2745C47.2168 31.3366 47.1546 31.3987 47.0894 31.464H47.0863Z" fill="black"/>
<path d="M100.864 10.2548C100.454 11.3858 100.05 12.5168 99.6369 13.6447C98.9346 15.5587 98.2169 17.4664 97.5364 19.3866C97.3407 19.9397 97.03 20.2846 96.48 20.5239C89.1255 23.6993 81.7802 26.8966 74.435 30.0876C73.6054 30.448 72.7851 30.824 71.9555 31.1813C71.7038 31.29 71.4397 31.3615 70.9954 31.5137C71.1352 31.0881 71.1943 30.824 71.303 30.5847C72.7385 27.4931 74.1585 24.3984 75.6406 21.3317C75.855 20.8905 76.2993 20.4431 76.7436 20.2504C84.4741 16.9103 92.2233 13.6074 99.9693 10.3014C100.196 10.2051 100.445 10.1585 100.684 10.0901L100.864 10.2579V10.2548Z" fill="black"/>
</svg>
