<svg width="276" height="112" viewBox="0 0 276 112" fill="none" xmlns="http://www.w3.org/2000/svg">
<path d="M10.093 10.0049C10.0631 10.0331 10.0331 10.0631 10.0049 10.093C9.98728 10.0172 10.0172 9.98728 10.093 10.0049Z" fill="#436CB4"/>
<path d="M265.91 10.0931C265.88 10.0631 265.852 10.0349 265.822 10.0049C265.897 9.98732 265.927 10.0173 265.91 10.0931Z" fill="#436CB4"/>
<path d="M265.822 101.995C265.852 101.965 265.88 101.937 265.91 101.907C265.927 101.983 265.897 102.013 265.822 101.995Z" fill="#436CB4"/>
<path d="M12.2081 54.0648C16.3272 72.3018 31.8163 83.4163 47.8007 83.9362C56.9394 84.2341 65.1916 81.622 72.4109 76.0066C79.6003 70.4141 84.1459 63.0943 86.1922 54.2129C86.7809 55.0219 87.2021 61.4481 86.8567 64.8868C86.4936 68.4947 85.6899 71.9792 84.3662 75.3439C83.0408 78.7191 81.2448 81.8353 78.9993 84.68C66.9101 99.9999 45.906 103.407 30.0009 93.9192C12.9995 83.7794 9.56259 65.5178 12.2081 54.0648Z" fill="#436CB4"/>
<path d="M57.3863 64.0707C50.0876 63.965 43.8659 61.337 38.811 56.06C36.2007 53.3351 34.3306 50.152 33.1462 46.5547C32.1398 43.4967 31.6921 40.3647 31.8825 37.1674C32.0834 33.7957 32.8871 30.5527 34.3888 27.5017C36.992 22.2124 40.9366 18.259 46.2171 15.6504C49.1412 14.2069 52.245 13.4015 55.5039 13.1547C57.8798 12.9749 60.2222 13.1582 62.5523 13.6042C62.6492 13.6218 62.7779 13.5918 62.8255 13.7046C62.8836 13.8439 62.7461 13.9108 62.6739 13.9937C60.0953 16.8948 58.0155 20.129 56.3252 23.6118C55.206 25.9172 54.2895 28.3001 53.6585 30.7941C53.2567 32.3839 52.9465 33.9825 52.7314 35.6094C52.4089 38.0522 52.4142 40.4969 52.6504 42.9362C52.8601 45.1217 53.3219 47.2668 53.9828 49.3659C55.5533 54.3504 58.1424 58.7708 61.4137 62.8176C61.5423 62.978 61.6569 63.1507 61.8014 63.2952C62.0746 63.5684 61.9794 63.6671 61.6446 63.72C60.2363 63.9403 58.821 64.0778 57.3898 64.0707H57.3863Z" fill="#436CB4"/>
<path d="M137.408 63.0309C137.572 62.3523 137.739 61.6738 137.896 60.9934C138.587 57.9953 139.276 54.9973 139.963 51.9975C140.73 48.6592 141.493 45.3192 142.26 41.9792C142.657 40.2519 143.06 38.5282 143.453 36.8009C143.513 36.5383 143.642 36.4413 143.91 36.4431C146.171 36.4502 148.431 36.4502 150.692 36.4431C150.986 36.4431 151.073 36.496 150.981 36.8203C149.834 40.8776 148.7 44.9403 147.565 49.0012C146.277 53.6137 144.992 58.228 143.705 62.8405C142.954 65.5337 142.197 68.2251 141.451 70.9182C141.384 71.1632 141.254 71.2425 141.012 71.2425C138.502 71.2373 135.991 71.2373 133.481 71.2425C133.227 71.2425 133.105 71.1685 133.031 70.8918C131.606 65.4509 130.164 60.0152 128.727 54.5778C128.065 52.0715 127.404 49.5652 126.743 47.0588C126.718 46.9619 126.732 46.8174 126.611 46.8068C126.438 46.7909 126.475 46.969 126.447 47.0659C125.715 49.6885 124.987 52.313 124.261 54.9374C123.406 58.0288 122.555 61.1221 121.704 64.2153C121.104 66.3903 120.5 68.5617 119.916 70.7402C119.818 71.1086 119.677 71.2531 119.27 71.2514C116.862 71.2408 114.454 71.2549 112.047 71.2778C111.694 71.2813 111.551 71.1861 111.454 70.8213C110.314 66.5348 109.147 62.2554 107.991 57.9724C106.759 53.4057 105.529 48.8372 104.3 44.2688C103.646 41.8365 102.994 39.4042 102.34 36.9719C102.206 36.4748 102.224 36.4466 102.733 36.4466C104.907 36.4466 107.078 36.4519 109.251 36.4413C109.565 36.4413 109.724 36.5171 109.798 36.8503C110.341 39.2949 110.905 41.7342 111.458 44.1753C112.304 47.9031 113.147 51.6326 113.991 55.3604C114.56 57.8737 115.133 60.3889 115.706 62.9022C115.725 62.9904 115.683 63.1455 115.836 63.1314C115.958 63.1208 115.945 62.9798 115.97 62.8811C116.416 61.1661 116.862 59.4512 117.311 57.738C118.187 54.3963 119.067 51.0545 119.945 47.7127C120.889 44.1137 121.841 40.5181 122.77 36.9155C122.867 36.5383 123.029 36.4378 123.401 36.4396C125.662 36.4554 127.922 36.4572 130.183 36.4396C130.569 36.4361 130.715 36.563 130.805 36.9278C131.925 41.4628 133.063 45.9943 134.189 50.5275C135.178 54.5073 136.158 58.4889 137.143 62.4687C137.189 62.652 137.251 62.8317 137.306 63.0133C137.339 63.0203 137.373 63.0274 137.406 63.0327L137.408 63.0309Z" fill="#436CB4"/>
<path d="M74.0467 65.551C73.6536 66.3794 73.0456 67.0597 72.4763 67.7577C69.4606 71.4537 65.798 74.3267 61.4569 76.3148C58.5435 77.649 55.4925 78.4915 52.3041 78.8722C47.9506 79.3904 43.6941 78.9833 39.5187 77.6896C35.6764 76.4981 32.213 74.5999 29.1215 72.0248C25.5136 69.0197 22.7323 65.38 20.7865 61.1112C19.8435 59.042 19.165 56.8846 18.7049 54.6533C18.2343 52.3743 18.0369 50.076 18.0898 47.753C18.1691 44.2226 18.8424 40.8015 20.1203 37.5127C22.3816 31.6963 26.1076 27.015 31.1942 23.4089C31.3088 23.3278 31.4146 23.2203 31.6419 23.2344C31.3159 23.8002 31.0074 24.336 30.699 24.87C29.8406 26.3576 29.1656 27.928 28.5751 29.539C27.8119 31.624 27.3184 33.7743 27.04 35.9687C26.7456 38.3005 26.7368 40.6429 26.9783 42.9888C27.1334 44.5081 27.3854 46.0081 27.7802 47.478C29.7543 54.8454 33.8856 60.7076 40.1585 65.054C43.9338 67.6696 48.1146 69.3228 52.646 70.0049C59.4917 71.036 65.9937 69.9362 72.1044 66.635C72.7565 66.2825 73.354 65.8313 74.0485 65.5545L74.0467 65.551Z" fill="#436CB4"/>
<path d="M171.55 67.2892C171.043 67.8285 170.655 68.3361 170.183 68.7662C168.17 70.6045 165.789 71.5122 163.081 71.6462C159.324 71.8312 156.141 70.5798 153.569 67.8391C151.743 65.895 150.673 63.5491 150.162 60.9564C149.614 58.1857 149.651 55.4115 150.414 52.6813C151.484 48.8602 153.682 45.9273 157.357 44.2476C159.331 43.3452 161.416 43.0614 163.582 43.2465C166.092 43.4615 168.299 44.3516 170.183 46.0295C170.65 46.4455 171.027 46.9478 171.55 47.4854C171.55 47.0765 171.55 46.7769 171.55 46.4772C171.55 45.6559 171.561 44.8345 171.545 44.0132C171.54 43.7259 171.631 43.6325 171.921 43.6343C174.006 43.6448 176.089 43.6466 178.174 43.6343C178.518 43.6325 178.595 43.7664 178.59 44.0767C178.576 45.1324 178.585 46.1882 178.585 47.2457C178.585 55.0202 178.585 62.7947 178.585 70.5693C178.585 71.3148 178.655 71.2426 177.888 71.2426C175.921 71.2443 173.954 71.2355 171.988 71.2496C171.646 71.2514 171.535 71.1615 171.542 70.8072C171.565 69.6704 171.55 68.5318 171.55 67.2892ZM156.944 57.7063C156.925 58.6158 157.136 59.8531 157.642 61.0252C158.79 63.6848 160.794 65.294 163.7 65.5143C166.511 65.7276 168.803 64.6172 170.283 62.1831C171.827 59.6469 171.928 56.8991 170.993 54.1337C169.268 49.0294 162.63 47.6352 158.971 51.5956C157.482 53.2083 156.948 55.1877 156.944 57.7081V57.7063Z" fill="#436CB4"/>
<path d="M249.283 62.719C249.457 62.6396 249.47 62.4828 249.519 62.3506C251.791 56.2892 254.065 50.2279 256.326 44.163C256.469 43.7806 256.649 43.6255 257.08 43.6307C259.209 43.6554 261.337 43.6413 263.466 43.6431C263.956 43.6431 263.97 43.6625 263.789 44.0961C261.617 49.2532 259.444 54.4086 257.272 59.5658C254.891 65.2218 252.515 70.8795 250.136 76.5372C249.096 79.0083 248.049 81.4741 247.02 83.9504C246.909 84.2183 246.762 84.2959 246.495 84.2941C244.293 84.2871 242.09 84.2853 239.889 84.2941C239.541 84.2941 239.45 84.2395 239.608 83.8764C241.484 79.5952 243.34 75.307 245.213 71.0275C245.367 70.6786 245.367 70.3877 245.22 70.0352C241.891 61.9664 238.57 53.894 235.25 45.8216C234.994 45.1976 234.744 44.5719 234.476 43.9533C234.377 43.7224 234.416 43.6396 234.675 43.6396C237.083 43.6431 239.49 43.6466 241.898 43.636C242.201 43.636 242.263 43.8229 242.339 44.0291C243.005 45.8286 243.667 47.6282 244.332 49.4277C245.923 53.7406 247.517 58.0535 249.11 62.3665C249.154 62.4881 249.221 62.6009 249.278 62.7207L249.283 62.719Z" fill="#436CB4"/>
<path d="M207.471 71.2422C206.193 71.2422 204.917 71.2316 203.639 71.2492C203.332 71.2528 203.2 71.1364 203.101 70.865C200.981 65.091 198.854 59.3204 196.726 53.5499C195.572 50.4161 194.414 47.2841 193.259 44.1521C193.073 43.6445 193.076 43.6427 193.603 43.6409C195.776 43.6409 197.948 43.6498 200.121 43.6321C200.461 43.6286 200.613 43.7432 200.715 44.0534C202.869 50.6206 205.028 57.186 207.198 63.7497C207.287 64.0246 207.289 64.4776 207.559 64.5076C207.739 64.5269 207.786 64.0282 207.876 63.7567C210.046 57.1948 212.214 50.6311 214.369 44.064C214.477 43.7379 214.621 43.6321 214.956 43.6339C217.114 43.648 219.273 43.6409 221.43 43.6409C221.941 43.6409 221.945 43.6445 221.768 44.1204C219.69 49.7375 217.611 55.3565 215.533 60.9737C214.313 64.2696 213.091 67.5638 211.881 70.8633C211.771 71.1594 211.611 71.2528 211.301 71.2492C210.023 71.2316 208.747 71.2422 207.469 71.2422H207.471Z" fill="#436CB4"/>
<path d="M231.788 52.817C231.788 58.7743 231.782 64.7299 231.798 70.6873C231.798 71.1279 231.696 71.2601 231.241 71.2531C229.244 71.2266 227.247 71.2337 225.252 71.2495C224.891 71.2531 224.78 71.1526 224.78 70.7825C224.789 58.8113 224.79 46.8385 224.778 34.8674C224.778 34.4355 224.926 34.3633 225.308 34.365C227.29 34.3809 229.272 34.3844 231.253 34.3633C231.678 34.358 231.798 34.4814 231.798 34.9044C231.786 40.8758 231.789 46.8473 231.789 52.8187L231.788 52.817Z" fill="#436CB4"/>
<path d="M190.246 57.4063C190.246 61.8497 190.241 66.293 190.255 70.7346C190.255 71.1435 190.141 71.2545 189.737 71.251C187.742 71.2316 185.747 71.2334 183.75 71.251C183.366 71.2545 183.256 71.147 183.258 70.7575C183.269 61.8708 183.269 52.9859 183.258 44.0992C183.258 43.7308 183.364 43.6304 183.727 43.6321C185.736 43.648 187.747 43.6498 189.758 43.6321C190.142 43.6286 190.255 43.7291 190.254 44.1221C190.239 48.5496 190.245 52.9788 190.245 57.4063H190.246Z" fill="#436CB4"/>
<path d="M186.792 32.1885C189.025 32.1832 190.657 33.5263 191.062 35.703C191.334 37.1589 190.608 38.7593 189.28 39.6352C187.246 40.9783 184.294 40.3949 183.117 38.3909C182.32 37.0355 182.306 35.6308 183.052 34.2472C183.751 32.9517 185.167 32.1903 186.79 32.185L186.792 32.1885Z" fill="#436CB4"/>
<path d="M74.049 65.5512C74.0578 65.5283 74.0683 65.5071 74.0771 65.4842C74.1494 65.5424 74.0877 65.5406 74.0472 65.5494L74.049 65.5512Z" fill="#436CB4"/>
</svg>
