<svg width="322" height="92" viewBox="0 0 322 92" fill="none" xmlns="http://www.w3.org/2000/svg">
<g clip-path="url(#clip0_14810_8654)">
<path d="M10 30.0356C10.243 29.2525 10.27 28.429 10.4185 27.6279C12.0926 18.8164 19.4101 11.6879 28.3206 10.3063C35.6651 9.16778 42.078 11.2064 47.3973 16.3637C51.0786 19.9325 53.1712 24.3562 53.7517 29.4685C53.8237 30.0941 53.8687 30.7151 53.8147 31.3722C52.8517 28.519 51.0471 26.4579 48.1624 25.5038C45.2597 24.5407 42.546 25.0268 40.1249 26.8899C36.2051 29.9096 35.6921 35.6744 39.0133 39.3602C40.9574 41.5203 43.4191 42.4879 46.3128 42.1953C49.1749 41.9073 51.3351 40.4177 52.9417 38.0461C52.3206 40.4852 51.2181 42.6859 49.7645 44.711C48.3064 46.7406 46.5333 48.4552 44.4497 49.9313C46.0023 50.4354 47.4603 50.9799 48.8419 51.7224C50.228 52.4695 51.5151 53.3425 52.5457 54.5531C54.6653 57.0508 54.1388 59.9445 51.9786 61.8526C51.7446 58.8464 49.634 57.2308 47.3613 55.7142C47.4333 56.0382 47.5188 56.3577 47.5818 56.6817C47.8789 58.2613 47.6269 59.7599 46.8708 61.164C45.4397 63.8192 43.1221 65.4978 40.5074 66.9514C42.0825 62.1226 41.0204 58.1848 36.6687 55.4847C33.505 53.5225 29.5177 53.8556 26.6375 56.2632C23.1948 59.1389 22.4928 62.7931 24.0319 67.0324C21.1787 65.4393 18.6315 63.6347 17.2635 60.6015C16.6064 59.1434 16.5299 57.6178 16.9574 56.0742C16.9889 55.9572 17.0699 55.8447 16.9979 55.7187C14.5408 56.7222 12.4842 59.7374 12.4887 62.4016C11.4401 61.5285 10.639 60.5565 10.2205 59.3009C10.153 59.1029 10.18 58.8689 10.0045 58.7114V57.3118C10.324 55.9032 11.0576 54.7331 12.1151 53.7656C13.1952 52.7755 14.4373 52.0195 15.7514 51.3759C16.9214 50.8044 18.141 50.3679 19.4371 49.9313C14.9683 46.7316 12.0701 42.5329 10.6525 37.254C10.9721 37.3305 10.9856 37.5871 11.0801 37.7536C12.6552 40.4717 14.9863 42.0198 18.132 42.2313C22.8798 42.5509 27.1011 38.7751 27.2676 34.1173C27.4386 29.275 23.9014 25.3688 19.0636 25.0583C14.9008 24.7928 10.9766 27.8484 10.216 31.9572C10.1845 32.1237 10.216 32.3262 10.0045 32.4117V30.0401L10 30.0356Z" fill="#0AADBA"/>
<path d="M282.708 82.0003C282.582 81.8023 282.357 81.8563 282.181 81.8158C279.522 81.1362 277.753 78.7646 277.852 75.9924C277.947 73.2563 279.94 70.9521 282.604 70.4931C285.746 69.953 288.702 71.9017 289.355 74.9439C290.034 78.1031 288.14 81.0912 284.967 81.8698C284.859 81.8968 284.702 81.8338 284.652 82.0048H282.708V82.0003ZM279.022 76.2039C278.995 78.7871 281.056 80.8842 283.639 80.9022C286.191 80.9202 288.284 78.8591 288.306 76.3029C288.329 73.6523 286.317 71.5551 283.716 71.5281C281.115 71.5011 279.049 73.5578 279.022 76.2039Z" fill="#0AADBA"/>
<path d="M152.83 82.0004C152.146 81.7079 151.408 81.5729 150.755 81.1814C148.649 79.9033 147.632 77.5947 148.096 75.016C148.496 72.7974 150.427 70.8622 152.691 70.5022C156.057 69.9667 158.829 71.9558 159.477 74.8945C160.179 78.0807 158.32 81.0374 155.152 81.8564C155.022 81.8879 154.851 81.8384 154.77 82.0004H152.826H152.83ZM153.816 71.5328C151.264 71.5238 149.207 73.5894 149.153 76.1321C149.099 78.5757 150.967 80.9249 153.807 80.8844C156.565 80.8439 158.41 78.8457 158.442 76.2176C158.473 73.6344 156.385 71.5418 153.816 71.5328Z" fill="#999999"/>
<path d="M62.7748 38.1673C62.7478 27.4476 71.2129 18.4471 82.6886 18.7036C93.4442 18.9466 101.032 27.1686 101.779 35.9262C102.287 41.9295 100.712 47.1859 96.5179 51.5872C93.1517 55.1199 89.007 57.1585 84.1692 57.505C70.5378 58.4771 62.3428 47.5639 62.7748 38.1673ZM97.9895 38.1358C98.282 29.2027 90.7216 22.1193 81.901 22.2948C77.7338 22.3803 74.1875 24.0184 71.2354 26.9076C68.0672 30.0083 66.6181 33.9145 66.6091 38.2573C66.6001 42.4336 68.0177 46.1508 71.0148 49.193C74.111 52.3387 77.8418 53.9453 82.2565 53.9543C91.0636 53.9678 98.1605 47.0734 97.985 38.1313L97.9895 38.1358Z" fill="#0AADBA"/>
<path d="M202.504 38.0999C202.779 48.5811 193.819 57.8427 182.469 57.5682C171.943 57.3162 163.19 48.6396 163.365 38.0549C163.541 27.4388 171.938 18.4652 183.346 18.6947C194.156 18.9108 202.725 27.5828 202.504 38.0999ZM167.271 38.2125C167.271 43.6308 169.526 47.9196 173.869 51.1103C177.055 53.4504 180.678 54.256 184.579 53.8644C188.49 53.4729 191.865 51.8843 194.512 48.9861C198.319 44.8144 199.412 39.8461 198.256 34.4097C196.451 25.8997 187.671 20.9629 179.971 22.5785C172.348 24.1806 167.298 30.4405 167.267 38.2125H167.271Z" fill="#0AADBA"/>
<path d="M216.716 39.5268C217.598 40.6744 218.412 41.7365 219.236 42.7985C222.728 47.2988 226.22 51.7946 229.708 56.2904C229.794 56.3984 229.96 56.4974 229.884 56.6504C229.812 56.8079 229.627 56.7404 229.492 56.7404C228.304 56.7404 227.116 56.7224 225.932 56.7539C225.478 56.7674 225.199 56.5919 224.938 56.2544C223.282 54.1077 221.616 51.9656 219.947 49.828C217.364 46.5112 214.772 43.2035 212.202 39.8778C211.95 39.5538 211.675 39.5178 211.324 39.5178C209.956 39.5268 209.956 39.5178 209.956 40.8859C209.956 45.9172 209.956 50.9485 209.956 55.9753C209.956 56.8304 210.064 56.7314 209.169 56.7359C208.413 56.7359 207.657 56.7359 206.901 56.7359C206.403 56.7359 206.154 56.4944 206.154 56.0113C206.154 47.1368 206.154 38.2622 206.154 29.3877C206.154 26.314 206.163 23.2448 206.145 20.1711C206.145 19.7211 206.226 19.5591 206.725 19.5636C210.073 19.5906 213.417 19.5456 216.765 19.5996C218.682 19.6311 220.604 19.6941 222.476 20.2026C226.31 21.2467 228.907 24.1944 229.393 28.1231C229.717 30.7468 229.258 33.2039 227.678 35.3776C226.153 37.4837 223.993 38.5638 221.504 39.0813C219.969 39.4008 218.417 39.5358 216.72 39.5223L216.716 39.5268ZM209.956 29.5497C209.956 31.2193 209.956 32.8889 209.956 34.5585C209.956 35.8591 209.956 35.8816 211.239 35.8546C214.092 35.7916 216.95 36.0256 219.798 35.6566C222.944 35.2515 224.92 33.4559 225.419 30.3372C225.923 27.2095 223.804 24.2169 220.914 23.6498C219.69 23.4068 218.462 23.3168 217.229 23.2853C214.965 23.2313 212.697 23.2763 210.433 23.2493C209.997 23.2448 209.943 23.4158 209.943 23.7848C209.956 25.7065 209.952 27.6281 209.952 29.5497H209.956Z" fill="#999999"/>
<path d="M105.311 38.0321C105.163 27.6814 113.043 20.2515 121.508 19.0139C126.094 18.3434 130.535 18.7259 134.77 20.7285C137.38 21.9661 139.577 23.7212 141.363 25.9938C141.615 26.3179 141.593 26.4619 141.264 26.6959C140.531 27.2134 139.815 27.7625 139.122 28.3295C138.811 28.5815 138.649 28.6085 138.375 28.2665C135.994 25.3278 132.943 23.4647 129.239 22.6681C121.895 21.093 114.604 24.2657 111.211 30.3141C109.6 33.1853 109.029 36.286 109.299 39.5487C109.767 45.21 112.615 49.3458 117.539 52.064C120.383 53.6346 123.502 54.0936 126.715 53.9181C131.463 53.6616 135.324 51.6139 138.438 48.0812C138.672 47.8157 138.811 47.8652 139.041 48.0452C139.793 48.6303 140.549 49.2153 141.318 49.7688C141.62 49.9848 141.593 50.1243 141.377 50.3899C138.451 53.9361 134.712 56.1592 130.225 57.0458C125.464 57.9863 120.747 57.7658 116.292 55.7137C110.37 52.9865 106.918 48.2657 105.653 41.9113C105.559 41.4388 105.496 40.9573 105.442 40.4757C105.343 39.6207 105.307 38.7566 105.311 38.0321Z" fill="#0AADBA"/>
<path d="M265.049 56.7448C264.707 56.7448 264.36 56.6998 264.023 56.7538C263.249 56.8753 262.902 56.5153 262.583 55.8357C260.904 52.2265 259.163 48.6443 257.461 45.0486C257.295 44.702 257.11 44.585 256.732 44.5895C251.733 44.603 246.733 44.603 241.728 44.5895C241.373 44.5895 241.184 44.6885 241.031 45.0171C239.298 48.7028 237.543 52.3795 235.824 56.0698C235.586 56.5828 235.311 56.7943 234.735 56.7628C233.749 56.7133 232.755 56.7403 231.769 56.7538C231.369 56.7538 231.256 56.6638 231.45 56.2588C233.286 52.402 235.109 48.5408 236.931 44.6795C240.792 36.5025 244.658 28.3255 248.515 20.1485C248.677 19.811 248.812 19.5635 249.28 19.5635C249.743 19.5635 249.887 19.793 250.049 20.1395C254.766 30.2516 259.487 40.3593 264.207 50.4669C265.112 52.402 266.003 54.3416 266.921 56.2678C267.11 56.6593 267.025 56.7718 266.606 56.7538C266.084 56.7313 265.562 56.7493 265.04 56.7493L265.049 56.7448ZM249.329 27.637C249.244 27.7495 249.194 27.799 249.167 27.8575C247.187 32.0383 245.212 36.228 243.218 40.4043C242.975 40.9083 243.187 40.9173 243.592 40.9173C247.385 40.9083 251.184 40.9173 254.977 40.9128C255.58 40.9128 255.585 40.9128 255.328 40.3728C253.884 37.3081 252.439 34.2434 250.995 31.1742C250.445 30.0086 249.896 28.8476 249.329 27.637Z" fill="#999999"/>
<path d="M155.283 39.9492C155.283 45.3361 155.278 50.7274 155.292 56.1143C155.292 56.5643 155.175 56.6948 154.729 56.6768C153.775 56.6408 152.821 56.6543 151.871 56.6768C151.574 56.6813 151.435 56.6003 151.471 56.2853C151.489 56.1413 151.471 55.9972 151.471 55.8532C151.471 45.2011 151.466 34.5489 151.484 23.8967C151.484 23.3432 151.336 23.2262 150.805 23.2352C148.411 23.2667 146.021 23.2397 143.627 23.2577C143.249 23.2577 143.136 23.1542 143.145 22.7762C143.172 21.8986 143.181 21.0166 143.145 20.1345C143.127 19.6845 143.258 19.5675 143.708 19.572C149.248 19.5855 154.788 19.581 160.327 19.581C161.264 19.581 162.2 19.5945 163.136 19.572C163.46 19.563 163.577 19.6395 163.568 19.986C163.545 20.9176 163.541 21.8536 163.568 22.7897C163.581 23.1812 163.442 23.2577 163.077 23.2532C160.683 23.2397 158.293 23.2667 155.899 23.2307C155.355 23.2217 155.265 23.3882 155.269 23.8877C155.287 29.2386 155.283 34.5939 155.283 39.9492Z" fill="#0AADBA"/>
<path d="M277.947 39.9808C277.947 45.3542 277.938 50.723 277.96 56.0963C277.96 56.6184 277.816 56.7759 277.299 56.7534C276.381 56.7129 275.463 56.7354 274.545 56.7489C274.225 56.7534 274.072 56.6499 274.104 56.3168C274.117 56.1728 274.104 56.0288 274.104 55.8848C274.104 45.2327 274.099 34.576 274.117 23.9238C274.117 23.3703 273.969 23.2398 273.429 23.2443C271.07 23.2758 268.717 23.2443 266.359 23.2668C265.949 23.2668 265.837 23.1498 265.846 22.7493C265.873 21.8537 265.868 20.9536 265.846 20.0536C265.837 19.7161 265.922 19.5811 266.291 19.5811C272.785 19.5901 279.279 19.5901 285.777 19.5811C286.128 19.5811 286.254 19.6936 286.245 20.0446C286.227 20.9626 286.223 21.8762 286.245 22.7943C286.259 23.1948 286.092 23.2623 285.737 23.2623C283.343 23.2488 280.953 23.2713 278.559 23.2443C278.073 23.2398 277.929 23.3613 277.929 23.8653C277.947 29.2387 277.942 34.6075 277.942 39.9808H277.947Z" fill="#999999"/>
<path d="M299.832 23.3658C296.29 23.3658 292.744 23.3568 289.202 23.3793C288.711 23.3793 288.59 23.2398 288.612 22.7718C288.648 21.9122 288.635 21.0482 288.612 20.1841C288.603 19.8241 288.693 19.6846 289.085 19.6846C296.263 19.6936 303.436 19.6936 310.614 19.6846C311.006 19.6846 311.1 19.8151 311.091 20.1796C311.069 21.0752 311.06 21.9752 311.091 22.8753C311.105 23.3028 310.943 23.3748 310.56 23.3748C306.983 23.3613 303.4 23.3658 299.823 23.3658H299.832Z" fill="#999999"/>
<path d="M299.823 34.8866C303.329 34.8866 306.834 34.8956 310.34 34.8776C310.777 34.8776 310.939 34.9721 310.921 35.4357C310.885 36.3132 310.894 37.1953 310.921 38.0728C310.93 38.4374 310.835 38.5724 310.443 38.5724C303.324 38.5634 296.205 38.5634 289.085 38.5724C288.685 38.5724 288.608 38.4149 288.617 38.0638C288.635 37.2223 288.653 36.3762 288.613 35.5347C288.586 35.0262 288.721 34.8686 289.256 34.8731C292.78 34.9001 296.304 34.8866 299.827 34.8866H299.823Z" fill="#999999"/>
<path d="M299.823 53.0048C303.328 53.0048 306.834 53.0138 310.34 52.9958C310.772 52.9958 310.943 53.0858 310.925 53.5538C310.889 54.3954 310.889 55.2415 310.925 56.083C310.943 56.5465 310.821 56.6905 310.335 56.6905C306.631 56.668 302.928 56.677 299.229 56.677C295.885 56.677 292.541 56.668 289.197 56.686C288.765 56.686 288.594 56.596 288.612 56.128C288.648 55.2865 288.648 54.4404 288.612 53.5988C288.594 53.1353 288.711 52.9868 289.202 52.9913C292.744 53.0138 296.285 53.0048 299.827 53.0048H299.823Z" fill="#999999"/>
<path d="M53.6436 33.6851C53.6436 35.9938 51.875 37.7084 49.5034 37.7039C47.2712 37.7039 45.5116 35.8947 45.5161 33.6221C45.5206 31.363 47.3297 29.5854 49.6159 29.5899C51.884 29.5899 53.6436 31.3855 53.6391 33.6851H53.6436Z" fill="#0AADBA"/>
<path d="M171.893 78.5125C172.618 76.0104 173.306 73.6342 173.99 71.2581C174.139 70.736 174.598 70.511 175.124 70.6955C175.394 70.79 175.232 70.9566 175.196 71.0871C174.746 72.6937 174.287 74.2958 173.828 75.8979C173.32 77.671 172.802 79.4441 172.285 81.2172C172.235 81.3792 172.267 81.6312 172.051 81.6537C171.772 81.6852 171.799 81.3882 171.736 81.2262C170.768 78.7915 169.81 76.3569 168.851 73.9177C168.801 73.7872 168.788 73.6342 168.63 73.5442C167.613 76.0779 166.596 78.607 165.584 81.1407C165.552 81.2217 165.521 81.3072 165.485 81.3927C165.426 81.5232 165.395 81.6942 165.206 81.6672C165.053 81.6447 165.057 81.4872 165.026 81.3702C164.643 80.0246 164.256 78.6835 163.874 77.338C163.307 75.3353 162.735 73.3372 162.186 71.3301C162.132 71.1411 161.826 70.8575 162.2 70.709C162.69 70.511 163.172 70.7135 163.284 71.1096C163.617 72.2661 163.941 73.4227 164.27 74.5748C164.63 75.8484 164.994 77.1219 165.39 78.535C165.836 77.437 166.227 76.4649 166.619 75.4928C167.19 74.0617 167.757 72.6262 168.338 71.1951C168.41 71.0106 168.396 70.7045 168.675 70.718C168.9 70.7315 168.914 71.0106 168.981 71.1816C169.868 73.4182 170.741 75.6548 171.623 77.8915C171.686 78.058 171.767 78.2155 171.893 78.508V78.5125Z" fill="#999999"/>
<path d="M206.392 76.1856C206.392 74.516 206.392 72.8464 206.392 71.1813C206.392 70.9653 206.307 70.6908 206.698 70.6953C208.449 70.7043 210.209 70.6143 211.937 71.0103C213.795 71.4333 215.289 73.1839 215.568 75.083C215.767 76.4466 215.713 77.7652 215.105 79.0073C214.263 80.7219 212.828 81.5905 210.942 81.667C209.597 81.721 208.247 81.676 206.901 81.703C206.5 81.712 206.379 81.604 206.383 81.1944C206.406 79.5248 206.392 77.8552 206.392 76.1901V76.1856ZM207.472 76.2351C207.472 77.5447 207.481 78.8588 207.468 80.1684C207.468 80.5104 207.553 80.6499 207.923 80.6364C208.769 80.6004 209.615 80.6364 210.456 80.5869C211.734 80.5149 212.895 80.1729 213.71 79.0748C214.475 78.0442 214.596 76.8832 214.493 75.6501C214.349 73.9535 213.156 72.5089 211.514 72.0814C210.294 71.7663 209.052 71.8518 207.815 71.8293C207.445 71.8248 207.472 72.0544 207.472 72.2929C207.472 73.6025 207.472 74.9165 207.472 76.2261V76.2351Z" fill="#999999"/>
<path d="M300.075 78.922V76.8429C300.075 74.9573 300.093 73.0716 300.061 71.186C300.052 70.6955 300.277 70.7 300.637 70.6865C301.047 70.6685 301.182 70.772 301.182 71.213C301.164 74.5522 301.173 77.8914 301.168 81.2306C301.168 81.3792 301.263 81.5817 301.078 81.6627C300.862 81.7572 300.763 81.5457 300.651 81.4197C298.558 79.03 296.47 76.6314 294.377 74.2372C294.188 74.0212 293.999 73.8097 293.788 73.5757C293.608 73.7557 293.68 73.9627 293.68 74.1382C293.675 76.4739 293.657 78.805 293.693 81.1406C293.702 81.6807 293.473 81.6852 293.063 81.7032C292.6 81.7257 292.505 81.5682 292.51 81.1316C292.528 77.8284 292.519 74.5252 292.523 71.2175C292.523 71.051 292.429 70.808 292.613 70.727C292.847 70.628 292.942 70.8935 293.063 71.033C295.142 73.4137 297.213 75.7988 299.287 78.184C299.508 78.4405 299.733 78.6925 299.958 78.949C299.998 78.94 300.039 78.9265 300.075 78.9175V78.922Z" fill="#0AADBA"/>
<path d="M262.367 73.5706C262.236 73.7866 262.29 73.9666 262.29 74.1376C262.29 76.4733 262.268 78.8089 262.304 81.1401C262.313 81.6756 262.092 81.6981 261.678 81.7026C261.269 81.7026 261.084 81.6576 261.089 81.1671C261.116 77.8459 261.102 74.5202 261.107 71.199C261.107 71.037 260.999 70.8029 261.215 70.7219C261.426 70.6409 261.516 70.8659 261.629 70.9964C263.775 73.4626 265.917 75.9288 268.064 78.3994C268.226 78.5839 268.393 78.7639 268.573 78.9619C268.721 78.7594 268.658 78.5794 268.658 78.4129C268.663 76.0053 268.676 73.5976 268.649 71.1945C268.645 70.7129 268.847 70.6904 269.221 70.6904C269.594 70.6904 269.792 70.7174 269.788 71.199C269.765 74.5382 269.779 77.8819 269.77 81.2211C269.77 81.3786 269.887 81.6126 269.639 81.6801C269.428 81.7386 269.333 81.5226 269.225 81.3921C267.141 79.0114 265.067 76.6308 262.988 74.2502C262.794 74.0296 262.592 73.8136 262.376 73.5751L262.367 73.5706Z" fill="#0AADBA"/>
<path d="M190.425 76.6265C191.757 78.3501 193.008 79.9657 194.268 81.5903C193.35 81.8558 192.972 81.7433 192.455 81.0728C191.388 79.6957 190.322 78.3231 189.26 76.9415C189.084 76.712 188.891 76.523 188.589 76.631C188.31 76.73 188.441 77 188.436 77.1935C188.423 78.5391 188.405 79.8847 188.441 81.2303C188.454 81.7658 188.148 81.6893 187.824 81.6938C187.5 81.6983 187.257 81.7208 187.262 81.2393C187.284 77.8821 187.28 74.5249 187.262 71.1677C187.262 70.7941 187.361 70.6681 187.743 70.6816C189.017 70.7356 190.29 70.6276 191.564 70.7761C192.99 70.9427 194.052 71.9372 194.165 73.2783C194.3 74.8624 193.535 76.001 192.063 76.4105C191.564 76.55 191.055 76.5995 190.416 76.6175L190.425 76.6265ZM188.382 73.6518C188.382 74.1334 188.382 74.6194 188.382 75.1009C188.382 75.3034 188.382 75.5194 188.67 75.5149C189.651 75.4879 190.646 75.6364 191.618 75.3979C192.531 75.1774 193.062 74.4259 192.999 73.4898C192.941 72.6348 192.302 71.9912 191.411 71.8652C190.533 71.7392 189.656 71.8157 188.778 71.7887C188.472 71.7797 188.364 71.9102 188.373 72.2027C188.387 72.6843 188.373 73.1703 188.373 73.6518H188.382Z" fill="#999999"/>
<path d="M304.669 76.1677C304.669 74.5161 304.678 72.8645 304.66 71.2084C304.66 70.8259 304.732 70.6774 305.16 70.6819C306.96 70.7089 308.756 70.7134 310.556 70.6819C311.055 70.6729 311.001 70.9384 310.997 71.2489C310.992 71.5459 311.082 71.8429 310.569 71.8294C309.129 71.7934 307.694 71.8294 306.253 71.8114C305.911 71.8114 305.781 71.8924 305.79 72.257C305.817 73.0985 305.812 73.9446 305.79 74.7906C305.781 75.1191 305.875 75.2181 306.208 75.2136C307.631 75.1956 309.053 75.2271 310.47 75.1956C310.911 75.1866 310.974 75.3577 310.956 75.7267C310.938 76.0552 311.01 76.3432 310.479 76.3252C309.08 76.2847 307.676 76.3252 306.271 76.3027C305.898 76.2982 305.776 76.4017 305.785 76.7797C305.808 77.8913 305.808 79.0074 305.785 80.119C305.776 80.488 305.866 80.6095 306.253 80.605C307.658 80.5825 309.062 80.614 310.461 80.5825C310.893 80.5735 310.979 80.731 310.952 81.109C310.929 81.433 311.024 81.7256 310.484 81.7121C308.702 81.6761 306.924 81.6896 305.142 81.7076C304.768 81.7076 304.651 81.613 304.656 81.2305C304.674 79.5429 304.665 77.8553 304.665 76.1632L304.669 76.1677Z" fill="#0AADBA"/>
<path d="M197.342 76.1546C197.342 74.503 197.356 72.8469 197.333 71.1953C197.329 70.7858 197.45 70.6823 197.851 70.6868C199.633 70.7093 201.415 70.7138 203.192 70.6868C203.692 70.6778 203.683 70.9208 203.687 71.2718C203.687 71.6363 203.678 71.8658 203.188 71.8568C201.784 71.8208 200.38 71.8568 198.98 71.8388C198.62 71.8388 198.467 71.9198 198.481 72.3159C198.508 73.1214 198.508 73.9315 198.481 74.7415C198.467 75.115 198.58 75.232 198.962 75.2275C200.348 75.205 201.734 75.2365 203.12 75.2095C203.543 75.2005 203.669 75.3176 203.669 75.7451C203.669 76.1906 203.552 76.3301 203.093 76.3211C201.707 76.2896 200.321 76.3211 198.935 76.3031C198.584 76.3031 198.472 76.4066 198.476 76.7621C198.499 77.8917 198.494 79.0258 198.476 80.1599C198.472 80.5109 198.571 80.6234 198.931 80.6189C200.335 80.6009 201.739 80.6324 203.138 80.6009C203.611 80.5874 203.647 80.7854 203.66 81.1679C203.674 81.5909 203.552 81.7215 203.116 81.717C201.388 81.6945 199.66 81.69 197.936 81.717C197.473 81.726 197.315 81.6179 197.324 81.1274C197.356 79.4758 197.338 77.8197 197.338 76.1681L197.342 76.1546Z" fill="#999999"/>
<path d="M222.746 81.6716C223.129 80.8571 223.493 80.0875 223.858 79.3135C225.154 76.5773 226.445 73.8366 227.746 71.1049C227.818 70.9564 227.827 70.7269 228.057 70.7089C228.331 70.6909 228.34 70.9429 228.417 71.1094C229.992 74.4667 231.553 77.8284 233.137 81.1811C233.349 81.6266 233.245 81.6896 232.791 81.7121C232.278 81.7391 232.03 81.5591 231.832 81.0956C231.454 80.2045 231 79.3495 230.595 78.4719C230.478 78.2154 230.343 78.0939 230.037 78.0984C228.723 78.1164 227.413 78.1209 226.099 78.0984C225.766 78.0939 225.626 78.2289 225.5 78.5034C225.113 79.3495 224.672 80.1775 224.321 81.0371C224.105 81.5726 223.804 81.8021 223.241 81.7031C223.102 81.6806 222.958 81.6896 222.742 81.6761L222.746 81.6716ZM226.234 76.9868H229.92C229.303 75.6862 228.714 74.4397 228.079 73.0941C227.435 74.4487 226.846 75.6907 226.234 76.9868Z" fill="#0AADBA"/>
<path d="M125.081 81.6899C124.717 81.7934 124.523 81.5729 124.361 81.2174C123.956 80.3173 123.506 79.4397 123.101 78.5397C122.957 78.2247 122.786 78.0852 122.412 78.0942C121.157 78.1212 119.897 78.1167 118.637 78.0942C118.272 78.0897 118.092 78.2112 117.948 78.5397C117.557 79.4262 117.129 80.2948 116.724 81.1723C116.517 81.6179 115.824 81.8879 115.392 81.6719C115.117 81.5324 115.351 81.3569 115.41 81.2264C116.139 79.6693 116.882 78.1167 117.62 76.5596C118.488 74.7279 119.348 72.8963 120.221 71.0647C120.293 70.9117 120.32 70.7002 120.558 70.7002C120.774 70.7002 120.797 70.8982 120.86 71.0332C122.421 74.3814 123.983 77.7251 125.54 81.0778C125.824 81.6854 125.81 81.6899 125.081 81.6899ZM120.54 73.0943C119.933 74.3814 119.379 75.5425 118.835 76.7081C118.772 76.8386 118.632 77.0276 118.952 77.0321C120.077 77.0321 121.197 77.0321 122.372 77.0321C122.322 76.8881 122.304 76.8026 122.268 76.7261C121.71 75.5515 121.152 74.3814 120.545 73.0943H120.54Z" fill="#999999"/>
<path d="M178.189 76.1636C178.189 74.494 178.198 72.8199 178.18 71.1503C178.18 70.8037 178.274 70.6822 178.634 70.6867C180.435 70.7002 182.235 70.7092 184.03 70.6867C184.521 70.6777 184.48 70.9478 184.476 71.2628C184.476 71.5643 184.543 71.8613 184.039 71.8523C182.617 71.8253 181.195 71.8523 179.778 71.8343C179.404 71.8298 179.274 71.9423 179.287 72.3203C179.31 73.1439 179.31 73.9719 179.287 74.8C179.278 75.142 179.404 75.223 179.724 75.2185C181.146 75.205 182.568 75.232 183.985 75.2005C184.431 75.1915 184.476 75.376 184.471 75.7361C184.467 76.1006 184.458 76.3256 183.967 76.3121C182.581 76.2761 181.195 76.3121 179.814 76.2896C179.431 76.2851 179.269 76.3571 179.283 76.7891C179.314 77.9007 179.31 79.0168 179.283 80.1283C179.274 80.5154 179.409 80.6099 179.773 80.6054C181.177 80.5874 182.581 80.6189 183.981 80.5874C184.426 80.5784 184.471 80.7584 184.467 81.1229C184.462 81.4874 184.453 81.7124 183.967 81.7034C182.203 81.6719 180.439 81.6764 178.679 81.7034C178.256 81.7079 178.171 81.5639 178.175 81.1769C178.193 79.5073 178.184 77.8377 178.184 76.1636H178.189Z" fill="#999999"/>
<path d="M138.569 76.1948C138.569 74.5432 138.578 72.8916 138.56 71.24C138.555 70.8395 138.636 70.664 139.086 70.6865C140.324 70.745 141.561 70.6505 142.803 70.7765C144.383 70.943 145.472 72.0636 145.476 73.6117C145.481 75.2048 144.41 76.3523 142.808 76.5098C141.912 76.5998 141.017 76.6269 140.117 76.6044C139.752 76.5953 139.662 76.7214 139.667 77.0679C139.685 78.4495 139.649 79.8356 139.685 81.2171C139.698 81.7302 139.433 81.6897 139.086 81.7032C138.704 81.7212 138.546 81.6357 138.555 81.2081C138.582 79.5385 138.564 77.8689 138.564 76.1993L138.569 76.1948ZM139.676 73.6657C139.676 74.1697 139.676 74.6692 139.676 75.1733C139.676 75.3398 139.667 75.5243 139.905 75.5153C140.958 75.4838 142.025 75.6593 143.064 75.3488C143.874 75.1058 144.369 74.3497 144.302 73.4902C144.239 72.6621 143.591 71.9916 142.754 71.8746C141.858 71.7485 140.963 71.8116 140.067 71.7891C139.752 71.7801 139.667 71.9241 139.676 72.2166C139.689 72.6981 139.676 73.1841 139.676 73.6702V73.6657Z" fill="#999999"/>
<path d="M243.781 76.1812C243.781 74.5836 243.79 72.9815 243.772 71.3839C243.767 70.9429 243.763 70.6729 244.366 70.6729C244.955 70.6729 244.928 70.9474 244.924 71.3569C244.915 74.2686 244.924 77.1803 244.91 80.0874C244.91 80.4925 244.987 80.6455 245.432 80.632C246.53 80.596 247.628 80.6455 248.722 80.6095C249.23 80.5915 249.149 80.884 249.154 81.1855C249.154 81.478 249.212 81.73 248.74 81.721C247.228 81.6895 245.716 81.6985 244.208 81.721C243.835 81.7255 243.763 81.5905 243.767 81.253C243.781 79.5654 243.772 77.8733 243.772 76.1857L243.781 76.1812Z" fill="#0AADBA"/>
<path d="M235.869 76.1945C235.869 74.5428 235.887 72.8912 235.856 71.2396C235.847 70.7716 236.004 70.6771 236.436 70.6861C236.837 70.6951 237.039 70.7221 237.035 71.2216C237.008 74.1468 237.035 77.072 237.012 80.0017C237.012 80.4697 237.093 80.6542 237.615 80.6317C238.691 80.5867 239.771 80.6407 240.851 80.6092C241.346 80.5912 241.247 80.8927 241.247 81.1628C241.247 81.4373 241.337 81.7208 240.851 81.7118C239.343 81.6803 237.831 81.6848 236.319 81.7118C235.91 81.7163 235.856 81.5588 235.86 81.2078C235.874 79.5382 235.869 77.8686 235.869 76.199V76.1945Z" fill="#0AADBA"/>
<path d="M256.629 76.2353C256.629 74.5657 256.651 72.8916 256.615 71.222C256.606 70.7225 256.809 70.6775 257.214 70.6865C257.583 70.6955 257.785 70.7045 257.785 71.1905C257.763 74.5477 257.758 77.9095 257.785 81.2667C257.785 81.7662 257.533 81.7077 257.223 81.7077C256.903 81.7077 256.602 81.7932 256.615 81.2487C256.656 79.5791 256.629 77.9095 256.629 76.2353Z" fill="#0AADBA"/>
<path d="M129.312 76.2303C129.312 77.8999 129.294 79.565 129.321 81.2346C129.33 81.7026 129.096 81.7026 128.758 81.6981C128.434 81.6981 128.186 81.7206 128.191 81.2436C128.209 77.8729 128.209 74.5022 128.191 71.1314C128.191 70.6319 128.474 70.7039 128.776 70.6949C129.087 70.6859 129.321 70.6769 129.316 71.1224C129.294 72.8236 129.307 74.5292 129.307 76.2348L129.312 76.2303Z" fill="#999999"/>
<path d="M133.861 77.0724C134.419 77.0724 134.977 77.0949 135.535 77.0634C135.927 77.0409 135.985 77.2254 135.967 77.5449C135.954 77.8284 135.985 78.0804 135.567 78.0714C134.433 78.0534 133.299 78.0579 132.169 78.0714C131.732 78.0759 131.809 77.7924 131.791 77.5269C131.773 77.2299 131.822 77.0499 132.192 77.0679C132.75 77.0949 133.308 77.0769 133.866 77.0769L133.861 77.0724Z" fill="#999999"/>
<path d="M23.0149 37.7039C20.7062 37.7039 18.9466 35.9622 18.9421 33.6671C18.9421 31.3765 20.7107 29.5898 22.9879 29.5898C25.265 29.5898 27.0651 31.381 27.0696 33.6446C27.0696 35.9352 25.3055 37.7039 23.0149 37.7039Z" fill="#0AADBA"/>
</g>
<defs>
<clipPath id="clip0_14810_8654">
<rect width="301.1" height="72" fill="white" transform="translate(10 10)"/>
</clipPath>
</defs>
</svg>
