<svg width="286" height="80" viewBox="0 0 286 80" fill="none" xmlns="http://www.w3.org/2000/svg">
<path fill-rule="evenodd" clip-rule="evenodd" d="M12.615 27.7647C10.0607 24.8643 9.31073 20.7607 10.6618 17.1082C13.4647 8.84953 27.6259 5.39629 31.9802 20.1596C34.2817 27.965 30.4791 36.3223 25.1744 42.828C22.2216 46.3809 17.5672 50.2338 11.7633 51.7852C11.4633 51.8849 11.0625 51.7349 10.9125 51.4349C10.7625 51.0845 10.8622 50.6849 11.2125 50.5349C14.8158 48.332 17.1183 46.1805 18.9697 42.0277C21.1715 36.9726 20.5201 31.9186 17.969 31.1183C15.9085 30.5166 14.0549 29.3558 12.614 27.7647H12.615ZM50.5439 43.6777C50.5439 44.8473 50.3135 46.0055 49.8659 47.0862C49.4183 48.1668 48.7622 49.1487 47.9352 49.9758C47.1081 50.8028 46.1262 51.4589 45.0456 51.9065C43.9649 52.3541 42.8067 52.5845 41.6371 52.5845C40.4674 52.5845 39.3092 52.3541 38.2286 51.9065C37.1479 51.4589 36.166 50.8028 35.339 49.9758C34.5119 49.1487 33.8558 48.1668 33.4082 47.0862C32.9606 46.0055 32.7302 44.8473 32.7302 43.6777C32.7302 41.3153 33.6687 39.0497 35.3391 37.3792C37.0096 35.7087 39.2752 34.7703 41.6376 34.7703C44 34.7703 46.2656 35.7087 47.9361 37.3792C49.6065 39.0497 50.5439 41.3153 50.5439 43.6777Z" fill="url(#paint0_linear_14784_8381)"/>
<path d="M54.1078 34.8557C53.6149 34.8557 53.1542 34.7635 52.7203 34.5803C52.2985 34.3979 51.9148 34.1381 51.5888 33.8142C51.2674 33.4928 51.0103 33.1157 50.8206 32.6839C50.6356 32.2452 50.5419 31.7735 50.5453 31.2974C50.5453 30.8067 50.6374 30.3439 50.8206 29.9121C51.0113 29.4792 51.2663 29.1021 51.5888 28.7817C51.9103 28.4538 52.2874 28.1988 52.7203 28.0146C53.1578 27.8237 53.6304 27.7266 54.1078 27.7296C54.6006 27.7296 55.0624 27.8249 55.4953 28.0146C55.9292 28.1988 56.3064 28.4538 56.6278 28.7817C56.9492 29.1031 57.2021 29.4792 57.3853 29.9121C57.576 30.3439 57.6714 30.8067 57.6714 31.2974C57.6714 31.7892 57.5749 32.251 57.3853 32.6839C57.2085 33.1062 56.9512 33.4901 56.6278 33.8142C56.3064 34.1357 55.9292 34.3907 55.4953 34.5803C55.0562 34.7651 54.5842 34.8588 54.1078 34.8557ZM54.1078 28.2213C53.6878 28.2213 53.2881 28.3028 52.9078 28.4678C52.5328 28.6242 52.2081 28.8428 51.9328 29.1256C51.654 29.4057 51.4305 29.7358 51.2738 30.0985C51.1088 30.4724 51.0274 30.8721 51.0274 31.2985C51.0274 31.7164 51.1099 32.1128 51.2738 32.4878C51.4378 32.8607 51.6574 33.1885 51.9328 33.4692C52.2081 33.7446 52.5328 33.9642 52.9078 34.1282C53.2881 34.2857 53.6878 34.3639 54.1078 34.3639C54.5278 34.3639 54.9253 34.2857 55.2992 34.1282C55.6796 33.9642 56.0074 33.7446 56.2828 33.4703C56.5592 33.1885 56.7789 32.8596 56.9428 32.4867C57.1073 32.1119 57.1912 31.7068 57.1892 31.2974C57.1892 30.8721 57.1067 30.4724 56.9428 30.0985C56.7857 29.7357 56.5618 29.4057 56.2828 29.1256C56.0034 28.8411 55.6686 28.6169 55.2992 28.4667C54.9236 28.3026 54.5177 28.2191 54.1078 28.2213ZM55.4471 30.9042C55.3806 31.0949 55.2756 31.2546 55.1321 31.3864C54.9732 31.5175 54.7831 31.6053 54.5803 31.6414L54.4731 31.6617C54.4333 31.6621 54.3936 31.6654 54.3542 31.6714L55.3678 33.2539C55.3742 33.2667 55.3785 33.2796 55.3785 33.2925C55.3818 33.2986 55.3835 33.3054 55.3835 33.3123C55.3835 33.3192 55.3818 33.326 55.3785 33.3321C55.3713 33.3526 55.3573 33.3699 55.3389 33.3814L55.3185 33.3921L55.2992 33.4007H55.0131C54.9657 33.4034 54.9183 33.3934 54.876 33.3717L54.8267 33.3225L53.7831 31.6714H53.2217V33.2828C53.2217 33.3096 53.2088 33.3364 53.1831 33.3621C53.1563 33.3878 53.1296 33.4007 53.1038 33.4007H52.8188C52.8022 33.4007 52.7857 33.3972 52.7704 33.3906C52.7551 33.384 52.7413 33.3743 52.7299 33.3621C52.7118 33.3396 52.7016 33.3117 52.701 33.2828V29.3121C52.701 29.2799 52.7106 29.2531 52.7299 29.2339C52.7412 29.2215 52.755 29.2116 52.7703 29.2048C52.7856 29.198 52.8021 29.1944 52.8188 29.1942H54.2856C54.4099 29.1942 54.5278 29.2103 54.6392 29.2435C54.7506 29.2692 54.8556 29.3121 54.9542 29.3721C55.1007 29.4528 55.226 29.567 55.32 29.7053C55.4141 29.8437 55.4741 30.0022 55.4953 30.1681C55.5156 30.2989 55.5189 30.4253 55.506 30.5507C55.5002 30.6704 55.4805 30.7891 55.4471 30.9042ZM53.2217 31.1989H53.901C54.0263 31.1989 54.1506 31.1957 54.276 31.1892C54.4272 31.1866 54.5742 31.1388 54.6981 31.0521C54.8197 30.9715 54.9074 30.8491 54.9446 30.7082C54.9584 30.6597 54.9684 30.6103 54.9746 30.5603C54.981 30.5014 54.9842 30.4392 54.9842 30.3739C54.9805 30.2686 54.9568 30.165 54.9146 30.0685C54.8739 29.9751 54.8097 29.8939 54.7281 29.8328C54.6582 29.7782 54.5781 29.7382 54.4924 29.7149C54.3995 29.6879 54.3031 29.6749 54.2064 29.6764C54.1344 29.6692 54.0622 29.6657 53.9899 29.6656H53.2217V31.1989Z" fill="#D01C79"/>
<path fill-rule="evenodd" clip-rule="evenodd" d="M232.444 10H239.499C239.9 10 240.2 10.3 240.2 10.7007L240.35 51.3832C240.35 51.7839 239.999 52.0839 239.6 52.0839H232.543C232.451 52.0861 232.359 52.0695 232.273 52.0351C232.187 52.0006 232.108 51.9491 232.043 51.8836C231.977 51.8181 231.926 51.7399 231.891 51.6539C231.857 51.5679 231.84 51.4758 231.843 51.3832L231.743 49.2821C229.391 51.4839 226.339 52.7353 223.136 52.7353C215.68 52.7353 209.625 46.0292 209.625 37.7727C209.625 29.5162 215.68 22.8101 223.136 22.8101C225.887 22.8101 228.591 23.7615 230.791 25.463C232.194 26.5633 234.345 28.5648 234.345 28.5648C231.643 26.0126 231.693 23.6608 231.693 23.6608V10.7007C231.743 10.3 232.043 10 232.444 10ZM217.431 37.4717C217.431 41.4253 220.633 44.6781 224.637 44.6781C228.591 44.6781 231.843 41.4253 231.843 37.4727C231.843 33.5191 228.64 30.2662 224.637 30.2662C220.684 30.2662 217.431 33.5191 217.431 37.4727V37.4717ZM102.787 52.1343H95.0822C94.9895 52.1366 94.8973 52.1201 94.8112 52.0857C94.7252 52.0513 94.647 51.9998 94.5814 51.9343C94.5159 51.8687 94.4644 51.7905 94.43 51.7045C94.3956 51.6184 94.3791 51.5262 94.3814 51.4336V23.8119C94.3814 23.4112 94.6814 23.1112 95.0822 23.1112H102.788C103.189 23.1112 103.489 23.4112 103.489 23.8108V51.4336C103.489 51.8343 103.188 52.1343 102.787 52.1343ZM114.447 28.6162C114.447 28.6162 116.95 27.0144 116.95 24.1119V23.7615C116.952 23.6688 116.936 23.5766 116.901 23.4905C116.867 23.4045 116.815 23.3263 116.749 23.2608C116.684 23.1952 116.606 23.1437 116.519 23.1094C116.433 23.075 116.341 23.0585 116.248 23.0608H109.143C109.05 23.0588 108.958 23.0755 108.872 23.11C108.786 23.1445 108.708 23.1961 108.643 23.2616C108.578 23.327 108.526 23.4051 108.492 23.4911C108.457 23.577 108.441 23.669 108.443 23.7615V51.3832C108.443 51.7839 108.743 52.0839 109.143 52.0839H116.3C116.699 52.0839 117.001 51.7839 117.001 51.3843V35.4198C116.95 32.168 119.402 29.3662 122.655 29.0159C126.108 28.6655 129.159 31.2177 129.46 34.6698C129.46 34.777 129.474 34.8841 129.488 34.9848C129.499 35.0706 129.51 35.1509 129.51 35.2206V47.2807C129.507 48.313 129.709 49.3357 130.103 50.2899C130.497 51.2441 131.076 52.111 131.806 52.841C132.536 53.5709 133.403 54.1494 134.357 54.5434C135.311 54.9373 136.334 55.1388 137.366 55.1364C137.766 55.1364 138.067 54.8364 138.067 54.4368V35.8216C138.317 31.868 137.567 27.2641 134.314 24.6123C131.211 22.1105 127.108 21.5094 123.255 22.0601C119.502 22.6108 117.2 25.8637 117.2 25.8637C117.2 25.8637 115.399 28.2144 114.447 28.6141V28.6162ZM74.3648 43.4781H89.3275C89.6778 43.4781 89.9778 43.7781 89.9778 44.1296V51.4357C89.9778 51.8353 89.6778 52.1353 89.2771 52.1353H65.9091C65.7242 52.1318 65.548 52.0569 65.4171 51.9262C65.2863 51.7956 65.2111 51.6194 65.2073 51.4346V10.8036C65.2073 10.4029 65.5073 10.0525 65.908 10.0525H73.6652C74.0648 10.0525 74.3648 10.4029 74.3648 10.8025V43.4781ZM191.76 22.3601C183.404 22.3601 176.598 29.1659 176.598 37.522C176.598 45.8792 183.404 52.685 191.76 52.685C200.117 52.685 206.923 45.8792 206.923 37.522C206.923 29.1648 200.117 22.3601 191.76 22.3601ZM191.76 44.6781C187.808 44.6781 184.555 41.4745 184.555 37.4717C184.555 33.518 187.757 30.2662 191.76 30.2662C195.715 30.2662 198.967 33.4698 198.967 37.4727C198.967 41.4263 195.715 44.6781 191.76 44.6781ZM172.396 23.3105C172.795 23.3105 173.096 23.6105 173.096 24.0112L173.195 53.8357C173.195 62.7426 165.941 69.9983 157.033 69.9983H155.382C152.042 70.0431 148.777 69.0078 146.074 67.0465C143.822 65.4951 142.07 63.3929 140.869 60.9918C140.67 60.6415 140.82 60.2418 141.17 60.0404L141.32 59.8904C144.221 58.4397 147.725 58.7397 150.377 60.6404C151.778 61.5918 153.379 62.1426 155.082 62.1426H155.782C160.335 62.1426 164.038 58.489 164.038 53.9354V48.831L163.438 49.4825C163.363 49.5575 163.288 49.6196 163.213 49.6817C163.137 49.745 163.063 49.8071 162.988 49.8821C157.784 54.3361 149.927 53.735 145.473 48.5321C140.269 42.5267 140.269 33.5695 145.473 27.5641C147.875 24.8115 151.277 23.2601 154.931 23.2108C157.683 23.2601 160.335 24.1612 162.486 25.8123C163.889 26.8141 166.19 28.8659 166.19 28.8659C163.838 26.7133 163.588 24.7119 163.537 24.1623V24.0123C163.537 23.6115 163.838 23.3105 164.238 23.3105H172.396ZM149.226 38.7231C149.727 42.6767 153.33 45.4292 157.283 44.9289C158.862 44.7361 160.331 44.0203 161.456 42.8956C162.58 41.7708 163.296 40.3019 163.488 38.7231C163.588 38.11 163.588 37.4848 163.488 36.8716C162.988 32.918 159.384 30.1666 155.431 30.667C151.478 31.1673 148.726 34.7695 149.226 38.7231ZM274.477 23.2612L266.371 23.2108C266.278 23.2086 266.186 23.2252 266.1 23.2597C266.014 23.2941 265.936 23.3457 265.871 23.4112C265.805 23.4767 265.754 23.5549 265.719 23.6409C265.685 23.7269 265.669 23.819 265.671 23.9115V24.2115C265.72 24.7623 265.971 26.4133 268.323 28.6152C268.323 28.6152 266.072 26.5633 264.77 25.5626C264.723 25.5172 264.673 25.4753 264.62 25.4373C264.567 25.3996 264.517 25.358 264.47 25.313C262.318 23.7615 259.766 22.9108 257.113 22.9108C249.709 22.9108 243.653 29.5666 243.653 37.7727C243.653 45.9799 249.658 52.685 257.113 52.685C260.316 52.685 263.37 51.4336 265.72 49.2317L265.771 51.3843C265.771 51.7839 266.072 52.085 266.471 52.085H274.378C274.778 52.1343 275.129 51.8343 275.179 51.4336V51.3339L275.129 23.8623C275.117 23.8848 275.113 23.8623 275.106 23.814C275.081 23.6555 275.015 23.2226 274.477 23.2612ZM258.215 44.6289C254.261 44.6289 251.009 41.4253 251.009 37.4224C251.006 36.475 251.189 35.5363 251.55 34.6603C251.911 33.7843 252.441 32.9884 253.111 32.3185C253.781 31.6486 254.577 31.118 255.453 30.7573C256.329 30.3966 257.268 30.213 258.215 30.2169C262.169 30.2169 265.421 33.4195 265.421 37.4224C265.425 38.3698 265.242 39.3087 264.881 40.1849C264.52 41.061 263.989 41.857 263.32 42.527C262.65 43.1969 261.854 43.7276 260.977 44.0884C260.101 44.4491 259.162 44.6328 258.215 44.6289ZM103.738 14.8043C103.748 15.4412 103.631 16.0736 103.393 16.6648C103.156 17.2559 102.804 17.794 102.357 18.2478C101.91 18.7015 101.377 19.0618 100.79 19.3078C100.202 19.5537 99.5715 19.6804 98.9345 19.6804C98.2976 19.6804 97.667 19.5537 97.0794 19.3078C96.4919 19.0618 95.9591 18.7015 95.5121 18.2478C95.0651 17.794 94.7127 17.2559 94.4756 16.6648C94.2384 16.0736 94.1212 15.4412 94.1307 14.8043C94.1496 13.5427 94.664 12.3391 95.5628 11.4536C96.4616 10.5681 97.6728 10.0717 98.9345 10.0717C100.196 10.0717 101.407 10.5681 102.306 11.4536C103.205 12.3391 103.719 13.5427 103.738 14.8043Z" fill="#051F4E"/>
<defs>
<linearGradient id="paint0_linear_14784_8381" x1="6.63535" y1="43.668" x2="54.3743" y2="43.668" gradientUnits="userSpaceOnUse">
<stop stop-color="#153BFF"/>
<stop offset="0.51" stop-color="#9900CC"/>
<stop offset="0.61" stop-color="#AF0BAA"/>
<stop offset="0.88" stop-color="#E82855"/>
<stop offset="1" stop-color="#FF3333"/>
</linearGradient>
</defs>
</svg>
