<svg width="279" height="84" viewBox="0 0 279 84" fill="none" xmlns="http://www.w3.org/2000/svg">
<path d="M93.6596 27.1323C93.8869 26.5393 94.1098 26.0241 94.2808 25.4917C94.7094 24.1606 96.7028 23.271 98.4257 23.6562C100.058 24.022 101.001 25.2471 101.001 27.0024C101.006 36.935 101.157 46.8719 100.947 56.8001C100.813 63.1289 98.2504 68.3928 92.5471 71.7174C90.2269 73.0702 87.6707 73.7606 84.9933 73.9338C83.8981 74.0052 82.7791 74.0506 81.6947 73.9164C79.4761 73.6416 78.5909 71.9338 78.619 70.0508C78.6493 67.9902 80.2705 66.5639 82.2661 66.3907C84.0647 66.2349 85.9067 66.0509 87.6209 65.5271C90.2377 64.7263 91.8177 62.722 92.5882 60.1528C92.9952 58.8001 93.1597 57.3759 93.4887 55.7158C93.0363 55.9603 92.8545 56.0253 92.7138 56.14C88.0494 59.9299 82.805 60.1896 77.4134 58.3087C70.234 55.8045 64.6195 48.532 64.9225 40.5171C65.0697 36.6363 66.3922 33.1429 68.8012 30.1279C71.879 26.2752 75.7966 23.7385 80.7705 22.9853C85.3114 22.297 89.268 23.5783 92.7917 26.4094C93.0644 26.628 93.3307 26.8553 93.664 27.1323H93.6596ZM83.0951 30.9222C77.4199 30.9028 72.8768 35.3615 72.8357 40.9652C72.7924 46.6858 77.1754 51.1445 82.7141 51.296C88.8135 51.4627 93.1575 46.7247 93.2332 41.4154C93.3177 35.4654 88.8892 30.9417 83.0951 30.9222Z" fill="black"/>
<path d="M38.5012 55.2548C36.5511 57.0815 34.0728 58.3845 31.2482 59.0079C26.8003 59.9905 22.7182 58.9365 18.9629 56.5772C14.2726 53.6314 11.2338 49.4238 10.2728 43.9478C9.26847 38.2294 11.0866 33.2166 14.9176 28.9916C18.6534 24.8727 23.3329 22.665 29.0124 22.784C32.4711 22.8554 35.3455 23.9701 38.4709 26.6756C38.4947 26.2449 38.5272 25.9138 38.5272 25.5826C38.5315 21.7321 38.5272 17.8816 38.5294 14.0311C38.5294 11.6978 39.8648 10.1892 41.8366 10.0355C44.869 9.79959 46.0594 11.8926 46.2304 13.8211C46.2434 13.964 46.2347 14.109 46.2347 14.2518C46.2347 27.7838 46.2391 41.3158 46.2326 54.8479C46.2326 57.8716 43.5097 59.6637 41.0315 58.1378C40.0272 57.5188 39.3908 56.3002 38.5012 55.2548ZM18.1167 41.0366C17.911 46.9044 22.7442 51.3198 28.2159 51.2852C34.1334 51.2506 38.4341 46.9823 38.4601 41.1513C38.4883 35.2706 34.1053 31.0002 28.2678 30.9223C22.4672 30.8443 17.8591 35.7922 18.1167 41.0366Z" fill="black"/>
<path d="M168.032 55.5664C166.209 56.5231 164.495 57.6724 162.612 58.365C156.824 60.4948 151.444 59.2524 146.6 55.7417C142.316 52.6379 139.989 48.2961 139.537 43.0127C138.868 35.2316 141.885 29.208 148.582 25.2514C153.844 22.1433 159.422 21.7797 165.01 24.548C166.053 25.0653 166.958 25.8596 167.973 26.5587C168.35 25.2839 169.094 24.2276 170.49 23.7839C173.122 22.9441 175.54 24.5631 175.555 27.3206C175.601 36.4588 175.592 45.5992 175.56 54.7396C175.551 56.9278 174.142 58.4473 172.172 58.6139C169.995 58.7979 168.491 57.6572 168.032 55.5729V55.5664ZM157.448 30.9222C151.874 30.8854 147.392 35.2814 147.208 40.66C146.993 46.9238 151.881 51.1813 157.078 51.2895C163.023 51.4129 167.551 47.1273 167.59 41.095C167.625 35.3095 163.279 31.0456 157.448 30.9222Z" fill="black"/>
<path d="M234.969 26.5891C235.668 24.2558 237.655 23.1303 239.833 23.6736C241.309 24.0415 242.454 25.4982 242.454 27.0566C242.456 36.3766 242.456 45.6945 242.454 55.0145C242.454 56.8738 241.317 58.2439 239.525 58.5728C237.69 58.9105 235.85 57.9538 235.194 56.3132C235.077 56.0188 234.993 55.7115 234.863 55.3219C232.686 57.2093 230.257 58.4408 227.511 59.0252C223 59.9841 218.903 58.8477 214.931 56.7223C213.05 55.7158 212.518 54.5362 212.829 52.3588C213.407 48.3026 211.665 45.082 208.241 42.8006C208.15 42.74 208.067 42.6513 207.97 42.6253C206.189 42.1556 206.286 40.7639 206.427 39.4047C207.481 29.2318 216.23 21.8685 226.573 22.8554C229.536 23.139 232.19 24.2342 234.456 26.2016C234.586 26.3142 234.731 26.4116 234.969 26.5891ZM224.708 30.9223C219.141 30.8876 214.654 35.2944 214.472 40.673C214.26 46.9282 219.156 51.1727 224.346 51.2939C230.313 51.4346 234.822 47.0429 234.857 41.1903C234.891 35.1992 230.469 31.05 224.708 30.9223Z" fill="black"/>
<path d="M130.851 23.8467C132.717 23.9138 134.683 23.5436 135.83 25.3488C136.282 26.0609 136.594 26.9959 136.594 27.8292C136.592 29.1755 135.968 30.4417 134.652 30.9308C133.516 31.3551 132.235 31.3919 130.854 31.6278V32.6213C130.854 37.3722 130.845 42.1231 130.862 46.8719C130.864 47.5472 130.934 48.2311 131.066 48.8913C131.332 50.2181 132.349 50.8717 134.1 51.1531C135.018 51.3003 136.037 51.5059 136.756 52.0318C138.135 53.0426 138.401 54.588 137.923 56.1811C137.447 57.7654 136.115 58.4039 134.624 58.5338C129.066 59.0251 124.226 56.2243 123.596 50.0925C123.168 45.926 123.376 41.6945 123.315 37.4934C123.291 35.7662 123.295 34.039 123.319 32.3117C123.326 31.7685 123.248 31.4135 122.663 31.1559C121.192 30.5109 120.324 29.3183 120.361 27.7123C120.399 26.0327 121.112 24.6929 122.841 24.0479C123.09 23.9549 123.285 23.3791 123.289 23.0242C123.324 19.929 123.293 16.8339 123.315 13.7388C123.328 11.9012 124.531 10.4229 126.207 10.0982C128.235 9.70428 129.895 10.5073 130.624 12.2951C130.793 12.7085 130.836 13.1977 130.838 13.6522C130.856 16.9984 130.847 20.3446 130.847 23.8445L130.851 23.8467Z" fill="black"/>
<path d="M182.791 34.158C182.791 27.3617 182.791 20.5654 182.791 13.7669C182.791 11.609 184.218 10.0787 186.241 10.0528C188.817 10.0225 190.317 11.306 190.321 13.6933C190.341 27.3942 190.341 41.095 190.321 54.798C190.319 56.8997 189.072 58.339 187.222 58.5749C185.148 58.839 183.488 57.8672 182.941 56.0274C182.822 55.627 182.798 55.1854 182.798 54.7612C182.789 47.8935 182.791 41.0236 182.791 34.1558V34.158Z" fill="black"/>
<path d="M256.68 40.9197C256.68 45.452 256.656 49.9864 256.689 54.5188C256.71 57.4667 255.028 58.668 252.894 58.7632C250.652 58.8628 249.027 57.0879 249.035 54.5469C249.046 51.244 249.169 47.9411 249.185 44.6381C249.21 38.8093 249.187 32.9784 249.195 27.1496C249.198 25.2384 250.446 23.7341 252.327 23.325C254.011 22.9592 255.764 23.9029 256.489 25.6388C256.676 26.0825 256.721 26.6106 256.723 27.0998C256.741 31.7057 256.734 36.3116 256.734 40.9175C256.717 40.9175 256.702 40.9175 256.684 40.9175L256.68 40.9197Z" fill="black"/>
<path d="M59.6957 40.9977C59.6957 45.6361 59.6957 50.2766 59.6936 54.915C59.6936 57.2417 58.2759 58.6162 55.9015 58.6118C53.7955 58.6075 52.209 56.9993 52.2068 54.8392C52.2025 45.5603 52.2155 36.2836 52.196 27.0047C52.1916 24.8857 53.6829 23.1282 56.027 23.1087C58.3278 23.0892 59.8083 25.0805 59.7412 27.1887C59.5962 31.7881 59.6957 36.394 59.6957 40.9977Z" fill="black"/>
<path d="M115.278 40.95C115.278 45.5559 115.282 50.1618 115.278 54.7677C115.276 57.1962 113.876 58.6139 111.503 58.6118C109.309 58.6118 107.744 57.0361 107.742 54.8024C107.737 45.5906 107.737 36.3787 107.742 27.1691C107.742 25.3358 108.765 23.9095 110.382 23.4268C112.231 22.877 113.804 23.3857 114.746 24.996C115.085 25.5782 115.248 26.3423 115.254 27.0241C115.298 31.6646 115.276 36.3073 115.276 40.9478L115.278 40.95Z" fill="black"/>
<path d="M202.535 58.6118C198.693 58.6053 195.543 55.4084 195.552 51.5211C195.561 47.5624 198.788 44.3633 202.745 44.3893C206.612 44.4153 209.824 47.6857 209.796 51.5666C209.768 55.5123 206.567 58.6183 202.535 58.6118Z" fill="black"/>
<path d="M263.972 28.4678V23.6974C265.992 23.7797 265.178 25.8792 266.221 26.6108C266.468 25.8727 266.676 25.0827 267.005 24.3446C267.128 24.0697 267.531 23.9204 267.805 23.7126C267.992 23.994 268.316 24.2667 268.336 24.5589C268.403 25.561 268.39 26.5718 268.342 27.5761C268.329 27.8531 268.091 28.1194 267.955 28.3899C267.838 28.3488 267.721 28.3098 267.604 28.2687V25.3272C267.539 25.3164 267.476 25.3034 267.411 25.2926C267.02 26.3164 266.63 27.3423 266.238 28.3661C266.121 28.3639 266.005 28.3596 265.888 28.3574C265.559 27.4614 265.232 26.5675 264.883 25.6194C264.277 26.4722 265.273 27.706 263.97 28.4678H263.972Z" fill="black"/>
<path d="M261.821 24.5198V28.3205C261.682 28.3205 261.542 28.3205 261.403 28.3205V24.7492C260.771 24.4462 260.397 24.2665 260.022 24.0869C260.444 23.9614 260.86 23.7882 261.29 23.7233C261.713 23.6605 262.156 23.6692 262.578 23.7276C262.799 23.7579 262.994 23.9614 263.202 24.0869C262.987 24.2059 262.782 24.351 262.555 24.4375C262.394 24.4981 262.204 24.483 261.821 24.5219V24.5198Z" fill="black"/>
<path d="M76.2253 41.2336C76.2253 37.2965 79.1862 34.2901 83.0475 34.301C86.9781 34.3118 89.9088 37.3139 89.898 41.3137C89.8871 45.0495 86.7704 48.1728 83.0562 48.1706C79.2078 48.1663 76.2231 45.1361 76.2253 41.2336Z" fill="#637E54"/>
<path d="M21.5022 41.1751C21.1927 37.264 24.8311 34.1797 28.2833 34.2922C32.0841 34.4156 35.0796 36.9328 35.0991 41.0842C35.1164 44.8806 32.4477 47.8285 28.3223 47.9346C24.3462 48.0363 21.2792 44.61 21.5022 41.1729V41.1751Z" fill="#637E54"/>
<path d="M150.625 41.1426C150.303 37.4717 153.738 34.2359 157.361 34.3225C161.302 34.4156 164.138 37.0951 164.22 40.9824C164.304 44.8568 161.564 47.8675 157.346 47.9411C153.681 48.006 150.381 44.9563 150.625 41.1426Z" fill="#637E54"/>
<path d="M217.89 41.1751C217.58 37.2661 221.218 34.2143 224.673 34.2835C228.439 34.3615 231.471 37.041 231.495 41.0885C231.519 45.0018 228.64 47.8502 224.712 47.9389C220.744 48.0277 217.66 44.6057 217.89 41.1729V41.1751Z" fill="#637E54"/>
</svg>
