<svg width="425" height="84" viewBox="0 0 425 84" fill="none" xmlns="http://www.w3.org/2000/svg">
<path fill-rule="evenodd" clip-rule="evenodd" d="M10.0002 35.1768L48.1349 35.1776C57.6489 35.1776 65.5468 41.4177 67.0697 50.499L28.9349 50.4978C19.421 50.4978 11.5234 44.2578 10.0002 35.1768Z" fill="#FF5757"/>
<path fill-rule="evenodd" clip-rule="evenodd" d="M10.0002 73.5374L48.1349 73.5366C57.6489 73.5366 65.5468 67.3138 67.0697 58.2324L28.9349 58.2337C19.421 58.2337 11.5234 64.4563 10.0002 73.5374Z" fill="#3A86FF"/>
<path fill-rule="evenodd" clip-rule="evenodd" d="M10.0002 27.4483L48.1349 27.4475C57.6489 27.4475 65.5468 21.1771 67.0697 12.0957L28.9349 12.0971C19.421 12.0971 11.5234 18.3672 10.0002 27.4483Z" fill="#FFB938"/>
<path fill-rule="evenodd" clip-rule="evenodd" d="M399.075 39.1768C397.203 39.1768 395.634 39.7052 394.364 40.7624C393.094 41.82 392.316 43.2651 392.035 45.0978H406.061C405.779 43.3004 405.001 41.8638 403.731 40.7893C402.461 39.7141 400.91 39.1768 399.075 39.1768ZM399.021 32.9384C401.809 32.9384 404.333 33.5377 406.591 34.7357C408.849 35.9343 410.62 37.6523 411.908 39.89C413.198 42.1282 413.841 44.7276 413.841 47.688C413.841 47.7937 413.787 48.5338 413.682 49.9083H392.142L392.188 50.11C392.6 51.7768 393.501 53.1022 394.894 54.0849C396.34 55.1072 398.14 55.6181 400.291 55.6181C401.773 55.6181 403.089 55.3974 404.236 54.9571C405.382 54.5168 406.45 53.8202 407.435 52.8689L411.831 57.6267L411.677 57.7987C409 60.7504 405.134 62.226 400.081 62.226C396.868 62.226 394.029 61.6003 391.558 60.3495C389.088 59.0982 387.183 57.3628 385.842 55.1425C384.503 52.9217 383.832 50.4021 383.832 47.5825C383.832 44.7978 384.493 42.2867 385.816 40.049C387.14 37.8108 388.957 36.0664 391.267 34.8149C393.578 33.5641 396.164 32.9384 399.021 32.9384ZM372.266 27.2904V34.2162H379.306C379.306 38.4454 376.959 40.5602 372.266 40.5602V52.1376C372.266 53.3361 372.568 54.2611 373.167 54.9134C373.766 55.5654 374.632 55.891 375.761 55.891C377.03 55.891 378.159 55.5385 379.147 54.8335L381.318 60.649C380.507 61.2481 379.508 61.6976 378.328 61.9969C377.146 62.2969 375.919 62.4467 374.65 62.4467C371.227 62.4467 368.598 61.5829 366.762 59.8559C364.929 58.1292 364.01 55.5918 364.01 52.2433V27.2904H372.266ZM348.238 62.0238H356.494V33.5815H348.238V62.0238ZM352.367 29.6168C353.883 29.6168 355.119 29.1674 356.072 28.2688C357.024 27.3696 357.5 26.2333 357.5 24.859C357.5 23.5902 357.024 22.5326 356.072 21.6867C355.119 20.8409 353.883 20.418 352.367 20.418C350.849 20.418 349.615 20.8583 348.663 21.7395C347.708 22.6208 347.235 23.7132 347.235 25.0174C347.235 26.3215 347.708 27.414 348.663 28.2952C349.615 29.1759 350.849 29.6168 352.367 29.6168ZM323.892 62.4467C325.656 62.4467 327.297 62.1205 328.815 61.4685C330.331 60.8162 331.636 59.8739 332.732 58.6399V62.0238H340.566V33.5815H332.307V47.6437C332.307 50.1812 331.708 52.0938 330.507 53.3799C329.309 54.6661 327.72 55.3099 325.746 55.3099C321.898 55.3099 319.976 53.0187 319.976 48.4368V33.5815H311.72V49.6528C311.72 53.8822 312.813 57.0717 315.002 59.2218C317.188 61.3717 320.152 62.4467 323.892 62.4467ZM290.866 62.6579C294.253 62.6579 297.13 62.1469 299.493 61.1247C301.859 60.103 303.63 58.7196 304.813 56.9752C305.995 55.23 306.587 53.3008 306.587 51.186C306.587 48.7187 305.942 46.7631 304.654 45.318C303.366 43.8728 301.823 42.8158 300.023 42.1456C298.223 41.4762 295.912 40.8067 293.091 40.1373C290.372 39.538 288.352 38.9297 287.028 38.313C285.707 37.6963 285.044 36.7537 285.044 35.485C285.044 34.2162 285.618 33.194 286.765 32.4184C287.912 31.6432 289.686 31.2557 292.084 31.2557C295.507 31.2557 298.93 32.2246 302.353 34.1634L304.997 27.6605C303.305 26.6035 301.329 25.7925 299.071 25.2286C296.813 24.6647 294.501 24.3827 292.136 24.3827C288.749 24.3827 285.882 24.8938 283.537 25.916C281.189 26.9382 279.435 28.3216 278.271 30.0661C277.106 31.8106 276.525 33.7579 276.525 35.9079C276.525 38.3747 277.167 40.3485 278.455 41.8289C279.743 43.3089 281.286 44.3838 283.086 45.0533C284.886 45.7235 287.197 46.3929 290.019 47.0623C291.854 47.4853 293.311 47.8728 294.386 48.2256C295.464 48.5779 296.344 49.0451 297.033 49.6264C297.722 50.2083 298.065 50.9395 298.065 51.8201C298.065 53.0187 297.483 53.9792 296.319 54.7016C295.154 55.4243 293.354 55.7855 290.92 55.7855C288.731 55.7855 286.545 55.4328 284.356 54.728C282.17 54.023 280.28 53.0891 278.693 51.9263L275.782 58.3758C277.441 59.6448 279.638 60.6754 282.372 61.4685C285.106 62.2613 287.937 62.6579 290.866 62.6579ZM266.787 62.4467C268.056 62.4467 269.283 62.2969 270.463 61.9969C271.645 61.6976 272.641 61.2481 273.455 60.649L271.284 54.8335C270.296 55.5385 269.167 55.891 267.898 55.891C266.769 55.891 265.903 55.5654 265.303 54.9134C264.704 54.2611 264.404 53.3361 264.404 52.1376V40.5602C269.096 40.5602 271.443 38.4454 271.443 34.2162H264.404V27.2904H256.147V52.2433C256.147 55.5918 257.065 58.1292 258.899 59.8559C260.734 61.5829 263.363 62.4467 266.787 62.4467ZM241.751 62.0238V48.5958C241.751 45.9521 242.422 43.9699 243.763 42.6484C245.103 41.3262 246.956 40.6657 249.32 40.6657C249.637 40.6657 250.255 40.701 251.172 40.7714V33.1586C248.985 33.1586 247.053 33.5113 245.377 34.2162C243.701 34.9211 242.368 35.9607 241.381 37.3351V33.5815H233.495V62.0238H241.751ZM210.525 55.6793C208.408 55.6793 206.662 54.9661 205.286 53.5384C203.909 52.1112 203.221 50.1994 203.221 47.8027C203.221 45.406 203.909 43.4942 205.286 42.0665C206.662 40.6393 208.408 39.9253 210.525 39.9253C212.607 39.9253 214.335 40.6393 215.711 42.0665C217.088 43.4942 217.776 45.406 217.776 47.8027C217.776 50.1994 217.088 52.1112 215.711 53.5384C214.335 54.9661 212.607 55.6793 210.525 55.6793ZM209.096 62.4467C212.977 62.4467 215.941 61.2128 217.988 58.7459V62.0238H225.873V33.5815H217.617V36.5948C215.57 34.3044 212.73 33.1586 209.096 33.1586C206.414 33.1586 203.989 33.7579 201.819 34.9559C199.648 36.1544 197.946 37.8635 196.711 40.0843C195.476 42.3046 194.859 44.8776 194.859 47.8027C194.859 50.7278 195.476 53.3008 196.711 55.5211C197.946 57.7411 199.648 59.451 201.819 60.649C203.989 61.8474 206.414 62.4467 209.096 62.4467ZM149.713 62.0238V47.75C149.713 45.2826 150.277 43.4236 151.407 42.1725C152.536 40.9212 154.053 40.2955 155.958 40.2955C159.557 40.2955 161.357 42.5337 161.357 47.0096V62.0238H169.613V47.75C169.613 45.2826 170.177 43.4236 171.307 42.1725C172.435 40.9212 173.971 40.2955 175.911 40.2955C177.64 40.2955 178.972 40.8505 179.907 41.9608C180.842 43.0713 181.31 44.754 181.31 47.0096V62.0238H189.566V45.7409C189.566 41.5468 188.517 38.4011 186.417 36.3045C184.318 34.2072 181.486 33.1586 177.923 33.1586C175.806 33.1586 173.856 33.5641 172.074 34.3746C170.292 35.1851 168.819 36.3308 167.655 37.8108C166.667 36.2955 165.361 35.1412 163.738 34.3482C162.115 33.5551 160.298 33.1586 158.287 33.1586C152.897 33.1586 149.274 34.072 146.563 35.9084C143.852 37.7447 141.457 41.3177 141.457 45.7235V62.0238H149.713ZM120.445 62.6579C123.832 62.6579 126.708 62.1469 129.071 61.1247C131.436 60.103 133.208 58.7196 134.39 56.9752C135.573 55.23 136.164 53.3008 136.164 51.186C136.164 48.7187 135.52 46.7631 134.232 45.318C132.944 43.8728 131.4 42.8158 129.601 42.1456C127.802 41.4762 125.49 40.8067 122.668 40.1373C119.951 39.538 117.931 38.9297 116.607 38.313C115.284 37.6963 114.623 36.7537 114.623 35.485C114.623 34.2162 115.196 33.194 116.343 32.4184C117.49 31.6432 119.262 31.2557 121.662 31.2557C125.084 31.2557 128.507 32.2246 131.93 34.1634L134.576 27.6605C132.882 26.6035 130.906 25.7925 128.648 25.2286C126.39 24.6647 124.079 24.3827 121.715 24.3827C118.328 24.3827 115.461 24.8938 113.114 25.916C110.768 26.9382 109.013 28.3216 107.848 30.0661C106.684 31.8106 106.102 33.7579 106.102 35.9079C106.102 38.3747 106.746 40.3485 108.033 41.8289C109.321 43.3089 110.865 44.3838 112.664 45.0533C114.464 45.7235 116.775 46.3929 119.598 47.0623C121.433 47.4853 122.888 47.8728 123.964 48.2256C125.041 48.5779 125.923 49.0451 126.61 49.6264C127.299 50.2083 127.643 50.9395 127.643 51.8201C127.643 53.0187 127.06 53.9792 125.896 54.7016C124.732 55.4243 122.932 55.7855 120.497 55.7855C118.31 55.7855 116.122 55.4328 113.935 54.728C111.747 54.023 109.86 53.0891 108.272 51.9263L105.361 58.3758C107.019 59.6448 109.216 60.6754 111.95 61.4685C114.684 62.2613 117.516 62.6579 120.445 62.6579Z" fill="#383C57"/>
</svg>
