<svg width="160" height="84" viewBox="0 0 160 84" fill="none" xmlns="http://www.w3.org/2000/svg">
<g clip-path="url(#clip0_14547_12475)">
<path d="M21.3764 15.7422H9.99756V60.6752C9.99756 67.9073 14.3506 69.9829 20.1104 69.9829C21.9156 69.9829 31.0749 69.2991 34.1228 69.0146C30.5357 67.4094 28.4881 64.4037 27.0814 62.0014C25.323 62.0201 24.3226 61.9475 24.0569 61.9475C22.0484 61.9475 21.3764 60.876 21.3764 58.8003V15.7422ZM124.145 39.1797H132.382V31.1442H124.145V19.6935L113.094 26.055V31.1442H107.608V39.1797H113.094V58.2642C113.094 66.2333 118.19 69.9829 125.419 69.9829C127.967 69.9829 130.913 69.5813 132.921 68.9115V60.876C132.179 61.144 130.913 61.4121 129.702 61.4121C125.888 61.4121 124.145 60.1398 124.145 56.4566V39.1797ZM45.8924 30.4744C35.3107 30.4744 27.2064 36.5015 27.2064 50.7648C27.2064 64.0231 35.5061 69.9829 45.8924 69.9829C56.4662 69.9829 64.5705 63.9567 64.5705 49.6934C64.5705 36.4343 56.2709 30.4744 45.8924 30.4744ZM149.06 31.1442H137.673V69.314H149.06V31.1442ZM80.4664 36.3006V31.1442H69.8144V69.314H81.201V45.8765C81.201 40.9209 83.741 38.9116 87.0233 38.9116C90.712 38.9116 92.3141 40.72 92.3141 45.8765V69.314H103.701V43.4655C103.701 34.5594 98.4099 30.4744 91.5795 30.4744C86.7576 30.4744 82.811 32.3493 80.5993 36.3006H80.4664ZM45.8924 61.6129C40.9298 61.6129 38.9213 56.5902 38.9213 50.3631C38.9213 42.3941 41.2033 38.8452 45.8924 38.8452C50.8472 38.8452 52.8557 43.8672 52.8557 50.0951C52.8557 57.9969 50.5736 61.6129 45.8924 61.6129ZM143.362 14.001C139.752 14.001 136.938 16.2783 136.938 20.4297C136.938 24.7155 139.752 27.0592 143.362 27.0592C146.981 27.0592 149.997 24.5147 149.997 20.4297C149.997 16.2783 146.981 14.001 143.362 14.001Z" fill="black"/>
</g>
<defs>
<clipPath id="clip0_14547_12475">
<rect width="140" height="56" fill="white" transform="translate(10 14)"/>
</clipPath>
</defs>
</svg>
