<svg width="317" height="84" viewBox="0 0 317 84" fill="none" xmlns="http://www.w3.org/2000/svg">
<path d="M176.598 18C176.258 19.295 175.9 20.3026 174.342 20.3026C172.376 20.3026 169.215 18.0461 163.796 18.0461C150.991 18.0461 148.875 27.2861 148.875 31.4014C148.875 34.5054 148.886 40.2841 160.434 45.8159L164.947 47.9804C169.346 50.0731 172.546 51.7033 172.546 56.2239C172.546 57.1007 172.192 63.7766 164.072 63.7766C155.438 63.7766 151.522 56.1318 150.164 49.316H148.23V65.9871H150.164C150.435 64.9039 150.766 63.6845 152.19 63.6845C154.292 63.6845 157.352 65.9871 163.796 65.9871C176.28 65.9871 180.605 57.8339 180.605 51.8949C180.605 44.5412 175.453 40.6064 173.144 39.4606L163.197 34.533C157.531 31.6998 156.243 30.2556 156.243 26.6119C156.243 22.2277 159.959 20.1645 163.473 20.1645C171.452 20.1645 175.519 27.9216 176.737 32.6448H178.625V18H176.598ZM62.9859 18.0461C59.9556 18.0461 57.7359 20.4666 57.7359 23.2961C57.7359 26.1937 59.8875 28.5001 62.9859 28.5001C65.8817 28.5001 68.1899 26.26 68.1899 23.2961C68.1899 20.4003 65.8817 18.0461 62.9859 18.0461ZM260.138 18.0461C257.106 18.0461 254.842 20.4666 254.842 23.2961C254.842 26.1937 257.04 28.5001 260.138 28.5001C263.036 28.5001 265.296 26.26 265.296 23.2961C265.296 20.4003 263.036 18.0461 260.138 18.0461ZM10.2554 19.0132V20.7171C13.1641 21.1905 14.1607 21.4098 15.9199 25.4606L33.2358 65.895H35.0779L50.5056 26.2435C51.994 22.4616 52.8635 21.1905 56.5846 20.7171V19.0132H42.17V20.7171C46.0256 20.9198 48.0187 21.1684 48.0187 23.8027C48.0187 25.1529 47.2469 26.9453 46.6371 28.5001L38.0713 50.6975L29.1831 29.3751C28.507 27.6858 27.1568 24.8564 27.1568 23.5724C27.1568 21.0063 28.7428 20.9879 33.0055 20.7171V19.0132H10.2554ZM300.849 26.704C298.126 26.704 295.829 28.7874 295.829 31.6317C295.829 34.4888 298.126 36.6054 300.849 36.6054C303.548 36.6054 305.823 34.4888 305.823 31.6317C305.823 28.7874 303.548 26.704 300.849 26.704ZM300.849 27.5329C303.091 27.5329 304.856 29.2848 304.856 31.6317C304.856 34.0061 303.091 35.7764 300.849 35.7764C298.585 35.7764 296.796 34.0061 296.796 31.6317C296.796 29.2848 298.585 27.5329 300.849 27.5329ZM298.915 28.8224V34.4869H299.79V32.0461H300.803L302.323 34.4869H303.29L301.632 32.0001C302.47 31.8951 303.106 31.4585 303.106 30.4343C303.106 29.3069 302.476 28.8224 301.125 28.8224H298.915ZM299.79 29.5593H300.987C301.59 29.5593 302.231 29.679 302.231 30.3882C302.231 31.2669 301.582 31.3093 300.849 31.3093H299.79V29.5593ZM86.2887 32.6448C78.5223 32.6448 72.3807 39.0443 72.3807 49.0396C72.3807 60.6413 79.2831 65.6647 86.1045 65.6647C91.5111 65.6647 95.339 63.4984 99.4598 57.191L97.848 56.2239C96.564 57.7842 94.1895 60.7831 90.2032 60.7831C83.7834 60.7831 82.3005 53.8862 82.0979 48.1186H99.1374C98.9348 44.5117 98.0469 32.6448 86.2887 32.6448ZM198.658 32.6448C189.252 32.6448 183.368 40.4849 183.368 49.2239C183.368 58.0292 189.252 65.6647 198.658 65.6647C207.859 65.6647 213.855 58.2318 213.855 49.2239C213.855 39.8088 207.522 32.6448 198.658 32.6448ZM237.757 32.6448C231.985 32.6448 229.082 36.7712 228.132 38.4014H227.993V33.5198H215.099V35.0856C217.805 35.4927 218.691 36.0398 218.691 39.0922V59.0331C218.691 62.3581 217.534 62.6566 215.099 63.1318V64.7437H231.401V63.1318C228.277 62.791 228.039 60.8255 228.039 59.2634V41.1646C228.039 40.5549 230.987 37.2041 233.704 37.2041C237.373 37.2041 237.434 40.9712 237.434 42.8686V59.2634C237.434 61.7723 236.498 62.9273 234.257 63.1318V64.7437H250.145V63.1318C246.831 62.9955 246.829 60.8918 246.829 59.2634V42.2238C246.829 34.7706 241.467 32.6448 237.757 32.6448ZM285.421 32.6448C279.127 32.6448 269.487 36.8062 269.487 50.1449C269.487 58.4713 275.327 65.6647 283.948 65.6647C289.257 65.6647 293.727 62.9366 296.842 58.5265L295.645 57.3292C294.02 59.1565 292.276 61.1055 288.415 61.1055C283.183 61.1055 279.066 55.616 279.066 46.1383C279.066 43.0915 279.554 34.7632 284.777 34.7632C285.781 34.7632 287.494 35.4025 287.494 37.4343C287.494 41.0891 287.523 44.3883 291.316 44.3883C291.858 44.3883 295.921 44.392 295.921 40.0593C295.921 35.1851 290.205 32.6448 285.421 32.6448ZM54.7885 33.5198V35.0856C57.3583 35.559 58.3806 36.0398 58.3806 39.0922V59.0331C58.3806 62.29 57.2238 62.5202 54.7885 63.1318V64.7437H70.9531V63.1318C68.3152 62.8592 67.7754 61.3671 67.7754 59.2634V33.5198H54.7885ZM100.427 33.5198V35.0856C102.186 35.4246 102.536 35.9293 104.295 40.3356L114.289 65.6647H115.947L124.19 45.1251H124.513L131.282 65.6647H132.848L143.348 38.4935C144.5 35.5111 145.422 35.3564 146.71 35.0856V33.5198H137.592V35.0856C139.489 35.2883 140.815 35.4504 140.815 37.6185C140.815 39.1106 137.391 47.157 135.565 52.3094H135.427C134.211 47.0207 131.328 38.2135 131.328 36.7896C131.328 35.3656 132.839 35.2219 134.598 35.0856V33.5198H118.756V35.0856C120.379 35.2883 121.14 35.3196 121.749 36.7435C122.088 37.5577 122.501 38.9043 123.177 41.2107L118.572 52.816C115.19 43.7307 112.861 38.582 112.861 37.158C112.861 35.3951 114.493 35.2219 115.44 35.0856V33.5198H100.427ZM251.895 33.5198V35.0856C254.466 35.559 255.487 36.0398 255.487 39.0922V59.0331C255.487 62.29 254.332 62.5202 251.895 63.1318V64.7437H268.059V63.1318C265.422 62.8592 264.882 61.3671 264.882 59.2634V33.5198H251.895ZM86.565 34.7632C88.9303 34.7632 89.7979 36.4893 90.2032 37.9869C90.7429 40.0262 90.7337 43.5243 90.8019 45.6317H81.7755C81.7755 36.2517 84.0634 34.7632 86.565 34.7632ZM198.658 34.7632C202.797 34.7632 203.954 38.792 203.954 49.2239C203.954 57.8265 203.386 63.5463 198.704 63.5463C193.275 63.5463 193.316 56.5389 193.316 49.2239C193.316 41.5017 193.634 34.7632 198.658 34.7632Z" fill="#A41A4A"/>
</svg>
