<svg width="237" height="84" viewBox="0 0 237 84" fill="none" xmlns="http://www.w3.org/2000/svg">
<path fill-rule="evenodd" clip-rule="evenodd" d="M95.8732 18.4284C94.9673 18.7614 93.966 19.4748 93.6323 19.998C93.4964 20.2239 93.1561 20.7825 92.7187 21.5005L92.714 21.5082L92.7077 21.5186C92.2262 22.309 91.6289 23.2894 91.0576 24.231C89.9133 26.0859 88.6259 28.2262 88.1968 28.9872C87.72 29.7957 85.9082 32.7921 84.144 35.6459C82.3799 38.4996 80.5681 41.496 80.0913 42.3045C79.7505 42.9466 78.4776 45.0585 77.0366 47.4491L77.0365 47.4492C76.663 48.0689 76.2782 48.7073 75.8954 49.3437C73.9883 52.3877 72.4625 55.1463 72.4625 55.3841C72.4625 55.6219 74.2267 57.5244 76.3246 59.5696C78.4701 61.5672 80.3297 63.2794 80.5204 63.3745C80.6634 63.4696 81.76 61.9477 82.952 60.0452C83.9579 58.4799 84.9298 56.8469 85.3807 56.0893L85.3809 56.089L85.3809 56.0889L85.3812 56.0884C85.4644 55.9486 85.5298 55.8387 85.5744 55.7646C85.6256 55.6795 85.7393 55.4895 85.9057 55.2113L85.9069 55.2093C86.6717 53.931 88.546 50.7982 90.5808 47.4412C91.0869 46.5965 91.5851 45.7657 92.06 44.9738C93.9111 41.8866 95.4072 39.3916 95.6348 38.9752C95.9209 38.452 96.4454 37.5483 96.8268 36.93C97.2083 36.3593 97.7804 35.9312 98.1142 35.9788C98.4479 36.0739 100.069 38.3569 101.738 41.1155C103.407 43.8741 104.694 46.3949 104.599 46.7278C104.456 47.1083 102.882 47.3461 99.3062 47.4412L94.2521 47.5364C91.0099 52.8633 90.104 54.7658 90.104 55.1463C90.104 55.7646 91.5821 55.8597 100.355 55.8597H110.606L116.328 65.3721C126.531 65.3721 129.678 65.277 129.821 65.1343C130.012 64.9916 129.773 64.1831 129.249 63.3745C128.772 62.5184 127.39 60.1879 126.198 58.2378C124.958 56.2878 124.004 54.528 123.957 54.3377C123.957 54.0999 122.288 51.3413 120.19 48.1547C118.14 44.9205 114.516 39.1179 112.132 35.1702C109.748 31.2702 106.601 26.181 105.171 23.8981C103.693 21.5675 102.024 19.3797 101.452 18.9992C100.832 18.6187 99.6876 18.1906 98.9247 18.0479C98.1142 17.9052 96.7791 18.0955 95.8732 18.4284ZM122.192 18.7138C121.62 18.9516 120.762 19.5699 120.285 20.1882C119.522 21.1395 119.427 22.3761 119.332 31.8885C119.189 41.9716 119.236 42.6375 120.19 44.5875C120.762 45.6814 123.051 49.534 125.339 53.1487C127.58 56.7158 129.63 59.6171 129.917 59.522C130.203 59.4269 130.441 55.4792 130.536 49.3913C130.584 43.779 130.87 39.2606 131.109 38.9752C131.442 38.6423 136.21 43.0655 145.079 51.8645C155.187 61.9477 158.953 65.4197 160.193 65.7526C161.242 66.038 162.482 66.0855 163.531 65.8477C164.437 65.6099 165.676 64.9441 166.296 64.3258C166.868 63.7074 167.583 62.2806 167.822 61.0915C168.06 59.9025 168.251 50.1998 168.251 39.4508C168.203 28.7018 168.013 19.5699 167.774 19.0943C167.393 18.3809 166.678 18.2857 162.005 18.3809L156.617 18.5236C156.426 42.3521 156.236 45.3961 155.807 45.3961C155.473 45.3961 149.513 39.6886 142.552 32.7921C135.59 25.8481 129.249 19.7602 128.486 19.237C127.628 18.6662 126.293 18.2857 125.149 18.3333C124.1 18.3333 122.765 18.5236 122.192 18.7138ZM10.0021 19.3321C10.0002 19.3456 10.0002 19.3607 10.0021 19.3773V19.3321ZM10.0021 19.3775L10.0021 19.3797V19.3773L10.0021 19.3775ZM10.0021 19.3775C10.0092 18.9036 12.3174 18.7614 29.5508 18.7614L38.0378 26.6567C42.6627 31.0324 48.2889 36.3117 54.5826 42.2094L51.7218 44.7778C50.1484 46.2046 47.7644 48.3925 46.4771 49.5815C45.142 50.8181 40.8509 54.8609 29.7892 65.3246L19.9195 65.3721C12.2907 65.3721 10.0021 65.2294 10.0021 64.7538C9.95444 64.4684 10.7173 63.5648 11.5756 62.7562C12.4815 61.9477 16.3912 58.3329 20.3009 54.6707C23.0872 52.0607 26.1884 49.1367 28.3445 47.1038C29.2138 46.2841 29.9295 45.6093 30.409 45.1583C32.0301 43.5887 33.4128 42.2094 33.3652 42.0667C33.3652 41.9241 29.2647 37.9288 24.2107 33.2202C19.8243 29.0923 15.2584 24.857 13.2246 22.9705L13.2245 22.9704L13.2245 22.9704C12.915 22.6833 12.6641 22.4506 12.4815 22.2809C11.1548 21.0489 10.0476 19.773 10.0021 19.3775ZM52.2463 24.7542L45.6665 30.8421C53.2953 38.024 55.7746 40.1167 56.013 40.1167C56.2991 40.1167 57.348 39.3081 58.397 38.3569C58.8742 37.9242 59.9336 36.9401 61.2924 35.6781L61.2926 35.6779L61.2979 35.673L61.2987 35.6723L61.2992 35.6718C62.9261 34.1607 64.981 32.2521 66.9793 30.4141C67.4891 29.9386 68.0081 29.4548 68.5274 28.9707L68.5295 28.9687C71.7498 25.967 74.9844 22.9519 76.1338 21.8053C77.5166 20.5212 78.5178 19.2845 78.4225 19.0467C78.2794 18.8565 73.8452 18.7138 68.5051 18.7138H58.8261L52.2463 24.7542ZM183.747 20.2358C183.938 20.0455 184.987 19.6175 186.083 19.3321C187.228 19.0467 192.329 18.8089 197.86 18.7614C205.155 18.7138 208.302 18.8565 210.257 19.4272C211.687 19.8077 213.737 20.5687 214.786 21.1395C215.835 21.6626 217.647 22.8993 218.791 23.8505C219.983 24.8017 221.605 26.514 222.367 27.6555C223.178 28.7969 224.322 30.9372 224.942 32.4117C225.8 34.4093 226.134 36.3593 226.325 39.8313C226.468 42.5899 226.325 45.729 226.039 47.2034C225.753 48.6779 224.894 51.1511 224.132 52.6731C223.369 54.2426 221.938 56.478 220.889 57.6671C219.888 58.8086 217.886 60.5208 216.455 61.5196C215.025 62.4708 212.545 63.7074 210.972 64.2782C208.397 65.1819 207.062 65.277 198.337 65.3246C189.611 65.3246 188.229 65.1819 185.463 64.2782C183.747 63.755 181.172 62.4708 179.742 61.5196C178.311 60.5684 176.404 58.9037 175.546 57.9049C174.688 56.8585 173.21 54.528 172.304 52.6731C171.398 50.8657 170.444 48.0595 170.158 46.49C169.824 44.968 169.729 41.8289 169.872 39.5935C170.015 37.4057 170.349 34.9324 170.683 34.1239C171.016 33.3629 171.827 31.6031 172.542 30.1762C173.21 28.7969 174.64 26.7518 175.689 25.6579C176.738 24.5164 178.645 22.9468 179.933 22.0907C181.22 21.2821 182.507 20.6163 182.841 20.6163C183.127 20.6163 183.556 20.426 183.747 20.2358ZM50.8636 48.2022C48.3366 50.5328 46.2387 52.7206 46.2387 53.0536C46.2387 53.3865 49.0041 56.2878 52.437 59.4744L58.6354 65.277C75.8954 65.277 78.1841 65.1819 78.1841 64.7062C78.1841 64.3733 74.4651 60.6635 69.9355 56.4305C66.5668 53.3177 63.0135 49.9945 60.8251 47.9477C60.0709 47.2424 59.4788 46.6886 59.1122 46.3473C57.6818 45.0156 56.2514 43.9217 56.013 43.9217C55.7269 43.9217 53.4383 45.8241 50.8636 48.2022ZM187.371 31.8409C186.179 32.5543 184.844 33.5531 184.367 34.1239C183.938 34.6946 183.175 35.9312 182.698 36.8349C182.174 37.9764 181.887 39.6411 181.935 42.0667C181.935 44.7302 182.174 46.1095 182.936 47.5364C183.509 48.5827 184.653 50.1047 185.559 50.9608C186.417 51.7694 187.8 52.7206 188.563 53.0536C189.325 53.3389 192.901 53.7194 196.43 53.8621C200.435 54.0048 203.868 53.8621 205.489 53.5292C206.919 53.1963 208.922 52.4353 209.923 51.817C210.877 51.1511 212.212 49.8194 212.832 48.8206C213.451 47.8693 214.167 45.8717 214.453 44.4448C214.786 42.5899 214.739 41.1155 214.357 39.4508C214.024 38.1191 213.356 36.3593 212.879 35.4556C212.355 34.5995 210.972 33.2202 209.875 32.3641L207.778 30.8897C189.601 30.6049 189.516 30.6517 187.384 31.8337L187.371 31.8409Z" fill="#3363ED"/>
</svg>
