<svg width="297" height="100" viewBox="0 0 297 100" fill="none" xmlns="http://www.w3.org/2000/svg">
<path d="M15.2753 10.0184C15.6207 10.0115 15.9638 10 16.3092 10C104.166 10 192.022 10 279.879 10C280.224 10 280.567 10.0115 280.913 10.0184C280.933 10.122 280.993 10.1773 281.099 10.2049C283.149 10.7046 284.597 11.9319 285.55 13.8016C285.794 14.2806 285.817 14.8424 286.167 15.2684C286.174 15.6506 286.186 16.0329 286.186 16.4151C286.186 39.0545 286.186 61.6916 286.186 84.3309C286.186 84.4645 286.172 84.598 286.165 84.7316C286.061 84.7523 286.006 84.8099 285.979 84.9181C285.481 86.9559 284.272 88.4066 282.405 89.3576C281.944 89.5924 281.401 89.6316 280.998 89.9839C280.653 89.9908 280.309 90 279.964 90C192.048 90 104.134 90 16.2171 90C15.8717 90 15.5286 89.9885 15.1832 89.9839C15.1556 89.8872 15.1049 89.8204 14.999 89.7928C13.0026 89.2494 11.5566 88.0543 10.6332 86.1938C10.3961 85.7148 10.3776 85.153 10.0184 84.7316C10.0115 84.3309 10 83.928 10 83.5273C10 60.9064 10 38.2877 10 15.6691C10 15.5355 10.0138 15.402 10.0207 15.2684C10.1243 15.2477 10.1796 15.1878 10.2072 15.0819C10.7069 13.0349 11.9365 11.5888 13.8085 10.6355C14.2875 10.3914 14.8516 10.3707 15.2776 10.0184H15.2753ZM109.075 50.0012C109.075 42.7801 109.075 35.5591 109.075 28.3381C109.075 27.5966 109.073 27.5943 108.343 27.5943C106.1 27.5943 103.855 27.5943 101.612 27.5943C101.076 27.5943 100.808 27.8568 100.806 28.3818C100.806 33.5144 100.797 38.6492 100.82 43.7818C100.822 44.3735 100.652 44.5209 100.076 44.5163C96.1457 44.4933 92.2128 44.5048 88.2822 44.5025C87.791 44.5025 87.5454 44.2469 87.5454 43.7357C87.5454 38.5824 87.5385 33.4315 87.5546 28.2782C87.5546 27.7509 87.4026 27.5782 86.8684 27.5851C84.529 27.6082 82.1895 27.6105 79.8501 27.5851C79.3135 27.5805 79.1639 27.7578 79.1639 28.2805C79.1754 42.7617 79.1754 57.2429 79.1639 71.7218C79.1639 72.2468 79.3158 72.4218 79.8523 72.4172C82.1527 72.3919 84.4553 72.408 86.7556 72.4057C87.2821 72.4057 87.5454 72.1393 87.5454 71.6067C87.5454 65.8409 87.5523 60.0751 87.5339 54.3094C87.5339 53.7982 87.679 53.6646 88.1832 53.6669C92.1138 53.6877 96.0467 53.6784 99.9773 53.6784C100.53 53.6784 100.807 53.9494 100.809 54.4913C100.809 60.2179 100.809 65.9445 100.809 71.6734C100.809 72.4034 100.811 72.4057 101.552 72.4057C103.795 72.4057 106.04 72.4057 108.283 72.4057C108.811 72.4057 109.076 72.1401 109.077 71.609C109.077 64.4064 109.077 57.2061 109.077 50.0035L109.075 50.0012ZM116.103 49.9919C116.103 57.2337 116.107 64.4731 116.093 71.7149C116.093 72.2215 116.208 72.4264 116.763 72.4195C119.006 72.3918 121.251 72.3918 123.494 72.4195C124.03 72.4264 124.182 72.2491 124.18 71.7241C124.159 68.6984 124.171 65.6705 124.171 62.6449C124.171 60.1926 124.178 57.7403 124.164 55.2903C124.162 54.8021 124.328 54.5857 124.832 54.6087C125.387 54.634 125.944 54.6271 126.499 54.6087C126.858 54.5995 127.04 54.7469 127.178 55.083C128.235 57.6505 129.315 60.211 130.386 62.7738C131.666 65.8317 132.951 68.8873 134.217 71.9497C134.346 72.2629 134.519 72.408 134.85 72.408C137.747 72.4057 140.642 72.4034 143.538 72.408C143.969 72.408 144.047 72.203 143.897 71.8646C143.706 71.4294 143.478 71.008 143.278 70.5774C140.676 65.005 138.079 59.4304 135.474 53.858C135.281 53.4459 135.295 53.2064 135.785 52.983C137.823 52.0505 139.412 50.5998 140.51 48.638C142.166 45.6745 142.521 42.4739 142.212 39.1535C142.051 37.4196 141.701 35.7364 140.941 34.1545C140.029 32.2502 138.733 30.6845 136.927 29.5608C134.581 28.1009 131.968 27.6312 129.264 27.6035C125.14 27.5644 121.019 27.592 116.895 27.5943C116.367 27.5943 116.102 27.8576 116.1 28.3841C116.1 35.5867 116.1 42.7893 116.1 49.9919H116.103ZM56.3863 72.4057C57.7103 72.4057 59.032 72.3895 60.356 72.4149C60.8695 72.4241 61.0146 72.2606 60.8557 71.7771C60.356 70.2389 59.8725 68.6984 59.3751 67.1603C58.8847 65.6383 58.3781 64.1208 57.8945 62.5965C57.3695 60.9478 56.8653 59.2945 56.3426 57.6436C55.8659 56.1376 55.3686 54.6409 54.8942 53.1327C54.2403 51.0465 53.6094 48.9535 52.9508 46.8673C52.0689 44.0742 51.1686 41.288 50.2775 38.4973C49.612 36.4134 48.9466 34.3295 48.288 32.2433C47.8643 30.9032 47.4475 29.5585 47.04 28.2137C46.9156 27.7993 46.713 27.5805 46.2295 27.5851C43.966 27.6059 41.7025 27.6105 39.4413 27.5851C38.8887 27.5782 38.6723 27.8108 38.5249 28.3058C38.0759 29.821 37.59 31.3269 37.1019 32.8305C36.4456 34.8568 35.7617 36.8762 35.1101 38.9025C34.4538 40.9495 33.8298 43.0081 33.1782 45.0574C32.1973 48.1383 31.2072 51.2169 30.2193 54.2978C29.2914 57.1922 28.368 60.0866 27.4355 62.9787C26.4845 65.9307 25.5266 68.8781 24.5664 71.8277C24.4374 72.2215 24.5388 72.4103 24.9717 72.4103C27.6381 72.4057 30.3022 72.4034 32.9687 72.4126C33.291 72.4126 33.4499 72.2951 33.5351 71.982C33.7562 71.1553 34.0071 70.3356 34.2443 69.5159C34.7532 67.7613 35.2874 66.0159 35.7571 64.2521C35.8953 63.7363 36.1348 63.5728 36.6321 63.5751C40.5834 63.5866 44.5324 63.5912 48.4837 63.5682C49.0064 63.5659 49.2021 63.8031 49.3311 64.2221C50.1025 66.7711 50.8854 69.3155 51.6314 71.8692C51.7535 72.2882 51.9584 72.4195 52.359 72.4149C53.7015 72.4034 55.0439 72.4103 56.3863 72.4103V72.4057ZM63.8445 49.9413C63.8445 57.183 63.8514 64.4225 63.833 71.6642C63.833 72.2399 63.9896 72.4264 64.5768 72.4172C66.8771 72.3872 69.1797 72.3895 71.48 72.4172C72.0165 72.4241 72.1662 72.2468 72.1639 71.7218C72.1524 57.2406 72.1524 42.7594 72.1639 28.2782C72.1639 27.7555 72.0165 27.5782 71.48 27.5828C69.1981 27.6082 66.9162 27.5943 64.6343 27.5943C64.1078 27.5943 63.8445 27.8607 63.8445 28.3933C63.8445 35.5775 63.8445 42.7594 63.8445 49.9436V49.9413ZM156.622 49.9989C156.622 41.0923 156.622 32.1858 156.622 23.2792C156.622 23.1249 156.613 22.973 156.622 22.8187C156.64 22.5263 156.518 22.4019 156.219 22.4088C155.701 22.4226 155.183 22.4111 154.665 22.4111C154.118 22.4111 153.845 22.6744 153.845 23.2009C153.845 41.0716 153.845 58.9422 153.845 76.8129C153.845 76.9096 153.854 77.0063 153.845 77.1007C153.803 77.4691 153.946 77.6211 154.331 77.6027C154.846 77.5774 155.367 77.5981 155.883 77.5958C156.374 77.5958 156.619 77.341 156.619 76.8313C156.619 67.8856 156.619 58.9422 156.619 49.9965L156.622 49.9989ZM225.099 38.8542C225.208 39.0775 225.314 39.2709 225.399 39.4736C226.276 41.6242 227.158 43.7726 228.021 45.9278C228.203 46.3814 228.482 46.6025 228.979 46.5334C229.15 46.5104 229.325 46.5127 229.495 46.5334C229.905 46.5818 230.119 46.4045 230.264 46.0222C230.623 45.0804 231.026 44.1571 231.411 43.2245C231.947 41.9212 232.486 40.6203 233.023 39.317C233.09 39.1581 233.172 38.9509 233.364 39.013C233.548 39.0752 233.417 39.2732 233.403 39.416C233.191 41.6472 233.244 43.8854 233.235 46.1235C233.235 46.462 233.4 46.5426 233.702 46.5334C234.22 46.5196 234.738 46.5127 235.254 46.5334C235.662 46.5518 235.786 46.3768 235.786 45.99C235.777 42.6581 235.777 39.3262 235.786 35.9966C235.786 35.6259 235.673 35.4854 235.293 35.4969C234.49 35.52 233.681 35.5292 232.878 35.4923C232.472 35.4739 232.288 35.6489 232.157 35.9874C231.756 37.019 231.349 38.0482 230.937 39.0752C230.386 40.4499 229.829 41.8222 229.272 43.2084C229.03 43.0933 228.956 42.9183 228.887 42.7456C227.969 40.466 227.041 38.1887 226.14 35.8999C226.016 35.5867 225.843 35.4969 225.544 35.4992C224.72 35.5061 223.895 35.5177 223.071 35.4946C222.663 35.4831 222.541 35.6351 222.548 36.0311C222.567 37.4104 222.555 38.7874 222.555 40.1667C222.555 42.0801 222.567 43.9959 222.548 45.9094C222.544 46.3883 222.709 46.5679 223.184 46.5334C223.603 46.5035 224.031 46.492 224.448 46.5334C225.044 46.5956 225.175 46.3469 225.189 45.7804C225.245 43.6735 225.021 41.5805 224.971 39.4782C224.966 39.2847 224.888 39.0637 225.099 38.8472V38.8542ZM185.886 57.3857C186.109 57.4432 186.171 57.5975 186.252 57.7149C187.369 59.3567 188.483 61.0008 189.593 62.6472C190.334 63.7463 191.367 64.2812 192.69 64.2521C192.708 64.2521 192.729 64.2521 192.748 64.2521C193.1 64.2958 193.21 64.137 193.21 63.7916C193.201 60.4228 193.201 57.0518 193.21 53.683C193.21 53.34 193.107 53.1972 192.75 53.2133C192.253 53.2363 191.753 53.2432 191.256 53.2133C190.811 53.1834 190.657 53.3215 190.664 53.789C190.689 55.7232 190.678 57.6551 190.671 59.5893C190.671 59.7873 190.747 60.006 190.556 60.2156C190.452 60.0958 190.344 59.9945 190.263 59.8748C189.103 58.1709 187.836 56.5245 186.823 54.7353C186.105 53.4643 185.218 53.0153 183.839 53.2041C183.422 53.2617 183.284 53.3492 183.288 53.7729C183.307 55.7646 183.298 57.7541 183.298 59.7458C183.298 61.086 183.309 62.4261 183.291 63.7662C183.286 64.1416 183.41 64.282 183.788 64.2613C184.246 64.2383 184.709 64.2291 185.167 64.2613C185.665 64.2981 185.84 64.1277 185.833 63.6143C185.805 61.9103 185.819 60.2064 185.826 58.5024C185.826 58.1455 185.768 57.7817 185.89 57.388L185.886 57.3857ZM178.359 60.2432C178.232 60.082 178.131 59.9715 178.048 59.8472C176.899 58.157 175.653 56.5245 174.635 54.7584C173.908 53.4988 173.03 52.9347 171.614 53.2156C171.577 53.2225 171.538 53.2202 171.499 53.2156C171.202 53.188 171.08 53.3261 171.094 53.6209C171.105 53.888 171.094 54.1574 171.094 54.4245C171.094 57.5077 171.103 60.5886 171.085 63.6718C171.082 64.1208 171.204 64.2981 171.667 64.259C172.086 64.2221 172.512 64.2244 172.931 64.259C173.447 64.3004 173.638 64.1323 173.629 63.5843C173.597 61.7077 173.613 59.831 173.622 57.9567C173.622 57.7702 173.518 57.5353 173.781 57.3765C173.889 57.5169 173.997 57.6459 174.092 57.784C175.457 59.7896 176.82 61.7929 178.179 63.8031C178.347 64.0518 178.497 64.2659 178.844 64.2544C179.418 64.236 179.996 64.2383 180.569 64.2544C180.891 64.2636 181.004 64.1416 181.004 63.8192C180.997 60.4297 180.995 57.0426 181.004 53.6531C181.004 53.2801 180.843 53.1995 180.516 53.211C180.037 53.2271 179.556 53.2432 179.079 53.2064C178.612 53.1719 178.448 53.3169 178.455 53.8074C178.483 55.7209 178.469 57.6367 178.462 59.5501C178.462 59.7528 178.517 59.9669 178.349 60.2386L178.359 60.2432ZM265.135 58.6936C265.135 60.3791 265.142 62.0646 265.128 63.7501C265.126 64.1139 265.23 64.2751 265.616 64.259C266.132 64.236 266.653 64.236 267.168 64.259C267.553 64.2774 267.666 64.1162 267.657 63.7501C267.636 62.9465 267.65 62.1406 267.65 61.337C267.65 60.1258 267.65 60.1534 268.877 60.1143C269.416 60.0958 269.743 60.2847 269.982 60.7406C270.311 61.3646 270.682 61.9656 271.005 62.5919C271.861 64.2498 271.854 64.2521 273.699 64.2521C273.871 64.2521 274.044 64.2406 274.217 64.2521C274.631 64.2843 274.67 64.1554 274.465 63.81C273.735 62.5804 273.031 61.337 272.303 60.1051C272.101 59.762 272.089 59.5824 272.513 59.3613C274.518 58.3136 274.832 55.6334 273.125 54.1735C272.356 53.5173 271.391 53.2732 270.41 53.2386C268.84 53.1834 267.267 53.234 265.695 53.2041C265.22 53.1949 265.117 53.3699 265.121 53.8074C265.142 55.4353 265.131 57.0633 265.131 58.6912L265.135 58.6936ZM262.92 58.7373C262.92 57.0725 262.909 55.4054 262.929 53.7406C262.934 53.3354 262.8 53.1949 262.402 53.2133C261.905 53.2386 261.405 53.2432 260.908 53.2133C260.436 53.1811 260.316 53.386 260.325 53.8212C260.346 54.8919 260.313 55.9649 260.339 57.038C260.35 57.5215 260.212 57.7334 259.692 57.7218C258.504 57.6942 257.315 57.7011 256.127 57.7195C255.632 57.7265 255.441 57.5238 255.448 57.0334C255.466 55.9235 255.446 54.8136 255.457 53.7015C255.462 53.3699 255.37 53.2041 255.006 53.2179C254.469 53.2386 253.933 53.2363 253.396 53.2179C253.046 53.2064 252.924 53.3423 252.931 53.69C252.95 54.436 252.936 55.1821 252.936 55.9304C252.936 58.5139 252.947 61.0998 252.927 63.6833C252.922 64.1485 253.072 64.2958 253.518 64.2659C253.977 64.2337 254.439 64.236 254.898 64.2659C255.319 64.2912 255.471 64.1485 255.462 63.7156C255.437 62.5297 255.466 61.3416 255.446 60.1557C255.439 59.6998 255.572 59.4949 256.065 59.5041C257.29 59.5294 258.517 59.5294 259.745 59.5041C260.198 59.4949 260.346 59.6491 260.337 60.1005C260.313 61.307 260.337 62.5113 260.323 63.7179C260.318 64.0978 260.429 64.2866 260.845 64.2682C261.361 64.2429 261.882 64.2429 262.397 64.2682C262.793 64.2866 262.932 64.1485 262.927 63.7432C262.909 62.0784 262.918 60.4113 262.918 58.7465L262.92 58.7373ZM201.152 40.9841C201.152 42.6097 201.171 44.2354 201.141 45.861C201.131 46.3999 201.318 46.5564 201.841 46.5403C202.951 46.5081 204.063 46.561 205.173 46.5196C206.05 46.4874 206.925 46.3469 207.728 45.9647C210.222 44.7834 211.429 42.0249 210.639 39.3676C209.927 36.9775 208.028 35.5407 205.504 35.5061C204.258 35.49 203.015 35.52 201.769 35.4923C201.304 35.4831 201.134 35.6121 201.141 36.1025C201.168 37.7282 201.152 39.3538 201.152 40.9795V40.9841ZM262.941 40.9864C262.895 41.8752 262.929 42.7087 263.27 43.5055C264.145 45.5525 265.745 46.5403 267.914 46.6485C269.363 46.7222 270.719 46.4183 271.852 45.4166C273.77 43.7196 273.779 41.4976 273.406 39.2732C273.033 37.0558 271.513 35.7663 269.349 35.3726C267.505 35.0387 265.748 35.3772 264.361 36.7703C263.194 37.9423 262.803 39.4091 262.941 40.9864ZM195.041 58.7304C195.041 58.9584 195.032 59.2255 195.041 59.4926C195.099 60.9478 195.617 62.1981 196.704 63.1952C197.526 63.9504 198.536 64.3073 199.605 64.411C201.311 64.5768 202.879 64.1761 204.079 62.859C205.594 61.1965 205.555 59.1748 205.283 57.1324C205.186 56.414 204.901 55.7485 204.484 55.136C203.577 53.8028 202.251 53.165 200.719 53.0406C199.02 52.9025 197.452 53.3377 196.284 54.6985C195.301 55.8429 194.951 57.2015 195.039 58.7304H195.041ZM212.661 40.9657C212.661 42.5936 212.679 44.2216 212.651 45.8495C212.642 46.3768 212.808 46.5472 213.342 46.5403C215.548 46.515 217.752 46.5403 219.958 46.5265C221.116 46.5196 221.125 46.7982 221.144 45.3568C221.15 44.8525 220.994 44.6913 220.487 44.7005C218.954 44.7281 217.42 44.7005 215.884 44.7189C215.451 44.7235 215.249 44.6084 215.272 44.1387C215.304 43.5285 215.302 42.9114 215.272 42.3012C215.249 41.8338 215.445 41.7094 215.882 41.7186C216.937 41.7416 217.991 41.737 219.046 41.7232C220.434 41.7048 220.206 41.9673 220.246 40.4982C220.257 40.0469 220.094 39.8926 219.642 39.8996C218.376 39.9203 217.112 39.8949 215.845 39.9134C215.438 39.9203 215.242 39.8167 215.27 39.3699C215.302 38.8542 215.297 38.3361 215.27 37.8203C215.247 37.3598 215.442 37.2216 215.882 37.2285C217.243 37.2469 218.606 37.2446 219.967 37.2331C221.1 37.2216 221.134 37.5186 221.134 36.0473C221.134 35.6029 220.964 35.4325 220.52 35.4348C218.104 35.4463 215.686 35.4463 213.271 35.4348C212.799 35.4348 212.64 35.6098 212.647 36.0841C212.67 37.7121 212.656 39.34 212.656 40.968L212.661 40.9657ZM189.639 46.5311C189.849 46.5311 190.063 46.5104 190.27 46.5357C190.786 46.6002 191.104 46.4229 191.232 45.8887C191.325 45.5018 191.497 45.1334 191.626 44.7558C191.769 44.3413 191.976 44.0857 192.494 44.118C193.296 44.1686 194.102 44.1318 194.907 44.1318C195.919 44.1318 196.587 44.6115 196.911 45.5709C197.127 46.2126 197.584 46.5334 198.281 46.5334C198.645 46.5334 199.008 46.538 199.372 46.5334C199.913 46.5242 199.999 46.3768 199.78 45.8656C198.364 42.5568 196.941 39.2479 195.543 35.9321C195.405 35.6029 195.228 35.4969 194.903 35.5061C194.387 35.5177 193.869 35.52 193.351 35.5061C193.022 35.4969 192.837 35.6052 192.711 35.9367C192.402 36.7565 192.048 37.5555 191.705 38.3614C190.615 40.9196 189.522 43.4755 188.437 46.0337C188.301 46.3538 188.382 46.5541 188.78 46.5357C189.068 46.5242 189.354 46.5334 189.641 46.5357L189.639 46.5311ZM175.342 46.5311C175.572 46.5311 175.803 46.5311 176.031 46.5311C176.698 46.5265 176.758 46.416 176.493 45.7943C175.31 43.0265 174.122 40.2611 172.963 37.4841C172.121 35.4647 172.141 35.4601 170.14 35.4992C169.793 35.5061 169.595 35.5959 169.457 35.9529C168.991 37.1387 168.48 38.3107 167.983 39.4828C167.06 41.6564 166.132 43.8255 165.206 45.9969C165.056 46.3469 165.121 46.5449 165.554 46.5334C166.148 46.5196 166.742 46.5265 167.336 46.5311C167.621 46.5311 167.801 46.4114 167.893 46.1374C168.045 45.686 168.22 45.2416 168.37 44.7903C168.517 44.3528 168.727 44.0857 169.27 44.118C170.147 44.1686 171.032 44.1249 171.913 44.1341C173.357 44.1479 173.033 43.9061 173.597 45.3176C174.076 46.5196 174.037 46.5334 175.344 46.5334L175.342 46.5311ZM226.771 64.2521C226.962 64.2521 227.153 64.2521 227.347 64.2521C228.148 64.2521 228.155 64.2314 227.856 63.5106C226.509 60.2755 225.162 57.038 223.828 53.7959C223.663 53.3929 223.467 53.1604 222.993 53.2087C222.594 53.2502 222.189 53.2317 221.786 53.2133C221.39 53.1949 221.157 53.3215 221.017 53.7268C220.794 54.3738 220.49 54.9909 220.229 55.6242C219.097 58.3712 217.973 61.1228 216.831 63.8652C216.683 64.2198 216.822 64.2544 217.109 64.2521C217.722 64.2475 218.337 64.2337 218.949 64.259C219.281 64.2728 219.424 64.1393 219.523 63.8422C219.695 63.3195 219.921 62.8129 220.091 62.2902C220.179 62.0231 220.331 61.931 220.596 61.9333C221.823 61.9402 223.048 61.9379 224.275 61.9333C224.538 61.9333 224.703 62.0139 224.759 62.3041C224.805 62.5435 224.922 62.7669 225 63.0018C225.283 63.8353 225.875 64.2521 226.776 64.2521H226.771ZM238.991 58.735C238.991 60.3814 239.007 62.0301 238.982 63.6764C238.975 64.1323 239.113 64.2659 239.569 64.2613C241.66 64.2383 243.751 64.2521 245.841 64.2521C247.099 64.2521 247.08 64.2521 247.083 63.0087C247.083 62.5597 246.944 62.4146 246.489 62.4238C245.052 62.4514 243.613 62.4169 242.173 62.4445C241.69 62.4537 241.467 62.3478 241.508 61.8136C241.552 61.2241 241.538 60.6255 241.513 60.0337C241.492 59.587 241.653 59.4212 242.109 59.4304C243.164 59.4557 244.218 59.4442 245.273 59.4373C246.525 59.4281 246.309 59.5755 246.362 58.3804C246.385 57.8324 246.178 57.6873 245.662 57.7011C244.474 57.7311 243.283 57.7011 242.095 57.7172C241.681 57.7218 241.494 57.5837 241.515 57.1531C241.538 56.6742 241.549 56.1929 241.513 55.7163C241.471 55.2028 241.625 55.0071 242.178 55.0255C243.403 55.0669 244.633 55.0393 245.86 55.0393C247.099 55.0393 247.083 55.0393 247.087 53.7752C247.087 53.3538 246.974 53.2087 246.537 53.2133C244.216 53.2317 241.895 53.234 239.576 53.2133C239.12 53.2087 238.982 53.3423 238.989 53.7982C239.014 55.4446 238.998 57.0932 238.998 58.7396L238.991 58.735ZM186.3 39.1949V39.1903C186.646 39.1903 186.991 39.1926 187.336 39.1903C187.532 39.188 187.668 39.1374 187.615 38.8818C187.313 37.415 186.521 36.3305 185.119 35.7525C183.749 35.1884 182.342 35.1147 180.91 35.5108C179.388 35.9321 178.326 36.8601 177.781 38.3499C177.239 39.8282 177.221 41.3341 177.546 42.8607C177.85 44.286 178.596 45.389 179.89 46.0729C181.106 46.7153 182.407 46.7245 183.747 46.5702C185.481 46.3699 187.235 45.2393 187.569 43.2522C187.617 42.9643 187.569 42.863 187.286 42.863C186.653 42.8676 186.019 42.863 185.388 42.863C185.151 42.863 184.983 42.9482 184.944 43.2107C184.79 44.2446 184.097 44.6913 183.143 44.8456C181.373 45.1334 180.293 44.2101 180.09 42.5821C179.961 41.5367 179.945 40.4913 180.083 39.4436C180.403 37.0213 182.413 36.6828 184.092 37.4058C184.523 37.5923 184.847 38.0068 184.896 38.4673C184.965 39.1051 185.273 39.2755 185.842 39.1973C185.992 39.1765 186.148 39.1949 186.303 39.1949H186.3ZM207.484 53.2179C207.178 53.2179 206.87 53.2317 206.563 53.2156C206.114 53.1926 206.036 53.3469 206.204 53.7613C206.72 55.0347 207.208 56.3195 207.701 57.6021C208.486 59.6491 209.269 61.6962 210.05 63.7455C210.185 64.1024 210.379 64.3004 210.812 64.2636C211.364 64.2175 211.924 64.2452 212.479 64.2544C212.76 64.259 212.919 64.1761 213.029 63.8814C213.499 62.6126 214.008 61.3577 214.496 60.0958C215.327 57.9452 216.142 55.7876 216.987 53.6439C217.128 53.2847 217.049 53.211 216.702 53.2179C216.069 53.2294 215.435 53.2386 214.804 53.2133C214.448 53.1995 214.282 53.363 214.18 53.6715C213.4 56.0432 212.617 58.4126 211.836 60.7843C211.788 60.9294 211.765 61.1159 211.585 61.132C211.357 61.1528 211.403 60.9317 211.36 60.8004C210.671 58.7212 210.017 56.6281 209.287 54.5626C208.714 52.9439 209.202 53.2479 207.487 53.2179H207.484ZM240.847 44.4265C240.847 44.963 240.859 45.4995 240.842 46.0337C240.831 46.4091 240.99 46.5472 241.356 46.5357C241.853 46.5173 242.353 46.5081 242.85 46.538C243.318 46.5656 243.509 46.4068 243.493 45.9209C243.463 45.0597 243.514 44.1962 243.474 43.3374C243.449 42.7548 243.596 42.2459 243.887 41.7601C244.142 41.3341 244.407 40.915 244.658 40.4867C245.554 38.9555 246.436 37.4173 247.343 35.8953C247.543 35.5568 247.419 35.5061 247.113 35.5084C246.5 35.5108 245.885 35.5269 245.273 35.5015C244.87 35.4831 244.653 35.6489 244.471 36.0012C243.806 37.3068 243.106 38.594 242.424 39.8926C242.236 40.2542 242.102 40.314 241.89 39.8926C241.252 38.6354 240.578 37.3989 239.938 36.144C239.712 35.7019 239.449 35.4325 238.89 35.4969C238.36 35.5568 237.817 35.52 237.28 35.5061C236.896 35.4969 236.785 35.6052 236.999 35.9644C237.92 37.5232 238.793 39.1121 239.758 40.6433C240.497 41.8153 241.158 42.9735 240.845 44.4311L240.847 44.4265ZM256.97 35.4394C255.646 35.4394 254.324 35.4394 253 35.4394C251.748 35.4394 251.715 35.4808 251.812 36.7334C251.84 37.0834 251.966 37.2492 252.342 37.24C253.148 37.2216 253.954 37.2331 254.757 37.2354C255.316 37.2354 255.595 37.5064 255.595 38.0482C255.595 40.6341 255.614 43.2199 255.584 45.8058C255.577 46.3999 255.768 46.6025 256.341 46.538C256.664 46.5012 256.993 46.5311 257.318 46.5311C257.913 46.5311 258.212 46.2417 258.213 45.663C258.213 43.1163 258.213 40.5673 258.213 38.0206C258.213 37.3068 258.287 37.2377 259.01 37.2354C259.683 37.2331 260.353 37.2423 261.025 37.2354C262.024 37.2216 262.098 37.4887 262.107 36.1325C262.112 35.6029 261.921 35.4256 261.4 35.4348C259.924 35.4601 258.446 35.444 256.97 35.444V35.4394ZM231.201 59.6584C231.201 60.9985 231.222 62.3386 231.19 63.6787C231.178 64.1485 231.342 64.2889 231.782 64.259C232.182 64.2314 232.585 64.2544 232.988 64.2544C233.521 64.2544 233.788 63.9957 233.79 63.4784C233.79 60.9133 233.806 58.3482 233.778 55.783C233.771 55.2258 233.889 54.9748 234.501 55.0278C235.109 55.0807 235.726 55.0416 236.341 55.0393C237.623 55.0301 237.474 55.1936 237.513 53.865C237.527 53.3676 237.393 53.2041 236.875 53.2087C234.172 53.234 231.471 53.2087 228.768 53.2248C227.298 53.234 227.554 52.9554 227.515 54.5074C227.506 54.9057 227.66 55.0531 228.056 55.0439C228.899 55.0255 229.744 55.0623 230.587 55.0301C231.056 55.0117 231.224 55.1544 231.213 55.6403C231.183 56.9804 231.204 58.3205 231.204 59.6607L231.201 59.6584ZM166.263 58.7373C166.263 60.2294 166.256 61.7215 166.263 63.2136C166.27 64.411 166.104 64.2429 167.294 64.2498C168.784 64.259 168.784 64.2498 168.784 62.7508C168.784 59.7666 168.775 56.7801 168.793 53.7959C168.796 53.3354 168.653 53.1834 168.206 53.211C167.73 53.2409 167.248 53.2409 166.769 53.211C166.355 53.1857 166.247 53.3538 166.251 53.7429C166.267 55.4077 166.258 57.0725 166.258 58.7373H166.263Z" fill="#31BAEC"/>
<path d="M124.157 41.5482C124.157 40.0377 124.169 38.5249 124.15 37.0144C124.146 36.593 124.224 36.395 124.714 36.4065C126.361 36.4433 128.009 36.3811 129.653 36.4548C131.332 36.5308 132.73 37.2147 133.543 38.7667C134.484 40.5627 134.342 44.1502 132.269 45.6331C131.205 46.3929 129.987 46.69 128.723 46.7545C127.406 46.8212 126.08 46.7498 124.76 46.7798C124.263 46.7913 124.143 46.5956 124.15 46.1397C124.171 44.6084 124.157 43.0795 124.157 41.5482Z" fill="#31BAEC"/>
<path d="M42.5361 39.987C43.0127 40.3186 42.9551 40.8022 43.0657 41.1798C43.6666 43.243 44.1962 45.3268 44.7673 47.3992C45.2578 49.1768 45.7712 50.9452 46.2732 52.7206C46.439 53.3077 46.6025 53.8972 46.7614 54.4867C46.8949 54.984 46.5265 54.915 46.2525 54.9173C44.4887 54.9242 42.7249 54.9196 40.9611 54.9196C40.291 54.9196 39.6186 54.9242 38.9486 54.9173C38.5502 54.9126 38.3522 54.7998 38.495 54.3186C39.0476 52.4604 39.5657 50.5906 40.093 48.7255C40.4959 47.2956 40.8943 45.8656 41.2949 44.4357C41.7025 42.9759 42.1101 41.516 42.5384 39.9894L42.5361 39.987Z" fill="#31BAEC"/>
<path d="M269.188 55.0439C269.476 55.0439 269.761 55.0347 270.049 55.0439C270.998 55.0784 271.619 55.6196 271.682 56.46C271.76 57.487 271.302 58.088 270.316 58.3067C269.575 58.4725 268.831 58.3597 268.089 58.3919C267.774 58.4057 267.65 58.2284 267.652 57.9268C267.657 57.1047 267.661 56.285 267.65 55.463C267.645 55.1337 267.792 55.0232 268.101 55.0324C268.465 55.0439 268.826 55.0347 269.19 55.0347V55.0416L269.188 55.0439Z" fill="#31BAEC"/>
<path d="M203.77 40.9795C203.77 39.9065 203.782 38.8334 203.763 37.7604C203.756 37.369 203.883 37.217 204.291 37.2239C204.981 37.2354 205.675 37.2101 206.333 37.4403C207.411 37.818 207.926 38.6861 208.078 39.7384C208.247 40.9104 208.304 42.0916 207.733 43.2153C207.261 44.1433 206.478 44.6084 205.502 44.6959C203.77 44.8502 203.768 44.8179 203.768 43.1094C203.768 42.4002 203.768 41.691 203.768 40.9841L203.77 40.9795Z" fill="#31BAEC"/>
<path d="M265.494 40.8782C265.414 40.1551 265.522 39.3815 265.842 38.6561C266.39 37.4173 267.088 37.0374 268.594 37.1134C269.72 37.1686 270.392 37.8479 270.694 38.8472C271.14 40.3393 271.145 41.843 270.602 43.3351C270.18 44.4956 269.052 44.9883 268.018 44.917C266.864 44.8364 265.983 44.0489 265.715 42.9252C265.639 42.6097 265.538 42.2989 265.504 41.9788C265.467 41.638 265.494 41.2926 265.494 40.8782Z" fill="#31BAEC"/>
<path d="M197.597 58.7764C197.535 57.8738 197.565 57.0932 197.901 56.3587C198.345 55.387 199.068 54.8344 200.174 54.8228C201.353 54.8113 202.195 55.3547 202.545 56.4393C203.056 58.0166 203.121 59.6399 202.449 61.1965C201.958 62.3363 201.076 62.7669 199.805 62.6333C198.889 62.5366 198.083 61.7814 197.797 60.7544C197.73 60.5149 197.62 60.2801 197.604 60.036C197.572 59.5778 197.595 59.1172 197.595 58.7741L197.597 58.7764Z" fill="#31BAEC"/>
<path d="M194.127 42.4002C193.782 42.4002 193.436 42.3956 193.091 42.4002C192.681 42.4071 192.584 42.2344 192.729 41.8614C193.13 40.8321 193.517 39.7982 193.906 38.7644C193.95 38.6515 193.998 38.5479 194.129 38.5341C194.281 38.5157 194.306 38.6354 194.348 38.7459C194.742 39.7982 195.133 40.8505 195.541 41.8982C195.695 42.2966 195.557 42.4232 195.163 42.4048C194.818 42.3887 194.472 42.4025 194.127 42.4025V42.4002Z" fill="#31BAEC"/>
<path d="M170.868 42.4002C170.523 42.4002 170.177 42.3979 169.832 42.4002C169.475 42.4025 169.332 42.2713 169.473 41.9028C169.876 40.8551 170.272 39.8028 170.665 38.7505C170.709 38.6354 170.764 38.541 170.898 38.5318C171.015 38.5226 171.057 38.6078 171.091 38.7045C171.492 39.7752 171.886 40.8459 172.298 41.912C172.462 42.3334 172.27 42.4186 171.902 42.4048C171.557 42.391 171.211 42.4025 170.866 42.4025L170.868 42.4002Z" fill="#31BAEC"/>
<path d="M222.408 60.112C222.025 60.112 221.641 60.1143 221.259 60.112C221.065 60.112 220.899 60.0636 220.992 59.8103C221.404 58.6659 221.8 57.5169 222.242 56.384C222.364 56.0709 222.553 56.3679 222.594 56.4738C223.016 57.5722 223.414 58.6774 223.824 59.7804C223.925 60.0567 223.794 60.1189 223.554 60.1166C223.172 60.112 222.788 60.1166 222.405 60.1166L222.408 60.112Z" fill="#31BAEC"/>
</svg>
