<svg width="496" height="70" viewBox="0 0 496 70" fill="none" xmlns="http://www.w3.org/2000/svg">
<path d="M21.0127 18.2824C22.0894 13.9756 23.0005 10.3313 23.0005 10.2485C23.0005 10.0828 80.9775 10 280.584 10L280.087 11.905C279.839 12.8989 279.259 14.8866 278.845 16.2118C278.431 17.6198 277.105 22.0923 275.946 26.1507C274.786 30.292 273.544 34.6816 273.13 36.0897C272.716 37.4977 271.639 41.2248 270.645 44.3721C269.651 47.5194 268.657 51.0809 268.078 54.311L246.378 54.9736C234.451 55.3049 209.769 55.9675 191.548 56.3816C173.327 56.7957 143.51 57.5412 125.288 58.0381C107.067 58.4522 74.1031 59.1976 51.989 59.6118C29.8749 60.0259 11.3222 60.1087 10.7425 59.8602C9.99705 59.5289 9.8314 58.6179 10.1627 57.624C10.4111 56.7132 11.57 52.4086 12.7292 48.103L12.7303 48.0992C13.8898 43.7923 15.7948 37.0835 16.8715 33.1908C18.031 29.2981 19.8531 22.5893 21.0127 18.2824Z" fill="#F7E150"/>
<path fill-rule="evenodd" clip-rule="evenodd" d="M398.194 33.9369V50.5018H423.042V44.7041H405.649V17.3721H398.194V33.9369ZM289.695 34.0198V50.5846H297.149V36.5045H312.885V50.5846H320.34V17.4549H312.885V30.7068H297.149V17.4549H289.695V34.0198ZM328.622 34.0198V50.5846H355.126V44.7869H336.076V36.5045H351.813V30.7068H336.076V23.2526H354.298V17.4549H328.622V34.0198ZM368.332 25.2114L368.332 25.2109C369.31 22.9871 370.173 21.0255 370.531 20.1053V20.1881C371.608 17.6205 372.022 17.4549 379.559 17.4549L386.599 33.2743C390.492 41.9709 393.722 49.4251 393.805 49.8392C393.97 50.2533 392.397 50.5846 390.326 50.5846C386.682 50.5846 386.516 50.5018 383.286 43.1304H367.549L366.059 46.8575L366.042 46.9015C364.65 50.5853 364.62 50.6671 356.782 50.5846L360.178 43.3789C362.083 39.3205 364.899 33.1087 366.473 29.4644C367.075 28.0698 367.726 26.5902 368.332 25.2114ZM420.557 23.1698V20.2709V17.3721H449.545V23.1698H438.778V50.5018H431.324V23.1698H420.557ZM454.515 33.9369V50.5018H461.969V36.4217H477.706V50.5018H485.16V17.3721H477.706V30.624H461.969V17.3721H454.515V33.9369ZM374.258 27.642C373.844 28.6359 372.685 31.2862 371.691 33.4397C370.614 35.6759 369.869 37.6637 369.951 37.8294C369.951 37.995 372.436 38.1606 375.418 38.1606C378.4 38.1606 380.801 37.9122 380.801 37.5809C380.801 37.1668 379.89 34.4336 378.814 31.3691C377.737 28.2217 376.412 25.737 375.915 25.737C375.418 25.737 374.672 26.5652 374.258 27.642Z" fill="#080703"/>
<path fill-rule="evenodd" clip-rule="evenodd" d="M31.7798 20.0219C33.6019 18.8623 35.921 17.7028 37.0806 17.3715C38.2401 17.0402 40.642 16.7089 42.4641 16.7089C44.2863 16.6261 47.1023 17.0402 48.676 17.4543C50.2496 17.8684 52.6515 19.1936 56.5443 22.341L52.1546 26.9791L49.3386 25.157C47.6821 23.9974 45.2802 23.3348 43.2924 23.252C41.4703 23.252 39.0684 23.749 37.9088 24.3287C36.8321 24.8257 35.01 26.6478 34.0161 28.2215C32.9394 29.7951 32.1111 32.3627 32.1111 33.8535C32.1111 35.2615 32.6909 37.5806 33.3535 38.9886C34.0161 40.3967 35.5897 42.2188 36.8321 43.1299C38.4058 44.2894 40.3935 44.8692 42.8783 44.8692C45.363 44.8692 47.3508 44.2894 48.9244 43.1299C50.1668 42.2188 51.4092 41.4734 51.7405 41.4734C52.1546 41.4734 53.3141 42.3844 56.5443 45.7802L54.0596 47.768C52.6515 48.8447 49.7527 50.1699 47.4336 50.6669C45.1974 51.1638 41.6359 51.4123 39.5653 51.081C37.4947 50.8325 34.3474 49.5902 32.5252 48.4306C30.7031 47.2711 28.3012 44.952 27.1417 43.2955C25.4023 40.7279 25.071 39.2371 25.071 34.0192C25.071 29.1325 25.4852 27.1448 26.8104 24.9085C27.8042 23.3348 30.0405 21.0986 31.7798 20.0219ZM63.0046 43.544C62.1763 41.8875 61.5966 37.2493 61.3481 29.2982L60.934 17.4543H69.382V29.0497C69.382 40.3138 69.4649 40.728 71.4527 42.7157C72.9435 44.2066 74.4343 44.7863 76.5878 44.7863C78.4927 44.8692 80.5633 44.2066 81.8057 43.2127C83.8746 41.6403 83.8763 41.391 84.0415 17.5143V17.5143V17.5143V17.5143V17.5143V17.5142V17.5142V17.5142V17.5142L84.042 17.4543H91.7446V28.8841C91.7446 38.4089 91.4133 40.8108 90.0881 43.7925C89.1771 45.6974 87.2721 48.0165 85.7813 48.9276C84.2904 49.8386 81.5572 50.7497 79.7351 51.081C77.913 51.3295 74.7656 51.3295 72.695 50.9153C70.6244 50.584 67.8912 49.3417 66.566 48.1821C65.2408 47.0226 63.6672 44.952 63.0046 43.544ZM100.027 34.102V50.6669H107.481V41.5562C114.853 41.5562 115.101 41.7218 118.083 46.0287C121.064 50.4184 121.313 50.584 125.123 50.584C128.022 50.584 128.933 50.3356 128.519 49.5902C128.187 49.0104 126.614 46.7741 124.957 44.5379L121.975 40.4795C125.785 37.7463 127.359 35.7585 127.939 34.2677C128.519 32.7768 129.016 30.3749 129.098 28.8841C129.098 27.3932 128.187 24.9085 127.193 23.3348C126.117 21.6784 123.963 19.7734 122.39 18.9452C120.153 17.7856 117.42 17.5371 109.8 17.5371H100.027V34.102ZM131.997 49.176C132.246 48.3478 135.476 40.8936 139.12 32.6112L145.829 17.5371L153.449 17.4543L168.771 50.6669H164.63C160.572 50.6669 160.489 50.584 157.176 43.2127H142.267L140.445 46.9398C138.623 50.5012 138.375 50.6669 135.062 50.6669C132.08 50.6669 131.583 50.4184 131.997 49.176ZM167.115 20.3532V23.252H177.882V50.584H185.336V23.252H196.103V17.4543H167.115V20.3532ZM200.741 40.3967C200.741 34.8474 200.824 27.3932 200.907 23.9146L201.073 17.4543H225.92V23.252H208.113L208.196 30.2921L223.435 30.7062V36.5039H208.527V44.7863H226.748V50.584H200.659L200.741 40.3967ZM233.374 33.8535V50.2527C241.408 51.081 246.378 51.081 249.525 50.6669C252.921 50.3356 256.731 49.3417 258.636 48.265C260.458 47.2711 262.942 45.0348 264.019 43.3783C265.841 40.8108 266.09 39.4856 266.09 34.102C266.09 28.6356 265.841 27.3104 264.019 24.66C262.86 22.8379 260.292 20.7673 257.807 19.5249C254.08 17.7028 252.755 17.4543 243.562 17.4543L233.374 17.5371V33.8535ZM107.481 35.6758V29.464V23.2522H111.622C113.859 23.2522 116.675 23.6663 117.834 24.0804C118.994 24.4946 120.236 25.8198 120.733 26.9793C121.23 28.1388 121.313 30.0438 120.899 31.2862C120.567 32.6942 119.325 33.8537 117.669 34.5991C116.178 35.1789 113.279 35.6758 107.481 35.6758ZM241.242 44.3724L240.994 33.8537L240.746 23.2522H245.798C248.531 23.2522 251.844 23.832 253.252 24.4946C254.577 25.1572 256.482 26.7308 257.393 28.056C258.553 29.5468 259.133 31.5346 259.05 34.2678C259.05 37.0839 258.553 38.7403 257.145 40.4797C256.068 41.722 254.08 43.2129 252.755 43.7926C251.43 44.3724 248.283 44.7865 241.242 44.3724ZM146.988 31.2033C145.746 34.1022 144.752 36.9182 144.752 37.4152C144.752 37.8293 146.988 38.2434 149.722 38.2434C152.538 38.2434 154.691 37.8293 154.691 37.4152C154.691 36.9182 153.78 34.1022 152.62 31.2033C151.461 28.2217 150.219 25.8198 149.887 25.8198C149.473 25.8198 148.148 28.2217 146.988 31.2033Z" fill="#080703"/>
</svg>
