<svg width="308" height="84" viewBox="0 0 308 84" fill="none" xmlns="http://www.w3.org/2000/svg">
<path d="M227.807 24.6902C222.47 24.6902 219.114 28.4849 219.114 34.8194V40.655C219.114 47.1407 222.47 50.7237 227.807 50.7237C233.144 50.7237 236.5 47.1407 236.5 40.655V34.8194C236.5 28.4849 233.144 24.6902 227.807 24.6902ZM227.807 57.3756C217.739 57.3756 211.087 50.5574 211.087 37.9035C211.087 24.917 217.739 18.1592 227.807 18.1592C237.876 18.1592 244.528 24.9321 244.528 37.9035C244.528 50.5574 237.876 57.3756 227.807 57.3756ZM285.997 57.3756C292.725 57.3756 297.623 55.2742 297.623 48.7129C297.623 42.9076 294.72 41.5621 288.794 40.5945L285.196 40.0049C283.094 39.6874 282.293 38.9315 282.293 37.2685C282.293 35.4997 283.261 34.8496 285.634 34.8496C287.781 34.8496 289.202 35.7416 289.565 37.1778C289.686 37.6465 290.124 37.9639 290.608 37.9639H295.793C296.428 37.9639 296.927 37.4197 296.867 36.7847C296.338 31.0701 291.817 29.0291 285.407 29.0291C279.224 29.0291 274.704 31.448 274.704 37.4802C274.704 42.9681 277.334 44.8427 282.883 45.7649L286.859 46.415C289.066 46.7929 290.245 46.8988 290.245 49.106C290.245 51.3586 288.31 51.797 285.997 51.797C283.623 51.797 281.976 50.7539 281.386 49.0455C281.235 48.6071 280.827 48.3048 280.358 48.3048H275.308C274.613 48.3048 274.099 48.9548 274.265 49.6352C275.641 55.3196 279.587 57.3756 285.997 57.3756ZM193.549 56.786H200.081C200.383 56.786 200.625 56.5441 200.625 56.2418V43.2855C200.625 38.1454 203.709 36.694 207.927 36.5882C208.214 36.5882 208.456 36.3463 208.456 36.0439V29.4676C208.456 29.1501 208.199 28.9082 207.881 28.9233C204.918 29.1198 202.605 30.8584 201.033 33.3983C200.912 33.5797 200.64 33.5041 200.64 33.2773V29.5734C200.64 29.2257 200.322 28.9687 199.975 29.0442L193.444 30.5712C193.202 30.6316 193.02 30.8433 193.02 31.1003V56.2267C193.005 56.5441 193.247 56.786 193.549 56.786ZM116.931 57.3756C120.892 57.3756 122.812 56.1057 124.354 52.7344C124.444 52.5227 124.762 52.5983 124.762 52.8251V55.6975C124.762 56.2871 125.246 56.7709 125.835 56.7709H131.187C131.777 56.7709 132.261 56.2871 132.261 55.6975V30.2688C132.261 29.5734 131.61 29.0594 130.93 29.2105L125.578 30.4502C125.095 30.5712 124.747 30.9945 124.747 31.5085V44.631C124.747 47.7151 123.401 51.2679 119.667 51.2679C116.855 51.2679 115.51 48.7885 115.51 45.7044V30.2688C115.51 29.5734 114.86 29.0594 114.179 29.2105L108.888 30.4502C108.404 30.5712 108.056 30.9945 108.056 31.5085V47.7151C108.072 53.9741 111.261 57.3756 116.931 57.3756ZM262.095 28.9838C258.875 28.9838 256.698 30.1479 254.884 32.5819C254.763 32.7482 254.491 32.6575 254.491 32.4458V30.3595C254.491 29.6641 253.841 29.1501 253.16 29.3013L247.884 30.5561C247.4 30.677 247.053 31.1003 247.053 31.6143V65.479C247.053 66.0686 247.536 66.5524 248.126 66.5524H253.402C253.992 66.5524 254.476 66.0686 254.476 65.479V53.9287C254.476 53.7171 254.763 53.6263 254.869 53.8229C256.396 56.272 258.92 57.3605 262.065 57.3605C269.291 57.3605 272.527 51.8122 272.527 44.7973V41.2899C272.557 34.2146 269.049 28.9838 262.095 28.9838ZM264.771 44.5706C264.771 48.3048 263.743 50.512 259.797 50.512C256.335 50.512 254.506 48.078 254.506 44.5706V41.6074C254.506 37.8279 256.018 35.3485 259.797 35.3485C263.41 35.3485 264.771 37.9942 264.771 41.6074V44.5706ZM151.309 28.9535C147.983 28.9535 145.746 30.2083 143.902 32.8238C143.841 32.9145 143.705 32.8691 143.705 32.7633V30.3142C143.705 29.6187 143.055 29.1047 142.375 29.2559L137.098 30.5107C136.615 30.6316 136.267 31.055 136.267 31.569V65.4336C136.267 66.0232 136.751 66.507 137.34 66.507H142.616C143.206 66.507 143.69 66.0232 143.69 65.4336V53.4903C143.69 53.3845 143.841 53.3391 143.886 53.4449C145.383 56.136 147.983 57.3152 151.279 57.3152C158.506 57.3152 161.741 51.7668 161.741 44.752V41.2446C161.771 34.1844 158.264 28.9535 151.309 28.9535ZM153.985 44.5403C153.985 48.2745 152.957 50.4818 149.011 50.4818C145.549 50.4818 143.72 48.0477 143.72 44.5403V41.5772C143.72 37.7976 145.232 35.3183 149.011 35.3183C152.625 35.3183 153.985 37.9639 153.985 41.5772V44.5403ZM188.954 41.7586C188.954 34.0937 184.494 29.0291 176.935 29.0291C169.754 29.0291 164.205 32.8994 164.205 41.5469V45.0846C164.205 53.0821 169.481 57.3756 176.723 57.3756C182.483 57.3756 186.988 55.123 188.44 50.0585C188.636 49.363 188.122 48.6676 187.412 48.6676H181.984C181.682 48.6676 181.41 48.8188 181.258 49.0758C180.79 49.9375 179.338 50.7388 177.328 50.7388C174.773 50.7388 172.807 49.3177 172.324 47.0348C172.233 46.5057 172.127 45.9614 172.067 45.3114C172.051 45.1904 172.157 45.0695 172.278 45.0695H187.88C188.47 45.0695 188.954 44.5857 188.954 43.9961V41.7586ZM172.188 40.534C172.067 40.534 171.976 40.4282 171.976 40.3073C172.051 37.2987 173.563 35.2427 176.829 35.2427C180.109 35.2427 181.41 37.1476 181.47 40.3073C181.47 40.4282 181.379 40.534 181.258 40.534H172.188Z" fill="#170426"/>
<path d="M22.019 72.8557V61.9253C22.019 61.5171 22.2458 61.1543 22.6086 60.9426L62.5054 38.9004V51.7508C62.5054 52.2044 62.2484 52.6277 61.8402 52.8544L23.8483 73.8384C23.032 74.292 22.019 73.7326 22.019 72.8557Z" fill="#E0064B"/>
<path d="M38.7396 37.5858L60.2679 51.0712C60.2679 51.0712 61.3261 51.6155 61.3564 52.2958C61.4017 52.9761 60.797 53.4296 60.797 53.4296C60.797 53.4296 61.3866 53.097 61.8401 52.8551C62.1879 52.6586 62.4297 52.326 62.4902 51.9329C62.4902 51.8876 62.5053 51.8422 62.5053 51.7969V37.3439C62.5053 36.9509 62.2937 36.5729 61.946 36.3461L51.1667 29.5883C50.7737 29.3313 50.2445 29.3313 49.8363 29.5581L38.8001 35.6507C38.1198 36.0286 38.0442 37.1474 38.7396 37.5858Z" fill="#FF0055"/>
<path d="M50.4864 11.1439V22.0743C50.4864 22.4825 50.2596 22.8453 49.8968 23.057L10 45.1143V32.2639C10 31.8104 10.257 31.3871 10.6652 31.1603L48.642 10.1612C49.4584 9.70764 50.4864 10.267 50.4864 11.1439Z" fill="#E0064B"/>
<path d="M33.7657 46.4141L12.2375 32.9287C12.2375 32.9287 11.1792 32.3845 11.149 31.7042C11.1036 31.0239 11.7084 30.5703 11.7084 30.5703C11.7084 30.5703 11.1187 30.9029 10.6652 31.1448C10.3175 31.3413 10.0756 31.6739 10.0151 32.067C10.0151 32.1124 10 32.1577 10 32.2031V46.656C10 47.0491 10.2117 47.427 10.5594 47.6538L21.3386 54.4116C21.7317 54.6686 22.2608 54.6686 22.669 54.4419L33.7052 48.3493C34.3704 47.9713 34.4612 46.8526 33.7657 46.4141Z" fill="#FF0055"/>
<path d="M92.379 57.3756C100.422 57.3756 105.456 54.2613 105.456 46.2789C105.456 39.4455 101.798 37.2534 95.6142 34.8496L91.7289 33.2017C89.703 32.4307 86.8608 31.6748 86.8608 28.5605C86.8608 26.0509 88.5541 24.7809 91.623 24.7809C94.9642 24.7809 96.7632 25.9904 97.2016 29.0442C97.2621 29.5885 97.7459 29.9664 98.2448 29.9664H103.551C104.201 29.9664 104.7 29.4222 104.64 28.8175C103.929 21.7573 99.0612 18.1592 91.623 18.1592C83.807 18.1592 79.1506 22.3771 79.1506 28.7721C79.1506 35.4392 82.9301 37.9035 88.6145 39.8688L92.2731 41.1841C95.3421 42.2726 97.6854 43.2099 97.6854 46.5964C97.6854 49.9375 95.6142 50.7539 92.3336 50.7539C88.5087 50.7539 86.755 49.7107 85.8328 46.0522C85.727 45.5533 85.2281 45.2358 84.7443 45.2358H79.4227C78.7726 45.2358 78.2586 45.8254 78.3796 46.4906C79.7855 53.9892 84.2756 57.3756 92.379 57.3756Z" fill="#170426"/>
</svg>
