<svg width="285" height="92" viewBox="0 0 285 92" fill="none" xmlns="http://www.w3.org/2000/svg">
<path fill-rule="evenodd" clip-rule="evenodd" d="M44.1933 29.2501C42.7649 26.905 40.8085 25.0668 38.3165 23.7356C35.8284 22.4043 32.9715 21.7348 29.7653 21.7348H10V69.1251H21.0666V52.8755H29.7614C32.9754 52.8755 35.8245 52.1984 38.3126 50.8439C40.8008 49.4931 42.761 47.6317 44.1895 45.2597C45.6141 42.8874 46.3243 40.2134 46.3243 37.2375C46.3243 34.2615 45.61 31.5952 44.1895 29.2501H44.1933ZM34.5824 39.8767C34.1282 40.6468 33.4839 41.2427 32.6493 41.6723C31.8148 42.098 30.8482 42.3147 29.7653 42.3147H21.0743V32.226H29.7653C30.8521 32.226 31.8148 32.4427 32.6493 32.8684C33.4877 33.298 34.1321 33.8978 34.5824 34.664C35.0365 35.4341 35.2617 36.2893 35.2617 37.2375C35.2617 38.1856 35.0327 39.1105 34.5824 39.8767Z" fill="black"/>
<path fill-rule="evenodd" clip-rule="evenodd" d="M76.477 35.2754C77.8082 36.9085 78.7358 39.1143 79.2598 41.8813L68.9969 45.515C68.799 44.5474 68.4418 43.7814 67.9216 43.2319C67.1297 42.396 66.2137 41.978 65.0376 41.978C63.8615 41.978 62.8095 42.3766 61.8819 43.1622C60.9502 43.9516 60.2399 45.07 59.743 46.5134C59.2463 47.9568 58.9979 49.6056 58.9979 51.4553V69.1251H48.4708V32.5666H57.8409V38.8628C58.6096 37.3729 59.5297 36.1113 60.593 35.0703C61.6566 34.0332 62.8871 33.2322 64.2922 32.6672C65.6935 32.1022 67.1882 31.8197 68.7758 31.8197C72.0361 31.8197 74.606 32.969 76.4845 35.2716L76.477 35.2754Z" fill="black"/>
<path fill-rule="evenodd" clip-rule="evenodd" d="M154.746 41.235C153.186 38.3481 151.055 36.0572 148.361 34.3622C145.667 32.671 142.69 31.8235 139.433 31.8235C136.177 31.8235 133.343 32.5356 130.944 33.9558C129.554 34.784 128.359 35.8134 127.346 37.0401V32.5665H117.976V81.8879H128.502V65.9209C128.584 65.9981 128.662 66.0795 128.739 66.153C130.075 67.3721 131.647 68.297 133.459 68.9314C135.268 69.5585 137.259 69.8795 139.437 69.8795C142.74 69.8795 145.737 69.0322 148.435 67.341C151.128 65.6498 153.244 63.3472 154.785 60.4334C156.322 57.5231 157.091 54.3267 157.091 50.8517C157.091 47.3764 156.31 44.1296 154.75 41.2389L154.746 41.235ZM145.24 55.418C144.448 56.7917 143.373 57.8871 142.014 58.6996C140.66 59.5086 139.165 59.9187 137.531 59.9187C135.812 59.9187 134.275 59.5239 132.916 58.7344C131.557 57.9449 130.482 56.8652 129.69 55.4878C128.899 54.11 128.502 52.5426 128.502 50.782C128.502 49.1141 128.887 47.5931 129.655 46.2116C130.428 44.8339 131.491 43.7504 132.846 42.9648C134.204 42.1754 135.746 41.7806 137.461 41.7806C139.177 41.7806 140.652 42.1792 142.014 42.9648C143.369 43.7543 144.448 44.8496 145.236 46.2465C146.028 47.6475 146.424 49.1797 146.424 50.8476C146.424 52.5156 146.024 54.044 145.236 55.418H145.24Z" fill="black"/>
<path fill-rule="evenodd" clip-rule="evenodd" d="M170.304 64.8603C170.463 66.6212 170.742 68.0454 171.154 69.1251H159.54V18.8905H170.067V58.5604C170.067 60.9984 170.145 63.0956 170.304 64.8565V64.8603Z" fill="black"/>
<path fill-rule="evenodd" clip-rule="evenodd" d="M199.816 32.5627H211.088L194.925 71.2224C193.524 74.6047 191.676 77.2361 189.39 79.1092C187.104 80.9822 184.06 81.9187 180.256 81.9187C178.719 81.9187 177.225 81.7522 175.773 81.4118C174.325 81.0714 173.079 80.6571 172.039 80.1578L175.229 70.1389C176.181 70.6341 177.097 71.0173 177.981 71.2883C178.863 71.559 179.732 71.6947 180.594 71.6947C181.817 71.6947 182.802 71.354 183.548 70.6769C184.293 69.9994 184.965 69.0281 185.551 67.7665L186.249 66.2186L172.174 32.5665H183.447L191.598 54.0789L199.816 32.5665V32.5627Z" fill="black"/>
<path fill-rule="evenodd" clip-rule="evenodd" d="M115.142 49.2262C115.142 45.9754 114.35 43.019 112.762 40.3566C111.175 37.6902 109.005 35.6043 106.245 34.0951C103.485 32.5781 100.407 31.8235 97.0106 31.8235C93.6143 31.8235 90.3536 32.6517 87.5044 34.2964C84.6515 35.941 82.408 38.2243 80.7815 41.1344C79.1511 44.0445 78.3363 47.3067 78.3363 50.9174C78.3363 54.528 79.1474 57.8984 80.7815 60.766C82.4118 63.6336 84.7096 65.8703 87.6716 67.4688C90.6369 69.0708 94.0412 69.8757 97.8918 69.8757C102.647 69.8757 106.517 68.7495 109.502 66.4859C111.749 64.7909 113.411 62.6083 114.474 59.9457L104.297 56.4085C104.033 57.7049 103.326 58.7423 102.165 59.5161C100.943 60.3251 99.3785 60.7353 97.4802 60.7353C95.5823 60.7353 94.0025 60.3289 92.6244 59.5161C91.2426 58.7074 90.1906 57.5194 89.4646 55.9598C89.1078 55.1897 88.8398 54.3421 88.6535 53.4213H114.722C114.994 51.9776 115.134 50.5807 115.134 49.2262H115.142ZM89.0883 45.8363C89.1854 45.5653 89.2862 45.3062 89.4027 45.0584C90.0819 43.5917 91.0522 42.4656 92.3216 41.6723C93.5869 40.8828 95.1281 40.4881 96.9368 40.4881C98.2062 40.4881 99.3707 40.7242 100.434 41.2002C101.502 41.6762 102.348 42.3069 102.981 43.0964C103.613 43.8858 103.978 44.8031 104.068 45.8401H89.0845L89.0883 45.8363Z" fill="black"/>
<path fill-rule="evenodd" clip-rule="evenodd" d="M267.624 28.0543L241.109 11.8938C232.569 6.69273 221.607 12.8187 221.607 22.7952V68.2464C221.607 77.3175 226.952 82 233.819 82C240.259 82 245.534 77.0273 245.995 70.7271C252.292 70.0692 257.485 64.7677 257.198 57.585L268.754 50.5421C272.841 48.0497 274.887 43.8471 274.887 39.6406C274.887 35.4341 273.45 31.274 267.624 28.0465V28.0543ZM233.819 74.7633C231.086 74.7633 228.874 72.5536 228.874 69.8333C228.874 67.1127 231.086 64.8993 233.819 64.8993C236.551 64.8993 238.768 67.1089 238.768 69.8333C238.768 72.5574 236.551 74.7633 233.819 74.7633ZM249.936 58.3164C249.936 60.1778 248.732 63.5564 244.28 63.5564C243.775 62.7241 243.174 61.9503 242.495 61.2654C241.808 60.5804 241.043 59.9727 240.212 59.458C238.353 58.3164 236.164 57.6585 233.819 57.6585C232.204 57.6585 230.663 57.9722 229.254 58.5372C229.13 58.5874 228.99 58.6455 228.87 58.6996V47.7982C228.87 44.9036 231.222 42.5585 234.125 42.5585H244.676C247.579 42.5585 249.932 44.9036 249.932 47.7982V58.3164H249.936ZM264.965 44.3735L257.198 49.1062V47.7944C257.198 40.9022 251.593 35.3141 244.68 35.3141H234.13C232.255 35.3141 230.473 35.7243 228.874 36.4673V22.7991C228.874 18.4764 233.621 15.8178 237.324 18.074L264.969 34.9233C268.513 37.0827 268.513 42.2141 264.969 44.3735H264.965Z" fill="black"/>
</svg>
