<svg width="205" height="106" viewBox="0 0 205 106" fill="none" xmlns="http://www.w3.org/2000/svg">
<path d="M78.1218 71.081C75.6978 71.081 73.479 70.636 71.4653 69.7461C69.4515 68.8563 67.6987 67.6427 66.2071 66.1057C64.7154 64.5282 63.5594 62.7079 62.739 60.6451C61.9185 58.5821 61.5083 56.3776 61.5083 54.0315V53.9102C61.5083 51.5642 61.9185 49.3597 62.739 47.2968C63.5967 45.1934 64.7528 43.3731 66.2071 41.836C67.6987 40.2585 69.4701 39.0248 71.5211 38.1349C73.5722 37.2046 75.8097 36.7394 78.2336 36.7394C80.6576 36.7394 82.8766 37.2046 84.8903 38.1349C86.9414 39.0248 88.7127 40.2383 90.2044 41.7753C91.696 43.3125 92.8521 45.1124 93.6724 47.1753C94.4929 49.2383 94.9031 51.4427 94.9031 53.7888V53.9102C94.9031 56.2563 94.4742 58.4809 93.6165 60.5843C92.7961 62.6473 91.6401 64.4675 90.1484 66.0451C88.6567 67.5821 86.8854 68.8158 84.8343 69.7461C82.7832 70.636 80.5458 71.081 78.1218 71.081ZM78.2336 61.3124C79.2033 61.3124 80.0797 61.1305 80.8628 60.7664C81.6458 60.3618 82.3171 59.836 82.8766 59.1888C83.4358 58.5011 83.8648 57.7124 84.1632 56.8225C84.4614 55.9326 84.6106 55.0024 84.6106 54.0315V53.9102C84.6106 52.899 84.4427 51.9485 84.1071 51.0586C83.8088 50.1282 83.3613 49.3394 82.7647 48.6923C82.2053 48.0046 81.5153 47.4585 80.695 47.0541C79.9118 46.6495 79.0541 46.4473 78.1218 46.4473C77.1523 46.4473 76.2759 46.6495 75.4928 47.0541C74.7096 47.418 74.0383 47.9438 73.479 48.6315C72.9569 49.2787 72.5467 50.0472 72.2484 50.9371C71.9501 51.8271 71.8009 52.7776 71.8009 53.7888V53.9102C71.8009 54.9214 71.9501 55.872 72.2484 56.7619C72.584 57.6518 73.0314 58.4405 73.5909 59.1282C74.1875 59.7754 74.8775 60.3012 75.6606 60.7057C76.4436 61.1103 77.3014 61.3124 78.2336 61.3124Z" fill="#4B2AAD"/>
<path d="M135.012 31.4C135.012 28.4177 137.429 26 140.412 26H140.631C143.614 26 146.031 28.4177 146.031 31.4C146.031 34.3824 143.614 36.8 140.631 36.8H140.412C137.429 36.8 135.012 34.3824 135.012 31.4ZM135.235 40.6572C135.235 40.2311 135.581 39.8857 136.007 39.8857H145.036C145.462 39.8857 145.808 40.2311 145.808 40.6572V69.5208C145.808 69.9468 145.462 70.2922 145.036 70.2922H136.007C135.581 70.2922 135.235 69.9468 135.235 69.5208V40.6572Z" fill="#4B2AAD"/>
<path fill-rule="evenodd" clip-rule="evenodd" d="M110.579 71.0203C108.789 71.0203 107.074 70.6359 105.433 69.8674C103.829 69.0584 102.412 67.9259 101.182 66.4696C99.951 65.0135 98.9627 63.2338 98.2169 61.1304C97.5084 59.027 97.1542 56.6607 97.1542 54.0314V53.9101C97.1542 51.2405 97.5084 48.8539 98.2169 46.7505C98.9627 44.6067 99.9324 42.8068 101.126 41.3506C102.356 39.8539 103.773 38.7214 105.377 37.9528C107.018 37.1438 108.733 36.7393 110.523 36.7393C110.523 36.7393 117.494 36.8 119.763 39.8857V27.5429C119.763 26.6908 120.453 26 121.306 26H128.838C129.69 26 130.381 26.6908 130.381 27.5429V69.5208C130.381 69.9467 130.036 70.2922 129.61 70.2922H120.524C120.098 70.2922 119.753 69.9467 119.753 69.5208V67.6571C116.738 70.7429 110.579 71.0203 110.579 71.0203ZM116.173 60.8269C115.427 61.191 114.625 61.3731 113.768 61.3731C112.91 61.3731 112.108 61.191 111.362 60.8269C110.617 60.463 109.964 59.9574 109.404 59.3101C108.845 58.6225 108.398 57.8338 108.062 56.9439C107.726 56.0135 107.559 55.0023 107.559 53.9101V53.7887C107.559 52.6967 107.726 51.7055 108.062 50.8158C108.398 49.8854 108.845 49.0966 109.404 48.4495C109.964 47.7618 110.617 47.2359 111.362 46.8719C112.108 46.5078 112.91 46.3259 113.768 46.3259C114.625 46.3259 115.427 46.5078 116.173 46.8719C116.956 47.2359 117.627 47.7618 118.187 48.4495C118.746 49.0966 119.175 49.8854 119.473 50.8158C119.809 51.7055 119.977 52.6967 119.977 53.7887V53.9101C119.977 55.0023 119.809 56.0135 119.473 56.9439C119.175 57.8338 118.746 58.6225 118.187 59.3101C117.627 59.9574 116.956 60.463 116.173 60.8269Z" fill="#4B2AAD"/>
<path fill-rule="evenodd" clip-rule="evenodd" d="M26 38.2389C26 37.8129 26.3454 37.4675 26.7714 37.4675H35.8567C36.2828 37.4675 36.6281 37.8129 36.6281 38.2389V40.2932C36.6281 40.2932 39.3859 37.9529 42.7253 37.1641C43.6577 36.881 44.6832 36.7394 45.802 36.7394C47.592 36.7394 49.2887 37.1439 50.8923 37.9529C52.5331 38.7214 53.9688 39.8338 55.1995 41.29C56.4301 42.7461 57.3996 44.5259 58.1082 46.6293C58.8541 48.7327 59.227 51.099 59.227 53.7282V53.8496C59.227 56.5192 58.8541 58.9259 58.1082 61.0697C57.3996 63.1731 56.4301 64.9731 55.1995 66.4697C54.0061 67.926 52.589 69.0585 50.9482 69.8675C49.3447 70.636 47.6478 71.0204 45.8578 71.0204C45.8578 71.0204 38.8546 71.0204 36.5861 68.4287V79.2287C36.5861 79.6546 36.2408 80.0001 35.8147 80.0001H26.7714C26.3454 80.0001 26 79.6546 26 79.2287V38.2389ZM45.0188 60.827C44.273 61.1911 43.4712 61.3732 42.6135 61.3732C41.7558 61.3732 40.9353 61.1911 40.1522 60.827C39.4064 60.463 38.7538 59.9575 38.1944 59.3102C37.635 58.6226 37.1875 57.8339 36.8519 56.9439C36.5536 56.0136 36.4044 55.0024 36.4044 53.9102V53.7888C36.4044 52.6968 36.5536 51.7056 36.8519 50.8159C37.1875 49.8855 37.635 49.0967 38.1944 48.4496C38.7538 47.7619 39.4064 47.236 40.1522 46.872C40.9353 46.5079 41.7558 46.326 42.6135 46.326C43.4712 46.326 44.273 46.5079 45.0188 46.872C45.7646 47.236 46.4172 47.7619 46.9765 48.4496C47.536 49.0967 47.9836 49.8855 48.3191 50.8159C48.6547 51.7056 48.8226 52.6968 48.8226 53.7888V53.9102C48.8226 55.0024 48.6547 56.0136 48.3191 56.9439C47.9836 57.8743 47.536 58.663 46.9765 59.3102C46.4172 59.9575 45.7646 60.463 45.0188 60.827Z" fill="#4B2AAD"/>
<path fill-rule="evenodd" clip-rule="evenodd" d="M157.934 46.265C156.865 46.5301 155.266 47.1147 153.964 47.6288C153.532 47.7992 153.045 47.559 152.924 47.1108L151.143 40.5216C151.044 40.1553 151.225 39.7709 151.574 39.6223C153.25 38.9089 155.461 38.1053 157.15 37.71C159.09 37.2246 161.364 36.9819 163.975 36.9819C163.975 36.9819 178.742 36.9819 178.742 51.4223V69.5207C178.742 69.9467 178.397 70.2921 177.971 70.2921H169.054C168.627 70.2921 168.282 69.9467 168.282 69.5207V68.4285C166.644 70.7428 159.332 71.0202 159.332 71.0202C150.199 70.2921 149.428 63.0285 149.428 63.0285C147.885 52.9999 155.288 49.9142 160.999 49.9142C167.171 49.9142 168.714 49.1428 168.714 49.1428C168.714 46.0571 163.975 45.2856 157.934 46.265ZM168.45 57.0477C168.45 63.3724 160.228 65.3428 158.685 62.257C157.142 58.3999 161.771 56.0856 168.45 57.0477Z" fill="#4B2AAD"/>
</svg>
