<svg width="310" height="92" viewBox="0 0 310 92" fill="none" xmlns="http://www.w3.org/2000/svg">
<g clip-path="url(#clip0_14784_7943)">
<path d="M289.193 20.9737V71.0876C288.374 71.0876 287.605 71.0876 286.837 71.0876C283.815 71.0876 280.794 71.0732 277.772 71.0984C277.169 71.1056 276.799 70.9152 276.439 70.423C270.124 61.7216 263.79 53.0345 257.456 44.3475C257.287 44.114 257.104 43.8913 256.734 43.7008V71.0445C256.324 71.066 256.058 71.0876 255.796 71.0876C251.787 71.0876 247.777 71.0696 243.768 71.1092C242.967 71.1163 242.773 70.8756 242.773 70.096C242.794 54.0333 242.787 37.967 242.773 21.9042C242.773 21.2109 242.977 20.9594 243.692 20.963C247.461 20.9917 251.233 20.9558 255.002 21.0061C255.419 21.0133 255.961 21.3222 256.227 21.6599C262.274 29.2943 268.288 36.9503 274.309 44.6026C274.564 44.9259 274.826 45.2421 275.243 45.7594C275.272 45.2313 275.304 44.9259 275.304 44.6206C275.304 37.0976 275.322 29.571 275.286 22.0479C275.283 21.157 275.566 20.9486 276.411 20.9594C280.33 20.9989 284.25 20.9773 288.169 20.9773C288.493 20.9773 288.816 20.9773 289.2 20.9773L289.193 20.9737Z" fill="black"/>
<path d="M79.6848 32.7684V40.2196H103.756C103.781 40.5896 103.813 40.877 103.813 41.1608C103.817 44.2074 103.781 47.2504 103.838 50.2969C103.856 51.1951 103.54 51.364 102.71 51.3604C95.4098 51.328 88.1132 51.3424 80.8129 51.3424C80.4608 51.3424 80.1087 51.3424 79.692 51.3424V59.2822C80.1303 59.2822 80.5111 59.2822 80.8919 59.2822C89.0868 59.2822 97.2852 59.2965 105.48 59.2678C106.331 59.2678 106.615 59.4833 106.601 60.3599C106.551 63.5826 106.558 66.8088 106.597 70.0314C106.608 70.8325 106.407 71.102 105.555 71.102C92.6327 71.0732 79.7099 71.0768 66.7872 71.0948C66.0723 71.0948 65.8064 70.9403 65.8064 70.1607C65.828 54.1303 65.828 38.0963 65.8064 22.0659C65.8064 21.218 66.0327 20.9486 66.9093 20.9522C79.8034 20.9773 92.6938 20.9773 105.588 20.9522C106.378 20.9522 106.612 21.1821 106.601 21.9725C106.558 25.2562 106.561 28.5399 106.601 31.8235C106.608 32.5816 106.36 32.7756 105.627 32.7756C97.4001 32.754 89.1766 32.7612 80.9494 32.7612C80.565 32.7612 80.1806 32.7612 79.6848 32.7612V32.7684Z" fill="black"/>
<path d="M145.839 51.7201C144.057 51.7201 142.416 51.7201 140.777 51.7201C139.283 51.7201 137.785 51.6985 136.29 51.7273C135.665 51.738 135.374 51.5907 135.381 50.8866C135.414 47.7538 135.417 44.6174 135.381 41.4846C135.374 40.7912 135.633 40.6404 136.272 40.6404C143.271 40.6583 150.273 40.6583 157.271 40.6404C157.922 40.6404 158.151 40.8092 158.148 41.4954C158.123 47.4376 158.141 53.3763 158.119 59.3185C158.119 59.7065 157.993 60.1628 157.771 60.4718C151.512 69.1624 143.03 73.1071 132.385 71.7347C121.83 70.3731 113.401 62.6022 110.79 52.3201C107.294 38.553 115.773 24.283 129.586 20.8916C139.491 18.4593 147.999 21.1287 155.152 28.3068C155.252 28.4074 155.328 28.5295 155.482 28.7307C154.045 29.5714 152.665 30.3833 151.279 31.1845C149.209 32.3809 147.14 33.5808 145.045 34.734C144.787 34.8777 144.284 34.8634 144.043 34.7017C137.231 30.157 128.598 31.9677 124.23 38.88C119.606 46.2018 123.332 56.4875 131.605 59.1138C136.639 60.7089 141.234 59.861 145.25 56.3654C145.559 56.0995 145.775 55.5822 145.804 55.1654C145.879 54.0697 145.829 52.9667 145.829 51.7201H145.839Z" fill="black"/>
<path d="M20.0002 71.0439V20.9768C20.363 20.9768 20.6828 20.9768 21.0025 20.9768C24.9508 20.9768 28.8992 20.9984 32.8475 20.9552C33.6702 20.9481 33.9145 21.1744 33.9145 22.0079C33.8894 34.0397 33.8965 46.0714 33.9001 58.0996C33.9001 59.278 33.9001 59.2816 35.0426 59.2816C43.0291 59.2816 51.0155 59.2816 59.002 59.2852C59.8355 59.2852 60.2522 59.6852 60.2522 60.4852C60.2522 63.679 60.2271 66.8729 60.263 70.0667C60.2702 70.8176 60.1049 71.1014 59.2786 71.1014C46.4457 71.0763 33.6127 71.0835 20.7798 71.0799C20.5463 71.0799 20.3127 71.0547 19.9966 71.0404L20.0002 71.0439Z" fill="black"/>
<path d="M178.195 71.044C177.85 71.0619 177.588 71.0871 177.322 71.0871C173.313 71.0871 169.307 71.0727 165.298 71.1014C164.575 71.1086 164.317 70.9326 164.32 70.1638C164.342 54.1046 164.342 38.0455 164.324 21.9863C164.324 21.2283 164.5 20.9373 165.319 20.9445C169.325 20.984 173.334 20.9804 177.344 20.9517C178.055 20.9481 178.271 21.1672 178.267 21.8714C178.249 38.0203 178.253 54.1693 178.253 70.3182C178.253 70.523 178.22 70.7278 178.195 71.044Z" fill="black"/>
<path d="M188.194 32.7471C191.197 35.4919 194.157 38.1827 197.078 40.9096C197.287 41.1036 197.351 41.6245 197.261 41.9299C195.799 46.9524 196.812 51.4324 200.225 55.3592C201.738 57.1016 203.646 58.3267 205.841 59.0776C206.326 59.2429 206.656 59.4333 206.724 60.0332C207.148 63.8271 207.612 67.6137 208.057 71.404C208.075 71.5441 208.057 71.6878 208.057 71.8315C202.054 71.7812 192.533 67.6173 187.55 58.4848C182.6 49.4062 184.051 38.8546 188.19 32.7471H188.194Z" fill="black"/>
<path d="M212.875 71.9283C213.08 70.2146 213.266 68.5943 213.464 66.974C213.748 64.6639 214.053 62.3574 214.312 60.0474C214.369 59.5264 214.56 59.2642 215.055 59.0881C222.187 56.5517 225.877 49.3952 223.807 42.1129C223.646 41.538 223.674 41.15 224.166 40.7081C226.922 38.2328 229.634 35.7108 232.365 33.2103C232.516 33.0738 232.688 32.9552 232.99 32.7217C237.068 40.0902 237.876 47.6743 234.844 55.4739C230.773 65.9537 221.264 71.3175 212.875 71.9283Z" fill="black"/>
<path d="M231.546 30.5086C230.468 31.0403 229.516 31.5109 228.561 31.9816C226.013 33.2318 223.463 34.4713 220.923 35.7359C220.405 35.9945 220.035 35.9945 219.568 35.5814C214.492 31.087 206.778 31.0331 201.576 35.4664C201.037 35.9263 200.638 36.0197 200.006 35.7035C196.697 34.0473 193.367 32.4306 190.044 30.796C189.911 30.7313 189.796 30.6379 189.555 30.4834C194.513 24.1855 200.89 20.5282 208.869 20.0576C218.167 19.5115 225.625 23.2263 231.55 30.5122L231.546 30.5086Z" fill="black"/>
</g>
<defs>
<clipPath id="clip0_14784_7943">
<rect width="269.194" height="52" fill="white" transform="translate(20 20)"/>
</clipPath>
</defs>
</svg>
