<svg width="170" height="84" viewBox="0 0 170 84" fill="none" xmlns="http://www.w3.org/2000/svg">
<path fill-rule="evenodd" clip-rule="evenodd" d="M99.8546 10.0545C99.7314 10.0897 99.5378 10.1865 99.4146 10.2569C99.2914 10.3361 99.1241 10.5385 99.0361 10.7146C98.8953 11.005 98.8865 11.4714 98.8865 16.4438V21.8562C94.759 21.8562 93.4213 21.8914 93.2541 21.9442C93.0869 21.9882 92.8229 22.1554 92.6645 22.3138C92.5149 22.4722 92.3388 22.7098 92.2948 22.8418C92.2332 23.0003 92.198 24.1091 92.198 25.8341C92.198 28.5095 92.2068 28.5975 92.4004 28.9759C92.5061 29.1871 92.7261 29.4423 92.9021 29.5479C93.2013 29.724 93.3333 29.7328 96.0527 29.7504L98.8865 29.7768L98.8869 29.8873C98.9393 43.6913 98.9399 43.834 99.1417 44.8259C99.2474 45.3803 99.4762 46.278 99.6522 46.806C99.8194 47.334 100.136 48.1261 100.339 48.5661C100.55 49.0062 100.928 49.6838 101.192 50.0798C101.448 50.4759 101.94 51.1183 102.275 51.5144C102.609 51.9104 103.225 52.5264 103.639 52.8697C104.052 53.2129 104.739 53.7321 105.179 54.0225C105.619 54.3042 106.411 54.7442 106.939 54.9994C107.467 55.2546 108.365 55.6155 108.919 55.8091C109.474 56.0027 110.407 56.2667 110.987 56.3987C111.568 56.5307 112.616 56.7067 113.32 56.8035C114.024 56.8915 114.965 56.9708 115.414 56.9708C115.854 56.9708 116.329 56.9267 116.461 56.8739C116.602 56.8299 116.822 56.6803 116.963 56.5483C117.104 56.4163 117.271 56.1787 117.333 56.0203C117.429 55.8003 117.456 55.0874 117.456 52.7464C117.456 50.8367 117.421 49.6662 117.359 49.5078C117.306 49.3758 117.183 49.1734 117.077 49.0678C116.972 48.9534 116.778 48.8038 116.637 48.7333C116.505 48.6629 115.916 48.5485 115.317 48.4781C114.728 48.4077 113.944 48.2933 113.584 48.2141C113.223 48.1437 112.668 47.9941 112.352 47.8885C112.035 47.7917 111.48 47.5541 111.119 47.3692C110.759 47.1844 110.275 46.8852 110.055 46.7004C109.835 46.5156 109.535 46.2252 109.386 46.058C109.245 45.8907 109.007 45.5739 108.875 45.3539C108.734 45.1339 108.514 44.6498 108.374 44.2714C108.242 43.9018 108.066 43.2505 107.995 42.8281C107.881 42.1857 107.863 40.9976 107.863 35.9196V29.7768C116.646 29.7328 117.086 29.7152 117.35 29.5743C117.5 29.4951 117.711 29.2927 117.808 29.1343C117.975 28.8703 117.984 28.6943 117.984 25.8165C117.984 22.9387 117.975 22.7626 117.808 22.4898C117.711 22.3402 117.5 22.1378 117.35 22.0498C117.086 21.9178 116.646 21.9002 112.51 21.8738L107.951 21.8562L107.96 10.9874C107.643 10.5209 107.441 10.3009 107.309 10.2041C107.062 10.0281 106.957 10.0193 103.568 10.0017C101.65 9.99291 99.9778 10.0193 99.8546 10.0545ZM68.4109 21.5769C68.1977 21.6041 67.8449 21.649 67.5122 21.689C67.0722 21.7418 66.3417 21.865 65.8841 21.9618C65.4265 22.0586 64.4936 22.3138 63.8159 22.5338C63.1383 22.7538 62.1086 23.1587 61.5278 23.4403C60.9469 23.7219 60.0581 24.2323 59.5476 24.5668C59.0372 24.9012 58.2715 25.4908 57.8403 25.8693C57.4003 26.2565 56.7314 26.9253 56.353 27.3566C55.9658 27.7878 55.3761 28.5623 55.0417 29.0727C54.7073 29.5831 54.2408 30.3928 54.0032 30.8768C53.7656 31.3609 53.396 32.2937 53.176 32.945C52.956 33.5962 52.6831 34.6259 52.5599 35.2332C52.4367 35.8404 52.2959 36.8701 52.2343 37.5213C52.1727 38.2606 52.1551 39.2639 52.1815 40.1615C52.2167 40.9624 52.3047 42.0097 52.3751 42.4937C52.4455 42.9777 52.5687 43.629 52.6391 43.9458C52.7095 44.2626 52.8591 44.8347 52.9736 45.2219C53.0968 45.6091 53.3344 46.3044 53.5104 46.762C53.6952 47.2196 54.0032 47.9149 54.2056 48.3021C54.4169 48.6893 54.7953 49.323 55.0505 49.7102C55.3145 50.0975 55.7282 50.6695 55.9834 50.9863C56.2386 51.3031 56.8194 51.9192 57.2771 52.3592C57.7259 52.7904 58.3948 53.3713 58.7556 53.6441C59.1164 53.9081 59.6884 54.3042 60.0317 54.5066C60.3749 54.7178 61.123 55.1138 61.7038 55.3954C62.2846 55.6683 63.2527 56.0555 63.86 56.2491C64.4672 56.4427 65.3737 56.6803 65.8841 56.7859C66.3945 56.8827 67.081 57.006 67.4242 57.0588C67.7674 57.1116 68.6475 57.1908 69.3868 57.2348C70.2404 57.2964 71.2173 57.2876 72.1062 57.2348C72.8718 57.1908 73.8927 57.094 74.3767 57.0148C74.8608 56.9444 75.732 56.7683 76.3129 56.6275C76.8937 56.4867 77.765 56.2227 78.249 56.0467C78.733 55.8619 79.5691 55.501 80.0971 55.237C80.6252 54.973 81.5052 54.4626 82.0333 54.1105C82.5613 53.7497 83.3182 53.1689 83.7054 52.8168C84.0926 52.4648 84.6119 51.9544 84.8583 51.6904C85.0959 51.4263 85.4567 51.0127 85.6592 50.7663C85.8528 50.5287 86.2488 49.9742 86.5216 49.5342C86.8032 49.0942 87.2433 48.3021 87.4985 47.7741C87.7449 47.246 88.0705 46.4716 88.2201 46.058C88.3609 45.6443 88.581 44.8963 88.713 44.3858C88.8362 43.8754 89.0034 43.0041 89.0914 42.4497C89.2058 41.7016 89.241 40.892 89.241 39.3695C89.241 37.8293 89.2058 37.0373 89.0914 36.2892C89.0034 35.7348 88.8186 34.8019 88.669 34.2211C88.5194 33.6402 88.2289 32.7074 88.0089 32.1529C87.7889 31.5985 87.4281 30.8064 87.2081 30.3928C86.9881 29.9792 86.5216 29.2311 86.1784 28.7295C85.8352 28.219 85.1751 27.4094 84.7175 26.9253C84.2598 26.4413 83.4854 25.7373 83.0014 25.35C82.5173 24.9628 81.7429 24.426 81.2852 24.1619C80.8276 23.8891 80.0971 23.5019 79.6571 23.2995C79.2171 23.0971 78.513 22.8066 78.073 22.657C77.633 22.4986 76.9025 22.2786 76.4449 22.1554C75.9872 22.041 75.1336 21.8562 74.5527 21.7594C73.7079 21.6098 73.039 21.5658 71.1645 21.5482C69.8796 21.5306 68.7091 21.5394 68.5683 21.557C68.5339 21.5612 68.4797 21.5682 68.4109 21.5769ZM136.509 21.997C137.09 21.865 138.023 21.7066 138.577 21.645C139.132 21.5746 140.399 21.5218 141.394 21.513C142.511 21.5041 143.629 21.557 144.342 21.6362C144.976 21.7154 145.944 21.8738 146.498 21.997C147.052 22.1202 147.985 22.3842 148.566 22.5778C149.147 22.7626 150.097 23.1587 150.678 23.4403C151.259 23.7219 152.086 24.1883 152.526 24.47C152.966 24.7604 153.618 25.2356 153.979 25.526C154.339 25.8165 154.955 26.3885 155.343 26.7933C155.73 27.1982 156.232 27.7702 156.452 28.0606C156.68 28.3511 157.041 28.8615 157.261 29.2047C157.481 29.5479 157.877 30.252 158.141 30.7888C158.405 31.3257 158.784 32.2145 158.977 32.769C159.162 33.3234 159.409 34.1419 159.505 34.5731C159.611 35.0043 159.761 35.8228 159.84 36.3772C159.954 37.1077 159.998 37.935 159.998 39.3695C159.998 40.8392 159.954 41.6224 159.84 42.4057C159.752 42.9865 159.541 43.9986 159.373 44.6498C159.215 45.3011 158.96 46.1108 158.828 46.454C158.701 46.7637 158.466 47.2883 158.286 47.6917L158.284 47.6955L158.283 47.6976L158.229 47.8181C158.036 48.2317 157.71 48.839 157.499 49.1822C157.296 49.5254 156.856 50.1503 156.531 50.5903C156.205 51.0303 155.483 51.8224 154.929 52.3504C154.383 52.8785 153.556 53.5825 153.098 53.9169C152.641 54.2426 151.629 54.8234 150.854 55.2106C150.08 55.5891 149.033 56.0467 148.522 56.2051C148.012 56.3723 147.14 56.6099 146.586 56.7419C146.032 56.8651 145.081 57.0324 144.474 57.1116C143.752 57.2084 142.74 57.2524 141.526 57.2524C140.285 57.2612 139.317 57.2084 138.577 57.1116C137.97 57.0324 137.02 56.8651 136.465 56.7507C135.911 56.6275 135.013 56.3899 134.485 56.2139C133.957 56.0467 133.007 55.6507 132.373 55.3514C131.739 55.0522 130.894 54.5858 130.481 54.3218C130.067 54.0489 129.495 53.6441 129.205 53.4153C128.914 53.1865 128.342 52.676 127.937 52.28C127.533 51.884 126.961 51.2591 126.661 50.8983C126.371 50.5375 125.887 49.8598 125.605 49.4022C125.315 48.9446 124.884 48.1525 124.646 47.6421C124.408 47.1316 124.056 46.2516 123.872 45.6883C123.678 45.1163 123.432 44.1658 123.308 43.5762C123.194 42.9777 123.044 42.0009 122.991 41.3936C122.93 40.7336 122.912 39.6247 122.939 38.6214C122.974 37.7061 123.053 36.5709 123.132 36.1132C123.212 35.6556 123.37 34.8811 123.493 34.3971C123.616 33.9131 123.836 33.1562 123.977 32.725C124.127 32.2937 124.461 31.5017 124.716 30.9648C124.972 30.428 125.429 29.6183 125.728 29.1607C126.037 28.7031 126.529 28.0254 126.829 27.6646C127.128 27.3038 127.691 26.7053 128.069 26.3445C128.457 25.9749 129.064 25.4556 129.425 25.1828C129.786 24.91 130.481 24.4436 130.965 24.1531C131.449 23.8539 132.223 23.4491 132.681 23.2467C133.139 23.0443 133.957 22.7362 134.485 22.5514C135.013 22.3754 135.928 22.1202 136.509 21.997ZM10.9241 21.953C10.7745 21.997 10.5632 22.1202 10.4488 22.2346C10.3344 22.3402 10.1848 22.5602 10.1232 22.7186C10.0176 22.9475 10 24.47 10 31.2993C10 36.386 10.0352 39.9767 10.0968 40.6016C10.1408 41.156 10.2816 42.1065 10.4048 42.7137C10.528 43.3209 10.7657 44.2274 10.9329 44.7379C11.1089 45.2483 11.4609 46.0756 11.7073 46.586C11.9625 47.0964 12.3146 47.7477 12.4994 48.0381C12.6842 48.3285 13.089 48.883 13.3882 49.2702C13.6875 49.6574 14.2683 50.2911 14.6731 50.6783C15.078 51.0743 15.7292 51.6288 16.1164 51.9104C16.5037 52.2008 17.1197 52.6056 17.4805 52.8168C17.8414 53.0369 18.3958 53.3273 18.7126 53.4681C19.0295 53.6177 19.5839 53.8465 19.9447 53.9873C20.3056 54.1281 20.9392 54.3394 21.3528 54.4538C21.7665 54.577 22.4001 54.7266 22.7609 54.8058C23.1218 54.8762 23.7554 54.973 24.169 55.0258C24.5827 55.0698 25.3483 55.1402 25.8852 55.1666C26.422 55.193 27.4077 55.1754 28.0853 55.1226C28.763 55.0698 29.7134 54.9466 30.1975 54.8498C30.6815 54.753 31.4912 54.533 32.0016 54.3658C32.5121 54.1986 33.2865 53.8905 33.7177 53.6793C34.149 53.4769 34.7826 53.1249 35.1258 52.9049C35.4691 52.6848 35.9003 52.3768 36.0939 52.2272C36.2875 52.0776 36.4723 51.9896 36.5163 52.0248C36.5515 52.06 36.578 53.2041 36.578 54.577C36.578 55.9411 36.5339 57.446 36.4811 57.9212C36.4283 58.3877 36.2875 59.1093 36.1731 59.5229C36.0499 59.9366 35.8035 60.5878 35.6275 60.975C35.4427 61.3623 35.1258 61.9167 34.9322 62.2071C34.7386 62.4976 34.3162 62.9992 33.9906 63.3336C33.6737 63.6592 33.0665 64.1521 32.6441 64.4249C32.2128 64.6977 31.5352 65.0674 31.1215 65.2258C30.7079 65.393 29.9951 65.613 29.5374 65.7098C28.9038 65.8506 28.3669 65.8946 27.3373 65.8946C26.378 65.8946 25.7356 65.8506 25.1811 65.7362C24.7499 65.6482 24.0722 65.481 23.685 65.3578C23.2978 65.2346 22.5497 64.9265 22.0129 64.6801C21.476 64.4249 20.772 64.0465 20.4288 63.8441C20.0943 63.6328 19.6719 63.4128 19.5047 63.3424C19.3375 63.272 18.9855 63.2192 18.739 63.2192C18.4838 63.2192 18.167 63.272 18.035 63.3424C17.8942 63.4128 17.6654 63.5976 17.5158 63.7649C17.3573 63.9233 16.6709 64.7857 15.9844 65.6834C15.2892 66.5811 14.6379 67.5139 14.5235 67.7515C14.3915 68.0156 14.3123 68.3588 14.3123 68.614C14.3123 68.8428 14.3651 69.1597 14.4355 69.3181C14.4971 69.4677 14.7083 69.7405 14.8932 69.9253C15.0868 70.1013 15.5708 70.4709 15.9844 70.7438C16.3981 71.0166 17.1461 71.4478 17.6566 71.703C18.167 71.9671 19.0383 72.3543 19.5927 72.5831C20.1471 72.8031 21.2208 73.1375 21.9689 73.3312C22.7169 73.516 23.8082 73.7448 24.3891 73.8328C25.2075 73.9648 25.9556 74 27.6893 74C29.4142 74 30.1711 73.9648 30.9455 73.8416C31.5 73.7536 32.3536 73.5864 32.8377 73.4632C33.3217 73.34 34.0786 73.1287 34.5098 72.9791C34.941 72.8383 35.8563 72.4423 36.5339 72.1079C37.2116 71.7646 38.1445 71.219 38.5933 70.8934C39.0509 70.5677 39.799 69.9517 40.2566 69.5117C40.7143 69.0716 41.3479 68.4028 41.6559 68.0156C41.9639 67.6283 42.4304 66.9771 42.6856 66.5635C42.9408 66.1498 43.2928 65.5426 43.4601 65.1994C43.6361 64.8561 43.9177 64.2313 44.0849 63.7913C44.2609 63.3512 44.5601 62.3831 44.7537 61.6351C44.9474 60.887 45.1762 59.7782 45.2642 59.1709C45.4138 58.1324 45.4226 57.05 45.4226 40.4079C45.4226 22.8859 45.4226 22.745 45.2466 22.5074C45.1498 22.3842 44.9562 22.1906 44.8242 22.085C44.5777 21.9002 44.5073 21.9002 40.9519 21.9002C37.6692 21.9002 37.2996 21.9178 37.0444 22.0498C36.886 22.1378 36.6748 22.3402 36.578 22.4898C36.4019 22.7714 36.4019 22.9387 36.4019 30.3048C36.4019 34.4851 36.3667 38.3222 36.3139 38.9294C36.2699 39.5367 36.1291 40.4255 36.0059 40.9096C35.8827 41.3936 35.6539 42.0889 35.4955 42.4497C35.3371 42.8105 35.0554 43.3474 34.8618 43.6378C34.6682 43.9282 34.2898 44.3946 34.0258 44.6851C33.7617 44.9667 33.3041 45.3715 33.0137 45.5739C32.7233 45.7851 32.248 46.0667 31.9576 46.2164C31.6672 46.3572 31.1127 46.5772 30.7255 46.7004C30.3383 46.8236 29.6606 46.9732 29.2294 47.0348C28.7366 47.0964 27.9797 47.114 27.2493 47.0876C26.4748 47.0524 25.806 46.9732 25.3131 46.85C24.8995 46.7444 24.1866 46.4804 23.729 46.2604C23.2714 46.0492 22.6025 45.6443 22.2417 45.3715C21.8809 45.0987 21.3528 44.5706 21.0624 44.2098C20.7632 43.8402 20.3408 43.1625 20.1119 42.6697C19.8655 42.1593 19.5927 41.4024 19.4607 40.8656C19.3375 40.3375 19.2055 39.4311 19.1527 38.7534C19.1087 38.1022 19.0647 34.2387 19.0647 30.1728C19.0647 22.9387 19.0559 22.7714 18.8887 22.4898C18.7918 22.3314 18.5454 22.129 18.343 22.0322C17.9822 21.8738 17.771 21.8562 14.5763 21.865C12.7106 21.865 11.0737 21.909 10.9241 21.953ZM139.986 29.6447C139.572 29.7063 138.929 29.8648 138.551 29.988C138.181 30.1112 137.609 30.3488 137.275 30.516C136.949 30.6744 136.448 30.9912 136.157 31.2113C135.867 31.4225 135.409 31.8361 135.145 32.1177C134.881 32.4081 134.476 32.9186 134.247 33.253C134.019 33.5962 133.719 34.1331 133.57 34.4675C133.42 34.7931 133.2 35.4004 133.068 35.8228C132.945 36.254 132.787 36.9757 132.725 37.4333C132.655 37.8909 132.593 38.7622 132.593 39.3695C132.593 39.9767 132.655 40.8656 132.725 41.3496C132.795 41.8336 132.963 42.5641 133.086 42.9777C133.209 43.3913 133.438 43.9986 133.596 44.3418C133.755 44.685 134.054 45.2131 134.265 45.5299C134.476 45.8467 134.908 46.3748 135.224 46.7004C135.541 47.0348 136.14 47.5365 136.553 47.8093C136.967 48.0909 137.618 48.4341 138.005 48.5837C138.393 48.7333 139.044 48.9358 139.457 49.0238C140.021 49.147 140.549 49.1822 141.614 49.1734C142.819 49.1646 143.145 49.1294 143.858 48.9446C144.315 48.8214 144.949 48.6013 145.266 48.4605C145.583 48.3197 146.076 48.0469 146.366 47.8533C146.656 47.6685 147.184 47.2372 147.545 46.894C147.897 46.5508 148.399 45.9611 148.654 45.5739C148.918 45.1867 149.244 44.6146 149.385 44.2978C149.525 43.981 149.719 43.4706 149.825 43.1537C149.93 42.8369 150.071 42.2473 150.15 41.8336C150.229 41.42 150.317 40.5663 150.344 39.9415C150.37 39.255 150.353 38.4278 150.282 37.8733C150.229 37.3629 150.08 36.5709 149.965 36.1132C149.842 35.6556 149.578 34.9163 149.376 34.4851C149.165 34.0539 148.839 33.4554 148.645 33.165C148.461 32.8746 148.082 32.4081 147.818 32.1265C147.554 31.8361 147.096 31.4225 146.806 31.2113C146.516 30.9912 145.979 30.6656 145.618 30.4808C145.257 30.296 144.676 30.0672 144.342 29.9616C144.007 29.856 143.347 29.7063 142.89 29.6447C142.432 29.5743 141.754 29.5215 141.394 29.5215C141.033 29.5303 140.399 29.5831 139.986 29.6447ZM69.4923 29.6007C69.1755 29.6447 68.6035 29.768 68.2162 29.8648C67.829 29.9616 67.1161 30.2432 66.6321 30.4808C66.1481 30.7272 65.4704 31.1585 65.1096 31.4489C64.7664 31.7393 64.2295 32.2849 63.9391 32.6634C63.6399 33.0418 63.1911 33.7722 62.927 34.3091C62.6718 34.8459 62.3638 35.6556 62.2406 36.1132C62.1262 36.5709 61.9766 37.3453 61.9238 37.8293C61.8534 38.3838 61.827 39.1758 61.8622 39.9855C61.8974 40.8744 61.9766 41.5432 62.1262 42.1857C62.2494 42.6961 62.4694 43.4266 62.619 43.8138C62.7686 44.201 63.0854 44.8347 63.3231 45.2219C63.5607 45.6091 64.0271 46.2252 64.3615 46.586C64.7048 46.9468 65.268 47.4485 65.6288 47.7037C65.9897 47.9501 66.5177 48.2669 66.8081 48.3901C67.0985 48.5221 67.4594 48.6717 67.6002 48.7157C67.741 48.7597 68.1634 48.8742 68.5242 48.971C68.9291 49.0766 69.6243 49.1646 70.3284 49.1998C71.1908 49.235 71.6749 49.2086 72.3085 49.103C72.7662 49.0238 73.4614 48.8478 73.8486 48.7157C74.2359 48.5837 74.8695 48.2933 75.2479 48.0821C75.6264 47.8621 76.2424 47.4132 76.6032 47.07C76.9641 46.7268 77.4305 46.234 77.6329 45.9699C77.8353 45.7059 78.161 45.1867 78.3634 44.8259C78.5658 44.465 78.865 43.7522 79.0322 43.2417C79.1994 42.7313 79.4018 41.904 79.4722 41.3936C79.5515 40.8832 79.6131 39.9767 79.6131 39.3695C79.6131 38.7622 79.5515 37.8557 79.4722 37.3453C79.393 36.8349 79.2346 36.1044 79.1114 35.7172C78.9882 35.33 78.7682 34.7579 78.6274 34.4411C78.4778 34.1243 78.1874 33.5962 77.9673 33.253C77.7473 32.9098 77.3249 32.3817 77.0257 32.0737C76.7264 31.7657 76.2512 31.3433 75.9608 31.1409C75.6704 30.9296 75.0983 30.5952 74.6847 30.4016C74.2711 30.1992 73.5406 29.944 73.0566 29.8208C72.4405 29.6623 71.8597 29.5831 71.1204 29.5567C70.5396 29.5391 69.8091 29.5567 69.4923 29.6007Z" fill="#E6684D"/>
</svg>
