<svg width="395" height="60" viewBox="0 0 395 60" fill="none" xmlns="http://www.w3.org/2000/svg">
<path d="M261.535 12.8408C267.642 12.8408 273.403 12.7934 279.148 12.8408C284.229 12.8881 287.465 15.003 288.633 18.8696C289.99 23.3517 288.712 26.8869 284.308 30.1538C288.743 32.1897 291 35.4409 290.416 40.3491C289.895 44.7997 287.054 48.6821 282.714 48.9662C275.723 49.4239 268.684 49.0925 261.519 49.0925V12.8408H261.535ZM269.473 42.5586C272.835 42.5586 275.691 42.6376 278.532 42.5271C281.12 42.4324 282.099 40.8226 282.099 38.3921C282.099 35.9459 281.105 34.3361 278.548 34.2099C275.597 34.0678 272.63 34.1783 269.457 34.1783V42.5586H269.473ZM269.489 19.3273V27.6918C272.046 27.6918 274.35 27.676 276.654 27.6918C279.369 27.7234 280.757 26.4924 280.82 23.7305C280.884 20.8424 279.526 19.3746 276.654 19.3273C274.35 19.2799 272.03 19.3273 269.489 19.3273Z" fill="black"/>
<path d="M376.855 25.0089V10.8365H384.73V14.9872C384.73 25.1351 384.762 35.2831 384.699 45.431C384.699 47.0566 385.519 49.6133 382.458 49.3292C380.264 49.124 376.713 51.2862 376.65 46.4726C374.724 47.5932 373.115 48.9978 371.237 49.5344C365.965 51.0494 360.883 48.4927 359.463 43.2215C358.5 39.6547 358.248 35.7723 358.453 32.0635C358.99 21.8366 368.711 17.7017 376.855 24.9931V25.0089ZM376.808 35.2515C376.808 34.4782 376.776 33.7048 376.808 32.9315C376.95 29.6488 375.482 27.7392 372.089 27.5971C368.79 27.4551 366.881 29.1438 366.612 32.3476C366.423 34.6518 366.423 37.0191 366.723 39.2917C367.133 42.3535 369.232 43.6634 372.278 43.474C375.214 43.2846 376.792 41.738 376.808 38.7551C376.808 37.5873 376.808 36.4352 376.808 35.2673V35.2515Z" fill="black"/>
<path d="M121.026 43.9159C122.794 42.3535 124.419 40.8857 125.666 39.7968C129.233 40.8068 132.61 42.0852 136.098 42.6376C138.749 43.0479 141.18 41.8484 141.416 38.7393C141.637 35.5987 139.27 35.0621 136.745 34.6518C133.904 34.1941 130.969 33.8469 128.333 32.8053C121.168 29.996 119.763 20.4478 125.603 15.4291C131.49 10.363 143.263 11.3099 148.866 17.6859C147.145 19.0116 145.394 20.3689 143.879 21.521C140.959 20.8108 137.802 19.6429 134.583 19.4693C133.226 19.3904 131.742 21.4105 130.322 22.4837C131.474 23.8094 132.389 25.6401 133.841 26.3188C135.798 27.2341 138.181 27.1552 140.359 27.6445C146.609 29.0491 149.434 32.1424 149.576 37.603C149.718 43.3951 146.798 47.6563 140.975 49.124C133.573 51.0021 126.692 50.1183 121.026 43.9317V43.9159Z" fill="black"/>
<path d="M163.748 32.2055C169.272 27.2026 171.655 19.059 181.645 22.2628C179.183 24.9931 176.958 27.6287 174.543 30.0907C172.997 31.6532 172.839 32.9473 174.07 34.8412C177.037 39.3706 179.783 44.0264 182.687 48.761C175.017 50.5286 173.959 50.0867 170.74 44.1053C169.714 42.1799 168.672 40.2702 167.662 38.3921C162.17 40.6016 164.522 45.4468 163.385 49.2029H156.078V10.8522H163.733V32.2055H163.748Z" fill="black"/>
<path d="M68.4081 13.2353C72.4168 11.9412 74.6263 13.2985 76.2992 16.8968C78.6823 22.026 81.6652 26.8869 84.7742 32.5685C87.8991 26.8712 90.882 22.0102 93.2651 16.8652C94.938 13.2511 97.1948 12.0043 101.14 13.2196V49.0135C98.0786 50.0236 96.7845 49.2345 96.8634 45.8887C97.0212 38.5973 96.9265 31.3059 96.9107 24.0146C96.9107 22.7678 96.8003 21.521 96.6898 19.1537C92.4444 26.7607 88.7514 33.3576 84.6953 40.6174C80.6551 33.405 77.0094 26.8712 72.7482 19.2484C72.5588 21.4105 72.401 22.4364 72.401 23.4622C72.3852 31.0219 72.3063 38.5657 72.4168 46.1254C72.4641 48.9346 71.5014 50.0078 68.4239 49.0609V13.2353H68.4081Z" fill="black"/>
<path d="M33.2139 12.9197C39.3373 12.9197 44.8296 12.7303 50.306 12.9828C53.999 13.1564 56.8556 15.2239 57.8183 18.8854C58.9862 23.3202 58.4338 27.4077 53.3519 29.9645C58.055 32.1424 60.0909 35.4567 59.5543 40.1755C58.9546 45.4626 55.3405 49.1082 50.0061 49.3608C45.2872 49.5817 40.5526 49.5501 35.8337 49.3134C34.9183 49.2661 33.3243 47.7983 33.3243 46.9619C33.1507 35.7723 33.2139 24.5985 33.2139 12.9355V12.9197ZM37.8538 32.537V45.0522C42.2571 45.0522 46.4393 45.3047 50.5743 44.9733C53.999 44.705 54.8039 42.022 54.8512 38.9919C54.8986 35.8039 54.0148 32.9789 50.4796 32.6316C46.3762 32.2213 42.1939 32.537 37.8538 32.537ZM44.1983 28.5125C44.9874 28.5125 45.7765 28.5125 46.5498 28.5125C51.8053 28.4494 53.4624 27.0921 53.5255 22.7836C53.5887 18.2067 51.9631 16.7706 46.534 16.6601C45.3504 16.6285 44.1825 16.6601 42.9988 16.6601C37.6013 16.6601 37.554 16.6601 37.6171 21.8209C37.696 29.5068 36.5755 28.402 44.1983 28.5125Z" fill="black"/>
<path d="M296.35 21.8051H303.926C303.926 27.4709 303.768 33.0104 304.036 38.5184C304.115 40.1124 305.046 42.3693 306.277 42.9848C307.556 43.6318 310.033 43.1899 311.28 42.2746C312.369 41.4855 312.89 39.3864 312.937 37.8398C313.127 32.6632 313.016 27.4709 313.016 21.9629H320.86C320.86 24.7721 320.86 27.6918 320.86 30.6115C320.86 35.4251 320.607 40.2387 320.939 45.0364C321.191 48.761 319.771 49.9763 316.267 49.4555C315.383 49.3292 314.468 49.345 313.395 49.2818C313.19 48.2087 313 47.2144 312.779 46.0938C312.432 46.2359 311.99 46.299 311.817 46.5357C309.339 50.1025 305.725 50.3866 302 49.5344C298.339 48.6821 296.571 45.7309 296.429 42.3061C296.145 35.5987 296.35 28.8755 296.35 21.8051Z" fill="black"/>
<path d="M231.675 44.8628C233.379 43.5056 234.879 42.3061 235.968 41.4381C238.824 42.1956 241.602 43.1584 244.458 43.5214C245.421 43.6476 246.573 42.1957 247.646 41.4697C246.636 40.649 245.752 39.4653 244.6 39.0708C242.77 38.4395 240.718 38.4868 238.824 37.9976C235.194 37.0507 232.811 34.8096 232.511 30.9272C232.211 26.9974 233.995 24.1566 237.514 22.4048C242.486 19.9112 250.077 21.2369 254.37 25.4508C252.539 28.26 250.803 30.864 246.873 27.9443C246.115 27.392 244.742 27.1079 243.859 27.3762C242.549 27.7707 241.428 28.7808 240.229 29.5226C241.223 30.3432 242.107 31.5111 243.243 31.9057C245.2 32.5843 247.362 32.6632 249.367 33.2156C252.854 34.1783 255.127 36.4036 255.364 40.0966C255.601 43.8054 253.88 46.5673 250.535 48.3349C244.727 51.3967 236.883 50.1341 231.691 44.8628H231.675Z" fill="black"/>
<path d="M351.288 10.8838C351.288 20.3689 351.32 29.7119 351.272 39.055C351.272 41.517 351.051 43.9633 354.713 43.616V48.8084C347.2 50.576 343.381 47.8615 343.349 40.791C343.302 31.2744 343.349 21.7735 343.365 12.2569C343.365 11.8939 343.523 11.5151 343.665 10.8838H351.288Z" fill="black"/>
<path d="M202.052 10.7733H209.895C209.895 16.234 209.895 21.5368 209.895 26.8396C209.895 31.0061 209.706 35.1884 209.99 39.3391C210.101 41.0278 211.268 42.6533 211.947 44.2947C212.342 44.1842 212.72 44.0737 213.115 43.9633V48.8873C205.334 50.4655 202.067 47.8615 202.067 40.2071C202.052 30.4695 202.067 20.7477 202.067 10.7733H202.052Z" fill="black"/>
<path d="M225.678 10.8996C225.678 18.2541 225.678 25.4823 225.678 32.7106C225.678 34.9201 225.741 37.1296 225.662 39.3233C225.567 41.6906 225.504 43.9317 228.913 43.5214V48.8557C221.416 50.5602 217.85 47.9088 217.834 40.7437C217.802 30.8956 217.834 21.0475 217.834 10.8996H225.678Z" fill="black"/>
<path d="M24.4863 16.3602C20.2725 15.5869 19.4676 17.5597 19.5781 21.1422C19.8148 29.1596 19.657 37.2085 19.657 45.4152C21.4719 45.5888 22.8765 45.7309 24.5021 45.8887C25.3228 48.0035 25.3228 49.5028 22.2452 49.4239C19.1046 49.345 15.9482 49.3292 12.8075 49.4239C10.2666 49.5186 9.50903 48.4612 10.2981 45.9202C11.7501 45.7782 13.2652 45.6204 15.0486 45.4468V17.2756C13.9438 15.2239 8.81461 18.2225 10.4244 12.8408C14.5435 12.8408 18.71 12.7145 22.8608 12.9513C23.713 12.9986 24.4863 14.4506 25.307 15.2397C25.0387 15.6185 24.7704 15.9814 24.5021 16.3602H24.4863Z" fill="black"/>
<path d="M328.404 21.884H335.853V49.1082H328.404V21.884Z" fill="black"/>
<path d="M194.224 48.8873C193.798 49.1082 193.577 49.2976 193.34 49.3134C188.931 49.7553 186.727 47.8299 186.727 43.5371C186.727 36.4194 186.727 29.3016 186.727 21.9155H194.239V48.8715L194.224 48.8873Z" fill="black"/>
<path d="M331.971 10C335.048 10.2999 336.863 11.5309 336.784 14.6715C336.689 17.9227 334.669 18.8538 331.828 18.7749C329.067 18.696 327.457 17.465 327.457 14.4979C327.457 11.2468 329.493 10.3472 331.971 10.0158V10Z" fill="black"/>
<path d="M190.925 18.7591C187.879 18.7591 186.175 17.6859 186.112 14.64C186.049 11.4677 187.769 10.0473 190.657 10.0631C193.529 10.0789 195.218 11.4677 195.155 14.6715C195.092 17.7806 193.308 18.696 190.909 18.7433L190.925 18.7591Z" fill="black"/>
</svg>
