<svg width="440" height="104" viewBox="0 0 440 104" fill="none" xmlns="http://www.w3.org/2000/svg">
<path d="M134.419 41.5936H127.97C127.216 41.5936 126.546 41.8036 126.546 42.5155C126.546 42.9355 126.756 43.1455 127.132 43.3954C127.585 43.5962 127.969 43.9254 128.237 44.3423C128.505 44.7592 128.645 45.2455 128.639 45.7411C128.514 47.3098 128.147 48.8496 127.552 50.3065L122.892 63.2446C122.85 63.3706 122.85 63.4546 122.766 63.4546C122.64 63.4546 122.64 63.3706 122.598 63.2446L115.647 41.7595C115.616 41.6114 115.529 41.4809 115.404 41.3952C115.279 41.3096 115.126 41.2753 114.977 41.2996H112.297C112.144 41.2844 111.99 41.3217 111.861 41.4052C111.732 41.4887 111.635 41.6136 111.585 41.7595L103.839 63.0346C103.755 63.2866 103.713 63.4105 103.587 63.4105C103.461 63.4105 103.461 63.3265 103.419 63.2425L98.5612 46.8625C98.3703 46.2658 98.2581 45.6466 98.2273 45.0208C98.2007 44.641 98.3201 44.2654 98.5612 43.9708C98.844 43.6967 99.1696 43.4705 99.5251 43.3009C99.6908 43.2287 99.8333 43.112 99.9367 42.9637C100.04 42.8154 100.1 42.6414 100.111 42.4609C100.111 41.875 99.6511 41.581 98.851 41.581H90.6421C89.6782 41.581 89.1721 41.9569 89.1721 42.5449C89.1721 43.0048 89.464 43.2148 89.842 43.4248C90.6595 43.7918 91.3652 44.3687 91.8875 45.0968C92.4098 45.8249 92.73 46.6783 92.8156 47.5702L100.229 71.275C100.259 71.4262 100.345 71.5608 100.468 71.6533C100.592 71.7458 100.745 71.7898 100.899 71.7769H103.244C103.578 71.7769 103.788 71.6509 103.956 71.233L111.871 49.582C111.913 49.498 111.955 49.456 112.039 49.456C112.123 49.456 112.165 49.498 112.207 49.582L119.452 71.275C119.49 71.4225 119.577 71.5527 119.699 71.644C119.82 71.7352 119.97 71.7821 120.122 71.7769H122.258C122.634 71.7769 122.802 71.6089 122.928 71.233L131.01 49.414C131.471 48.0884 132.09 46.8228 132.852 45.6445C133.414 44.7828 134.157 44.054 135.03 43.5088C135.492 43.2148 135.784 42.9649 135.784 42.5029C135.801 41.8876 135.257 41.5936 134.419 41.5936Z" fill="#2E2E2E"/>
<path d="M139.2 57.2167C139.2 56.2528 140.46 51.7714 144.351 51.7714C144.878 51.742 145.405 51.8178 145.901 51.9942C146.398 52.1707 146.855 52.4443 147.244 52.7991C147.634 53.1539 147.949 53.5828 148.172 54.0608C148.394 54.5388 148.519 55.0562 148.539 55.5829C148.539 57.1327 147.533 57.6346 145.439 57.6346H139.618C139.284 57.6367 139.2 57.5464 139.2 57.2167ZM152.476 66.0115C151.344 66.0115 149.956 68.1472 146.069 68.1472C145.011 68.1832 143.961 67.9574 143.011 67.49C142.061 67.0226 141.241 66.3279 140.624 65.4676C139.663 64.0618 139.15 62.3975 139.154 60.6943C139.154 60.4003 139.322 60.2344 139.656 60.2344H150.334C153.224 60.2344 153.768 59.2285 153.768 57.3448C153.729 56.1593 153.436 54.996 152.909 53.9336C152.381 52.8713 151.631 51.9348 150.71 51.1876C149.034 49.8542 146.947 49.1439 144.805 49.1779C143.078 49.1728 141.378 49.6063 139.864 50.4379C137.986 51.527 136.434 53.098 135.367 54.9883C134.3 56.8787 133.758 59.0197 133.797 61.1899C133.806 62.6907 134.075 64.1786 134.593 65.5873C135.32 67.5181 136.64 69.1693 138.362 70.305C140.085 71.4407 142.122 72.0026 144.183 71.9104C146.478 71.923 148.729 71.2844 150.675 70.0687C152.098 69.1468 153.354 67.7587 153.354 66.8851C153.357 66.77 153.337 66.6554 153.294 66.5483C153.252 66.4412 153.188 66.3438 153.107 66.2619C153.026 66.1799 152.929 66.1151 152.823 66.0714C152.716 66.0277 152.602 66.0059 152.487 66.0073L152.476 66.0115Z" fill="#2E2E2E"/>
<path d="M163.449 60.8932C163.491 55.4899 165.759 52.9363 168.684 52.9363C172.044 52.9363 174.128 56.5062 174.128 61.1451C174.128 65.9184 172.202 69.312 168.976 69.312C165.669 69.3162 163.449 66.3847 163.449 60.8932ZM177.939 66.0025C178.938 63.9551 179.454 61.7056 179.447 59.4274C179.447 54.1081 176.431 49.1668 170.862 49.1668C169.551 49.1964 168.263 49.5159 167.09 50.1022C165.916 50.6886 164.888 51.5273 164.077 52.5583C163.951 52.7263 163.867 52.7683 163.743 52.7683C163.575 52.7683 163.491 52.643 163.491 52.3924V41.4661C163.491 40.5022 163.031 40.2061 162.485 40.2061C162.168 40.22 161.855 40.2911 161.563 40.4161C159.963 41.0094 158.327 41.5004 156.664 41.8861C155.7 42.1381 155.404 42.388 155.404 42.9361C155.404 43.4842 156.034 43.732 156.576 43.942C156.877 44.0254 157.158 44.1684 157.402 44.3625C157.647 44.5566 157.85 44.7977 158 45.0717C158.327 46.0704 158.455 47.1234 158.378 48.1714V70.3642C158.378 71.578 158.838 71.956 159.428 71.956C160.018 71.956 160.268 71.62 160.641 70.8262C160.935 70.2403 161.185 69.9463 161.691 69.9463C162.195 70.0196 162.671 70.2214 163.073 70.5322C164.73 71.4792 166.608 71.9705 168.516 71.956C170.491 71.9657 172.426 71.4111 174.096 70.3574C175.765 69.3038 177.099 67.795 177.939 66.0088V66.0025Z" fill="#2E2E2E"/>
<path d="M191.515 43.3925C191.249 42.5695 190.792 41.8214 190.18 41.2099C189.569 40.5984 188.821 40.1408 187.998 39.875C187.18 40.1421 186.438 40.6006 185.834 41.2125C185.229 41.8243 184.78 42.5717 184.522 43.3925C184.787 44.2045 185.24 44.9424 185.844 45.5463C186.448 46.1502 187.186 46.6031 187.998 46.868C188.815 46.6042 189.559 46.1524 190.17 45.5488C190.781 44.9451 191.242 44.2066 191.515 43.3925ZM192.565 69.4829C191.968 69.1119 191.478 68.5924 191.142 67.9751C190.656 66.5634 190.484 65.0626 190.64 63.5777V50.4275C190.64 49.4636 190.22 49.1675 189.634 49.1675C189.049 49.2366 188.481 49.4064 187.954 49.6694C186.605 50.1673 185.219 50.5591 183.808 50.8412C182.844 51.0512 182.548 51.3851 182.548 51.8912C182.548 52.4351 183.178 52.6871 183.678 52.8971C184.302 53.0817 184.829 53.502 185.148 54.0689C185.482 55.0515 185.596 56.095 185.484 57.1265V63.5756C185.633 65.0742 185.462 66.5874 184.982 68.015C184.663 68.6506 184.148 69.1662 183.512 69.485C183.01 69.779 182.632 70.0709 182.632 70.5749C182.632 71.2049 183.262 71.4968 184.014 71.4968H192.055C192.809 71.4968 193.437 71.2049 193.437 70.5749C193.435 70.0772 193.065 69.8168 192.561 69.4829H192.565Z" fill="#2E2E2E"/>
<path d="M220.703 69.4824C220.088 69.1349 219.591 68.6093 219.28 67.9746C218.791 66.549 218.619 65.0339 218.778 63.5352V57.6363C218.934 55.6634 218.481 53.6901 217.48 51.9831C216.834 51.0841 215.976 50.3579 214.983 49.8686C213.99 49.3793 212.891 49.142 211.785 49.1775C210.443 49.1627 209.119 49.4846 207.933 50.1138C206.748 50.743 205.739 51.6593 205 52.779C204.916 52.905 204.874 52.989 204.79 52.989C204.664 52.989 204.622 52.905 204.622 52.779V50.427C204.622 49.4631 204.162 49.167 203.572 49.167C202.999 49.2234 202.443 49.394 201.938 49.6689C200.608 50.1806 199.234 50.5728 197.834 50.8407C196.87 51.0507 196.537 51.3846 196.537 51.8907C196.537 52.5207 197.29 52.7307 197.708 52.8966C198.019 52.9718 198.31 53.1113 198.563 53.3058C198.816 53.5004 199.026 53.7459 199.178 54.0264C199.508 55.0244 199.622 56.0807 199.514 57.126V63.5331C199.65 65.0287 199.494 66.5365 199.054 67.9725C198.712 68.6005 198.204 69.1221 197.585 69.4803C197.125 69.7743 196.705 70.0242 196.705 70.5303C196.705 71.2002 197.29 71.4942 198.086 71.4942H206.043C206.839 71.4942 207.425 71.2023 207.425 70.5303C207.425 70.0284 207.089 69.8184 206.545 69.4803C205.93 69.1322 205.434 68.6068 205.121 67.9725C204.633 66.547 204.461 65.0318 204.62 63.5331C204.62 58.1718 205.04 55.9101 206.545 54.4023C206.96 53.9936 207.453 53.6716 207.993 53.4553C208.534 53.239 209.113 53.1325 209.695 53.1423C212.125 53.1423 213.633 54.8223 213.633 57.6657V63.5289C213.791 65.0276 213.62 66.5428 213.131 67.9683C212.789 68.597 212.281 69.1188 211.661 69.4761C211.201 69.7701 210.781 70.02 210.781 70.5261C210.781 71.196 211.411 71.49 212.163 71.49H220.195C220.991 71.49 221.619 71.1981 221.619 70.5261C221.625 70.0263 221.245 69.7764 220.703 69.4824Z" fill="#2E2E2E"/>
<path d="M236.708 60.9399C236.872 62.7439 236.628 64.5618 235.996 66.2592C235.645 66.9997 235.094 67.6278 234.406 68.0729C233.718 68.518 232.92 68.7626 232.1 68.7792C231.718 68.8089 231.334 68.7577 230.973 68.629C230.612 68.5004 230.282 68.2971 230.004 68.0324C229.727 67.7677 229.508 67.4476 229.363 67.0929C229.218 66.7382 229.149 66.3568 229.16 65.9736C229.179 65.3364 229.358 64.7141 229.68 64.1637C230.001 63.6134 230.456 63.1526 231.002 62.8236C232.762 61.6098 235.066 61.0218 236.447 60.018C236.483 59.9887 236.528 59.9737 236.573 59.976C236.59 59.9735 236.608 59.9751 236.624 59.9806C236.641 59.986 236.656 59.9952 236.668 60.0075C236.68 60.0197 236.689 60.0346 236.695 60.051C236.7 60.0674 236.702 60.0849 236.699 60.102L236.708 60.9399ZM243.911 68.5209C243.659 68.5209 243.409 68.5629 243.199 68.5629C242.277 68.5629 242.027 67.3911 242.027 65.2029C242.027 62.6073 242.195 59.3397 242.195 56.3241C242.195 52.0107 238.594 49.1631 233.484 49.1631C232.076 49.1619 230.671 49.3162 229.297 49.623C228.05 49.806 226.892 50.3778 225.989 51.2568C225.435 52.2105 225.173 53.3057 225.235 54.4068C225.235 55.7886 225.527 56.7525 226.617 56.7525C226.866 56.7759 227.116 56.7341 227.344 56.6314C227.571 56.5287 227.768 56.3685 227.915 56.1666C228.631 55.0232 229.477 53.9662 230.435 53.0166C231.291 52.2937 232.373 51.8938 233.493 51.8868C233.847 51.8846 234.199 51.9269 234.543 52.0128C235.173 52.1585 235.734 52.5172 236.13 53.0283C236.527 53.5394 236.736 54.1716 236.72 54.8184C236.72 56.4102 235.67 57.624 233.36 58.7139C230.968 59.5224 228.632 60.4877 226.367 61.6035C225.523 62.1057 224.822 62.816 224.331 63.6664C223.84 64.5167 223.575 65.4788 223.562 66.4608C223.562 69.9783 226.745 71.9481 230.137 71.9481C231.474 71.9759 232.799 71.6779 233.995 71.0797C235.192 70.4815 236.225 69.6012 237.006 68.5146C237.006 68.5146 237.174 68.5146 237.174 68.5566C237.241 69.4848 237.66 70.3524 238.345 70.9825C239.03 71.6127 239.929 71.958 240.859 71.9481C241.553 71.965 242.24 71.8183 242.866 71.5198C243.491 71.2214 244.038 70.7796 244.461 70.2303C244.651 69.9764 244.754 69.6677 244.755 69.3504C244.761 69.2386 244.743 69.1267 244.702 69.0223C244.662 68.9179 244.6 68.8233 244.52 68.7447C244.44 68.6661 244.345 68.6053 244.24 68.5664C244.135 68.5274 244.022 68.5133 243.911 68.5209Z" fill="#2E2E2E"/>
<path d="M263.581 50.0511C263.288 49.7528 262.935 49.5201 262.545 49.3684C262.155 49.2167 261.737 49.1495 261.32 49.1712C260.025 49.3591 258.802 49.8781 257.767 50.678C256.733 51.4779 255.922 52.5314 255.415 53.7366C255.373 53.8206 255.372 53.8626 255.33 53.8626C255.246 53.8626 255.246 53.7786 255.246 53.6946V50.427C255.246 49.5471 254.787 49.167 254.159 49.167C253.808 49.1689 253.463 49.2553 253.153 49.419C251.724 50.0298 250.236 50.4928 248.713 50.8008C247.833 51.0108 247.453 51.3447 247.453 51.8907C247.453 52.4766 248.165 52.7307 248.625 52.8966C248.925 52.9814 249.206 53.1249 249.45 53.3188C249.695 53.5127 249.898 53.7533 250.049 54.0264C250.42 55.0003 250.564 56.0461 250.469 57.084V63.5751C250.617 65.0739 250.446 66.5871 249.965 68.0145C249.651 68.6382 249.155 69.1511 248.541 69.4845C248.039 69.7785 247.661 70.0704 247.661 70.5744C247.661 71.2044 248.247 71.4963 249.043 71.4963H257.042C257.838 71.4963 258.424 71.2044 258.424 70.5744C258.424 70.0725 258.09 69.8205 257.544 69.4845C256.931 69.151 256.434 68.6381 256.12 68.0145C255.636 66.588 255.464 65.0739 255.616 63.5751C255.616 57.21 256.83 55.5762 257.752 54.6543C257.985 54.3922 258.267 54.1793 258.584 54.0282C258.9 53.8771 259.243 53.7908 259.593 53.7744C260.147 53.7924 260.684 53.9663 261.143 54.2763C261.615 54.5985 262.165 54.7865 262.735 54.8202C263.823 54.8202 264.415 53.8983 264.415 52.6005C264.453 51.678 264.157 50.7727 263.581 50.0511Z" fill="#2E2E2E"/>
<path d="M297.148 41.5943H290.447C289.525 41.5943 288.977 41.8883 288.977 42.4343C288.977 43.8161 291.573 42.9782 291.573 46.2458C291.532 47.8078 291.335 49.3617 290.987 50.8847C290.317 54.4547 289.019 60.9773 288.257 64.7888C288.215 65.0408 288.173 65.1647 288.005 65.1647C287.921 65.1647 287.837 65.0807 287.713 64.8287L276.163 42.2978C275.911 41.7959 275.661 41.5859 274.865 41.5859H270.638C270.008 41.5859 269.55 41.8379 269.55 42.3398C269.55 43.0517 270.472 43.1798 271.31 43.6796C271.94 44.0555 272.397 44.3915 272.397 44.8514C272.399 44.9925 272.385 45.1334 272.355 45.2714C271.977 47.1131 268.88 62.2331 268.292 64.5368C267.412 67.9283 266.402 68.8502 264.932 69.5201C264.22 69.854 263.55 70.022 263.55 70.6499C263.55 71.2358 264.052 71.4899 264.81 71.4899H272.223C273.019 71.4899 273.563 71.198 273.563 70.6499C273.563 70.0199 273.061 69.896 272.349 69.5201C271.783 69.2558 271.317 68.8148 271.023 68.2636C270.728 67.7123 270.62 67.0803 270.715 66.4625C270.738 65.8024 270.808 65.1448 270.925 64.4948C271.177 62.693 273.313 51.6848 274.025 48.287C274.067 48.077 274.109 47.951 274.235 47.951C274.319 47.951 274.361 48.035 274.445 48.203L286.297 71.3618C286.346 71.4963 286.439 71.6105 286.56 71.6866C286.682 71.7626 286.825 71.7961 286.967 71.7818H288.601C288.745 71.7906 288.886 71.7432 288.996 71.6495C289.105 71.5558 289.173 71.4233 289.187 71.2799C289.481 69.8561 293.122 51.7226 293.96 48.413C294.8 45.1454 295.384 44.2676 296.808 43.6397C297.562 43.3037 298.4 43.1378 298.4 42.3797C298.406 41.8547 297.902 41.5943 297.148 41.5943Z" fill="#2E2E2E"/>
<path d="M309.668 43.1393C309.668 42.1754 307.908 39.9893 306.988 39.9893C306.069 39.9893 303.555 41.957 303.555 42.9629C303.555 43.8848 305.273 46.0625 306.235 46.0625C307.196 46.0625 309.668 44.0192 309.668 43.1393ZM307.112 67.598C306.272 67.598 305.563 68.9378 304.517 68.9378C303.847 68.9378 303.721 68.3939 303.721 67.85C303.93 65.9017 304.266 63.9691 304.727 62.0645L307.157 50.2541C307.181 50.1579 307.195 50.0593 307.198 49.9601C307.198 49.4582 306.823 49.1642 306.279 49.1642C306.021 49.1841 305.767 49.2407 305.525 49.3322C304.109 49.7916 302.65 50.1006 301.169 50.2541C300.119 50.3801 299.699 50.6741 299.699 51.218C299.699 52.5578 302.297 51.7619 302.297 53.7737C302.227 54.718 302.087 55.6558 301.877 56.5793L300.075 65.3741C299.828 66.4183 299.687 67.485 299.655 68.5577C299.655 70.6094 300.661 71.9492 302.545 71.9492C303.916 71.8777 305.22 71.3295 306.23 70.3994C307.234 69.4775 307.738 68.7194 307.738 68.2217C307.733 68.0579 307.665 67.9023 307.55 67.7865C307.434 67.6706 307.278 67.6032 307.114 67.598H307.112Z" fill="#2E2E2E"/>
<path d="M334.567 67.5992C333.687 67.5992 332.975 68.939 331.972 68.939C331.386 68.939 331.176 68.519 331.176 67.8092C331.176 65.2892 333.486 58.0505 333.486 53.9891C333.486 51.1835 332.104 49.1738 329.13 49.1738C325.77 49.1738 322.555 52.1474 319.916 56.7968C319.832 56.9228 319.79 57.0488 319.706 57.0488C319.58 57.0488 319.58 56.9228 319.58 56.8808C319.588 56.796 319.602 56.7118 319.622 56.6288L320.919 50.2637C320.944 50.1676 320.958 50.069 320.961 49.9697C320.961 49.4258 320.625 49.1738 320.081 49.1738C319.853 49.1788 319.626 49.2213 319.412 49.2998C317.981 49.7646 316.508 50.0874 315.014 50.2637C313.964 50.3897 313.544 50.6837 313.544 51.2696C313.544 52.4834 316.14 51.8135 316.14 53.7413C316.083 54.7009 315.942 55.6538 315.72 56.5889L312.662 71.3309C312.637 71.4264 312.623 71.5243 312.62 71.6228C312.616 71.6733 312.623 71.7241 312.641 71.7716C312.659 71.819 312.687 71.8621 312.723 71.8978C312.758 71.9336 312.802 71.9611 312.849 71.9785C312.897 71.9959 312.948 72.0028 312.998 71.9987C313.111 71.9947 313.224 71.9807 313.334 71.9567L316.014 71.4968C316.186 71.488 316.351 71.4208 316.48 71.3064C316.609 71.1919 316.696 71.037 316.726 70.8668L317.312 68.1872C318.111 64.6973 319.409 61.3407 321.165 58.2206C323.475 54.0752 325.73 52.3994 327.446 52.3994C327.716 52.3887 327.984 52.4398 328.231 52.5491C328.478 52.6583 328.696 52.8226 328.87 53.0294C329.238 53.5869 329.401 54.2551 329.33 54.9194C329.33 58.187 326.942 65.474 326.942 68.5295C326.888 68.9616 326.927 69.4002 327.056 69.816C327.185 70.2319 327.402 70.6152 327.691 70.9404C327.981 71.2656 328.337 71.5251 328.735 71.7015C329.133 71.8778 329.564 71.967 330 71.963C331.388 71.8763 332.704 71.3142 333.727 70.3712C334.733 69.4913 335.197 68.7794 335.197 68.2712C335.203 68.185 335.191 68.0986 335.162 68.0172C335.133 67.9359 335.087 67.8614 335.028 67.7983C334.969 67.7353 334.898 67.6851 334.818 67.6509C334.739 67.6166 334.654 67.599 334.567 67.5992Z" fill="#2E2E2E"/>
<path d="M347.153 49.3813C345.779 49.8237 344.361 50.1186 342.924 50.2612C341.874 50.3872 341.454 50.6371 341.454 51.2251C341.454 52.147 342.714 52.021 343.554 52.6489C343.724 52.798 343.855 52.9867 343.936 53.1983C344.016 53.41 344.043 53.6382 344.014 53.8627C343.919 55.1189 343.723 56.3654 343.428 57.5902L341.118 68.9302C340.278 73.1176 339.274 77.0971 336.303 77.0971C335.324 77.0672 334.393 76.6619 333.705 75.9652C332.617 75.0433 332.025 74.0752 331.235 74.0752C330.565 74.0752 329.975 74.4952 329.975 75.793C329.88 76.493 330.039 77.204 330.425 77.7959C330.81 78.3879 331.396 78.8211 332.075 79.0165C332.935 79.3251 333.842 79.4807 334.755 79.4764C336.402 79.4436 338.016 79.007 339.455 78.2047C340.894 77.4025 342.114 76.2592 343.008 74.8753C344.976 71.9017 345.396 68.1322 346.609 61.9351L348.871 50.4607C348.899 50.3224 348.913 50.1817 348.913 50.0407C348.919 49.9198 348.9 49.799 348.855 49.6866C348.81 49.5741 348.742 49.4726 348.654 49.389C348.567 49.3055 348.462 49.2418 348.348 49.2024C348.233 49.163 348.112 49.1488 347.991 49.1608C347.701 49.1838 347.417 49.2585 347.153 49.3813ZM351.425 43.1422C351.425 42.1783 349.665 39.9922 348.745 39.9922C347.825 39.9922 345.312 41.9599 345.312 42.9658C345.312 43.8877 347.027 46.0654 347.991 46.0654C348.955 46.0654 351.427 44.02 351.427 43.1401L351.425 43.1422Z" fill="#2E2E2E"/>
<path d="M361.931 52.3867C362.695 51.6151 363.735 51.1786 364.821 51.1729C366.16 51.1729 369.302 52.3027 369.302 54.0205C368.626 57.5317 367.182 60.8498 365.073 63.7372C362.685 67.1707 360.801 68.8465 359.335 68.8465C357.655 68.8465 357.326 66.8788 357.326 65.413C357.323 62.5318 358.745 55.5787 361.931 52.3867ZM373.363 49.1611C372.523 49.1611 372.066 50.5009 370.978 50.5009C369.846 50.5009 368.038 49.1611 365.282 49.1611C361.849 49.1611 358.413 51.4228 355.944 55.6102C354.111 58.7437 353.089 62.2848 352.97 65.9128C352.97 69.5563 354.604 71.944 357.452 71.944C361.681 71.944 365.283 67.2106 367.21 63.6511C367.252 63.5671 367.294 63.5251 367.336 63.5251C367.378 63.5251 367.42 63.5251 367.42 63.6091C367.415 63.7081 367.401 63.8065 367.378 63.9031C367.004 65.4573 366.766 67.0411 366.666 68.6365C366.666 70.8982 367.756 71.944 369.514 71.944C370.507 71.8633 371.469 71.5564 372.325 71.0469C373.182 70.5373 373.911 69.8385 374.455 69.004C374.631 68.7744 374.734 68.497 374.749 68.2081C374.755 68.1186 374.742 68.0289 374.71 67.945C374.679 67.861 374.63 67.7848 374.566 67.7214C374.503 67.658 374.426 67.6088 374.343 67.5773C374.259 67.5457 374.169 67.5324 374.079 67.5382C373.284 67.5382 372.53 68.878 371.524 68.878C370.938 68.878 370.728 68.458 370.728 67.7461C371.089 64.8835 371.621 62.0448 372.32 59.2453C373.37 54.304 374.163 50.6605 374.163 50.0326C374.159 49.6315 373.991 49.1716 373.363 49.1716V49.1611Z" fill="#2E2E2E"/>
<path fill-rule="evenodd" clip-rule="evenodd" d="M61.2666 40.9826L41.7366 44.9264L22.2066 40.9826V34.145L41.7366 38.0888L61.2666 34.145V40.9826ZM41.7387 11.2676L11.0493 31.9925V56.6633L41.7387 77.3882L72.4281 56.6633V31.9925L41.7387 11.2676Z" fill="#0274E4" stroke="#0274E4" stroke-width="2.1"/>
<path fill-rule="evenodd" clip-rule="evenodd" d="M41.823 76.9417L70.4796 56.9182L41.823 37.7578L13.1748 57.4831L41.823 76.9417Z" fill="#0274E4"/>
<path d="M90.0723 15.2749H95.8998C96.918 15.2276 97.9151 15.576 98.6823 16.2472C99.0421 16.6008 99.322 17.0275 99.5031 17.4984C99.6842 17.9693 99.7624 18.4735 99.7323 18.9772C99.7511 19.9433 99.4174 20.8832 98.7936 21.6211C98.4265 22.0147 97.9751 22.3202 97.4733 22.5148C96.9714 22.7093 96.4321 22.7879 95.8956 22.7446H91.8258V28.2046H90.0723V15.2749ZM97.9641 18.9919C98.0055 18.6005 97.9273 18.2058 97.7399 17.8598C97.5524 17.5138 97.2645 17.2327 96.9141 17.0536C96.4084 16.8498 95.8649 16.7567 95.3202 16.7806H91.8258V21.2641H95.3139C95.9884 21.2947 96.6562 21.1196 97.2291 20.7622C97.4912 20.5532 97.6962 20.2813 97.8251 19.9717C97.954 19.6622 98.0004 19.3252 97.9641 18.9919ZM102.492 18.7819H103.997V20.4031C104.217 19.9583 104.526 19.5637 104.905 19.2439C105.347 18.8046 105.946 18.5591 106.57 18.5614H106.719L107.08 18.5971V20.2771C106.994 20.2632 106.907 20.2541 106.82 20.2498C106.74 20.2498 106.653 20.2498 106.559 20.2498C106.215 20.2281 105.87 20.2855 105.551 20.4176C105.232 20.5497 104.948 20.7531 104.72 21.0121C104.298 21.5066 104.07 22.1369 104.077 22.7866V28.213H102.492V18.7819ZM112.91 27.1924C113.349 27.2348 113.79 27.1436 114.176 26.9308C114.562 26.7179 114.875 26.3933 115.073 25.9996C115.474 25.1721 115.679 24.2628 115.669 23.3431C115.699 22.604 115.555 21.8682 115.249 21.1948C115.037 20.7726 114.704 20.4232 114.293 20.1909C113.881 19.9587 113.41 19.8542 112.939 19.8907C112.519 19.8616 112.098 19.9498 111.725 20.1456C111.351 20.3413 111.04 20.637 110.824 20.9995C110.364 21.8152 110.136 22.7409 110.163 23.677C110.129 24.564 110.359 25.4412 110.824 26.197C111.055 26.5301 111.369 26.7972 111.735 26.9718C112.101 27.1464 112.506 27.2225 112.91 27.1924ZM112.981 18.5131C113.55 18.5002 114.116 18.6011 114.645 18.8099C115.175 19.0187 115.657 19.3312 116.064 19.729C116.508 20.2057 116.849 20.7687 117.065 21.3829C117.282 21.9971 117.37 22.6493 117.324 23.299C117.38 24.6466 116.99 25.9751 116.215 27.079C115.806 27.5888 115.278 27.991 114.678 28.2505C114.078 28.5099 113.423 28.6189 112.771 28.5679C112.19 28.5936 111.611 28.4887 111.076 28.2608C110.541 28.0329 110.064 27.6879 109.68 27.2512C108.876 26.2536 108.468 24.9943 108.535 23.7148C108.466 22.35 108.895 21.0064 109.743 19.9348C110.14 19.4684 110.638 19.0982 111.199 18.8519C111.76 18.6056 112.369 18.4898 112.981 18.5131ZM120.308 15.2812H126.14C127.158 15.2339 128.155 15.5823 128.922 16.2535C129.282 16.6071 129.562 17.0338 129.743 17.5047C129.924 17.9756 130.002 18.4798 129.972 18.9835C129.988 19.948 129.653 20.8854 129.029 21.6211C128.662 22.0147 128.211 22.3202 127.709 22.5148C127.207 22.7093 126.668 22.7879 126.131 22.7446H122.062V28.2046H120.308V15.2812ZM128.2 18.9982C128.241 18.6068 128.163 18.2121 127.976 17.8661C127.788 17.5201 127.5 17.239 127.15 17.0599C126.644 16.8561 126.101 16.763 125.556 16.7869H122.062V21.2641H125.55C126.224 21.2947 126.892 21.1196 127.465 20.7622C127.727 20.5532 127.932 20.2813 128.061 19.9717C128.19 19.6622 128.238 19.3252 128.202 18.9919L128.2 18.9982ZM132.727 18.7882H134.233V20.4031C134.452 19.9583 134.761 19.5637 135.14 19.2439C135.583 18.8046 136.182 18.5591 136.806 18.5614H136.955L137.316 18.5971V20.2771C137.23 20.2604 137.143 20.2485 137.056 20.2414C136.976 20.2414 136.889 20.2414 136.795 20.2414C136.45 20.2204 136.104 20.2789 135.785 20.4125C135.465 20.5461 135.181 20.7513 134.953 21.0121C134.532 21.5066 134.304 22.1369 134.311 22.7866V28.213H132.725L132.727 18.7882ZM143.15 27.1924C143.589 27.2348 144.03 27.1436 144.416 26.9308C144.802 26.7179 145.115 26.3933 145.313 25.9996C145.713 25.1718 145.916 24.2625 145.905 23.3431C145.935 22.604 145.791 21.8682 145.485 21.1948C145.273 20.7726 144.94 20.4232 144.529 20.1909C144.117 19.9587 143.646 19.8542 143.175 19.8907C142.754 19.8616 142.334 19.9498 141.961 20.1456C141.587 20.3413 141.276 20.637 141.06 20.9995C140.6 21.8152 140.371 22.7409 140.399 23.677C140.364 24.564 140.595 25.4412 141.06 26.197C141.291 26.5308 141.606 26.7983 141.972 26.9729C142.339 27.1475 142.745 27.2232 143.15 27.1924ZM143.219 18.5131C143.788 18.5002 144.354 18.6011 144.883 18.8099C145.413 19.0187 145.895 19.3312 146.302 19.729C146.746 20.2057 147.086 20.7687 147.303 21.3829C147.52 21.9971 147.608 22.6493 147.562 23.299C147.618 24.6466 147.228 25.9751 146.453 27.079C146.044 27.5888 145.516 27.991 144.916 28.2505C144.315 28.5099 143.661 28.6189 143.009 28.5679C142.428 28.5936 141.849 28.4887 141.314 28.2608C140.779 28.0329 140.302 27.6879 139.918 27.2512C139.114 26.2536 138.706 24.9943 138.773 23.7148C138.704 22.35 139.133 21.0064 139.981 19.9348C140.378 19.4684 140.876 19.0982 141.437 18.8519C141.998 18.6056 142.607 18.4898 143.219 18.5131ZM150.569 17.3497C150.553 16.846 150.672 16.3472 150.913 15.9049C151.176 15.6043 151.509 15.373 151.882 15.2316C152.255 15.0902 152.658 15.0431 153.053 15.0943C153.153 15.0943 153.256 15.0943 153.362 15.0943L153.723 15.1216V16.5664L153.366 16.5454H153.156C152.675 16.5454 152.387 16.67 152.293 16.9192C152.164 17.546 152.117 18.187 152.152 18.826H153.721V20.086H152.136V28.2256H150.567V20.0755H149.254V18.8155H150.567L150.569 17.3497ZM156.848 25.2604C156.863 25.695 157.001 26.1164 157.245 26.4763C157.509 26.7558 157.834 26.9705 158.195 27.1035C158.555 27.2364 158.942 27.2841 159.324 27.2428C159.865 27.2545 160.4 27.1226 160.874 26.8606C161.086 26.7468 161.262 26.5751 161.38 26.3654C161.499 26.1558 161.556 25.9168 161.544 25.6762C161.549 25.4873 161.502 25.3007 161.407 25.1374C161.312 24.9741 161.173 24.8407 161.006 24.7522C160.572 24.5521 160.117 24.4014 159.649 24.3028L158.389 23.9857C157.765 23.856 157.165 23.63 156.611 23.3158C156.296 23.1392 156.034 22.8806 155.854 22.5675C155.674 22.2543 155.582 21.8983 155.588 21.5371C155.572 21.1242 155.65 20.713 155.817 20.3347C155.983 19.9564 156.233 19.6208 156.548 19.3531C157.283 18.7704 158.205 18.4762 159.141 18.5257C159.717 18.4734 160.297 18.5607 160.832 18.78C161.368 18.9993 161.842 19.3443 162.216 19.7857C162.596 20.2736 162.798 20.8766 162.789 21.4951H161.292C161.264 21.139 161.132 20.7989 160.914 20.5165C160.662 20.2831 160.363 20.1062 160.037 19.9975C159.711 19.8889 159.365 19.851 159.024 19.8865C158.545 19.8542 158.069 19.9748 157.663 20.2309C157.517 20.3323 157.399 20.4682 157.318 20.6265C157.237 20.7847 157.197 20.9605 157.201 21.1381C157.202 21.3424 157.259 21.5424 157.366 21.7164C157.473 21.8904 157.626 22.0318 157.808 22.1251C158.132 22.3068 158.483 22.4378 158.847 22.5136L159.897 22.7698C160.697 22.9206 161.469 23.1911 162.188 23.572C162.497 23.7814 162.744 24.0683 162.906 24.4037C163.069 24.7392 163.14 25.1114 163.112 25.483C163.115 25.8924 163.031 26.2978 162.867 26.6727C162.702 27.0475 162.46 27.3835 162.157 27.6586C161.342 28.3299 160.299 28.6582 159.246 28.5742C158.71 28.6292 158.169 28.5728 157.655 28.4083C157.142 28.2439 156.669 27.975 156.264 27.6187C155.677 26.9697 155.345 26.1295 155.33 25.2541L156.848 25.2604Z" fill="#6D6D6D" stroke="#6D6D6D" stroke-width="1.05"/>
</svg>
