<svg width="588" height="58" viewBox="0 0 588 58" fill="none" xmlns="http://www.w3.org/2000/svg">
<path d="M10 12.0399H29.3253V15.2698H21.3536V45.8294H17.9717V15.2698H10V12.0399ZM43.5778 45.9208V12.1315H46.9598V27.3393H61.886V12.1315H65.268V45.9208H61.886V30.8176H46.9598V45.9208H43.5778ZM82.1776 45.9208V12.1315H101.694V15.3613H85.5596V27.3785H101.211V30.6608H85.5596V42.678H101.694V45.9078H82.1776V45.9208ZM173.388 32.2038C172.676 36.3098 170.731 39.6964 167.54 42.338C164.349 44.9924 160.763 46.3132 156.771 46.3132C154.457 46.3132 152.257 45.8554 150.198 44.9532C148.138 44.0378 146.345 42.7956 144.807 41.2264C143.269 39.6572 142.074 37.8004 141.184 35.682C140.294 33.5636 139.861 31.3014 139.861 28.8954C139.861 26.4893 140.306 24.2402 141.184 22.1087C142.074 19.9904 143.281 18.1466 144.807 16.5643C146.333 14.9821 148.138 13.7529 150.198 12.8376C152.257 11.9222 154.33 11.4776 156.428 11.4776C160.356 11.4776 163.827 12.6284 166.84 14.9167C169.841 17.2051 171.901 20.2257 173.007 23.9525H169.434C168.392 21.2195 166.726 19.0358 164.438 17.4012C162.149 15.7667 159.593 14.956 156.784 14.956C153.046 14.956 149.855 16.3159 147.223 19.0358C144.578 21.7557 143.256 25.0248 143.256 28.8692C143.256 32.7136 144.578 35.9698 147.197 38.7158C149.829 41.4618 153.02 42.8348 156.771 42.8348C159.746 42.8348 162.454 41.9588 164.87 40.1934C167.285 38.428 168.989 36.0874 169.955 33.1452H156.618V30.1114H173.719L173.375 32.2038H173.388ZM189.192 45.9208V12.1315H208.708V15.3613H192.574V27.3785H208.225V30.6608H192.574V42.678H208.708V45.9078H189.192V45.9208ZM240.734 42.4426V45.9208H225.618V12.1315H229V42.4426H240.734ZM275.52 40.455C274.91 41.7102 274.084 42.7432 273.054 43.554C271.058 45.1232 268.388 45.9078 265.032 45.9078H254.986V12.1315H263.874C268.68 12.1315 271.808 13.6614 273.244 16.7082C273.766 17.8066 274.02 18.905 274.02 20.0427C274.02 21.1803 273.93 22.0564 273.752 22.6972C273.574 23.3379 273.32 23.9656 272.978 24.554C272.24 25.8486 271.3 26.7639 270.154 27.287C272.088 27.81 273.614 28.8823 274.744 30.4908C275.876 32.0992 276.436 34.0998 276.436 36.5058C276.436 37.8788 276.13 39.1996 275.52 40.455ZM263.874 15.4659H258.368V25.9924H264.84C266.582 25.9924 267.98 25.5478 269.048 24.6456C270.116 23.7564 270.638 22.3964 270.638 20.5657C270.638 17.1528 268.388 15.4529 263.874 15.4529V15.4659ZM272.494 33.1976C272.126 32.439 271.642 31.7852 271.044 31.236C269.76 30.0592 268.26 29.4708 266.532 29.4708H258.368V42.5864H265.998C268.07 42.5864 269.76 41.9718 271.044 40.7426C272.38 39.4742 273.054 37.8396 273.054 35.8258C273.054 34.832 272.862 33.956 272.494 33.1976ZM321.684 35.682C320.794 37.8004 319.588 39.6442 318.062 41.2264C316.536 42.8086 314.73 44.0378 312.67 44.9532C310.61 45.8686 308.424 46.3132 306.098 46.3132C303.77 46.3132 301.596 45.8554 299.55 44.9532C297.502 44.0378 295.722 42.7956 294.184 41.2264C292.646 39.6572 291.45 37.8004 290.56 35.682C289.67 33.5636 289.238 31.3146 289.238 28.9215C289.238 26.5286 289.684 24.2794 290.56 22.161C291.45 20.0427 292.658 18.1989 294.184 16.6428C295.71 15.0867 297.502 13.8575 299.55 12.9422C301.596 12.0268 303.77 11.5822 306.098 11.5822C308.424 11.5822 310.61 12.0399 312.67 12.9422C314.73 13.8575 316.522 15.0867 318.062 16.6428C319.588 18.1989 320.794 20.0427 321.684 22.161C322.574 24.2794 323.008 26.5286 323.008 28.9215C323.008 31.3146 322.562 33.5636 321.684 35.682ZM315.672 19.1404C313.026 16.4205 309.848 15.0606 306.11 15.0606C302.372 15.0606 299.232 16.4205 296.6 19.1404C293.968 21.8603 292.634 25.1163 292.634 28.9215C292.634 32.7268 293.956 36.0482 296.6 38.755C299.244 41.4748 302.41 42.8348 306.11 42.8348C309.81 42.8348 313.04 41.4748 315.672 38.755C318.316 36.035 319.638 32.766 319.638 28.9215C319.638 25.0771 318.316 21.8472 315.672 19.1404ZM335.822 12.0399H355.148V15.2698H347.176V45.8294H343.794V15.2698H335.822V12.0399ZM366.744 12.0399H386.068V15.2698H378.098V45.8294H374.716V15.2698H366.744V12.0399ZM415.438 42.4426V45.9208H400.322V12.1315H403.704V42.4426H415.438ZM429.69 45.9208V12.1315H449.206V15.3613H433.072V27.3785H448.724V30.6608H433.072V42.678H449.206V45.9078H429.69V45.9208ZM488.824 45.9208V12.1315H492.206V45.9208H488.824ZM512.498 45.9208H509.116V10L527.564 36.9766V12.1315H530.946V48L512.498 21.0234V45.9208ZM572.012 43.4102C569.214 45.4108 566.138 46.4178 562.782 46.4178C558.23 46.4178 554.352 44.6916 551.136 41.2526C547.982 37.8658 546.406 33.8122 546.406 29.0785C546.406 26.7247 546.826 24.5017 547.664 22.3964C548.504 20.2911 549.66 18.4473 551.148 16.852C554.352 13.4129 558.242 11.6869 562.794 11.6869C566.15 11.6869 569.214 12.6676 571.974 14.6421C574.732 16.6167 576.728 19.2058 577.962 22.4226H574.236C572.456 19.075 569.812 16.8651 566.29 15.7928C565.146 15.4398 563.824 15.2698 562.31 15.2698C560.798 15.2698 559.246 15.6359 557.67 16.3813C556.094 17.1266 554.72 18.1335 553.538 19.3889C551.046 22.0564 549.8 25.2863 549.8 29.0785C549.8 32.8706 551.046 36.0482 553.538 38.7158C556.106 41.4618 559.196 42.8348 562.794 42.8348C565.236 42.8348 567.486 42.168 569.532 40.8472C571.58 39.5264 573.168 37.7612 574.288 35.5774H578C576.78 38.8072 574.784 41.4226 572.012 43.3972V43.4102Z" fill="#2B2B2B"/>
</svg>
