<svg width="239" height="84" viewBox="0 0 239 84" fill="none" xmlns="http://www.w3.org/2000/svg">
<path d="M73.7318 48.6592C71.9441 48.6592 70.2458 48.1229 68.771 47.1397C67.2961 46.1564 66.1341 44.7263 65.4637 43.0726C64.7933 41.419 64.6145 39.6313 64.9721 37.8436C65.3296 36.1006 66.1788 34.4916 67.4302 33.2402C68.6816 31.9888 70.2905 31.1397 72.0335 30.7821C73.7765 30.4246 75.5642 30.6033 77.2179 31.2737C78.8715 31.9441 80.257 33.1061 81.2402 34.581C82.2235 36.0559 82.7598 37.7989 82.7598 39.5866C82.7598 40.7933 82.5363 41.9553 82.0894 43.0726C81.6425 44.1899 80.9721 45.1732 80.1676 46.0223C79.3184 46.8715 78.3352 47.5419 77.2626 47.9888C76.1006 48.4358 74.8939 48.6592 73.7318 48.6592ZM90.1788 30.2905V24.0782H79.3184C77.5307 23.4525 75.6536 23.095 73.7318 23.095C64.3464 23.095 56.9721 30.2905 56.9721 39.676C56.9721 49.0615 64.3464 56.257 73.7318 56.257C83.1173 56.257 90.4916 49.0615 90.4916 39.7207C90.4916 36.5475 89.6425 33.4637 87.9441 31.1397L90.1788 30.2905ZM37.5307 48.6592C35.743 48.6592 34.0447 48.1229 32.5698 47.1397C31.095 46.1564 29.933 44.7263 29.2626 43.0726C28.5922 41.419 28.4134 39.6313 28.771 37.8436C29.1285 36.1006 29.9777 34.4916 31.2291 33.2402C32.4804 31.9888 34.0894 31.1397 35.8324 30.7821C37.5754 30.4246 39.3631 30.6033 41.0168 31.2737C42.6704 31.9441 44.0559 33.1061 45.0391 34.581C46.0223 36.0559 46.5587 37.7989 46.5587 39.5866C46.5587 40.7933 46.3352 41.9553 45.8883 43.0726C45.4413 44.1899 44.771 45.1732 43.9665 46.0223C43.1173 46.8715 42.1341 47.5419 41.0615 47.9888C39.8994 48.4358 38.6927 48.6592 37.5307 48.6592ZM37.5307 23.095C28.1453 23.095 20.771 30.2905 20.771 39.676C20.771 49.0615 28.1453 56.2123 37.5307 56.2123C46.9162 56.2123 54.2905 49.0168 54.2905 39.676C54.2905 30.3352 46.9162 23.1397 37.5307 23.095ZM10 55.3184H17.7318V10.8492H10V55.3184ZM93.5754 55.3184H101.307V24.0782H93.5754V55.3184ZM73.7318 66.4022C72.5698 66.4022 71.4078 66.1788 70.2905 65.7318C69.2179 65.2849 68.2346 64.6145 67.3855 63.8101C66.5363 62.9609 65.9106 61.9777 65.4637 60.905C65.0168 59.8324 64.7933 58.6257 64.7933 57.4637H56.9274C56.9274 66.8492 64.3017 74 73.6871 74C83.0726 74 90.4469 66.8045 90.4469 57.4637H82.581C82.581 58.6257 82.3575 59.8324 81.9106 60.905C81.4637 61.9777 80.7933 63.0056 79.9888 63.8101C79.1397 64.6592 78.1564 65.2849 77.0838 65.7318C76.0559 66.1788 74.8939 66.4022 73.7318 66.4022ZM129.821 36.4134C130.849 32.257 133.978 29.9777 138.045 29.9777C142.112 29.9777 145.151 32.2123 146.089 36.4134H129.821ZM138.268 23.095C128.927 23.095 121.866 30.2905 121.866 39.8548C121.866 49.2849 128.346 56.257 138.402 56.257C143.989 56.257 148.95 54.2011 152.57 50.2682L147.341 45.0838C144.793 47.4972 142.067 49.2849 138.581 49.2849C134.335 49.2849 131.117 46.8715 130.045 42.7598H154.179V40.838C154.179 30.2011 147.654 23.095 138.268 23.095ZM206.827 23.095C205.084 23.0503 203.341 23.4078 201.732 24.0782C200.123 24.7486 198.648 25.7765 197.441 27.0726V10.8939H189.71V55.3631H197.441V38.3799C197.441 33.8659 200.302 30.7821 204.994 30.7821C209.419 30.7821 211.832 33.5084 211.832 38.3799V55.3631H219.564V36.905C219.609 28.2793 214.246 23.095 206.827 23.095ZM173.397 30.648C176.659 30.648 179.341 32.3464 181.352 34.7151L186.76 29.352C185.151 27.3855 183.14 25.7765 180.86 24.7039C178.581 23.6313 176.034 23.0503 173.531 23.095C164.145 23.095 156.771 30.2905 156.771 39.676C156.771 49.0615 164.145 56.257 173.531 56.257C176.078 56.3017 178.581 55.7654 180.905 54.648C183.229 53.5754 185.24 51.9665 186.849 49.9553L181.441 44.5922C179.43 46.9162 176.704 48.6592 173.397 48.6592C168.436 48.6592 164.637 44.771 164.637 39.6313C164.592 34.5363 168.391 30.6034 173.397 30.648ZM116.592 14.4246H108.816V24.0335H104.615V30.9609H108.771V55.2737H116.547V30.9609H120.793V24.0335H116.547V14.4246H116.592ZM97.3743 10C96.7039 10 96.0335 10.1341 95.4078 10.4022C94.7821 10.6704 94.2011 11.0279 93.7542 11.5196C93.2626 12.0112 92.905 12.5922 92.6369 13.2179C92.3687 13.8436 92.2793 14.514 92.2793 15.1844C92.2793 16.5698 92.8156 17.8659 93.7989 18.8492C94.7821 19.8324 96.0782 20.3687 97.419 20.3687C98.8045 20.3687 100.101 19.8324 101.039 18.8492C102.022 17.8659 102.559 16.5698 102.559 15.1844C102.559 14.514 102.425 13.7989 102.201 13.1732C101.933 12.5475 101.575 11.9665 101.084 11.4749C100.592 10.9832 100.011 10.6257 99.3855 10.3575C98.7598 10.0894 98.0894 10 97.3743 10ZM222.603 21.0391H223.765L225.017 23.1397H225.821L224.436 20.9497C224.615 20.9497 224.793 20.905 224.972 20.8156C225.151 20.7263 225.285 20.6369 225.419 20.4581C225.553 20.324 225.642 20.1453 225.687 19.9665C225.732 19.7877 225.777 19.6089 225.732 19.4302C225.732 18.2682 224.927 17.8212 223.765 17.8212H221.933V23.1397H222.648V21.0391H222.603ZM222.603 18.4916H223.765C224.704 18.4916 225.017 18.8492 225.017 19.4302C225.017 20.0112 224.659 20.3687 223.765 20.3687H222.603V18.4916ZM223.765 25.6425C224.793 25.6425 225.777 25.3296 226.581 24.7486C227.43 24.1676 228.056 23.3631 228.458 22.4246C228.86 21.486 228.95 20.4581 228.726 19.4749C228.548 18.4916 228.056 17.5531 227.341 16.838C226.626 16.1229 225.732 15.6313 224.749 15.4078C223.765 15.229 222.737 15.3184 221.799 15.676C220.86 16.0782 220.056 16.7039 219.475 17.5531C218.894 18.4022 218.581 19.3855 218.581 20.4134C218.581 21.0838 218.715 21.7989 218.983 22.4246C219.251 23.0503 219.609 23.6313 220.101 24.1229C220.592 24.6145 221.173 24.9721 221.799 25.2402C222.425 25.5531 223.095 25.6425 223.765 25.6425ZM223.765 16.0335C224.927 16.0782 226 16.5698 226.804 17.3743C227.609 18.2235 228.056 19.3408 228.056 20.4581C228.056 21.6201 227.609 22.7374 226.804 23.5419C226 24.3911 224.927 24.8827 223.765 24.8827C223.184 24.8827 222.559 24.7933 222.022 24.5698C221.486 24.3464 220.95 24.0335 220.548 23.6313C220.101 23.2291 219.788 22.7374 219.564 22.1564C219.341 21.6201 219.207 20.9944 219.207 20.4134C219.207 19.8324 219.341 19.2067 219.564 18.6704C219.788 18.1341 220.145 17.6425 220.548 17.1955C220.994 16.7933 221.486 16.4358 222.022 16.257C222.603 16.1229 223.184 16.0335 223.765 16.0335Z" fill="black"/>
</svg>
