<svg width="505" height="84" viewBox="0 0 505 84" fill="none" xmlns="http://www.w3.org/2000/svg">
<mask id="mask0_14547_13672" style="mask-type:luminance" maskUnits="userSpaceOnUse" x="10" y="10" width="485" height="64">
<path d="M494.489 10H10V74H494.489V10Z" fill="white"/>
</mask>
<g mask="url(#mask0_14547_13672)">
<path d="M159.171 22.5373C157.511 20.3011 155.275 18.1667 152.328 16.1677C130.238 1.36203 115.533 16.0322 116.245 29.8893C116.245 33.8533 117.126 36.6315 118.718 38.7659C119.091 38.461 119.497 38.1561 119.904 37.8512C126.816 32.6336 128.544 36.1572 128.239 39.1725C128.035 41.2053 127.493 42.8993 126.748 44.4239C131.085 46.4228 136.302 48.354 141.418 52.047C148.059 43.9835 160.899 40.46 159.137 22.5373" fill="#FA5A25"/>
<path d="M159.146 22.5371C160.908 40.4937 148.067 44.0174 141.427 52.081C139.326 54.622 137.836 57.6373 137.632 61.703C137.293 68.5807 144.374 75.4245 155.013 65.8025C177.137 44.8983 159.18 22.5371 159.18 22.5371" fill="#231F20"/>
<path d="M112.762 65.3962C112.762 65.3962 112.762 65.3284 112.66 65.1929C113.101 66.3787 113.71 67.4968 114.625 68.4793C122.994 77.1188 140.747 75.3909 135.326 65.0235C132.243 58.3829 122.621 58.5862 120.114 52.3184C116.827 55.537 113.609 59.0944 112.728 65.3962" fill="#FA5A25"/>
<path d="M119.912 37.8501C119.505 38.155 119.099 38.4599 118.726 38.7648C106.292 48.6918 111.916 63.3282 112.695 65.1916C112.763 65.3271 112.763 65.3949 112.763 65.3949C113.644 59.0931 116.863 55.5357 120.149 52.317C122.656 49.8438 125.197 47.5738 126.789 44.4568C127.535 42.9321 128.077 41.2381 128.28 39.2053C128.585 36.1899 126.857 32.6664 119.946 37.8839" fill="#231F20"/>
<path d="M484.019 17.626L469.62 39.4449L455.221 17.626H444.752L465.012 48.3555V68.6837H474.194V48.3555L494.488 17.626H484.019Z" fill="#231F20"/>
<path d="M440.829 17.626H396.818V26.401H440.829V17.626Z" fill="#231F20"/>
<path d="M414.26 68.683H423.407V32.1602L414.26 35.3788V68.683Z" fill="#231F20"/>
<path d="M387.763 17.626H378.581V68.6837H387.763V17.626Z" fill="#231F20"/>
<path d="M351.25 26.9764H351.318C355.891 26.9764 359.517 30.7032 359.517 35.2432C359.517 41.0028 354.604 45.0347 347.117 45.0347H340.07L359.788 68.6831H371.172L356.637 51.3025C363.752 49.1003 368.664 42.7646 368.664 35.2432C368.664 25.5195 360.906 17.5576 351.284 17.5576H351.216L325.061 17.6254V68.6831H334.243V26.9764H351.182H351.25Z" fill="#231F20"/>
<path d="M293.886 40.1223V49.0328H307.066C305.27 55.3007 300.425 60.6538 292.192 60.6538C282.773 60.6538 275.15 52.7597 275.15 43.1376C275.15 33.5156 282.773 25.6215 292.192 25.6215C297.613 25.6215 302.661 28.3319 305.88 32.7025L313.435 27.2816C308.522 20.4039 300.628 16.2705 292.192 16.2705C277.725 16.2705 265.969 28.3319 265.969 43.1376C265.969 57.9433 277.725 70.0725 292.192 70.0725C299.375 70.0725 305.948 67.1588 310.488 61.9074C314.756 57.0286 317.026 50.3541 317.026 43.1376C317.026 42.1212 317.026 41.1726 316.891 40.1562H293.886V40.1223Z" fill="#231F20"/>
<path d="M261.43 26.3671V17.626H221.315V68.6837H261.43V59.8409H230.497V47.5762H256.077V38.7334H230.497V26.3671H261.43Z" fill="#231F20"/>
<path d="M35.0715 17.3877H10V68.6486H19.1816V26.5354H34.8004C40.0858 26.5354 44.2869 30.8382 44.2869 36.0897C44.2869 41.3411 40.0858 45.6438 34.8004 45.6438H25.3817L28.3632 54.7576H35.0715C45.2017 54.7576 53.4346 46.3553 53.4346 36.0558C53.4346 25.7561 45.2017 17.3877 35.0715 17.3877Z" fill="#231F20"/>
<path d="M86.5733 26.9764H86.6411C91.2149 26.9764 94.8401 30.7032 94.8401 35.2432C94.8401 41.0028 89.9275 45.0347 82.4399 45.0347H75.3928L95.1112 68.6831H106.495L91.9603 51.3025C99.0752 49.1003 103.988 42.7646 103.988 35.2432C103.988 25.5195 96.2292 17.5576 86.6072 17.5576H86.5394L60.3838 17.6254V68.6831H69.5654V26.9764H86.5055H86.5733Z" fill="#231F20"/>
<path d="M187.229 68.6837H196.342V32.1607L187.229 35.3793V68.6837ZM213.791 17.626H169.78V26.401H213.791V17.626Z" fill="#231F20"/>
</g>
</svg>
