<svg width="1260" height="500" viewBox="0 0 1260 500" fill="none" xmlns="http://www.w3.org/2000/svg">
<g clip-path="url(#clip0_30_1941)">
<path d="M0 40C0 17.9086 17.9086 0 40 0H1220C1242.09 0 1260 17.9086 1260 40V460C1260 482.091 1242.09 500 1220 500H40C17.9086 500 0 482.091 0 460V40Z" fill="#848889" fill-opacity="0.18"/>
<circle cx="135" cy="142.5" r="75" fill="#848889" fill-opacity="0.9"/>
<circle cx="135" cy="142.5" r="74.5" stroke="#848889" stroke-opacity="0.3"/>
<line x1="75" y1="272.5" x2="345" y2="272.5" stroke="#848889" stroke-opacity="0.6" stroke-width="30" stroke-linecap="round"/>
<line x1="70" y1="317.5" x2="410" y2="317.5" stroke="#848889" stroke-opacity="0.4" stroke-width="20" stroke-linecap="round"/>
<line x1="70" y1="357.5" x2="130" y2="357.5" stroke="#848889" stroke-opacity="0.4" stroke-width="20" stroke-linecap="round"/>
<line x1="170" y1="357.5" x2="230" y2="357.5" stroke="#848889" stroke-opacity="0.4" stroke-width="20" stroke-linecap="round"/>
<line x1="270" y1="357.5" x2="330" y2="357.5" stroke="#848889" stroke-opacity="0.4" stroke-width="20" stroke-linecap="round"/>
<circle cx="195" cy="410" r="22.5" fill="#848889" fill-opacity="0.2"/>
<circle cx="195" cy="410" r="22.125" stroke="#848889" stroke-opacity="0.3" stroke-width="0.75"/>
<circle cx="157.5" cy="410" r="22.5" fill="#848889" fill-opacity="0.2"/>
<circle cx="157.5" cy="410" r="22.125" stroke="#848889" stroke-opacity="0.3" stroke-width="0.75"/>
<circle cx="120" cy="410" r="22.5" fill="#848889" fill-opacity="0.2"/>
<circle cx="120" cy="410" r="22.125" stroke="#848889" stroke-opacity="0.3" stroke-width="0.75"/>
<circle cx="82.5" cy="410" r="22.5" fill="#848889" fill-opacity="0.2"/>
<circle cx="82.5" cy="410" r="22.125" stroke="#848889" stroke-opacity="0.3" stroke-width="0.75"/>
<rect x="1103.44" y="388.438" width="43.125" height="43.125" rx="21.5625" stroke="#848889" stroke-opacity="0.3" stroke-width="1.875"/>
<rect x="1155" y="387.5" width="45" height="45" rx="22.5" fill="#848889" fill-opacity="0.3"/>
<path d="M1184.08 411.875C1183.56 411.875 1183.12 411.692 1182.75 411.326C1182.38 410.954 1182.2 410.51 1182.2 409.992C1182.2 409.48 1182.38 409.04 1182.75 408.674C1183.12 408.308 1183.56 408.125 1184.08 408.125C1184.58 408.125 1185.02 408.308 1185.4 408.674C1185.77 409.04 1185.96 409.48 1185.96 409.992C1185.96 410.337 1185.87 410.654 1185.7 410.941C1185.52 411.224 1185.3 411.451 1185.01 411.624C1184.73 411.791 1184.42 411.875 1184.08 411.875Z" fill="#848889" fill-opacity="0.9"/>
<path d="M1177.5 411.875C1176.98 411.875 1176.54 411.692 1176.17 411.326C1175.8 410.954 1175.62 410.51 1175.62 409.992C1175.62 409.48 1175.8 409.04 1176.17 408.674C1176.54 408.308 1176.98 408.125 1177.5 408.125C1178 408.125 1178.44 408.308 1178.82 408.674C1179.19 409.04 1179.38 409.48 1179.38 409.992C1179.38 410.337 1179.29 410.654 1179.12 410.941C1178.94 411.224 1178.72 411.451 1178.43 411.624C1178.15 411.791 1177.84 411.875 1177.5 411.875Z" fill="#848889" fill-opacity="0.9"/>
<path d="M1170.92 411.875C1170.4 411.875 1169.96 411.692 1169.59 411.326C1169.22 410.954 1169.04 410.51 1169.04 409.992C1169.04 409.48 1169.22 409.04 1169.59 408.674C1169.96 408.308 1170.4 408.125 1170.92 408.125C1171.42 408.125 1171.86 408.308 1172.24 408.674C1172.61 409.04 1172.8 409.48 1172.8 409.992C1172.8 410.337 1172.71 410.654 1172.54 410.941C1172.36 411.224 1172.14 411.451 1171.85 411.624C1171.57 411.791 1171.26 411.875 1170.92 411.875Z" fill="#848889" fill-opacity="0.9"/>
<g opacity="0.2">
<path d="M842.456 334.096C841.749 334.096 840.805 334.096 840.098 334.096C840.805 333.152 841.749 332.917 842.456 334.096Z" fill="#848889"/>
<path opacity="0.15" d="M884.339 116.723C944.848 116.723 993.901 67.6707 993.901 7.16154C993.901 -53.3476 944.848 -102.4 884.339 -102.4C823.83 -102.4 774.778 -53.3476 774.778 7.16154C774.778 67.6707 823.83 116.723 884.339 116.723Z" fill="#848889" fill-opacity="0.4"/>
<path opacity="0.15" d="M884.339 97.372C934.161 97.372 974.549 56.9834 974.549 7.16149C974.549 -42.6604 934.161 -83.049 884.339 -83.049C834.517 -83.049 794.128 -42.6604 794.128 7.16149C794.128 56.9834 834.517 97.372 884.339 97.372Z" fill="#848889" fill-opacity="0.4"/>
<path d="M884.34 75.1746C921.903 75.1746 952.353 44.7238 952.353 7.161C952.353 -30.4019 921.903 -60.8525 884.34 -60.8525C846.777 -60.8525 816.326 -30.4019 816.326 7.161C816.326 44.7238 846.777 75.1746 884.34 75.1746Z" fill="#848889" fill-opacity="0.4"/>
<path opacity="0.15" d="M437.788 242.752C402.143 223.478 369.626 197.363 332.731 179.954C209.472 120.874 -75.3362 133.827 -75.3362 133.827V-46.3736C-39.5233 -50.1375 -3.22234 -44.2114 31.9425 -38.2853C73.2149 -31.4459 113.862 -24.6065 154.509 -17.7671C206.412 -9.06244 259.566 0.264084 305.841 25.1347C358.37 53.1141 400.267 100.368 455.297 122.752C544.721 159.436 655.406 125.861 739.201 174.358C756.085 184.306 772.97 201.094 768.592 220.369C765.466 235.913 750.457 245.239 736.075 251.457C642.899 294.359 528.462 291.25 437.788 242.752Z" fill="#848889"/>
<path d="M1306.78 323.975V791.311H-75.3362V370.262L520.544 95.9552C548.484 83.1577 578.855 76.5326 609.586 76.5312H616.014C645.67 76.5313 675.002 82.7009 702.145 94.6478C729.288 106.595 753.649 124.058 773.68 145.927C825.076 202.04 887.584 246.846 957.231 277.498C1026.88 308.15 1102.14 323.978 1178.23 323.975H1306.78Z" fill="#848889" fill-opacity="0.5"/>
<path d="M1010.55 246.125C1006.14 246.128 1001.8 247.215 997.899 249.291C997.439 232.376 986.244 221.191 972.499 221.191C958.456 221.191 947.074 232.859 947.074 250.375C947.075 252.633 947.268 254.887 947.652 257.111C941.778 251.497 933.995 248.401 925.925 248.468C911.829 248.468 900.002 257.491 896.78 269.642H885.78C882.524 269.642 879.4 270.954 877.098 273.291C874.795 275.627 873.501 278.796 873.501 282.1H930.606C930.606 286.089 932.168 289.914 934.947 292.735C937.727 295.555 941.497 297.14 945.428 297.14H965.392V336.368H969.292V316.683C969.296 312.359 970.991 308.214 974.004 305.157C977.017 302.1 981.102 300.381 985.363 300.377H1001.16C1001.9 300.614 1002.65 300.81 1003.41 300.963C1007.19 301.994 1011.15 302.195 1015.01 301.552C1018.87 300.908 1022.55 299.435 1025.81 297.231C1029.06 295.027 1031.82 292.143 1033.89 288.772C1035.96 285.401 1037.29 281.62 1037.8 277.683C1038.32 273.746 1037.99 269.744 1036.86 265.944C1035.72 262.143 1033.8 258.633 1031.22 255.647C1028.64 252.662 1025.46 250.27 1021.89 248.632C1018.33 246.994 1014.46 246.147 1010.55 246.149L1010.55 246.125ZM965.399 293.158H945.436C942.539 293.158 939.762 291.991 937.713 289.912C935.665 287.834 934.514 285.016 934.514 282.077H965.407L965.399 293.158ZM985.371 296.395C982.242 296.396 979.158 297.143 976.366 298.575C973.575 300.008 971.154 302.087 969.3 304.643V282.061H984.232C985.942 287.802 989.433 292.83 994.186 296.395H985.371Z" fill="#848889"/>
<path d="M592.417 407.085L235.614 654.157C173.315 697.293 203.855 795 279.649 795H-80V373.951L521.966 95.7583C549.975 82.8563 580.516 76.3846 611.35 76.8174V83.8617C579.011 85.4268 547.547 94.8867 519.707 111.415L489.196 129.516C448.327 153.77 465.871 216.493 513.405 216.01L531.589 215.825C635.04 214.769 677.469 348.189 592.417 407.085Z" fill="#848889"/>
<path opacity="0.15" d="M308.626 -113.295C309.466 -88.9529 329.617 -69.6472 350.608 -55.3777C543.725 76.4052 822.486 -39.4294 1033.24 62.1358C1082.78 85.6385 1126.44 120.893 1174.3 146.913C1296.04 212.385 1449.7 216.582 1574.8 158.665C1594.12 150.271 1614.27 137.68 1618.47 116.696C1624.34 90.6748 1601.67 68.0115 1579 54.5814C1466.49 -10.8904 1317.87 34.4362 1197.81 -15.0873C1123.92 -45.3051 1067.66 -109.098 997.132 -146.87C934.998 -180.445 863.629 -193.036 793.939 -204.788C739.362 -214.021 684.785 -223.254 629.369 -232.487C579.83 -240.881 528.612 -249.275 478.234 -242.56C422.817 -235.005 370.76 -207.306 332.976 -166.176C320.381 -151.907 307.786 -133.44 308.626 -113.295Z" fill="#848889"/>
</g>
</g>
<path d="M40 1.25H1220C1241.4 1.25 1258.75 18.599 1258.75 40V460C1258.75 481.401 1241.4 498.75 1220 498.75H40C18.599 498.75 1.25 481.401 1.25 460V40C1.25 18.599 18.599 1.25 40 1.25Z" stroke="#848889" stroke-opacity="0.3" stroke-width="2.5"/>
<defs>
<clipPath id="clip0_30_1941">
<path d="M0 40C0 17.9086 17.9086 0 40 0H1220C1242.09 0 1260 17.9086 1260 40V460C1260 482.091 1242.09 500 1220 500H40C17.9086 500 0 482.091 0 460V40Z" fill="white"/>
</clipPath>
</defs>
</svg>
