<svg width="160" height="176" fill="none" xmlns="http://www.w3.org/2000/svg"><path d="M159.575 114.48a1 1 0 0 1-.854 1.52H141a1 1 0 0 1-1-1V94a1 1 0 0 1 1-1h17.721a1 1 0 0 1 .854 1.52l-5.759 9.46a1.002 1.002 0 0 0 0 1.04l5.759 9.46ZM.925 94.52A1 1 0 0 1 1.78 93H19.5a1 1 0 0 1 1 1v21a1 1 0 0 1-1 1H1.78a1 1 0 0 1-.855-1.52l5.759-9.46a1 1 0 0 0 0-1.04L.925 94.52Z" fill="#2C9469"/><path d="M15 17c0-6.627 5.373-12 12-12h107c6.627 0 12 5.373 12 12v112.596a12 12 0 0 1-5.825 10.29l-53.953 32.38a12.002 12.002 0 0 1-12.42-.042l-53.047-32.327A12 12 0 0 1 15 129.65V17Z" fill="#EAFBF2"/><path d="M146 45.5 39.923 151.577l-19.168-11.68A12 12 0 0 1 15 129.65V104l99-99h20c6.627 0 12 5.373 12 12v28.5Z" fill="#fff"/><path d="M62.677 55v-.684c.468-.012.84-.048 1.116-.108.288-.06.504-.162.648-.306.156-.144.258-.348.306-.612.06-.264.09-.606.09-1.026v-8.388c0-.42-.024-.756-.072-1.008-.036-.264-.12-.468-.252-.612-.12-.156-.3-.258-.54-.306a5.362 5.362 0 0 0-.936-.126v-.684h5.382c1.62 0 2.88.288 3.78.864.9.576 1.35 1.386 1.35 2.43 0 .792-.252 1.44-.756 1.944-.492.504-1.278.918-2.358 1.242v.072c.372.036.696.078.972.126s.522.108.738.18c.216.06.414.138.594.234.192.096.378.204.558.324 1.068.756 1.602 1.704 1.602 2.844 0 .636-.18 1.23-.54 1.782-.348.54-.84.966-1.476 1.278a4.148 4.148 0 0 1-.63.27c-.216.06-.468.114-.756.162-.288.036-.624.066-1.008.09-.372.012-.816.018-1.332.018h-6.48Zm6.534-.774c2.172 0 3.258-.93 3.258-2.79 0-1.356-.558-2.304-1.674-2.844a6.611 6.611 0 0 0-.558-.216c-.18-.06-.39-.102-.63-.126a7.812 7.812 0 0 0-.864-.072 33.532 33.532 0 0 0-1.206-.018h-.81v4.014c0 .732.192 1.26.576 1.584.384.312 1.02.468 1.908.468Zm-1.476-6.966c.372 0 .684-.006.936-.018.252-.012.468-.03.648-.054.18-.036.336-.078.468-.126.144-.06.288-.138.432-.234.384-.24.654-.528.81-.864.168-.336.252-.774.252-1.314 0-.948-.234-1.626-.702-2.034-.456-.42-1.176-.63-2.16-.63h-1.386c-.204 0-.306.102-.306.306v4.968h1.008Zm17.093 6.066c-1.02 1.236-2.286 1.854-3.798 1.854-.708 0-1.35-.114-1.926-.342a4.576 4.576 0 0 1-1.494-.99 4.649 4.649 0 0 1-.954-1.53 5.532 5.532 0 0 1-.342-1.98c0-.732.12-1.41.36-2.034a4.669 4.669 0 0 1 1.008-1.602 4.84 4.84 0 0 1 1.566-1.044 5.197 5.197 0 0 1 1.998-.378c1.164 0 2.064.318 2.7.954.636.624.954 1.524.954 2.7 0 .168-.036.27-.108.306-.06.036-.21.054-.45.054H78.42a2.31 2.31 0 0 0-.054.36 5.02 5.02 0 0 0-.018.45c0 .624.072 1.194.216 1.71.156.504.372.936.648 1.296.288.36.624.642 1.008.846.396.192.834.288 1.314.288.504 0 .972-.108 1.404-.324.432-.228.876-.594 1.332-1.098l.558.504Zm-2.97-4.86c.24 0 .432-.006.576-.018a.928.928 0 0 0 .324-.072.28.28 0 0 0 .144-.144.865.865 0 0 0 .036-.27c0-.552-.18-.99-.54-1.314-.348-.336-.828-.504-1.44-.504-1.296 0-2.1.774-2.412 2.322h3.312ZM86.938 55h-.396v-3.096h.45c.468 1.692 1.32 2.538 2.556 2.538.48 0 .858-.114 1.134-.342.288-.24.432-.6.432-1.08 0-.18-.03-.33-.09-.45-.048-.132-.15-.264-.306-.396a4.001 4.001 0 0 0-.63-.486c-.264-.18-.618-.408-1.062-.684a18.227 18.227 0 0 1-1.062-.702 5.286 5.286 0 0 1-.756-.648 2.642 2.642 0 0 1-.468-.72 2.471 2.471 0 0 1-.144-.882c0-.408.066-.78.198-1.116a2.535 2.535 0 0 1 1.422-1.44 2.585 2.585 0 0 1 1.062-.216c.324 0 .66.054 1.008.162.348.096.654.228.918.396l.36-.378h.342v2.592h-.468c-.264-.732-.552-1.254-.864-1.566a1.566 1.566 0 0 0-1.152-.468c-.408 0-.738.108-.99.324-.24.216-.36.516-.36.9 0 .204.03.384.09.54.072.144.18.288.324.432.144.144.324.294.54.45.228.144.498.312.81.504.516.324.954.612 1.314.864.372.252.672.504.9.756.228.24.396.492.504.756.108.264.162.564.162.9 0 .852-.276 1.524-.828 2.016-.552.48-1.278.72-2.178.72-.936 0-1.74-.27-2.412-.81l-.36.63Zm6.986-8.406v-.666c.636-.372 1.134-.744 1.494-1.116a3.79 3.79 0 0 0 .828-1.332h.522v2.268h2.412v.846h-2.412v5.472c0 .42.018.774.054 1.062.048.288.12.522.216.702a.839.839 0 0 0 .378.36c.156.072.354.108.594.108.3 0 .552-.06.756-.18.216-.132.426-.348.63-.648l.45.342a1.944 1.944 0 0 1-.882 1.026c-.408.228-.918.342-1.53.342-.792 0-1.398-.186-1.818-.558-.408-.384-.612-.93-.612-1.638v-6.39h-1.08ZM45.498 68.77h.666c.084.54.24 1.026.468 1.458.24.432.534.798.882 1.098.36.3.768.534 1.224.702.468.156.972.234 1.512.234.888 0 1.59-.21 2.106-.63.516-.42.774-.99.774-1.71 0-.3-.054-.576-.162-.828a1.974 1.974 0 0 0-.504-.72c-.24-.24-.564-.474-.972-.702-.396-.228-.9-.474-1.512-.738a16.91 16.91 0 0 1-1.872-.936c-.504-.3-.906-.612-1.206-.936a3.07 3.07 0 0 1-.648-1.026 4.096 4.096 0 0 1-.18-1.26c0-.552.096-1.062.288-1.53.204-.468.486-.87.846-1.206.36-.348.786-.612 1.278-.792a4.42 4.42 0 0 1 1.62-.288c.528 0 1.02.084 1.476.252.456.168.918.438 1.386.81l.468-.81h.414l.198 3.582h-.666c-.288-.984-.708-1.716-1.26-2.196-.54-.48-1.194-.72-1.962-.72-.732 0-1.314.18-1.746.54-.432.36-.648.846-.648 1.458 0 .288.048.552.144.792.096.228.252.45.468.666.216.204.498.414.846.63.348.204.78.42 1.296.648.888.396 1.626.768 2.214 1.116.588.336 1.056.678 1.404 1.026.348.336.594.696.738 1.08.144.372.216.792.216 1.26 0 .6-.12 1.152-.36 1.656a3.79 3.79 0 0 1-1.008 1.296c-.432.36-.948.642-1.548.846a6.47 6.47 0 0 1-1.98.288 5.618 5.618 0 0 1-1.854-.288c-.54-.192-1.092-.516-1.656-.972l-.504.882h-.414l-.27-4.032Zm18.532-2.43c0-.492-.012-.876-.036-1.152-.024-.288-.09-.504-.198-.648a.685.685 0 0 0-.45-.306 4.357 4.357 0 0 0-.81-.144v-.63h3.258v5.526c0 .684.006 1.242.018 1.674.024.432.054.756.09.972.024.156.06.282.108.378a.75.75 0 0 0 .252.216c.108.048.246.084.414.108.18.012.408.018.684.018v.63l-2.97.216-.198-2.16h-.072c-.456.744-.984 1.29-1.584 1.638a3.683 3.683 0 0 1-1.854.504c-.504 0-.996-.096-1.476-.288-.468-.192-.822-.45-1.062-.774-.204-.264-.354-.63-.45-1.098-.084-.468-.126-1.074-.126-1.818V66.34c0-.492-.012-.876-.036-1.152-.024-.288-.09-.504-.198-.648a.685.685 0 0 0-.45-.306 4.357 4.357 0 0 0-.81-.144v-.63h3.258v4.914c0 1.308.15 2.256.45 2.844.312.588.804.882 1.476.882 1.056 0 1.878-.69 2.466-2.07a3.228 3.228 0 0 0 .234-.792c.024-.144.042-.306.054-.486.012-.18.018-.396.018-.648V66.34Zm7.144-1.584h.072a4.929 4.929 0 0 1 1.242-1.08c.444-.264.96-.396 1.548-.396.684 0 1.308.126 1.872.378.576.24 1.074.582 1.494 1.026.42.444.744.972.972 1.584.24.6.36 1.26.36 1.98 0 .732-.12 1.404-.36 2.016-.24.6-.57 1.116-.99 1.548a4.44 4.44 0 0 1-1.494 1.008c-.576.24-1.2.36-1.872.36-.552 0-1.056-.09-1.512-.27-.444-.192-.864-.498-1.26-.918v2.628c0 .48.024.864.072 1.152.048.288.144.51.288.666.144.156.348.264.612.324.276.06.636.096 1.08.108v.63h-5.544v-.63c.36-.012.648-.048.864-.108a.932.932 0 0 0 .522-.324c.132-.156.222-.372.27-.648.048-.264.072-.612.072-1.044v-6.732c0-.696-.012-1.266-.036-1.71-.012-.444-.042-.75-.09-.918-.06-.288-.198-.48-.414-.576-.216-.108-.624-.162-1.224-.162v-.612l3.456-.684v1.404Zm.54.522c-.156.24-.276.528-.36.864-.072.324-.108.75-.108 1.278v1.404c0 .324.006.606.018.846.024.228.054.426.09.594.036.168.084.318.144.45.06.132.138.258.234.378.276.384.606.684.99.9.384.204.786.306 1.206.306.828 0 1.494-.348 1.998-1.044.516-.696.774-1.674.774-2.934 0-.624-.072-1.188-.216-1.692-.132-.516-.324-.954-.576-1.314a2.733 2.733 0 0 0-.918-.864 2.27 2.27 0 0 0-1.17-.306c-.432 0-.834.102-1.206.306-.36.192-.66.468-.9.828Zm11.317-.522h.072a4.929 4.929 0 0 1 1.242-1.08c.444-.264.96-.396 1.548-.396.684 0 1.308.126 1.872.378.576.24 1.074.582 1.494 1.026.42.444.744.972.972 1.584.24.6.36 1.26.36 1.98 0 .732-.12 1.404-.36 2.016-.24.6-.57 1.116-.99 1.548a4.44 4.44 0 0 1-1.494 1.008c-.576.24-1.2.36-1.872.36-.552 0-1.056-.09-1.512-.27-.444-.192-.864-.498-1.26-.918v2.628c0 .48.024.864.072 1.152.048.288.144.51.288.666.144.156.348.264.612.324.276.06.636.096 1.08.108v.63h-5.544v-.63c.36-.012.648-.048.864-.108a.932.932 0 0 0 .522-.324c.132-.156.222-.372.27-.648.048-.264.072-.612.072-1.044v-6.732c0-.696-.012-1.266-.036-1.71-.012-.444-.042-.75-.09-.918-.06-.288-.198-.48-.414-.576-.216-.108-.624-.162-1.224-.162v-.612l3.456-.684v1.404Zm.54.522c-.156.24-.276.528-.36.864-.072.324-.108.75-.108 1.278v1.404c0 .324.006.606.018.846.024.228.054.426.09.594.036.168.084.318.144.45.06.132.138.258.234.378.276.384.606.684.99.9.384.204.786.306 1.206.306.828 0 1.494-.348 1.998-1.044.516-.696.774-1.674.774-2.934 0-.624-.072-1.188-.216-1.692-.132-.516-.324-.954-.576-1.314a2.733 2.733 0 0 0-.918-.864 2.27 2.27 0 0 0-1.17-.306c-.432 0-.834.102-1.206.306-.36.192-.66.468-.9.828Zm13.387-1.998c.684 0 1.332.126 1.944.378.612.24 1.146.576 1.602 1.008.468.432.834.948 1.098 1.548.276.588.414 1.236.414 1.944 0 .732-.138 1.404-.414 2.016a4.75 4.75 0 0 1-1.098 1.584 5 5 0 0 1-1.602 1.044 5.055 5.055 0 0 1-1.944.378c-.672 0-1.314-.12-1.926-.36-.6-.252-1.128-.6-1.584-1.044a4.884 4.884 0 0 1-1.08-1.584 5.166 5.166 0 0 1-.396-2.034c0-.708.132-1.362.396-1.962a4.73 4.73 0 0 1 1.08-1.548 4.955 4.955 0 0 1 1.584-1.008 5.228 5.228 0 0 1 1.926-.36Zm0 .864c-.444 0-.852.096-1.224.288-.36.192-.672.468-.936.828-.252.348-.45.774-.594 1.278a6.317 6.317 0 0 0-.198 1.638c0 .624.066 1.188.198 1.692.144.504.342.936.594 1.296.264.348.576.618.936.81.36.192.768.288 1.224.288.456 0 .87-.096 1.242-.288.372-.192.69-.468.954-.828.264-.36.468-.792.612-1.296a6.083 6.083 0 0 0 .216-1.674c0-.6-.072-1.146-.216-1.638a3.854 3.854 0 0 0-.612-1.26 2.727 2.727 0 0 0-.954-.828 2.54 2.54 0 0 0-1.242-.306Zm9.563 5.994c0 .492.012.882.036 1.17.024.288.084.51.18.666.108.144.258.24.45.288.192.048.462.084.81.108V73h-4.788v-.63c.348-.012.624-.042.828-.09a.87.87 0 0 0 .468-.306c.108-.144.174-.348.198-.612.036-.276.054-.642.054-1.098v-2.106c0-.816-.012-1.452-.036-1.908-.012-.456-.072-.792-.18-1.008a.6.6 0 0 0-.468-.378 4.367 4.367 0 0 0-.9-.072v-.63l3.15-.684.252 2.232h.072c.156-.36.348-.69.576-.99.24-.3.498-.552.774-.756.276-.216.564-.384.864-.504.3-.12.606-.18.918-.18.384 0 .684.096.9.288.228.18.342.426.342.738 0 .288-.09.516-.27.684-.18.156-.438.234-.774.234-.192 0-.354-.024-.486-.072a5.613 5.613 0 0 1-.36-.144 3.481 3.481 0 0 0-.288-.162.57.57 0 0 0-.288-.072c-.324 0-.648.21-.972.63-.324.408-.576.93-.756 1.566a9.055 9.055 0 0 0-.234 1.188 12.4 12.4 0 0 0-.072 1.368v.612Zm4.942-5.544v-.666c.636-.372 1.134-.744 1.494-1.116a3.79 3.79 0 0 0 .828-1.332h.522v2.268h2.412v.846h-2.412v5.472c0 .42.018.774.054 1.062.048.288.12.522.216.702a.839.839 0 0 0 .378.36c.156.072.354.108.594.108.3 0 .552-.06.756-.18.216-.132.426-.348.63-.648l.45.342a1.944 1.944 0 0 1-.882 1.026c-.408.228-.918.342-1.53.342-.792 0-1.398-.186-1.818-.558-.408-.384-.612-.93-.612-1.638v-6.39h-1.08Z" fill="#222"/><path opacity=".8" d="m55.456 161.044-10.252-6.248L146 54v16.5l-90.543 90.544Z" fill="#fff"/><path d="M27 6.5h107c5.799 0 10.5 4.701 10.5 10.5v112.596c0 3.688-1.935 7.106-5.097 9.004l-53.952 32.379a10.501 10.501 0 0 1-10.868-.036l-53.047-32.327a10.5 10.5 0 0 1-5.036-8.966V17c0-5.799 4.701-10.5 10.5-10.5Z" stroke="#BADED1" stroke-width="3"/><path d="m49.193 104-2.497-8.727h2.016l1.444 6.064h.073l1.594-6.064h1.725l1.59 6.076h.077l1.444-6.076h2.016L56.178 104h-1.799l-1.661-5.706h-.069L50.992 104h-1.799Zm16.155-8.727V104h-1.846v-8.727h1.846Zm12.657 0V104h-1.593l-3.797-5.493h-.064V104h-1.845v-8.727h1.619l3.767 5.488h.077v-5.488h1.836Zm5.032 1.521v-1.521h7.168v1.521h-2.672V104H85.71v-7.206h-2.672ZM95.226 104v-8.727h5.88v1.521h-4.035v2.08h3.733v1.521h-3.733v2.084h4.052V104h-5.897Zm11.187 0v-8.727h3.443c.659 0 1.222.118 1.688.353.469.233.825.564 1.069.993.248.427.371.928.371 1.505 0 .58-.125 1.078-.375 1.495-.25.415-.612.733-1.086.955-.472.221-1.043.332-1.713.332h-2.306v-1.483h2.007c.352 0 .645-.048.878-.145.233-.096.406-.241.52-.434.116-.193.175-.433.175-.72 0-.29-.059-.534-.175-.733a1.072 1.072 0 0 0-.524-.452c-.233-.105-.527-.158-.882-.158h-1.245V104h-1.845Zm4.713-3.972 2.169 3.972h-2.037l-2.122-3.972h1.99Z" fill="#fff"/><path d="m67.794 128.886 2.184-6.076c.13-.364.224-.653.28-.868.056-.215.084-.401.084-.56 0-.243-.08-.406-.238-.49-.15-.093-.42-.14-.812-.14v-.532h3.402v.532c-.43 0-.756.089-.98.266-.215.177-.397.467-.546.868l-3.514 9.254h-.49l-2.688-7.966-2.982 7.966h-.49l-2.912-8.036a15.69 15.69 0 0 0-.462-1.12 2.627 2.627 0 0 0-.434-.728 1.267 1.267 0 0 0-.518-.378 2.004 2.004 0 0 0-.714-.112v-.546h4.564v.546c-.476 0-.812.042-1.008.126-.187.084-.28.247-.28.49 0 .121.019.261.056.42.038.159.093.345.168.56l2.128 6.482L63.314 124c.13-.364.257-.7.378-1.008a9.22 9.22 0 0 0 .308-.854 6.823 6.823 0 0 0-.364-.672 1.781 1.781 0 0 0-.322-.42.806.806 0 0 0-.336-.21.931.931 0 0 0-.364-.07v-.546h4.284v.546c-.27 0-.49.009-.658.028a1.193 1.193 0 0 0-.392.098.354.354 0 0 0-.182.168.758.758 0 0 0-.042.266c0 .14.023.313.07.518.056.196.13.448.224.756l1.876 6.286Zm7.868-.112c0 .364.014.658.042.882.037.215.102.387.196.518a.724.724 0 0 0 .392.252c.168.047.392.075.672.084v.49h-4.018v-.49c.28-.009.508-.037.686-.084a.842.842 0 0 0 .406-.252.938.938 0 0 0 .196-.49c.037-.215.056-.485.056-.812v-1.792c0-.541-.01-.985-.028-1.33-.01-.355-.033-.597-.07-.728-.047-.215-.154-.359-.322-.434-.168-.084-.486-.126-.952-.126v-.49l2.744-.532v5.334Zm-1.61-8.176c0-.243.084-.448.252-.616a.838.838 0 0 1 .616-.252c.242 0 .448.084.616.252a.837.837 0 0 1 .252.616.837.837 0 0 1-.252.616.838.838 0 0 1-.616.252.838.838 0 0 1-.616-.252.837.837 0 0 1-.252-.616Zm6.213 8.204c0 .383.01.686.028.91.019.215.066.383.14.504.084.112.2.187.35.224.159.037.373.065.644.084V131H77.76v-.476c.261-.019.467-.047.616-.084a.61.61 0 0 0 .364-.224c.084-.112.135-.271.154-.476a6.54 6.54 0 0 0 .042-.84v-1.862c0-1.111-.028-1.787-.084-2.03a.974.974 0 0 0-.112-.294.346.346 0 0 0-.182-.182.765.765 0 0 0-.322-.084 3.636 3.636 0 0 0-.504-.028v-.448l2.24-.532.168 1.386h.056c.355-.439.77-.779 1.246-1.022a3.368 3.368 0 0 1 1.554-.364c.43 0 .822.07 1.176.21.355.14.625.331.812.574.159.215.27.495.336.84.066.336.098.803.098 1.4v2.338c0 .383.01.686.028.91.028.215.08.383.154.504a.543.543 0 0 0 .336.224c.159.037.364.065.616.084V131h-3.626v-.476a3.12 3.12 0 0 0 .616-.07.608.608 0 0 0 .35-.238c.084-.112.135-.271.154-.476a6.76 6.76 0 0 0 .042-.84v-1.848c0-.532-.028-.98-.084-1.344-.056-.364-.15-.658-.28-.882a1.048 1.048 0 0 0-.49-.476 1.64 1.64 0 0 0-.742-.154 2.223 2.223 0 0 0-1.974 1.232 6.215 6.215 0 0 0-.126.266 1.955 1.955 0 0 0-.07.294 3.883 3.883 0 0 0-.042.392c-.01.14-.014.322-.014.546v1.876Zm7.189-4.34v-.518c.494-.289.882-.579 1.162-.868.28-.289.494-.635.644-1.036h.406v1.764h1.876v.658h-1.876v4.256c0 .327.014.602.042.826.037.224.093.406.168.546a.65.65 0 0 0 .294.28 1.1 1.1 0 0 0 .462.084c.233 0 .429-.047.588-.14.168-.103.33-.271.49-.504l.35.266c-.131.345-.36.611-.686.798-.318.177-.714.266-1.19.266-.616 0-1.088-.145-1.414-.434-.318-.299-.476-.723-.476-1.274v-4.97h-.84Zm12.039 5.236c-.794.961-1.778 1.442-2.954 1.442-.551 0-1.05-.089-1.498-.266a3.559 3.559 0 0 1-1.162-.77 3.618 3.618 0 0 1-.742-1.19 4.303 4.303 0 0 1-.266-1.54c0-.569.093-1.097.28-1.582a3.63 3.63 0 0 1 .784-1.246 3.77 3.77 0 0 1 1.218-.812 4.042 4.042 0 0 1 1.554-.294c.905 0 1.605.247 2.1.742.494.485.742 1.185.742 2.1 0 .131-.028.21-.084.238-.047.028-.164.042-.35.042h-4.606a1.794 1.794 0 0 0-.042.28 4.94 4.94 0 0 0 .154 1.68c.12.392.289.728.504 1.008.224.28.485.499.784.658.308.149.648.224 1.022.224.392 0 .756-.084 1.092-.252.336-.177.68-.462 1.036-.854l.434.392Zm-2.31-3.78c.186 0 .336-.005.448-.014a.714.714 0 0 0 .252-.056.217.217 0 0 0 .112-.112.675.675 0 0 0 .028-.21c0-.429-.14-.77-.42-1.022-.271-.261-.644-.392-1.12-.392-1.008 0-1.634.602-1.876 1.806h2.576Zm6.135 2.856c0 .383.009.686.028.91.019.224.065.397.14.518a.604.604 0 0 0 .35.224c.149.037.359.065.63.084v.49h-3.724v-.49c.271-.009.485-.033.644-.07a.677.677 0 0 0 .364-.238c.084-.112.135-.271.154-.476.028-.215.042-.499.042-.854v-1.638c0-.635-.009-1.129-.028-1.484-.009-.355-.056-.616-.14-.784a.467.467 0 0 0-.364-.294 3.418 3.418 0 0 0-.7-.056v-.49l2.45-.532.196 1.736h.056c.121-.28.271-.537.448-.77.187-.233.387-.429.602-.588.215-.168.439-.299.672-.392.233-.093.471-.14.714-.14.299 0 .532.075.7.224.177.14.266.331.266.574 0 .224-.07.401-.21.532-.14.121-.341.182-.602.182-.149 0-.275-.019-.378-.056a4.29 4.29 0 0 1-.28-.112 2.527 2.527 0 0 0-.224-.126.446.446 0 0 0-.224-.056c-.252 0-.504.163-.756.49-.252.317-.448.723-.588 1.218a7.065 7.065 0 0 0-.182.924 9.73 9.73 0 0 0-.056 1.064v.476Zm-36.793 18.854h2.786c.224 0 .42-.019.588-.056a1.08 1.08 0 0 0 .448-.252c.13-.121.248-.285.35-.49a6.3 6.3 0 0 0 .308-.812h.518L70.991 149h-6.51v-.462a49.204 49.204 0 0 0 2.618-2.492c.69-.719 1.232-1.363 1.624-1.932.392-.569.663-1.092.812-1.568a4.97 4.97 0 0 0 .224-1.47c0-.728-.172-1.302-.518-1.722-.336-.42-.798-.63-1.386-.63-.56 0-1.017.182-1.372.546-.345.364-.518.835-.518 1.414 0 .504.136.905.406 1.204.28.299.658.448 1.134.448a.872.872 0 0 1-.364.546c-.196.131-.438.196-.728.196a1.72 1.72 0 0 1-.728-.154 1.831 1.831 0 0 1-.574-.434 2.17 2.17 0 0 1-.378-.658 2.776 2.776 0 0 1-.126-.854c0-.42.089-.807.266-1.162a2.76 2.76 0 0 1 .728-.91 3.46 3.46 0 0 1 1.092-.616c.43-.149.892-.224 1.386-.224.495 0 .948.075 1.358.224.41.149.766.359 1.064.63.299.271.528.593.686.966.168.364.252.77.252 1.218a4 4 0 0 1-.392 1.708 7.427 7.427 0 0 1-1.05 1.638c-.448.532-.97 1.059-1.568 1.582a33.78 33.78 0 0 1-1.918 1.526l.014.07Zm10.881-9.548c.57 0 1.106.145 1.61.434a4.29 4.29 0 0 1 1.316 1.19 5.95 5.95 0 0 1 .882 1.778c.224.681.336 1.419.336 2.212 0 .756-.112 1.465-.336 2.128a5.847 5.847 0 0 1-.882 1.736 4.444 4.444 0 0 1-1.316 1.162c-.504.28-1.04.42-1.61.42-.57 0-1.106-.14-1.61-.42a4.444 4.444 0 0 1-1.316-1.162 6.1 6.1 0 0 1-.896-1.736 6.865 6.865 0 0 1-.322-2.128c0-.793.108-1.531.322-2.212a6.237 6.237 0 0 1 .896-1.778 4.29 4.29 0 0 1 1.316-1.19 3.186 3.186 0 0 1 1.61-.434Zm0 10.388c.364 0 .686-.075.966-.224.29-.149.532-.406.728-.77.206-.364.36-.849.462-1.456.112-.607.168-1.367.168-2.282 0-.952-.056-1.745-.168-2.38-.102-.635-.252-1.143-.448-1.526-.196-.392-.439-.667-.728-.826a1.915 1.915 0 0 0-.98-.252c-.364 0-.69.084-.98.252-.29.159-.532.434-.728.826-.196.383-.35.891-.462 1.526-.103.635-.154 1.428-.154 2.38 0 .915.052 1.675.154 2.282.112.607.266 1.092.462 1.456.196.364.439.621.728.77.29.149.616.224.98.224Zm7.74-.84h2.786c.224 0 .42-.019.588-.056.168-.047.318-.131.448-.252.131-.121.248-.285.35-.49a6.27 6.27 0 0 0 .308-.812h.518L89.612 149h-6.51v-.462a49.166 49.166 0 0 0 2.618-2.492c.691-.719 1.232-1.363 1.624-1.932.392-.569.663-1.092.812-1.568.15-.485.224-.975.224-1.47 0-.728-.172-1.302-.518-1.722-.336-.42-.798-.63-1.386-.63-.56 0-1.017.182-1.372.546-.345.364-.518.835-.518 1.414 0 .504.136.905.406 1.204.28.299.658.448 1.134.448a.872.872 0 0 1-.364.546c-.196.131-.438.196-.728.196-.261 0-.504-.051-.728-.154a1.832 1.832 0 0 1-.574-.434 2.174 2.174 0 0 1-.378-.658 2.776 2.776 0 0 1-.126-.854c0-.42.089-.807.266-1.162a2.76 2.76 0 0 1 .728-.91 3.46 3.46 0 0 1 1.092-.616 4.2 4.2 0 0 1 1.386-.224c.495 0 .948.075 1.358.224.411.149.766.359 1.064.63.299.271.528.593.686.966.168.364.252.77.252 1.218a4 4 0 0 1-.392 1.708 7.427 7.427 0 0 1-1.05 1.638c-.448.532-.97 1.059-1.568 1.582a33.71 33.71 0 0 1-1.918 1.526l.014.07Zm6.135-1.834 4.928-7.714h.434v7.742c.29-.009.518-.028.686-.056.178-.037.308-.098.392-.182a.685.685 0 0 0 .182-.378c.028-.168.042-.387.042-.658h.49v3.122h-.49a3.67 3.67 0 0 0-.042-.616.615.615 0 0 0-.182-.364c-.084-.093-.214-.154-.392-.182a3.889 3.889 0 0 0-.686-.07v.294c0 .364.014.658.042.882.028.224.08.401.154.532a.651.651 0 0 0 .336.252c.15.047.341.07.574.07V149h-3.934v-.532c.308 0 .556-.023.742-.07a.816.816 0 0 0 .448-.252 1.04 1.04 0 0 0 .21-.504 4.8 4.8 0 0 0 .056-.812v-.336h-3.99v-.7Zm3.99-4.984h-.07l-3.22 4.984h3.29v-4.984Z" fill="#222"/><path d="M10 90a2 2 0 0 1 2-2h137a2 2 0 0 1 2 2v21H10V90Z" fill="#45BE8B"/><path d="M28.244 104v-8.727h5.88v1.521H30.09v2.08h3.733v1.521H30.09v2.084h4.053V104h-5.898Zm18.247-8.727V104h-1.593L41.1 98.507h-.064V104h-1.845v-8.727h1.619l3.767 5.488h.077v-5.488h1.836Zm4.793 1.521v-1.521h7.167v1.521H55.78V104h-1.824v-7.206h-2.671ZM63.232 104v-8.727h3.443c.659 0 1.221.118 1.687.353.469.233.826.564 1.07.993.247.427.37.928.37 1.505 0 .58-.124 1.078-.374 1.495-.25.415-.613.733-1.087.955-.472.221-1.043.332-1.713.332h-2.305v-1.483h2.007c.352 0 .645-.048.877-.145.233-.096.407-.241.52-.434.117-.193.175-.433.175-.72 0-.29-.058-.534-.175-.733a1.071 1.071 0 0 0-.524-.452c-.233-.105-.527-.158-.882-.158h-1.244V104h-1.845Zm4.713-3.972L70.114 104h-2.037l-2.122-3.972h1.99ZM74.707 104v-8.727h5.88v1.521h-4.035v2.08h3.733v1.521h-3.733v2.084h4.052V104h-5.897Zm10.947 0v-8.727h3.443c.662 0 1.226.126 1.692.379.466.25.821.598 1.066 1.044.247.443.37.955.37 1.534 0 .58-.125 1.091-.375 1.534-.25.443-.612.789-1.086 1.036-.472.247-1.043.37-1.713.37h-2.195v-1.478h1.896c.355 0 .648-.061.878-.183.233-.126.406-.297.52-.516.116-.222.175-.476.175-.763 0-.29-.059-.543-.175-.758a1.167 1.167 0 0 0-.52-.507c-.233-.123-.528-.184-.886-.184h-1.245V104h-1.845Zm11.37 0v-8.727h3.443c.659 0 1.222.118 1.687.353.469.233.826.564 1.07.993.247.427.371.928.371 1.505 0 .58-.125 1.078-.375 1.495-.25.415-.612.733-1.087.955-.471.221-1.042.332-1.713.332h-2.305v-1.483h2.007c.352 0 .645-.048.878-.145.233-.096.406-.241.519-.434.117-.193.175-.433.175-.72 0-.29-.058-.534-.175-.733a1.068 1.068 0 0 0-.524-.452c-.233-.105-.527-.158-.882-.158h-1.244V104h-1.845Zm4.713-3.972 2.169 3.972h-2.037l-2.122-3.972h1.99Zm8.607-4.755V104h-1.845v-8.727h1.845Zm9.852 2.51a1.08 1.08 0 0 0-.439-.802c-.258-.19-.609-.285-1.052-.285-.301 0-.555.043-.763.128a1.075 1.075 0 0 0-.477.345.83.83 0 0 0-.162.503.716.716 0 0 0 .098.409c.074.116.175.217.303.302.127.083.275.155.443.218.167.06.346.11.537.153l.784.188c.38.085.73.199 1.048.34.318.143.594.317.827.525.233.207.413.452.541.733.131.281.197.603.2.967-.003.534-.139.997-.409 1.389-.267.39-.653.692-1.159.908-.503.213-1.109.32-1.82.32-.704 0-1.318-.108-1.84-.324-.52-.216-.927-.536-1.219-.959-.29-.426-.442-.953-.456-1.581h1.785c.02.293.104.537.252.733.15.193.351.339.601.439.252.096.538.145.856.145.313 0 .584-.046.814-.137.233-.091.413-.217.541-.379a.875.875 0 0 0 .192-.558.721.721 0 0 0-.175-.494 1.304 1.304 0 0 0-.503-.341 5.09 5.09 0 0 0-.805-.256l-.95-.239c-.736-.179-1.317-.459-1.743-.84-.426-.38-.638-.893-.635-1.537-.003-.529.138-.99.422-1.386.287-.394.68-.703 1.18-.924.5-.222 1.068-.333 1.705-.333.647 0 1.213.111 1.696.333.486.221.863.53 1.133.924.27.395.409.853.418 1.373h-1.769Zm6.729 6.217v-8.727h5.881v1.521h-4.036v2.08h3.733v1.521h-3.733v2.084h4.053V104h-5.898Z" fill="#fff"/><path d="M94.329 25.087 81.992 32.1a3 3 0 0 1-2.974-.005l-12.51-7.167A3 3 0 0 1 65 22.325V3a3 3 0 0 1 3-3h24.846a3 3 0 0 1 3 3v19.48a3 3 0 0 1-1.517 2.607Z" fill="#FF492C"/><path d="M82.442 5.46c-.646-.16-1.292-.16-1.938-.16h-.807c-5.168.161-9.044 4.522-8.883 9.69.162 5.168 4.522 9.044 9.69 8.882a9.79 9.79 0 0 0 5.653-1.776l-2.1-3.553a5.644 5.644 0 0 1-3.553 1.292h-.646c-2.907-.162-5.168-2.746-5.006-5.653.161-2.907 2.745-5.168 5.652-5.006l1.938-3.715Z" fill="#fff"/><path d="m89.548 17.248-2.422-4.037h-4.522l-2.423 4.037h4.684l2.26 3.876 2.423-3.876ZM83.734 9.98c-.322.485-.484 1.131-.484 1.777l4.36.162v-1.13h-2.906c.161-.485.484-.647.969-.97l.484-.323c.969-.323 1.454-.969 1.454-1.776 0-.485-.324-.97-.647-1.292-.323-.323-.968-.485-1.453-.485-.484 0-.969 0-1.453.323-.324.323-.647.646-.808.97l.808.807c.322-.646.807-.97 1.453-.97.323 0 .808.324.808.647s-.162.484-.808.807l-.323.162c-.484.323-1.13.807-1.454 1.292Z" fill="#fff"/><path d="M10 111h5v5l-5-5Zm141 0h-5v5l5-5Z" fill="#237452"/></svg>