<svg width="160" height="176" fill="none" xmlns="http://www.w3.org/2000/svg"><path d="M159.575 114.48a1 1 0 0 1-.854 1.52H141a1 1 0 0 1-1-1V94a1 1 0 0 1 1-1h17.721a1 1 0 0 1 .854 1.52l-5.759 9.46a1.002 1.002 0 0 0 0 1.04l5.759 9.46ZM.925 94.52A1 1 0 0 1 1.78 93H19.5a1 1 0 0 1 1 1v21a1 1 0 0 1-1 1H1.78a1 1 0 0 1-.855-1.52l5.759-9.46a1 1 0 0 0 0-1.04L.925 94.52Z" fill="#DF3F25"/><path d="M15 17c0-6.627 5.373-12 12-12h107c6.627 0 12 5.373 12 12v112.596a12 12 0 0 1-5.825 10.29l-53.953 32.38a12.002 12.002 0 0 1-12.42-.042l-53.047-32.327A12 12 0 0 1 15 129.65V17Z" fill="#FEF6F4"/><path d="M146 45.5 39.923 151.577l-19.168-11.68A12 12 0 0 1 15 129.65V104l99-99h20c6.627 0 12 5.373 12 12v28.5Z" fill="#fff"/><path opacity=".8" d="m55.456 161.044-10.252-6.248L146 54v16.5l-90.543 90.544Z" fill="#fff"/><path d="M27 6.5h107c5.799 0 10.5 4.701 10.5 10.5v112.596c0 3.688-1.935 7.106-5.097 9.004l-53.952 32.379a10.501 10.501 0 0 1-10.868-.036l-53.047-32.327a10.5 10.5 0 0 1-5.036-8.966V17c0-5.799 4.701-10.5 10.5-10.5Z" stroke="#DEB4B2" stroke-width="3"/><path d="M10 90a2 2 0 0 1 2-2h137a2 2 0 0 1 2 2v21H10V90Z" fill="#FF4C2F"/><path d="m49.193 104-2.497-8.727h2.016l1.444 6.064h.073l1.594-6.064h1.725l1.59 6.076h.077l1.444-6.076h2.016L56.178 104h-1.799l-1.661-5.706h-.069L50.992 104h-1.799Zm16.155-8.727V104h-1.846v-8.727h1.846Zm12.657 0V104h-1.593l-3.797-5.493h-.064V104h-1.845v-8.727h1.619l3.767 5.488h.077v-5.488h1.836Zm5.032 1.521v-1.521h7.168v1.521h-2.672V104H85.71v-7.206h-2.672ZM95.226 104v-8.727h5.88v1.521h-4.035v2.08h3.733v1.521h-3.733v2.084h4.052V104h-5.897Zm11.187 0v-8.727h3.443c.659 0 1.222.118 1.688.353.469.233.825.564 1.069.993.248.427.371.928.371 1.505 0 .58-.125 1.078-.375 1.495-.25.415-.612.733-1.086.955-.472.221-1.043.332-1.713.332h-2.306v-1.483h2.007c.352 0 .645-.048.878-.145.233-.096.406-.241.52-.434.116-.193.175-.433.175-.72 0-.29-.059-.534-.175-.733a1.072 1.072 0 0 0-.524-.452c-.233-.105-.527-.158-.882-.158h-1.245V104h-1.845Zm4.713-3.972 2.169 3.972h-2.037l-2.122-3.972h1.99Z" fill="#fff"/><path d="M94.329 25.087 81.992 32.1a3 3 0 0 1-2.974-.005l-12.51-7.167A3 3 0 0 1 65 22.325V3a3 3 0 0 1 3-3h24.846a3 3 0 0 1 3 3v19.48a3 3 0 0 1-1.517 2.607Z" fill="#FF492C"/><path d="M82.442 5.46c-.646-.16-1.292-.16-1.938-.16h-.807c-5.168.161-9.044 4.522-8.883 9.69.162 5.168 4.522 9.044 9.69 8.882a9.79 9.79 0 0 0 5.653-1.776l-2.1-3.553a5.644 5.644 0 0 1-3.553 1.292h-.646c-2.907-.162-5.168-2.746-5.006-5.653.161-2.907 2.745-5.168 5.652-5.006l1.938-3.715Z" fill="#fff"/><path d="m89.548 17.248-2.422-4.037h-4.522l-2.423 4.037h4.684l2.26 3.876 2.423-3.876ZM83.734 9.98c-.322.485-.484 1.131-.484 1.777l4.36.162v-1.13h-2.906c.161-.485.484-.647.969-.97l.484-.323c.969-.323 1.454-.969 1.454-1.776 0-.485-.324-.97-.647-1.292-.323-.323-.968-.485-1.453-.485-.484 0-.969 0-1.453.323-.324.323-.647.646-.808.97l.808.807c.322-.646.807-.97 1.453-.97.323 0 .808.324.808.647s-.162.484-.808.807l-.323.162c-.484.323-1.13.807-1.454 1.292Z" fill="#fff"/><path d="M10 111h5v5l-5-5Zm141 0h-5v5l5-5Z" fill="#BF3721"/><path d="m37.096 52.778 4.68-10.638h4.031v.684c-.384.012-.696.06-.936.144a1.066 1.066 0 0 0-.54.432c-.12.192-.204.462-.252.81-.035.348-.053.792-.053 1.332v7.056c0 .6.023 1.074.071 1.422.048.348.139.618.27.81.145.192.343.318.595.378.263.06.605.096 1.025.108V56h-5.831v-.684c.42-.012.755-.048 1.008-.108a1.14 1.14 0 0 0 .611-.378c.145-.18.24-.432.288-.756.048-.336.072-.786.072-1.35v-8.352h-.18L36.7 56.18h-.397l-5.165-11.808h-.073v8.226c0 .6.024 1.074.072 1.422.049.348.139.618.27.81.145.192.343.318.595.378.264.06.605.096 1.026.108V56h-5.022v-.684c.42-.012.756-.048 1.008-.108a1.14 1.14 0 0 0 .611-.378c.145-.18.24-.432.288-.756.049-.336.072-.786.072-1.35v-7.308c0-.504-.023-.918-.072-1.242-.035-.336-.12-.6-.252-.792a.922.922 0 0 0-.54-.396c-.24-.084-.551-.138-.935-.162v-.684h4.301l4.536 10.638h.072ZM51.81 46.28a5.06 5.06 0 0 1 1.944.378c.611.24 1.145.576 1.601 1.008a4.62 4.62 0 0 1 1.099 1.548c.276.588.413 1.236.413 1.944 0 .732-.138 1.404-.413 2.016a4.75 4.75 0 0 1-1.099 1.584 5 5 0 0 1-1.602 1.044 5.055 5.055 0 0 1-1.944.378 5.22 5.22 0 0 1-1.925-.36c-.6-.252-1.128-.6-1.584-1.044a4.884 4.884 0 0 1-1.08-1.584 5.166 5.166 0 0 1-.396-2.034c0-.708.131-1.362.395-1.962a4.73 4.73 0 0 1 1.08-1.548 4.955 4.955 0 0 1 1.585-1.008 5.228 5.228 0 0 1 1.925-.36Zm0 .864c-.444 0-.852.096-1.224.288-.36.192-.673.468-.937.828-.252.348-.45.774-.593 1.278a6.317 6.317 0 0 0-.199 1.638c0 .624.067 1.188.199 1.692.143.504.341.936.593 1.296.264.348.577.618.937.81.36.192.767.288 1.223.288.456 0 .87-.096 1.242-.288a2.73 2.73 0 0 0 .955-.828 4.03 4.03 0 0 0 .611-1.296 6.083 6.083 0 0 0 .216-1.674c0-.6-.072-1.146-.216-1.638a3.854 3.854 0 0 0-.611-1.26 2.727 2.727 0 0 0-.954-.828 2.54 2.54 0 0 0-1.242-.306Zm9.545 5.976c0 .504.012.9.036 1.188.024.288.084.51.18.666.108.144.258.24.45.288.192.048.462.084.81.108V56h-4.788v-.63a5.4 5.4 0 0 0 .828-.108.786.786 0 0 0 .468-.288c.108-.144.174-.348.198-.612.036-.276.054-.642.054-1.098V50.96c0-.684-.012-1.254-.036-1.71-.012-.456-.042-.768-.09-.936a1.366 1.366 0 0 0-.126-.36.459.459 0 0 0-.234-.216 1.035 1.035 0 0 0-.432-.108 4.911 4.911 0 0 0-.666-.036v-.63l2.934-.684.234 1.8h.09c.54-.612 1.104-1.062 1.692-1.35.6-.3 1.26-.45 1.98-.45.756 0 1.392.156 1.908.468.516.3.876.738 1.08 1.314h.072a4.64 4.64 0 0 1 1.62-1.314 4.558 4.558 0 0 1 2.034-.468c.564 0 1.074.096 1.53.288.468.18.822.432 1.062.756.216.276.366.642.45 1.098.096.444.144 1.056.144 1.836v2.862c0 .492.012.882.036 1.17.036.288.102.51.198.666.096.156.24.258.432.306a5.4 5.4 0 0 0 .828.108V56h-4.788v-.63c.336-.012.606-.042.81-.09a.87.87 0 0 0 .468-.306c.108-.156.174-.366.198-.63.036-.264.054-.624.054-1.08v-2.268c0-.684-.036-1.26-.108-1.728-.072-.48-.192-.864-.36-1.152-.168-.3-.39-.516-.666-.648-.264-.132-.588-.198-.972-.198-.528 0-1.026.15-1.494.45a3.076 3.076 0 0 0-1.242 1.53 2.509 2.509 0 0 0-.09.378 4.265 4.265 0 0 0-.054.486v3.006c0 .492.012.882.036 1.17.024.288.084.51.18.666a.755.755 0 0 0 .468.306 5.4 5.4 0 0 0 .828.108V56h-4.788v-.63c.336-.024.606-.06.81-.108a.708.708 0 0 0 .45-.288c.108-.144.174-.348.198-.612.036-.276.054-.642.054-1.098v-2.268c0-.696-.036-1.278-.108-1.746-.072-.48-.192-.864-.36-1.152-.156-.3-.366-.51-.63-.63-.264-.132-.588-.198-.972-.198-.54 0-1.05.15-1.53.45a2.778 2.778 0 0 0-1.062 1.17c-.06.12-.114.24-.162.36a2.509 2.509 0 0 0-.09.378 4.265 4.265 0 0 0-.054.486v3.006Zm24.376 1.206c-1.02 1.236-2.286 1.854-3.798 1.854-.708 0-1.35-.114-1.926-.342a4.576 4.576 0 0 1-1.494-.99 4.649 4.649 0 0 1-.954-1.53 5.532 5.532 0 0 1-.342-1.98c0-.732.12-1.41.36-2.034a4.669 4.669 0 0 1 1.008-1.602 4.84 4.84 0 0 1 1.566-1.044 5.197 5.197 0 0 1 1.998-.378c1.164 0 2.064.318 2.7.954.636.624.954 1.524.954 2.7 0 .168-.036.27-.108.306-.06.036-.21.054-.45.054h-5.922a2.31 2.31 0 0 0-.054.36 5.02 5.02 0 0 0-.018.45c0 .624.072 1.194.216 1.71.156.504.372.936.648 1.296.288.36.624.642 1.008.846.396.192.834.288 1.314.288.504 0 .972-.108 1.404-.324.432-.228.876-.594 1.332-1.098l.558.504Zm-2.97-4.86c.24 0 .432-.006.576-.018a.928.928 0 0 0 .324-.072.28.28 0 0 0 .144-.144.865.865 0 0 0 .036-.27c0-.552-.18-.99-.54-1.314-.348-.336-.828-.504-1.44-.504-1.296 0-2.1.774-2.412 2.322h3.312Zm7.42 3.708c0 .492.013.882.037 1.17.024.276.084.492.18.648.108.144.258.24.45.288a5.4 5.4 0 0 0 .828.108V56H86.96v-.612c.336-.024.6-.06.792-.108a.786.786 0 0 0 .468-.288c.108-.144.174-.348.198-.612.036-.264.054-.624.054-1.08v-2.394c0-1.428-.036-2.298-.108-2.61a1.244 1.244 0 0 0-.144-.378.446.446 0 0 0-.234-.234.996.996 0 0 0-.414-.108 4.742 4.742 0 0 0-.648-.036v-.576l2.88-.684.216 1.782h.072a4.925 4.925 0 0 1 1.602-1.314 4.335 4.335 0 0 1 1.998-.468c.552 0 1.056.09 1.512.27.456.18.804.426 1.044.738.204.276.348.636.432 1.08.084.432.126 1.032.126 1.8v3.006c0 .492.012.882.036 1.17.036.276.102.492.198.648.096.144.24.24.432.288.204.048.468.084.792.108V56h-4.662v-.612c.336-.012.6-.042.792-.09a.78.78 0 0 0 .45-.306c.108-.144.174-.348.198-.612.036-.276.054-.636.054-1.08v-2.376c0-.684-.036-1.26-.108-1.728-.072-.468-.192-.846-.36-1.134a1.349 1.349 0 0 0-.63-.612c-.264-.132-.582-.198-.954-.198-.54 0-1.038.144-1.494.432-.444.276-.792.66-1.044 1.152-.06.12-.114.234-.162.342a2.509 2.509 0 0 0-.09.378 5.004 5.004 0 0 0-.054.504c-.012.18-.018.414-.018.702v2.412Zm8.883-5.58v-.666c.636-.372 1.134-.744 1.494-1.116a3.79 3.79 0 0 0 .828-1.332h.522v2.268h2.412v.846h-2.412v5.472c0 .42.018.774.054 1.062.048.288.12.522.216.702a.839.839 0 0 0 .378.36c.156.072.354.108.594.108.3 0 .552-.06.756-.18.216-.132.426-.348.63-.648l.45.342a1.944 1.944 0 0 1-.882 1.026c-.408.228-.918.342-1.53.342-.792 0-1.398-.186-1.818-.558-.408-.384-.612-.93-.612-1.638v-6.39h-1.08Zm14.056 1.746c0-.492-.012-.876-.036-1.152-.024-.288-.09-.504-.198-.648a.685.685 0 0 0-.45-.306 4.357 4.357 0 0 0-.81-.144v-.63h3.258v5.526c0 .684.006 1.242.018 1.674.024.432.054.756.09.972.024.156.06.282.108.378a.75.75 0 0 0 .252.216c.108.048.246.084.414.108.18.012.408.018.684.018v.63l-2.97.216-.198-2.16h-.072c-.456.744-.984 1.29-1.584 1.638a3.683 3.683 0 0 1-1.854.504c-.504 0-.996-.096-1.476-.288-.468-.192-.822-.45-1.062-.774-.204-.264-.354-.63-.45-1.098-.084-.468-.126-1.074-.126-1.818V49.34c0-.492-.012-.876-.036-1.152-.024-.288-.09-.504-.198-.648a.685.685 0 0 0-.45-.306 4.357 4.357 0 0 0-.81-.144v-.63h3.258v4.914c0 1.308.15 2.256.45 2.844.312.588.804.882 1.476.882 1.056 0 1.878-.69 2.466-2.07a3.228 3.228 0 0 0 .234-.792c.024-.144.042-.306.054-.486.012-.18.018-.396.018-.648V49.34Zm7.343 3.78c0 .504.012.9.036 1.188.024.288.084.51.18.666.108.144.258.24.45.288.192.048.462.084.81.108V56h-4.788v-.63a5.4 5.4 0 0 0 .828-.108.786.786 0 0 0 .468-.288c.108-.144.174-.348.198-.612.036-.276.054-.642.054-1.098V50.96c0-.684-.012-1.254-.036-1.71-.012-.456-.042-.768-.09-.936a1.366 1.366 0 0 0-.126-.36.459.459 0 0 0-.234-.216 1.035 1.035 0 0 0-.432-.108 4.911 4.911 0 0 0-.666-.036v-.63l2.934-.684.234 1.8h.09c.54-.612 1.104-1.062 1.692-1.35.6-.3 1.26-.45 1.98-.45.756 0 1.392.156 1.908.468.516.3.876.738 1.08 1.314h.072a4.64 4.64 0 0 1 1.62-1.314 4.558 4.558 0 0 1 2.034-.468c.564 0 1.074.096 1.53.288.468.18.822.432 1.062.756.216.276.366.642.45 1.098.096.444.144 1.056.144 1.836v2.862c0 .492.012.882.036 1.17.036.288.102.51.198.666.096.156.24.258.432.306a5.4 5.4 0 0 0 .828.108V56h-4.788v-.63c.336-.012.606-.042.81-.09a.87.87 0 0 0 .468-.306c.108-.156.174-.366.198-.63.036-.264.054-.624.054-1.08v-2.268c0-.684-.036-1.26-.108-1.728-.072-.48-.192-.864-.36-1.152-.168-.3-.39-.516-.666-.648-.264-.132-.588-.198-.972-.198-.528 0-1.026.15-1.494.45a3.076 3.076 0 0 0-1.242 1.53 2.509 2.509 0 0 0-.09.378 4.265 4.265 0 0 0-.054.486v3.006c0 .492.012.882.036 1.17.024.288.084.51.18.666a.755.755 0 0 0 .468.306 5.4 5.4 0 0 0 .828.108V56h-4.788v-.63c.336-.024.606-.06.81-.108a.708.708 0 0 0 .45-.288c.108-.144.174-.348.198-.612.036-.276.054-.642.054-1.098v-2.268c0-.696-.036-1.278-.108-1.746-.072-.48-.192-.864-.36-1.152-.156-.3-.366-.51-.63-.63-.264-.132-.588-.198-.972-.198-.54 0-1.05.15-1.53.45a2.778 2.778 0 0 0-1.062 1.17c-.06.12-.114.24-.162.36a2.509 2.509 0 0 0-.09.378 4.265 4.265 0 0 0-.054.486v3.006ZM62.634 74H51.008v-.684c.42-.012.756-.048 1.008-.108.264-.06.468-.162.612-.306.144-.144.24-.348.288-.612.048-.264.072-.606.072-1.026v-8.388c0-.42-.024-.756-.072-1.008-.036-.264-.12-.468-.252-.612-.12-.156-.3-.258-.54-.306a5.362 5.362 0 0 0-.936-.126v-.684h5.472v.684a4.567 4.567 0 0 0-.936.108c-.228.06-.408.168-.54.324-.12.156-.204.372-.252.648a8.868 8.868 0 0 0-.054 1.098v7.758c0 .504.048.918.144 1.242.108.312.282.558.522.738.252.168.582.288.99.36.408.06.924.09 1.548.09.684 0 1.26-.036 1.728-.108.468-.084.858-.222 1.17-.414.324-.204.576-.48.756-.828.192-.36.354-.822.486-1.386h.684L62.635 74Zm9.677-1.674c-1.02 1.236-2.286 1.854-3.798 1.854-.708 0-1.35-.114-1.926-.342a4.576 4.576 0 0 1-1.494-.99 4.649 4.649 0 0 1-.954-1.53 5.532 5.532 0 0 1-.342-1.98c0-.732.12-1.41.36-2.034a4.669 4.669 0 0 1 1.008-1.602 4.84 4.84 0 0 1 1.566-1.044 5.197 5.197 0 0 1 1.998-.378c1.164 0 2.064.318 2.7.954.636.624.954 1.524.954 2.7 0 .168-.036.27-.108.306-.06.036-.21.054-.45.054h-5.922a2.31 2.31 0 0 0-.054.36 5.02 5.02 0 0 0-.018.45c0 .624.072 1.194.216 1.71.156.504.372.936.648 1.296.288.36.624.642 1.008.846.396.192.834.288 1.314.288.504 0 .972-.108 1.404-.324.432-.228.876-.594 1.332-1.098l.558.504Zm-2.97-4.86c.24 0 .432-.006.576-.018a.928.928 0 0 0 .324-.072.28.28 0 0 0 .144-.144.865.865 0 0 0 .036-.27c0-.552-.18-.99-.54-1.314-.348-.336-.828-.504-1.44-.504-1.296 0-2.1.774-2.412 2.322h3.312Zm9.814 1.206c-.684.264-1.266.522-1.746.774a6.178 6.178 0 0 0-1.134.756c-.288.252-.498.504-.63.756-.12.252-.18.51-.18.774 0 .396.132.72.396.972s.612.378 1.044.378c.312 0 .6-.078.864-.234.276-.156.516-.366.72-.63.204-.276.366-.594.486-.954.12-.372.18-.762.18-1.17v-1.422Zm0-.774v-.738c0-1.464-.624-2.196-1.872-2.196a2.18 2.18 0 0 0-.522.054.85.85 0 0 0-.36.18 1.28 1.28 0 0 0-.27.36 4.96 4.96 0 0 0-.216.576c-.132.348-.264.582-.396.702-.12.108-.3.162-.54.162-.6 0-.9-.3-.9-.9 0-.576.306-1.02.918-1.332.612-.324 1.482-.486 2.61-.486 1.2 0 2.052.216 2.556.648.504.42.756 1.14.756 2.16v4.032c0 1.368.27 2.052.81 2.052.168 0 .33-.018.486-.054.156-.048.288-.162.396-.342l.252.432c-.144.276-.408.51-.792.702-.384.18-.786.27-1.206.27-.528 0-.924-.168-1.188-.504-.252-.336-.378-.81-.378-1.422h-.09a3.652 3.652 0 0 1-1.296 1.404 3.463 3.463 0 0 1-1.836.504c-.756 0-1.35-.192-1.782-.576-.432-.384-.648-.9-.648-1.548 0-.288.048-.564.144-.828a2.45 2.45 0 0 1 .504-.756c.228-.24.528-.474.9-.702.372-.24.828-.48 1.368-.72l2.592-1.134Zm12.037 4.59h-.072c-.432.612-.894 1.05-1.386 1.314-.48.252-1.05.378-1.71.378-.684 0-1.314-.12-1.89-.36a4.726 4.726 0 0 1-1.476-1.026 5.024 5.024 0 0 1-.972-1.584 5.68 5.68 0 0 1-.342-1.998c0-.708.114-1.362.342-1.962.24-.612.564-1.134.972-1.566.42-.444.918-.786 1.494-1.026a4.619 4.619 0 0 1 1.872-.378c.576 0 1.086.096 1.53.288.456.192.894.498 1.314.918V63.65c0-.684-.012-1.254-.036-1.71-.012-.456-.036-.768-.072-.936-.06-.264-.228-.45-.504-.558-.276-.108-.726-.162-1.35-.162v-.54l3.69-.684v10.386c0 .828.006 1.512.018 2.052.012.528.048.906.108 1.134.036.144.078.264.126.36.06.096.138.174.234.234.108.048.246.084.414.108.18.024.408.036.684.036v.612l-2.988.198v-1.692Zm-.36-3.978c0-.624-.036-1.098-.108-1.422a1.877 1.877 0 0 0-.378-.846c-.276-.36-.63-.63-1.062-.81a3.008 3.008 0 0 0-1.26-.288c-.864 0-1.524.36-1.98 1.08-.444.708-.666 1.674-.666 2.898 0 .636.054 1.212.162 1.728.12.516.288.96.504 1.332.228.36.504.642.828.846.336.192.72.288 1.152.288.216 0 .432-.024.648-.072.228-.048.444-.12.648-.216a4.11 4.11 0 0 0 .594-.36c.18-.144.33-.306.45-.486.168-.264.288-.582.36-.954.072-.372.108-.882.108-1.53V68.51Zm12.831 3.816c-1.02 1.236-2.286 1.854-3.798 1.854-.708 0-1.35-.114-1.926-.342a4.576 4.576 0 0 1-1.494-.99 4.649 4.649 0 0 1-.954-1.53 5.532 5.532 0 0 1-.342-1.98c0-.732.12-1.41.36-2.034a4.669 4.669 0 0 1 1.008-1.602 4.84 4.84 0 0 1 1.566-1.044 5.197 5.197 0 0 1 1.998-.378c1.164 0 2.064.318 2.7.954.636.624.954 1.524.954 2.7 0 .168-.036.27-.108.306-.06.036-.21.054-.45.054h-5.922a2.31 2.31 0 0 0-.054.36 5.02 5.02 0 0 0-.018.45c0 .624.072 1.194.216 1.71.156.504.372.936.648 1.296.288.36.624.642 1.008.846.396.192.834.288 1.314.288.504 0 .972-.108 1.404-.324.432-.228.876-.594 1.332-1.098l.558.504Zm-2.97-4.86c.24 0 .432-.006.576-.018a.928.928 0 0 0 .324-.072.28.28 0 0 0 .144-.144.865.865 0 0 0 .036-.27c0-.552-.18-.99-.54-1.314-.348-.336-.828-.504-1.44-.504-1.296 0-2.1.774-2.412 2.322h3.312Zm7.528 3.672c0 .492.012.882.036 1.17.024.288.084.51.18.666.108.144.258.24.45.288.192.048.462.084.81.108V74h-4.788v-.63c.348-.012.624-.042.828-.09a.87.87 0 0 0 .468-.306c.108-.144.174-.348.198-.612.036-.276.054-.642.054-1.098v-2.106c0-.816-.012-1.452-.036-1.908-.012-.456-.072-.792-.18-1.008a.6.6 0 0 0-.468-.378 4.367 4.367 0 0 0-.9-.072v-.63l3.15-.684.252 2.232h.072c.156-.36.348-.69.576-.99.24-.3.498-.552.774-.756.276-.216.564-.384.864-.504.3-.12.606-.18.918-.18.384 0 .684.096.9.288.228.18.342.426.342.738 0 .288-.09.516-.27.684-.18.156-.438.234-.774.234-.192 0-.354-.024-.486-.072a5.613 5.613 0 0 1-.36-.144 3.481 3.481 0 0 0-.288-.162.57.57 0 0 0-.288-.072c-.324 0-.648.21-.972.63-.324.408-.576.93-.756 1.566a9.055 9.055 0 0 0-.234 1.188 12.4 12.4 0 0 0-.072 1.368v.612Zm-46.325 67.098h3.582c.288 0 .54-.024.756-.072.216-.06.408-.168.576-.324.168-.156.318-.366.45-.63a8.08 8.08 0 0 0 .396-1.044h.666L67.638 140h-8.37v-.594c1.368-1.224 2.49-2.292 3.366-3.204.888-.924 1.584-1.752 2.088-2.484s.852-1.404 1.044-2.016a6.394 6.394 0 0 0 .288-1.89c0-.936-.222-1.674-.666-2.214-.432-.54-1.026-.81-1.782-.81-.72 0-1.308.234-1.764.702-.444.468-.666 1.074-.666 1.818 0 .648.174 1.164.522 1.548.36.384.846.576 1.458.576-.06.288-.216.522-.468.702-.252.168-.564.252-.936.252a2.22 2.22 0 0 1-.936-.198 2.355 2.355 0 0 1-.738-.558 2.787 2.787 0 0 1-.486-.846 3.57 3.57 0 0 1-.162-1.098c0-.54.114-1.038.342-1.494.228-.456.54-.846.936-1.17a4.45 4.45 0 0 1 1.404-.792 5.388 5.388 0 0 1 1.782-.288c.636 0 1.218.096 1.746.288.528.192.984.462 1.368.81.384.348.678.762.882 1.242.216.468.324.99.324 1.566 0 .744-.168 1.476-.504 2.196a9.568 9.568 0 0 1-1.35 2.106 18.884 18.884 0 0 1-2.016 2.034c-.768.66-1.59 1.314-2.466 1.962l.018.09Zm13.99-12.276c.732 0 1.422.186 2.07.558a5.522 5.522 0 0 1 1.692 1.53c.48.648.858 1.41 1.134 2.286.288.876.432 1.824.432 2.844 0 .972-.144 1.884-.432 2.736-.276.852-.654 1.596-1.134 2.232a5.714 5.714 0 0 1-1.692 1.494c-.648.36-1.338.54-2.07.54-.732 0-1.422-.18-2.07-.54a5.714 5.714 0 0 1-1.692-1.494 7.841 7.841 0 0 1-1.152-2.232 8.826 8.826 0 0 1-.414-2.736c0-1.02.138-1.968.414-2.844.288-.876.672-1.638 1.152-2.286a5.522 5.522 0 0 1 1.692-1.53 4.092 4.092 0 0 1 2.07-.558Zm0 13.356c.468 0 .882-.096 1.242-.288.372-.192.684-.522.936-.99.264-.468.462-1.092.594-1.872.144-.78.216-1.758.216-2.934 0-1.224-.072-2.244-.216-3.06-.132-.816-.324-1.47-.576-1.962-.252-.504-.564-.858-.936-1.062a2.463 2.463 0 0 0-1.26-.324c-.468 0-.888.108-1.26.324-.372.204-.684.558-.936 1.062-.252.492-.45 1.146-.594 1.962-.132.816-.198 1.836-.198 3.06 0 1.176.066 2.154.198 2.934.144.78.342 1.404.594 1.872.252.468.564.798.936.99.372.192.792.288 1.26.288Zm9.952-1.08h3.582c.288 0 .54-.024.756-.072.216-.06.408-.168.576-.324.168-.156.318-.366.45-.63a8.08 8.08 0 0 0 .396-1.044h.666L91.58 140h-8.37v-.594c1.368-1.224 2.49-2.292 3.366-3.204.888-.924 1.584-1.752 2.088-2.484s.852-1.404 1.044-2.016a6.394 6.394 0 0 0 .288-1.89c0-.936-.222-1.674-.666-2.214-.432-.54-1.026-.81-1.782-.81-.72 0-1.308.234-1.764.702-.444.468-.666 1.074-.666 1.818 0 .648.174 1.164.522 1.548.36.384.846.576 1.458.576-.06.288-.216.522-.468.702-.252.168-.564.252-.936.252a2.22 2.22 0 0 1-.936-.198 2.355 2.355 0 0 1-.738-.558 2.787 2.787 0 0 1-.486-.846 3.57 3.57 0 0 1-.162-1.098c0-.54.114-1.038.342-1.494.228-.456.54-.846.936-1.17a4.45 4.45 0 0 1 1.404-.792 5.388 5.388 0 0 1 1.782-.288c.636 0 1.218.096 1.746.288.528.192.984.462 1.368.81.384.348.678.762.882 1.242.216.468.324.99.324 1.566 0 .744-.168 1.476-.504 2.196a9.568 9.568 0 0 1-1.35 2.106 18.884 18.884 0 0 1-2.016 2.034c-.768.66-1.59 1.314-2.466 1.962l.018.09Zm11.127-6.912.036.054c.18-.132.444-.24.792-.324a3.91 3.91 0 0 1 1.044-.144 3.4 3.4 0 0 1 1.476.324c.456.204.846.492 1.17.864.336.372.6.816.792 1.332.192.504.288 1.05.288 1.638 0 .72-.138 1.392-.414 2.016a5.018 5.018 0 0 1-1.116 1.62 5.159 5.159 0 0 1-1.674 1.08 5.346 5.346 0 0 1-2.07.396 5.23 5.23 0 0 1-1.404-.18 4.002 4.002 0 0 1-1.116-.522c-.3-.216-.54-.474-.72-.774a2.093 2.093 0 0 1-.252-1.008c0-.324.072-.576.216-.756.156-.18.372-.27.648-.27.252 0 .438.066.558.198.132.132.234.3.306.504.072.204.138.426.198.666.06.228.144.444.252.648a1.5 1.5 0 0 0 .486.504c.216.132.51.198.882.198.468 0 .888-.108 1.26-.324a2.85 2.85 0 0 0 .936-.954c.252-.42.444-.918.576-1.494a8.255 8.255 0 0 0 .216-1.962c0-1.02-.144-1.77-.432-2.25-.276-.48-.744-.72-1.404-.72-.504 0-.918.138-1.242.414-.312.264-.57.696-.774 1.296-.072.216-.138.354-.198.414a.317.317 0 0 1-.234.09c-.264 0-.396-.12-.396-.36 0-.06.006-.108.018-.144l1.926-7.434c.264.108.564.192.9.252.336.048.738.072 1.206.072 1.116 0 1.914-.114 2.394-.342l.108.018c-.144.684-.462 1.212-.954 1.584-.48.372-1.098.558-1.854.558h-1.584l-.846 3.222Z" fill="#222"/></svg>