<svg width="992" height="323" viewBox="0 0 992 323" fill="none" xmlns="http://www.w3.org/2000/svg">
<g clip-path="url(#clip0_402_1589)">
<path d="M45 0C20.1463 0 0 20.1463 0 45C0 69.8537 20.1463 90 45 90C69.8537 90 90 69.8537 90 45C90 20.1463 69.8537 0 45 0ZM53.4393 59.0625H36.5625C28.7947 59.0625 22.5018 52.7678 22.5018 45C22.5018 37.2322 28.7965 30.9375 36.5625 30.9375H53.4393C61.207 30.9375 67.5 37.2322 67.5 45C67.5 52.7678 61.2053 59.0625 53.4393 59.0625Z" fill="white"/>
<path d="M53.4375 56.25C59.6507 56.25 64.6875 51.2132 64.6875 45C64.6875 38.7868 59.6507 33.75 53.4375 33.75C47.2243 33.75 42.1875 38.7868 42.1875 45C42.1875 51.2132 47.2243 56.25 53.4375 56.25Z" fill="white"/>
<path d="M134.824 27.334C130.553 27.334 126.559 28.524 123.156 30.5912V17.666H111.094V71.4586H123.017V68.9889C126.45 71.1088 130.493 72.334 134.824 72.334C147.25 72.334 157.324 62.26 157.324 49.834C157.324 37.408 147.25 27.334 134.824 27.334ZM134.824 60.3809C128.999 60.3809 124.277 55.6594 124.277 49.834C124.277 44.0086 128.999 39.2871 134.824 39.2871C135.812 39.2871 136.767 39.426 137.674 39.6791C142.114 40.9236 145.371 44.9965 145.371 49.834C145.371 54.6715 142.061 58.8111 137.566 60.0188C136.691 60.2543 135.773 60.3809 134.824 60.3809Z" fill="white"/>
<path fill-rule="evenodd" clip-rule="evenodd" d="M202.978 53.789H189.316V53.8099H173.541C173.898 55.7013 174.376 57.4732 175.659 58.9252C177.3 60.7971 179.346 61.6883 181.872 61.8377C184.122 61.9678 186.189 61.5969 188.053 60.4262C189.397 59.5755 190.313 58.3047 190.74 56.7525C190.754 56.7001 190.768 56.6497 190.784 56.6015H202.862C202.294 59.9656 201.066 62.9648 198.745 65.5607C195.945 68.7037 192.431 70.5756 188.388 71.6268C185.803 72.2982 183.164 72.4477 180.538 72.2578C175.436 71.8975 170.923 70.1766 167.248 66.5328C163.908 63.2193 161.983 59.2767 161.331 54.7011C161.3 54.4823 161.268 54.2631 161.236 54.0435C161.027 52.6074 160.816 51.1584 160.842 49.716C160.933 45.6117 161.647 41.6285 163.683 37.9654C165.261 35.1318 167.318 32.7499 170.027 30.8779C172.513 29.157 175.23 28.0058 178.193 27.6155C184.048 26.8351 189.659 27.5751 194.537 31.1292C198.172 33.7818 200.698 37.315 201.92 41.6197C202.43 43.4214 202.785 45.2935 202.938 47.155C203.059 48.656 203.031 50.1716 203.003 51.7215C202.99 52.4033 202.978 53.092 202.978 53.789ZM191.322 44.5183H173.093C173.878 40.6177 176.908 38.2079 180.378 37.6525C183.315 37.1831 186.022 37.7509 188.329 39.5701C189.889 40.8128 190.79 42.546 191.322 44.5183Z" fill="white"/>
<path d="M223.774 21.6576V31.7457H231.391V41.5349H223.774V60.4666C223.774 62.2103 224.223 62.43 225.808 62.4898C227.631 62.5601 229.466 62.5091 231.361 62.5091V72.2086C231.361 72.2086 231.28 72.2878 231.231 72.2878C227.541 72.2878 223.834 72.5568 220.185 71.7992C216.277 70.9923 213.326 68.6 212.628 64.4515C212.419 63.2158 212.31 61.9501 212.299 60.7039C212.269 54.6623 212.28 48.6207 212.28 42.5896V41.5929H205.839V31.8037H212.269V21.6646H223.774V21.6541V21.6576Z" fill="white"/>
<path d="M241.456 21.6575H252.791V31.7262H260.427V41.5155H252.821V59.5999C252.821 60.0885 252.9 60.5772 252.981 61.0553C253.169 62.1311 253.598 62.4915 254.744 62.5002C256.628 62.5108 258.504 62.5002 260.427 62.5002V72.2491C260.198 72.2684 259.959 72.2983 259.718 72.2983C257.725 72.2983 255.721 72.3879 253.728 72.279C251.664 72.17 249.59 72.0504 247.617 71.3227C244.167 70.0571 242.184 67.6243 241.674 64.0155C241.555 63.1489 241.506 62.27 241.506 61.3928C241.495 55.1016 241.506 48.8209 241.506 42.5315V41.5752H234.907V31.786H241.465V21.6575H241.456Z" fill="white"/>
<path fill-rule="evenodd" clip-rule="evenodd" d="M307.838 53.789H294.177V53.8099H278.4C278.757 55.7013 279.235 57.4732 280.52 58.9252C282.16 60.7971 284.206 61.6883 286.732 61.8377C288.982 61.9678 291.05 61.5969 292.913 60.4262C294.258 59.5755 295.173 58.3047 295.601 56.7525C295.615 56.7001 295.629 56.6497 295.645 56.6015H307.722C307.155 59.9656 305.926 62.9648 303.606 65.5607C300.805 68.7037 297.292 70.5756 293.249 71.6268C290.663 72.2982 288.024 72.4477 285.398 72.2578C280.297 71.8975 275.783 70.1766 272.107 66.5328C268.768 63.2193 266.843 59.2767 266.191 54.7011C266.161 54.4823 266.127 54.2631 266.096 54.0435C265.887 52.6074 265.676 51.1584 265.702 49.716C265.793 45.6117 266.507 41.6285 268.543 37.9654C270.121 35.1318 272.178 32.7499 274.887 30.8779C277.372 29.157 280.09 28.0058 283.053 27.6155C288.909 26.8351 294.52 27.5751 299.397 31.1292C303.033 33.7818 305.559 37.315 306.78 41.6197C307.29 43.4214 307.645 45.2935 307.798 47.155C307.919 48.656 307.891 50.1716 307.863 51.7215C307.851 52.4033 307.838 53.092 307.838 53.789ZM296.182 44.5183H277.952C278.738 40.6177 281.768 38.2079 285.238 37.6525C288.176 37.1831 290.883 37.7509 293.189 39.5701C294.75 40.8128 295.65 42.546 296.182 44.5183Z" fill="white"/>
<path d="M337.409 39.7599C336.062 39.5964 334.827 39.4646 333.58 39.3116C331.126 39.0163 328.792 39.2202 326.967 41.1573C325.82 42.3702 325.162 43.8995 325.113 45.5712C324.993 49.5773 324.953 53.5851 324.934 57.6017C324.904 62.1896 324.934 66.7774 324.934 71.3653V72.3339H313.513V28.9212H324.584V31.7759C326.3 29.8792 328.314 28.8403 330.589 28.5855C332.422 28.3815 334.298 28.596 336.152 28.6364C336.372 28.6364 336.591 28.698 336.811 28.6874C337.281 28.6663 337.439 28.8808 337.439 29.3501V39.7599H337.409Z" fill="white"/>
<path d="M409.467 72.334H397.148V71.3092C397.148 63.044 397.178 54.7805 397.127 46.5153C397.118 44.6871 396.728 42.9012 395.682 41.3262C394.624 39.7424 393.057 38.9514 391.301 38.7264C390.045 38.5735 388.698 38.6754 387.462 38.9901C384.739 39.6704 383.353 41.7516 382.674 44.362C382.424 45.3463 382.335 46.3922 382.324 47.4188C382.294 55.3694 382.315 63.3288 382.315 71.2793V72.3252H369.997V71.3707C369.997 63.0756 370.035 54.7805 369.967 46.4959C369.946 44.485 369.606 42.4952 368.23 40.8305C367.182 39.5614 365.836 38.8706 364.31 38.7282C362.714 38.5858 361.109 38.5454 359.552 39.3065C357.857 40.1485 356.709 41.4282 356.012 43.1438C355.352 44.7487 355.143 46.4432 355.154 48.1905C355.173 55.8862 355.164 63.5924 355.164 71.2881V72.3235H343.063V28.4116H354.974V31.0413C358.724 28.0864 362.844 27.1723 367.293 27.5889C371.742 28.0055 375.572 29.6913 378.355 33.3563C379.362 32.4932 380.329 31.6002 381.368 30.7969C383.323 29.2834 385.538 28.2692 387.962 27.893C389.776 27.6082 391.641 27.4571 393.467 27.5573C397.167 27.77 400.688 28.735 403.622 31.1608C406.345 33.4038 408.08 36.3586 408.778 39.8426C409.187 41.843 409.426 43.9137 409.447 45.9545C409.516 54.392 409.477 62.819 409.477 71.2565V72.3323H409.467V72.334Z" fill="white"/>
<path d="M437.261 27.334C424.835 27.334 414.761 37.408 414.761 49.834C414.761 62.26 424.835 72.334 437.261 72.334C449.687 72.334 459.761 62.26 459.761 49.834C459.761 37.408 449.687 27.334 437.261 27.334ZM437.344 60.3387C431.518 60.3387 426.797 55.6172 426.797 49.7918C426.797 43.9664 431.518 39.2449 437.344 39.2449C443.169 39.2449 447.891 43.9664 447.891 49.7918C447.891 55.6172 443.169 60.3387 437.344 60.3387Z" fill="white"/>
<path d="M510.117 17.666H498.066V30.5437C494.682 28.5064 490.718 27.334 486.48 27.334C474.054 27.334 463.98 37.408 463.98 49.834C463.98 62.26 474.054 72.334 486.48 72.334C490.776 72.334 494.791 71.1299 498.205 69.0398V71.4586H510.128V17.666H510.117ZM475.933 49.834C475.933 45.0791 479.08 41.0607 483.404 39.7441C484.378 39.4471 485.409 39.2871 486.48 39.2871C492.305 39.2871 497.027 44.0086 497.027 49.834C497.027 55.6594 492.305 60.3809 486.48 60.3809C485.453 60.3809 484.464 60.2314 483.525 59.959C479.139 58.6811 475.933 54.6328 475.933 49.834Z" fill="white"/>
<path fill-rule="evenodd" clip-rule="evenodd" d="M557.188 53.789H543.526V53.8099H527.751C528.108 55.7013 528.586 57.4732 529.87 58.9252C531.51 60.7971 533.556 61.6883 536.082 61.8377C538.332 61.9678 540.399 61.5969 542.262 60.4262C543.607 59.5755 544.523 58.3047 544.95 56.7525C544.964 56.7001 544.978 56.6497 544.994 56.6015H557.072C556.504 59.9656 555.277 62.9648 552.955 65.5607C550.155 68.7037 546.641 70.5756 542.598 71.6268C540.012 72.2982 537.374 72.4477 534.748 72.2578C529.646 71.8975 525.134 70.1766 521.457 66.5328C518.117 63.2193 516.192 59.2767 515.54 54.7011C515.51 54.4823 515.478 54.2631 515.445 54.0435C515.238 52.6074 515.027 51.1584 515.051 49.716C515.143 45.6117 515.856 41.6285 517.892 37.9654C519.47 35.1318 521.529 32.7499 524.238 30.8779C526.723 29.157 529.441 28.0058 532.403 27.6155C538.258 26.8351 543.869 27.5751 548.747 31.1292C552.382 33.7818 554.908 37.315 556.13 41.6197C556.639 43.4214 556.994 45.2935 557.147 47.155C557.269 48.656 557.241 50.1716 557.212 51.7215C557.2 52.4033 557.188 53.092 557.188 53.789ZM545.532 44.5183H527.303C528.089 40.6177 531.118 38.2079 534.588 37.6525C537.525 37.1831 540.232 37.7509 542.538 39.5701C544.099 40.8128 544.999 42.546 545.532 44.5183Z" fill="white"/>
</g>
<path d="M902.608 322.371C883.318 322.371 866.978 319.562 853.588 313.944C840.197 308.325 830.038 300.085 823.108 289.223C816.179 278.267 812.714 264.97 812.714 249.333H867.914C868.195 254.951 869.787 259.774 872.69 263.8C875.687 267.826 879.76 270.917 884.91 273.07C890.154 275.224 896.287 276.301 903.31 276.301C909.49 276.301 914.874 275.552 919.463 274.053C924.051 272.462 927.609 270.308 930.138 267.592C932.759 264.783 934.07 261.553 934.07 257.901C934.07 254.53 932.853 251.58 930.418 249.052C927.984 246.524 924.238 244.323 919.182 242.45C914.125 240.578 907.664 238.892 899.799 237.394L879.011 233.461C858.785 229.622 843.334 222.505 832.659 212.111C821.985 201.717 816.647 188.748 816.647 173.204C816.647 159.908 820.252 148.25 827.463 138.23C834.673 128.211 844.692 120.392 857.521 114.774C870.349 109.155 885.238 106.346 902.186 106.346C919.603 106.346 934.585 109.109 947.133 114.633C959.681 120.158 969.419 128.117 976.348 138.511C983.278 148.905 986.976 161.406 987.445 176.014H933.789C933.134 168.71 930.044 162.951 924.519 158.737C919.088 154.523 912.018 152.417 903.31 152.417C897.879 152.417 893.057 153.212 888.843 154.804C884.629 156.303 881.305 158.409 878.87 161.125C876.529 163.747 875.359 166.837 875.359 170.395C875.359 173.766 876.436 176.622 878.589 178.963C880.743 181.304 884.114 183.364 888.702 185.143C893.384 186.829 899.33 188.327 906.541 189.638L923.396 192.728C935.381 194.975 945.682 197.831 954.296 201.296C963.005 204.761 970.121 208.974 975.646 213.937C981.171 218.9 985.244 224.659 987.866 231.214C990.488 237.768 991.799 245.213 991.799 253.547C991.799 268.154 988.287 280.608 981.264 290.908C974.335 301.115 964.222 308.934 950.925 314.365C937.629 319.702 921.523 322.371 902.608 322.371Z" fill="white"/>
<path d="M708.067 322.371C689.808 322.371 673.936 319.187 660.452 312.82C646.968 306.359 636.48 297.323 628.989 285.712C621.592 274.007 617.893 260.289 617.893 244.557V109.717H674.638V239.782C674.638 246.243 676.09 252.002 678.992 257.058C681.895 262.021 685.828 265.954 690.791 268.857C695.847 271.759 701.606 273.211 708.067 273.211C714.622 273.211 720.381 271.806 725.344 268.997C730.4 266.094 734.333 262.161 737.142 257.199C740.045 252.142 741.496 246.336 741.496 239.782V109.717H798.242V244.557C798.242 260.289 794.496 274.007 787.005 285.712C779.607 297.323 769.167 306.359 755.683 312.82C742.199 319.187 726.327 322.371 708.067 322.371Z" fill="white"/>
<path d="M399.194 319L489.368 191.043V234.444L407.621 109.717H473.496L490.211 136.966C493.114 141.648 495.923 146.377 498.638 151.152C501.448 155.834 504.21 160.516 506.925 165.198C509.641 169.88 512.31 174.562 514.931 179.244H497.796C500.605 174.562 503.367 169.88 506.083 165.198C508.798 160.516 511.56 155.834 514.37 151.152C517.272 146.377 520.175 141.648 523.078 136.966L540.074 109.717H604.263L525.045 231.073V190.481L612.41 319H544.568L521.814 283.043C519.567 279.485 517.319 275.926 515.072 272.368C512.918 268.81 510.718 265.298 508.47 261.834C506.317 258.275 504.116 254.717 501.869 251.159H509.454C507.3 254.717 505.099 258.275 502.852 261.834C500.698 265.298 498.498 268.81 496.251 272.368C494.003 275.926 491.662 279.485 489.228 283.043L465.209 319H399.194Z" fill="white"/>
<path d="M215.75 319V269.559H395.817V319H215.75ZM228.953 238.377V190.621H382.614V238.377H228.953ZM217.997 159.159V109.717H393.57V159.159H217.997Z" fill="white"/>
<path d="M11.2368 319V109.717H70.7911L121.778 191.885C124.025 195.444 126.834 200.313 130.205 206.493C133.67 212.58 137.275 219.134 141.02 226.157C144.86 233.18 148.418 239.782 151.695 245.962L144.672 262.255C144.204 254.67 143.829 246.056 143.549 236.411C143.268 226.672 143.034 217.308 142.846 208.319C142.753 199.236 142.706 191.932 142.706 186.408V109.717H201.136V319H141.582L93.9668 242.591C91.1576 238.003 87.6462 232.15 83.4324 225.034C79.3123 217.823 74.8644 209.817 70.0889 201.015C65.4069 192.213 60.6781 183.224 55.9026 174.047L67.4201 170.676C68.1693 180.508 68.6843 190.153 68.9652 199.611C69.3397 209.068 69.527 217.542 69.527 225.034C69.6207 232.525 69.6675 238.377 69.6675 242.591V319H11.2368Z" fill="white"/>
<defs>
<clipPath id="clip0_402_1589">
<rect width="557.402" height="90" fill="white"/>
</clipPath>
</defs>
</svg>
