<svg width="90" height="100" viewBox="0 0 90 100" fill="none" xmlns="http://www.w3.org/2000/svg">
<g clip-path="url(#clip0_1334_16710)">
<path d="M89.8742 34.9257C89.8742 53.3519 81.6611 63.0569 72.7536 69.4405L71.0229 70.636L69.2869 71.7573L67.5579 72.813L65.8479 73.8119L59.3815 77.4407C59.0449 77.633 58.713 77.8244 58.3859 78.0156L56.4819 79.1624C49.7204 83.3832 45.4201 87.9393 45.0589 98.2528L45.0342 99.6953H25.8994C25.8994 81.8637 33.5931 72.1991 42.1624 65.8083L43.8859 64.5724C44.1745 64.3732 44.4635 64.1772 44.7527 63.9844L46.4885 62.8631L48.2174 61.8073L51.6058 59.8576L56.3929 57.1798L58.3553 56.0322C65.6549 51.6401 70.338 47.1506 70.7156 36.3683L70.7402 34.9257H89.8742ZM64.9617 0.050293C64.9617 17.8805 57.2696 27.5454 48.7001 33.9364L46.9765 35.1724C46.688 35.3716 46.399 35.5675 46.1098 35.7604L44.3738 36.8817L42.6448 37.9375L39.2558 39.8872L34.4683 42.5654L32.5058 43.7131C32.1884 43.9041 31.876 44.0953 31.5686 44.2871L29.7867 45.4507C24.0578 49.384 20.474 54.0017 20.1456 63.3778L20.1209 64.8204H0.985352C0.985352 45.7996 9.73732 36.0727 18.9706 29.6981L20.7054 28.5406L22.4395 27.4531L24.1605 26.4267L31.4788 22.3043L33.4413 21.1565C40.741 16.764 45.4239 12.2746 45.8015 1.4928L45.8262 0.050293H64.9617Z" fill="#FF3C00"/>
</g>
<defs>
<clipPath id="clip0_1334_16710">
<rect width="88.8889" height="100" fill="white" transform="translate(0.985352)"/>
</clipPath>
</defs>
</svg>
