<svg width="101" height="100" viewBox="0 0 101 100" fill="none" xmlns="http://www.w3.org/2000/svg">
<g clip-path="url(#clip0_1334_16699)">
<path d="M0.0439453 0H100.044V100H0.0439453" fill="#FFDD22"/>
<path d="M81.6836 59.7658L80.5118 56.4455C80.5118 56.4455 85.3946 49.0236 73.2852 46.4845C73.2852 46.4845 74.0665 37.3048 69.7696 33.008C79.1446 23.8283 76.9962 9.96109 55.7071 18.9455C44.7696 -1.95298 2.5821 47.0705 20.1602 54.883C18.4024 57.2267 18.4024 68.9455 30.5118 70.1173C38.7149 87.6955 58.6368 88.8673 70.1602 83.5939C81.6836 78.3205 88.3243 61.5236 81.6836 59.7658ZM30.3165 67.5783C20.3555 66.6017 19.379 52.9298 27.9727 51.5626C36.5665 50.1955 38.7149 68.3595 30.3165 67.5783ZM27.3868 49.0236C24.6524 49.0236 21.3321 52.7345 21.3321 52.7345C8.05085 46.2892 45.3555 3.51577 53.3633 20.1173C53.3633 20.1173 33.8321 29.4923 27.3868 49.0236ZM66.4493 65.6251C66.4493 64.8439 62.3477 66.797 54.9258 64.258C55.5118 60.1564 64.3008 67.7736 78.9493 57.8126L80.1211 61.9142C85.5899 60.9376 80.1211 79.4923 62.543 79.297C48.2852 79.1017 43.793 64.4533 51.6055 56.4455C53.168 54.883 45.9415 51.758 47.3087 44.922C47.8946 41.9923 50.4337 37.6955 56.879 38.8673C63.3243 40.0392 64.6915 34.1798 68.9883 36.3283C73.2852 38.4767 70.7462 46.6798 71.3321 47.8517C71.918 49.0236 78.168 49.2189 79.3399 52.5392C80.5118 55.8595 71.3321 63.0861 57.0743 61.133C53.754 60.7423 51.8008 65.0392 53.9493 67.7736C58.2462 74.0236 75.8243 69.922 78.754 63.8673C71.3321 69.5314 56.0977 71.6798 54.9258 65.6251C59.2227 67.5783 66.4493 66.4064 66.4493 65.6251ZM40.8633 34.7658C45.1602 29.4923 50.8243 26.3673 50.8243 26.3673L49.6524 29.297C49.6524 29.297 53.754 26.172 58.2462 26.172L56.6837 27.7345C61.7618 27.9298 63.9102 29.883 63.9102 29.883C63.9102 29.883 51.9962 26.3673 40.8633 34.7658ZM67.2305 42.383C69.7696 42.1876 68.9883 48.047 68.9883 48.047H67.4258C67.4258 48.047 64.6915 42.5783 67.2305 42.383ZM55.7071 48.8283C53.9493 49.0236 51.9962 50.0001 52.1915 49.2189C52.9727 46.0939 60.1993 46.8751 60.004 49.6095C59.8087 52.3439 58.2462 48.4376 55.7071 48.8283ZM59.8087 51.172C60.004 51.5626 58.4415 51.172 57.2696 51.3673C56.0977 51.5626 54.9258 52.1486 54.9258 51.758C54.9258 51.3673 59.418 49.6095 59.8087 51.172ZM63.7149 51.758C64.3008 50.5861 66.6446 51.758 66.0587 52.9298C65.4727 54.1017 63.129 52.9298 63.7149 51.758ZM68.5977 52.1486C67.4258 52.1486 67.4258 49.6095 68.5977 49.6095C69.7696 49.6095 69.7696 52.3439 68.5977 52.3439V52.1486ZM33.4415 62.5001C34.0274 63.0861 32.2696 64.258 30.9024 63.2814C29.5352 62.3048 32.4649 57.6173 28.9493 56.4455C25.4337 55.2736 26.4102 59.7658 25.4337 59.1798C24.4571 58.5939 26.8008 52.3439 30.9024 54.883C35.004 57.422 29.7305 61.3283 32.0743 62.5001C34.418 63.672 33.0508 62.1095 33.4415 62.5001Z" fill="#222222"/>
</g>
<defs>
<clipPath id="clip0_1334_16699">
<rect width="100" height="100" fill="white" transform="translate(0.0449219)"/>
</clipPath>
</defs>
</svg>
