<svg width="160" height="160" viewBox="0 0 160 160" fill="none" xmlns="http://www.w3.org/2000/svg">
<rect width="160" height="160" rx="80" fill="#8200F9"/>
<path d="M78.2098 41.7412C76.9948 41.7412 75.9103 42.5962 75.6628 43.8337L62.3248 111.437C62.1923 112.112 62.3324 112.812 62.7144 113.383C63.0964 113.955 63.6893 114.352 64.3633 114.488L82.7908 118.205C83.4693 118.34 84.1736 118.201 84.7491 117.817C85.3246 117.433 85.7241 116.836 85.8598 116.158L99.1933 48.5632C99.3258 47.8885 99.1858 47.1887 98.8038 46.617C98.4218 46.0452 97.8289 45.648 97.1548 45.5122L78.7228 41.7952C78.5555 41.7609 78.3807 41.7428 78.2098 41.7412ZM51.7678 42.1822C51.286 42.1814 50.8135 42.3148 50.4034 42.5676C49.9932 42.8204 49.6616 43.1825 49.4458 43.6132L18.2788 105.637C18.1249 105.941 18.0326 106.272 18.0072 106.612C17.9818 106.952 18.0238 107.294 18.1309 107.618C18.2379 107.941 18.4079 108.241 18.631 108.498C18.8541 108.756 19.1259 108.967 19.4308 109.12L36.2293 117.566C36.8458 117.874 37.5594 117.925 38.2133 117.707C38.8672 117.49 39.4079 117.021 39.7168 116.405L70.8838 54.3907C71.038 54.0859 71.1304 53.7536 71.1559 53.413C71.1814 53.0724 71.1395 52.73 71.0325 52.4057C70.9255 52.0813 70.7555 51.7812 70.5323 51.5226C70.3091 51.264 70.0371 51.052 69.7318 50.8987L52.9288 42.4612C52.5691 42.2783 52.1714 42.1828 51.7678 42.1822ZM104.598 42.6997C103.91 42.6997 103.251 42.9728 102.765 43.4589C102.279 43.945 102.006 44.6043 102.006 45.2917V114.709C102.006 116.14 103.167 117.31 104.598 117.31H123.399C124.088 117.307 124.748 117.033 125.235 116.545C125.723 116.058 125.997 115.398 126 114.709V45.2917C125.997 44.6034 125.722 43.9442 125.235 43.4583C124.747 42.9725 124.087 42.6997 123.399 42.6997H104.598Z" fill="white"/>
</svg>
