<svg width="101" height="100" viewBox="0 0 101 100" fill="none" xmlns="http://www.w3.org/2000/svg">
<g clip-path="url(#clip0_1334_16696)">
<path d="M50.0146 9.15527e-05C77.6251 9.15527e-05 100.015 22.3897 100.015 50.0001C100.015 77.6105 77.6251 100 50.0146 100C22.4042 100 0.0146484 77.6306 0.0146484 50.0001C0.0146484 22.3696 22.4042 9.15527e-05 50.0146 9.15527e-05ZM43.4082 15.2812C37.2436 15.3013 31.6612 25.221 26.862 44.739C23.4685 44.6989 20.356 44.6386 17.4444 44.5985H17.0026C16.6412 44.5784 16.2797 44.5985 15.9183 44.6386C14.2717 44.9398 13.0869 46.3856 13.0869 48.0523C13.0869 49.7591 14.352 51.225 16.0387 51.486L16.0789 51.5262H25.2958C24.4323 55.4218 23.6893 59.2973 23.0669 63.0121L22.7857 64.6386V64.719C22.7857 65.5021 23.1873 66.225 23.85 66.6467C24.9142 67.3294 26.34 67.0081 27.0227 65.9439L27.0829 66.0041L31.601 51.5262H53.3681C55.0347 57.8314 56.7616 64.3174 59.0508 70.4218C60.2757 73.6949 63.1271 81.3254 67.9062 81.3656H67.9665C75.356 81.3656 78.2476 69.4178 80.1552 61.5061C80.5769 59.7993 80.9183 58.3334 81.2596 57.2491L81.4002 56.8073L81.4204 56.7424C81.5768 56.178 81.2581 55.575 80.6974 55.3816C80.1151 55.1808 79.4524 55.482 79.2516 56.0844L79.091 56.5262C78.4685 58.2732 77.8861 59.8997 77.3641 61.3656L77.3239 61.486C74.111 70.5423 72.6653 74.6788 69.7938 74.6788H69.613C65.9383 74.6788 62.5046 59.7792 61.1994 54.1768C60.9785 53.2129 60.7777 52.3093 60.5769 51.5262H84.2717C84.6934 51.5262 85.1151 51.4258 85.4966 51.225L85.5151 51.2099C85.5367 51.1949 85.5669 51.1798 85.597 51.1647L85.7175 51.0844L85.7777 51.0443C85.8379 51.0041 85.8982 50.9639 85.9584 50.9037L86.0471 50.8301C86.4822 50.4518 86.7905 49.9235 86.9223 49.3776C87.2235 47.9519 86.2797 46.5463 84.854 46.2652H84.7335C84.593 46.2451 84.4725 46.225 84.3319 46.225L83.9705 46.1848C75.597 45.5824 66.9825 45.3415 58.8901 45.1808L58.8701 45.1206C54.9544 30.3615 50.0347 15.2812 43.4082 15.2812ZM43.1472 21.9278C43.4885 21.9278 43.8098 22.1286 44.091 22.4901C44.7737 23.5744 45.9785 26.0041 47.7657 31.3856C48.9906 35.0804 50.3159 39.6788 51.7215 45.0202C46.3801 44.9398 40.9986 44.8796 35.7777 44.8194L33.1271 44.7993C36.1191 33.1125 39.7536 24.2571 42.4243 22.1688C42.6452 22.0282 42.8861 21.9278 43.1472 21.9278Z" fill="#10069F"/>
</g>
<defs>
<clipPath id="clip0_1334_16696">
<rect width="100" height="100" fill="white" transform="translate(0.0146484)"/>
</clipPath>
</defs>
</svg>
