<?xml version="1.0" encoding="utf-8"?>
<!-- Generator: Adobe Illustrator 23.0.1, SVG Export Plug-In . SVG Version: 6.00 Build 0)  -->
<svg version="1.1" id="Layer_1" xmlns="http://www.w3.org/2000/svg" xmlns:xlink="http://www.w3.org/1999/xlink" x="0px" y="0px"
	 viewBox="0 0 1000 1000" style="enable-background:new 0 0 1000 1000;" xml:space="preserve">
<style type="text/css">
	.st0{fill:url(#SVGID_1_);}
	.st1{fill-rule:evenodd;clip-rule:evenodd;fill:#FFFFFF;}
</style>
<g>
	
		<linearGradient id="SVGID_1_" gradientUnits="userSpaceOnUse" x1="1187.5994" y1="2121.5994" x2="-151.2789" y2="782.7211" gradientTransform="matrix(1 0 0 1 0 -934)">
		<stop  offset="0" style="stop-color:#D44D92"/>
		<stop  offset="0.52" style="stop-color:#F1627E"/>
		<stop  offset="1" style="stop-color:#F3874A"/>
	</linearGradient>
	<rect x="2.5" y="2.5" class="st0" width="995.1" height="995.1"/>
	<path class="st1" d="M462.7,838.9c34.2,23.3,90.2,37.3,144.6,37.3c101.1,0,177.2-43.5,177.2-141.5c0-84-46.6-124.4-153.9-147.7
		c-54.4-14-74.6-31.1-74.6-60.6c0-29.5,24.9-52.9,70-52.9c49.8,0,90.2,17.1,130.6,46.6v-94.8c-38.9-23.3-80.9-34.2-133.7-34.2
		c-94.8,0-167.9,46.6-167.9,141.5c0,80.9,42,119.7,138.4,141.5c60.6,15.5,88.6,29.5,88.6,66.9c0,37.3-31.1,52.9-77.7,52.9
		c-48.2,0-99.5-20.2-143-52.9L462.7,838.9z M440.9,489.1h-48.2v377.8H288.5V489.1h-73.1V402h73.1v-88.6c0-115.1,63.7-171,163.3-171
		c37.3,0,65.3,7.8,91.7,23.3v94.8c-24.9-17.1-48.2-26.4-80.9-26.4c-45.1,0-70,21.8-70,79.3V402h113.5
		C472,419.1,448.7,450.2,440.9,489.1z"/>
</g>
</svg>
