<svg width="101" height="100" viewBox="0 0 101 100" fill="none" xmlns="http://www.w3.org/2000/svg">
<g clip-path="url(#clip0_1334_16713)">
<path d="M58.7056 95.905L41.3477 78.9788L78.6261 40.9106L96.5977 58.5243L58.7056 95.905Z" fill="#8AB4F8"/>
<path d="M58.7816 21.0698L41.4861 3.41068L3.66797 40.8709C-1.20703 45.7459 -1.20703 53.6493 3.66797 58.53L40.918 96.0243L58.5316 79.547L30.1509 49.7004L58.7816 21.0698Z" fill="#4285F4"/>
<path d="M96.3493 41.1605L58.8493 3.66051C53.9687 -1.22017 46.0539 -1.22017 41.1732 3.66051C36.2925 8.54119 36.2925 16.456 41.1732 21.3366L78.6732 58.8366C83.5539 63.7173 91.4687 63.7173 96.3493 58.8366C101.23 53.956 101.23 46.0412 96.3493 41.1605Z" fill="#8AB4F8"/>
<path d="M49.7237 100.001C56.4704 100.001 61.9396 94.5322 61.9396 87.7855C61.9396 81.0388 56.4704 75.5696 49.7237 75.5696C42.9771 75.5696 37.5078 81.0388 37.5078 87.7855C37.5078 94.5322 42.9771 100.001 49.7237 100.001Z" fill="#246FDB"/>
</g>
<defs>
<clipPath id="clip0_1334_16713">
<rect width="100" height="100" fill="white" transform="translate(0.0107422)"/>
</clipPath>
</defs>
</svg>
