<svg width="101" height="100" viewBox="0 0 101 100" fill="none" xmlns="http://www.w3.org/2000/svg">
<g clip-path="url(#clip0_1334_16692)">
<path d="M99.7325 47.233L54.7096 4.71336L50.3469 0.593292L16.4548 32.601L0.95673 47.233C0.18261 47.9678 -0.251953 48.9622 -0.251953 49.9988C-0.251953 51.0354 0.18261 52.0298 0.95673 52.7646L31.9202 82.0065L50.3469 99.4043L84.2344 67.3966L84.7622 66.9026L99.7325 52.7867C100.12 52.423 100.428 51.9904 100.638 51.5138C100.849 51.0372 100.957 50.5261 100.957 50.0098C100.957 49.4936 100.849 48.9825 100.638 48.5059C100.428 48.0293 100.12 47.5967 99.7325 47.233ZM50.3469 64.6087L34.8769 49.9988L50.3469 35.3889L65.8123 49.9988L50.3469 64.6087Z" fill="#2684FF"/>
<path d="M50.3391 35.3894C45.4738 30.7957 42.7311 24.5703 42.7101 18.073C42.6891 11.5757 45.3915 5.33465 50.227 0.712921L16.377 32.6677L34.799 50.0655L50.3391 35.3894Z" fill="url(#paint0_linear_1334_16692)"/>
<path d="M65.8404 49.9609L50.333 64.6105C55.2167 69.224 57.9603 75.4804 57.9603 82.0039C57.9603 88.5274 55.2167 94.7839 50.333 99.3973L84.2765 67.3587L65.8404 49.9609Z" fill="url(#paint1_linear_1334_16692)"/>
</g>
<defs>
<linearGradient id="paint0_linear_1334_16692" x1="47.5693" y1="20.6075" x2="27.2005" y2="42.1707" gradientUnits="userSpaceOnUse">
<stop offset="0.18" stop-color="#0052CC"/>
<stop offset="1" stop-color="#2684FF"/>
</linearGradient>
<linearGradient id="paint1_linear_1334_16692" x1="53.285" y1="79.216" x2="73.6141" y2="57.6947" gradientUnits="userSpaceOnUse">
<stop offset="0.18" stop-color="#0052CC"/>
<stop offset="1" stop-color="#2684FF"/>
</linearGradient>
<clipPath id="clip0_1334_16692">
<rect width="100" height="100" fill="white" transform="translate(0.951172)"/>
</clipPath>
</defs>
</svg>
