<svg version="1.1" id="Layer_1" xmlns:x="ns_extend;" xmlns:i="ns_ai;" xmlns:graph="ns_graphs;" xmlns="http://www.w3.org/2000/svg" xmlns:xlink="http://www.w3.org/1999/xlink" x="0px" y="0px" viewBox="0 0 49.7 46.2" style="enable-background:new 0 0 49.7 46.2;" xml:space="preserve">
 <style type="text/css">
  .st0{fill:#0095FF;}
	.st1{fill:#B8CEE1;}
	.st2{fill:#0D47A1;}
	.st3{fill:#F25900;}
 </style>
 <metadata>
  <sfw xmlns="ns_sfw;">
   <slices>
   </slices>
   <sliceSourceBounds bottomLeftOrigin="true" height="46.2" width="49.7" x="89.5" y="-223.2">
   </sliceSourceBounds>
  </sfw>
 </metadata>
 <g>
  <path class="st0" d="M35.7,23.4c0,5.4-4.4,9.8-9.8,9.8c-5.4,0-9.8-4.4-9.8-9.8c0-5.4,4.4-9.8,9.8-9.8C31.3,13.7,35.7,18,35.7,23.4
		L35.7,23.4z M35.7,23.4">
  </path>
  <path class="st1" d="M49.7,3.8c0,2.1-1.7,3.8-3.8,3.8c-2.1,0-3.8-1.7-3.8-3.8S43.9,0,45.9,0C48,0,49.7,1.7,49.7,3.8L49.7,3.8z
		 M49.7,3.8">
  </path>
  <path class="st2" d="M45.2,39.4c0,3.7-3,6.8-6.8,6.8c-3.7,0-6.8-3-6.8-6.8c0-3.7,3-6.8,6.8-6.8C42.2,32.7,45.2,35.7,45.2,39.4
		L45.2,39.4z M45.2,39.4">
  </path>
  <path class="st3" d="M10.5,31.6c0,2.9-2.4,5.2-5.2,5.2c-2.9,0-5.2-2.4-5.2-5.2c0-2.9,2.4-5.2,5.2-5.2C8.1,26.4,10.5,28.7,10.5,31.6
		L10.5,31.6z M10.5,31.6">
  </path>
 </g>
</svg>