<svg width="160" height="176" fill="none" xmlns="http://www.w3.org/2000/svg"><path d="M159.575 114.48a1 1 0 0 1-.854 1.52H141a1 1 0 0 1-1-1V94a1 1 0 0 1 1-1h17.721a1 1 0 0 1 .854 1.52l-5.759 9.46a1.002 1.002 0 0 0 0 1.04l5.759 9.46ZM.925 94.52A1 1 0 0 1 1.78 93H19.5a1 1 0 0 1 1 1v21a1 1 0 0 1-1 1H1.78a1 1 0 0 1-.855-1.52l5.759-9.46a1 1 0 0 0 0-1.04L.925 94.52Z" fill="#2C9469"/><path d="M15 17c0-6.627 5.373-12 12-12h107c6.627 0 12 5.373 12 12v112.596a12 12 0 0 1-5.825 10.29l-53.953 32.38a12.002 12.002 0 0 1-12.42-.042l-53.047-32.327A12 12 0 0 1 15 129.65V17Z" fill="#EAFBF2"/><path d="M146 45.5 39.923 151.577l-19.168-11.68A12 12 0 0 1 15 129.65V104l99-99h20c6.627 0 12 5.373 12 12v28.5Z" fill="#fff"/><path opacity=".8" d="m55.456 161.044-10.252-6.248L146 54v16.5l-90.543 90.544Z" fill="#fff"/><path d="M27 6.5h107c5.799 0 10.5 4.701 10.5 10.5v112.596c0 3.688-1.935 7.106-5.097 9.004l-53.952 32.379a10.501 10.501 0 0 1-10.868-.036l-53.047-32.327a10.5 10.5 0 0 1-5.036-8.966V17c0-5.799 4.701-10.5 10.5-10.5Z" stroke="#BADED1" stroke-width="3"/><path d="m49.193 104-2.497-8.727h2.016l1.444 6.064h.073l1.594-6.064h1.725l1.59 6.076h.077l1.444-6.076h2.016L56.178 104h-1.799l-1.661-5.706h-.069L50.992 104h-1.799Zm16.155-8.727V104h-1.846v-8.727h1.846Zm12.657 0V104h-1.593l-3.797-5.493h-.064V104h-1.845v-8.727h1.619l3.767 5.488h.077v-5.488h1.836Zm5.032 1.521v-1.521h7.168v1.521h-2.672V104H85.71v-7.206h-2.672ZM95.226 104v-8.727h5.88v1.521h-4.035v2.08h3.733v1.521h-3.733v2.084h4.052V104h-5.897Zm11.187 0v-8.727h3.443c.659 0 1.222.118 1.688.353.469.233.825.564 1.069.993.248.427.371.928.371 1.505 0 .58-.125 1.078-.375 1.495-.25.415-.612.733-1.086.955-.472.221-1.043.332-1.713.332h-2.306v-1.483h2.007c.352 0 .645-.048.878-.145.233-.096.406-.241.52-.434.116-.193.175-.433.175-.72 0-.29-.059-.534-.175-.733a1.072 1.072 0 0 0-.524-.452c-.233-.105-.527-.158-.882-.158h-1.245V104h-1.845Zm4.713-3.972 2.169 3.972h-2.037l-2.122-3.972h1.99Z" fill="#fff"/><path d="M71.775 128.774c0 .355.018.644.056.868.046.215.14.383.28.504.14.112.336.191.588.238.261.047.602.075 1.022.084V131h-4.956v-.532c.326-.009.588-.037.784-.084a.959.959 0 0 0 .476-.238.877.877 0 0 0 .224-.476c.037-.205.056-.471.056-.798v-6.524c0-.327-.019-.588-.056-.784-.028-.205-.094-.364-.196-.476a.673.673 0 0 0-.42-.238 4.172 4.172 0 0 0-.728-.098v-.532h8.092l.154 2.674h-.49c-.056-.401-.145-.728-.266-.98a1.461 1.461 0 0 0-.518-.616c-.215-.149-.49-.252-.826-.308a6.792 6.792 0 0 0-1.26-.098h-1.778c-.159 0-.238.079-.238.238v4.228c.448 0 .83-.023 1.148-.07.326-.056.592-.149.798-.28a1.29 1.29 0 0 0 .49-.532c.112-.224.182-.513.21-.868h.49v4.102h-.49a3.27 3.27 0 0 0-.224-.882 1.21 1.21 0 0 0-.462-.546c-.196-.131-.453-.224-.77-.28a7.024 7.024 0 0 0-1.19-.084v2.856Zm10.119-1.918a13.05 13.05 0 0 0-1.358.602 4.805 4.805 0 0 0-.882.588 2.101 2.101 0 0 0-.49.588c-.094.196-.14.397-.14.602 0 .308.102.56.308.756.205.196.476.294.812.294a1.3 1.3 0 0 0 .672-.182c.215-.121.401-.285.56-.49.158-.215.284-.462.378-.742.093-.289.14-.593.14-.91v-1.106Zm0-.602v-.574c0-1.139-.486-1.708-1.456-1.708-.159 0-.294.014-.406.042a.665.665 0 0 0-.28.14.994.994 0 0 0-.21.28 3.858 3.858 0 0 0-.168.448c-.103.271-.206.453-.308.546-.094.084-.234.126-.42.126-.467 0-.7-.233-.7-.7 0-.448.238-.793.714-1.036.476-.252 1.153-.378 2.03-.378.933 0 1.596.168 1.988.504.392.327.588.887.588 1.68v3.136c0 1.064.21 1.596.63 1.596.13 0 .257-.014.378-.042a.556.556 0 0 0 .308-.266l.196.336c-.112.215-.318.397-.616.546-.299.14-.612.21-.938.21-.41 0-.719-.131-.924-.392-.196-.261-.294-.63-.294-1.106h-.07a2.846 2.846 0 0 1-1.008 1.092 2.7 2.7 0 0 1-1.428.392c-.588 0-1.05-.149-1.386-.448-.336-.299-.504-.7-.504-1.204 0-.224.037-.439.112-.644.084-.205.215-.401.392-.588a3.42 3.42 0 0 1 .7-.546 7.93 7.93 0 0 1 1.064-.56l2.016-.882Zm5.792 2.562c0 .355.014.639.042.854.028.215.084.383.168.504.093.121.22.205.378.252.168.047.387.075.658.084v.49h-3.864v-.49c.28-.009.504-.037.672-.084a.842.842 0 0 0 .392-.252.842.842 0 0 0 .196-.462c.037-.205.056-.471.056-.798v-6.034c0-.504-.01-.924-.028-1.26-.01-.345-.028-.579-.056-.7-.047-.215-.159-.359-.336-.434-.168-.075-.476-.112-.924-.112v-.476l2.646-.518v9.436Zm4.552 0c0 .355.014.639.043.854.027.215.084.383.167.504.094.121.22.205.379.252.168.047.387.075.657.084v.49h-3.863v-.49c.28-.009.504-.037.672-.084a.842.842 0 0 0 .391-.252.841.841 0 0 0 .197-.462c.037-.205.055-.471.055-.798v-6.034c0-.504-.009-.924-.028-1.26-.009-.345-.028-.579-.055-.7-.047-.215-.16-.359-.337-.434-.168-.075-.476-.112-.924-.112v-.476l2.647-.518v9.436Zm-26.213 18.812h2.786c.224 0 .42-.019.588-.056a1.08 1.08 0 0 0 .448-.252c.13-.121.248-.285.35-.49a6.3 6.3 0 0 0 .308-.812h.518L70.491 149h-6.51v-.462a49.204 49.204 0 0 0 2.618-2.492c.69-.719 1.232-1.363 1.624-1.932.392-.569.663-1.092.812-1.568a4.97 4.97 0 0 0 .224-1.47c0-.728-.172-1.302-.518-1.722-.336-.42-.798-.63-1.386-.63-.56 0-1.017.182-1.372.546-.345.364-.518.835-.518 1.414 0 .504.136.905.406 1.204.28.299.658.448 1.134.448a.872.872 0 0 1-.364.546c-.196.131-.438.196-.728.196a1.72 1.72 0 0 1-.728-.154 1.831 1.831 0 0 1-.574-.434 2.17 2.17 0 0 1-.378-.658 2.776 2.776 0 0 1-.126-.854c0-.42.089-.807.266-1.162a2.76 2.76 0 0 1 .728-.91 3.46 3.46 0 0 1 1.092-.616c.43-.149.892-.224 1.386-.224.495 0 .948.075 1.358.224.41.149.766.359 1.064.63.299.271.528.593.686.966.168.364.252.77.252 1.218a4 4 0 0 1-.392 1.708 7.427 7.427 0 0 1-1.05 1.638c-.448.532-.97 1.059-1.568 1.582a33.78 33.78 0 0 1-1.918 1.526l.014.07Zm10.881-9.548c.57 0 1.106.145 1.61.434a4.29 4.29 0 0 1 1.316 1.19 5.95 5.95 0 0 1 .882 1.778c.224.681.336 1.419.336 2.212 0 .756-.112 1.465-.336 2.128a5.847 5.847 0 0 1-.882 1.736 4.444 4.444 0 0 1-1.316 1.162c-.504.28-1.04.42-1.61.42-.57 0-1.106-.14-1.61-.42a4.444 4.444 0 0 1-1.316-1.162 6.1 6.1 0 0 1-.896-1.736 6.865 6.865 0 0 1-.322-2.128c0-.793.108-1.531.322-2.212a6.237 6.237 0 0 1 .896-1.778 4.29 4.29 0 0 1 1.316-1.19 3.186 3.186 0 0 1 1.61-.434Zm0 10.388c.364 0 .686-.075.966-.224.29-.149.532-.406.728-.77.206-.364.36-.849.462-1.456.112-.607.168-1.367.168-2.282 0-.952-.056-1.745-.168-2.38-.102-.635-.252-1.143-.448-1.526-.196-.392-.439-.667-.728-.826a1.915 1.915 0 0 0-.98-.252c-.364 0-.69.084-.98.252-.29.159-.532.434-.728.826-.196.383-.35.891-.462 1.526-.103.635-.154 1.428-.154 2.38 0 .915.052 1.675.154 2.282.112.607.266 1.092.462 1.456.196.364.439.621.728.77.29.149.616.224.98.224Zm7.74-.84h2.786c.224 0 .42-.019.588-.056.168-.047.318-.131.448-.252.131-.121.248-.285.35-.49a6.27 6.27 0 0 0 .308-.812h.518L89.112 149h-6.51v-.462a49.166 49.166 0 0 0 2.618-2.492c.691-.719 1.232-1.363 1.624-1.932.392-.569.663-1.092.812-1.568.15-.485.224-.975.224-1.47 0-.728-.172-1.302-.518-1.722-.336-.42-.798-.63-1.386-.63-.56 0-1.017.182-1.372.546-.345.364-.518.835-.518 1.414 0 .504.136.905.406 1.204.28.299.658.448 1.134.448a.872.872 0 0 1-.364.546c-.196.131-.438.196-.728.196-.261 0-.504-.051-.728-.154a1.832 1.832 0 0 1-.574-.434 2.174 2.174 0 0 1-.378-.658 2.776 2.776 0 0 1-.126-.854c0-.42.089-.807.266-1.162a2.76 2.76 0 0 1 .728-.91 3.46 3.46 0 0 1 1.092-.616 4.2 4.2 0 0 1 1.386-.224c.495 0 .948.075 1.358.224.411.149.766.359 1.064.63.299.271.528.593.686.966.168.364.252.77.252 1.218a4 4 0 0 1-.392 1.708 7.427 7.427 0 0 1-1.05 1.638c-.448.532-.97 1.059-1.568 1.582a33.71 33.71 0 0 1-1.918 1.526l.014.07Zm6.135-1.834 4.928-7.714h.434v7.742c.29-.009.518-.028.686-.056.178-.037.308-.098.392-.182a.685.685 0 0 0 .182-.378c.028-.168.042-.387.042-.658h.49v3.122h-.49a3.67 3.67 0 0 0-.042-.616.615.615 0 0 0-.182-.364c-.084-.093-.214-.154-.392-.182a3.889 3.889 0 0 0-.686-.07v.294c0 .364.014.658.042.882.028.224.08.401.154.532a.651.651 0 0 0 .336.252c.15.047.341.07.574.07V149h-3.934v-.532c.308 0 .556-.023.742-.07a.816.816 0 0 0 .448-.252 1.04 1.04 0 0 0 .21-.504 4.8 4.8 0 0 0 .056-.812v-.336h-3.99v-.7Zm3.99-4.984h-.07l-3.22 4.984h3.29v-4.984ZM32.932 48.809a9.55 9.55 0 0 0 1.53-.102c.42-.08.748-.198.986-.357.25-.159.425-.363.527-.612.114-.25.17-.544.17-.884h.595v4.641h-.595c0-.34-.05-.635-.153-.884a1.2 1.2 0 0 0-.51-.612c-.238-.17-.566-.295-.986-.374-.408-.09-.93-.136-1.564-.136v3.842c0 .374.045.686.136.935.09.238.244.436.46.595.226.147.52.255.883.323.363.057.81.085 1.343.085.6 0 1.11-.04 1.53-.119.42-.09.77-.238 1.054-.442.283-.204.51-.47.68-.799.17-.34.312-.76.425-1.258h.646L39.834 56H29.277v-.646c.397-.011.714-.045.952-.102.25-.057.442-.153.578-.289.136-.136.227-.329.272-.578.046-.25.068-.572.068-.969v-7.922a5.24 5.24 0 0 0-.068-.952c-.034-.25-.113-.442-.238-.578-.113-.147-.283-.244-.51-.289a5.066 5.066 0 0 0-.884-.119v-.646h9.826l.153 2.992h-.595c-.068-.453-.181-.822-.34-1.105a1.702 1.702 0 0 0-.629-.697c-.26-.17-.595-.289-1.003-.357a9.162 9.162 0 0 0-1.479-.102h-2.159c-.192 0-.289.096-.289.289v4.879Zm13.508 2.159c-.646.25-1.195.493-1.649.731a5.835 5.835 0 0 0-1.07.714 2.544 2.544 0 0 0-.596.714c-.113.238-.17.482-.17.731 0 .374.125.68.374.918.25.238.578.357.986.357.295 0 .567-.074.816-.221a2.26 2.26 0 0 0 .68-.595 3.21 3.21 0 0 0 .46-.901c.112-.351.17-.72.17-1.105v-1.343Zm0-.731v-.697c0-1.383-.59-2.074-1.768-2.074a2.06 2.06 0 0 0-.493.051.803.803 0 0 0-.34.17 1.21 1.21 0 0 0-.255.34 4.685 4.685 0 0 0-.204.544c-.125.329-.25.55-.374.663-.113.102-.283.153-.51.153-.567 0-.85-.283-.85-.85 0-.544.29-.963.867-1.258.578-.306 1.4-.459 2.465-.459 1.133 0 1.938.204 2.414.612.476.397.714 1.077.714 2.04v3.808c0 1.292.255 1.938.765 1.938.159 0 .312-.017.46-.051.146-.045.271-.153.373-.323l.238.408c-.136.26-.385.482-.748.663-.363.17-.742.255-1.139.255-.498 0-.873-.159-1.122-.476-.238-.317-.357-.765-.357-1.343h-.085a3.448 3.448 0 0 1-1.224 1.326 3.27 3.27 0 0 1-1.734.476c-.714 0-1.275-.181-1.683-.544-.408-.363-.612-.85-.612-1.462 0-.272.045-.533.136-.782.102-.25.26-.487.476-.714.215-.227.499-.448.85-.663a9.583 9.583 0 0 1 1.292-.68l2.448-1.071ZM51.042 56h-.374v-2.924h.425c.442 1.598 1.247 2.397 2.414 2.397.454 0 .81-.108 1.071-.323.272-.227.408-.567.408-1.02a.946.946 0 0 0-.085-.425.929.929 0 0 0-.289-.374 3.777 3.777 0 0 0-.595-.459c-.25-.17-.584-.385-1.003-.646-.385-.238-.72-.459-1.003-.663a4.996 4.996 0 0 1-.714-.612 2.494 2.494 0 0 1-.442-.68 2.333 2.333 0 0 1-.136-.833c0-.385.063-.737.187-1.054a2.395 2.395 0 0 1 1.343-1.36 2.44 2.44 0 0 1 1.003-.204c.306 0 .623.051.952.153.329.09.618.215.867.374l.34-.357h.323v2.448h-.442c-.25-.691-.521-1.184-.816-1.479a1.479 1.479 0 0 0-1.088-.442c-.385 0-.697.102-.935.306-.227.204-.34.487-.34.85 0 .193.029.363.085.51.068.136.17.272.306.408.136.136.306.278.51.425.215.136.47.295.765.476.487.306.901.578 1.241.816.351.238.635.476.85.714.216.227.374.465.476.714.102.25.153.533.153.85 0 .805-.26 1.44-.782 1.904-.521.453-1.207.68-2.057.68-.884 0-1.643-.255-2.278-.765l-.34.595Zm9.794-2.703c0 .442.017.799.05 1.071.046.26.126.47.239.629.113.147.272.25.476.306.204.057.476.09.816.102V56h-4.88v-.595c.34-.011.619-.045.834-.102.215-.068.38-.17.493-.306.125-.147.204-.346.238-.595.045-.26.068-.59.068-.986V51.24c0-.657-.011-1.196-.034-1.615-.011-.43-.04-.725-.085-.884-.057-.26-.187-.436-.391-.527-.204-.102-.59-.153-1.156-.153v-.595l3.332-.646v6.477Zm-1.955-9.928c0-.295.102-.544.306-.748.204-.204.453-.306.748-.306s.544.102.748.306c.204.204.306.453.306.748s-.102.544-.306.748a1.017 1.017 0 0 1-.748.306c-.295 0-.544-.102-.748-.306a1.017 1.017 0 0 1-.306-.748Zm12.407 11.05c-.963 1.167-2.16 1.751-3.587 1.751a4.905 4.905 0 0 1-1.82-.323 4.322 4.322 0 0 1-1.41-.935 4.391 4.391 0 0 1-.901-1.445 5.226 5.226 0 0 1-.323-1.87 5.3 5.3 0 0 1 .34-1.921 4.41 4.41 0 0 1 .952-1.513c.42-.42.912-.748 1.479-.986a4.908 4.908 0 0 1 1.887-.357c1.1 0 1.95.3 2.55.901.6.59.9 1.44.9 2.55 0 .159-.033.255-.101.289-.057.034-.198.051-.425.051h-5.593c-.023.09-.04.204-.051.34a4.753 4.753 0 0 0-.017.425c0 .59.068 1.128.204 1.615.147.476.351.884.612 1.224.272.34.59.606.952.799.374.181.788.272 1.24.272.477 0 .919-.102 1.327-.306.408-.215.827-.561 1.258-1.037l.527.476Zm-2.805-4.59c.227 0 .408-.006.544-.017a.875.875 0 0 0 .306-.068.265.265 0 0 0 .136-.136.816.816 0 0 0 .034-.255c0-.521-.17-.935-.51-1.241-.329-.317-.782-.476-1.36-.476-1.224 0-1.983.731-2.278 2.193h3.128ZM73.28 56h-.374v-2.924h.425c.442 1.598 1.247 2.397 2.414 2.397.453 0 .81-.108 1.071-.323.272-.227.408-.567.408-1.02a.946.946 0 0 0-.085-.425.929.929 0 0 0-.289-.374 3.777 3.777 0 0 0-.595-.459c-.25-.17-.584-.385-1.003-.646-.385-.238-.72-.459-1.003-.663a4.996 4.996 0 0 1-.714-.612 2.494 2.494 0 0 1-.442-.68 2.333 2.333 0 0 1-.136-.833c0-.385.062-.737.187-1.054a2.395 2.395 0 0 1 1.343-1.36 2.44 2.44 0 0 1 1.003-.204c.306 0 .623.051.952.153.329.09.618.215.867.374l.34-.357h.323v2.448h-.442c-.25-.691-.521-1.184-.816-1.479a1.479 1.479 0 0 0-1.088-.442c-.385 0-.697.102-.935.306-.227.204-.34.487-.34.85 0 .193.028.363.085.51.068.136.17.272.306.408.136.136.306.278.51.425.215.136.47.295.765.476.487.306.901.578 1.241.816.351.238.635.476.85.714.215.227.374.465.476.714.102.25.153.533.153.85 0 .805-.26 1.44-.782 1.904-.521.453-1.207.68-2.057.68-.884 0-1.643-.255-2.278-.765l-.34.595Zm6.598-7.939v-.629c.6-.351 1.07-.703 1.41-1.054.34-.351.601-.77.783-1.258h.493v2.142h2.278v.799h-2.278v5.168c0 .397.017.731.05 1.003.046.272.114.493.205.663.09.159.21.272.357.34s.334.102.56.102c.284 0 .522-.057.715-.17.204-.125.402-.329.595-.612l.425.323c-.159.42-.437.742-.833.969-.386.215-.867.323-1.445.323-.748 0-1.32-.176-1.717-.527-.386-.363-.578-.878-.578-1.547v-6.035h-1.02Zm10.625 0v-.629c.601-.351 1.071-.703 1.411-1.054.34-.351.601-.77.782-1.258h.493v2.142h2.278v.799H93.19v5.168c0 .397.017.731.051 1.003.046.272.114.493.204.663.091.159.21.272.357.34.148.068.335.102.561.102.284 0 .522-.057.714-.17.204-.125.403-.329.595-.612l.425.323a1.83 1.83 0 0 1-.833.969c-.385.215-.867.323-1.445.323-.748 0-1.32-.176-1.717-.527-.385-.363-.578-.878-.578-1.547v-6.035h-1.02Zm10.93-1.241c.646 0 1.258.119 1.836.357a4.629 4.629 0 0 1 1.513.952 4.34 4.34 0 0 1 1.037 1.462 4.26 4.26 0 0 1 .391 1.836c0 .691-.13 1.326-.391 1.904a4.481 4.481 0 0 1-1.037 1.496c-.43.42-.935.748-1.513.986a4.775 4.775 0 0 1-1.836.357 4.938 4.938 0 0 1-1.819-.34 4.772 4.772 0 0 1-1.496-.986 4.64 4.64 0 0 1-1.02-1.496 4.88 4.88 0 0 1-.374-1.921c0-.669.125-1.286.374-1.853.25-.567.59-1.054 1.02-1.462a4.68 4.68 0 0 1 1.496-.952 4.938 4.938 0 0 1 1.819-.34Zm0 .816c-.419 0-.804.09-1.156.272a2.62 2.62 0 0 0-.884.782 3.84 3.84 0 0 0-.56 1.207c-.126.465-.188.98-.188 1.547 0 .59.063 1.122.187 1.598.136.476.323.884.561 1.224a2.7 2.7 0 0 0 .884.765c.34.181.726.272 1.156.272.431 0 .822-.09 1.173-.272.352-.181.652-.442.901-.782.25-.34.442-.748.578-1.224a5.745 5.745 0 0 0 .204-1.581c0-.567-.068-1.082-.204-1.547a3.626 3.626 0 0 0-.578-1.19c-.249-.34-.549-.6-.901-.782a2.397 2.397 0 0 0-1.173-.289Zm18.027 6.936h-.068c-.408.578-.844.992-1.309 1.241-.453.238-.992.357-1.615.357a4.595 4.595 0 0 1-1.785-.34 4.464 4.464 0 0 1-1.394-.969 4.756 4.756 0 0 1-.918-1.496 5.372 5.372 0 0 1-.323-1.887c0-.669.108-1.286.323-1.853a4.55 4.55 0 0 1 .918-1.479c.397-.42.867-.742 1.411-.969a4.361 4.361 0 0 1 1.768-.357c.544 0 1.026.09 1.445.272.431.181.844.47 1.241.867v-1.734c0-.646-.011-1.184-.034-1.615-.011-.43-.034-.725-.068-.884-.057-.25-.215-.425-.476-.527-.261-.102-.686-.153-1.275-.153v-.51l3.485-.646v9.809c0 .782.006 1.428.017 1.938.011.499.045.856.102 1.071a1.7 1.7 0 0 0 .119.34c.057.09.13.164.221.221.102.045.232.08.391.102.17.023.385.034.646.034v.578l-2.822.187v-1.598Zm-.34-3.757c0-.59-.034-1.037-.102-1.343a1.78 1.78 0 0 0-.357-.799 2.406 2.406 0 0 0-1.003-.765 2.842 2.842 0 0 0-1.19-.272c-.816 0-1.439.34-1.87 1.02-.419.669-.629 1.581-.629 2.737 0 .6.051 1.145.153 1.632.113.487.272.907.476 1.258.215.34.476.606.782.799.317.181.68.272 1.088.272.204 0 .408-.023.612-.068.215-.045.419-.113.612-.204.204-.102.391-.215.561-.34a2.02 2.02 0 0 0 .425-.459c.159-.25.272-.55.34-.901s.102-.833.102-1.445v-1.122Zm8.769-3.995c.646 0 1.258.119 1.836.357a4.64 4.64 0 0 1 1.513.952c.442.408.787.895 1.037 1.462.26.555.391 1.167.391 1.836a4.59 4.59 0 0 1-.391 1.904 4.496 4.496 0 0 1-1.037 1.496c-.431.42-.935.748-1.513.986a4.775 4.775 0 0 1-1.836.357 4.936 4.936 0 0 1-1.819-.34 4.761 4.761 0 0 1-1.496-.986 4.602 4.602 0 0 1-1.02-1.496 4.868 4.868 0 0 1-.374-1.921c0-.669.124-1.286.374-1.853a4.457 4.457 0 0 1 1.02-1.462 4.67 4.67 0 0 1 1.496-.952 4.936 4.936 0 0 1 1.819-.34Zm0 .816c-.42 0-.805.09-1.156.272a2.62 2.62 0 0 0-.884.782 3.84 3.84 0 0 0-.561 1.207c-.125.465-.187.98-.187 1.547 0 .59.062 1.122.187 1.598.136.476.323.884.561 1.224.249.329.544.584.884.765.34.181.725.272 1.156.272.43 0 .821-.09 1.173-.272.351-.181.651-.442.901-.782.249-.34.442-.748.578-1.224a5.745 5.745 0 0 0 .204-1.581c0-.567-.068-1.082-.204-1.547a3.646 3.646 0 0 0-.578-1.19c-.25-.34-.55-.6-.901-.782a2.402 2.402 0 0 0-1.173-.289ZM28.388 69.447c0 .43.063.827.187 1.19a3 3 0 0 0 .51.918c.227.25.493.448.8.595.317.147.657.221 1.02.221.396 0 .753-.09 1.07-.272a2.42 2.42 0 0 0 .833-.765c.238-.34.42-.742.544-1.207a5.745 5.745 0 0 0 .204-1.581c0-.578-.068-1.105-.204-1.581a4.043 4.043 0 0 0-.56-1.241 2.582 2.582 0 0 0-.868-.816 2.112 2.112 0 0 0-1.088-.289c-.464 0-.878.113-1.24.34a2.112 2.112 0 0 0-.834.918c-.25.499-.374 1.184-.374 2.057v1.513Zm-.034-4.25h.068c.363-.476.76-.822 1.19-1.037.442-.227.952-.34 1.53-.34.612 0 1.179.119 1.7.357.533.238.992.567 1.377.986.397.42.703.918.918 1.496a4.9 4.9 0 0 1 .34 1.836c0 .669-.113 1.292-.34 1.87a4.63 4.63 0 0 1-.935 1.479c-.385.42-.844.748-1.377.986a4.202 4.202 0 0 1-1.734.357 4.649 4.649 0 0 1-1.819-.357 3.825 3.825 0 0 1-1.377-.969L27.096 73h-.374V62.732c0-1.145-.073-1.876-.22-2.193a.591.591 0 0 0-.12-.187.461.461 0 0 0-.204-.136 1.621 1.621 0 0 0-.374-.119 7.939 7.939 0 0 0-.646-.102v-.425l3.196-.68v6.307ZM43.83 66.71c0-.465-.011-.827-.034-1.088-.022-.272-.085-.476-.187-.612a.647.647 0 0 0-.425-.289 4.111 4.111 0 0 0-.765-.136v-.595h3.077v5.219c0 .646.006 1.173.017 1.581.023.408.051.714.085.918.023.147.057.266.102.357a.71.71 0 0 0 .238.204c.102.045.233.08.391.102.17.011.386.017.646.017v.595l-2.805.204-.187-2.04h-.068c-.43.703-.929 1.218-1.496 1.547a3.478 3.478 0 0 1-1.75.476c-.477 0-.941-.09-1.395-.272-.442-.181-.776-.425-1.003-.731-.192-.25-.334-.595-.425-1.037-.079-.442-.119-1.014-.119-1.717V66.71c0-.465-.011-.827-.034-1.088-.022-.272-.085-.476-.187-.612a.647.647 0 0 0-.425-.289 4.111 4.111 0 0 0-.765-.136v-.595h3.077v4.641c0 1.235.142 2.13.425 2.686.295.555.76.833 1.394.833.998 0 1.774-.652 2.33-1.955a3.054 3.054 0 0 0 .221-.748 4.85 4.85 0 0 0 .05-.459 8.94 8.94 0 0 0 .017-.612V66.71ZM48.47 73h-.374v-2.924h.425c.442 1.598 1.247 2.397 2.414 2.397.453 0 .81-.108 1.071-.323.272-.227.408-.567.408-1.02a.947.947 0 0 0-.085-.425.93.93 0 0 0-.289-.374 3.782 3.782 0 0 0-.595-.459c-.25-.17-.584-.385-1.003-.646a17.18 17.18 0 0 1-1.003-.663 4.985 4.985 0 0 1-.714-.612 2.494 2.494 0 0 1-.442-.68 2.333 2.333 0 0 1-.136-.833c0-.385.062-.737.187-1.054a2.394 2.394 0 0 1 1.343-1.36 2.44 2.44 0 0 1 1.003-.204c.306 0 .623.051.952.153.329.09.618.215.867.374l.34-.357h.323v2.448h-.442c-.25-.691-.521-1.184-.816-1.479a1.479 1.479 0 0 0-1.088-.442c-.385 0-.697.102-.935.306-.227.204-.34.487-.34.85 0 .193.028.363.085.51.068.136.17.272.306.408.136.136.306.278.51.425.215.136.47.295.765.476.487.306.901.578 1.241.816.351.238.635.476.85.714.215.227.374.465.476.714.102.25.153.533.153.85 0 .805-.26 1.44-.782 1.904-.521.453-1.207.68-2.057.68-.884 0-1.643-.255-2.278-.765l-.34.595Zm9.794-2.703c0 .442.017.799.05 1.071.046.26.125.47.239.629.113.147.272.25.476.306.204.057.476.09.816.102V73h-4.88v-.595c.34-.011.618-.045.834-.102.215-.068.38-.17.493-.306.124-.147.204-.346.238-.595.045-.26.068-.59.068-.986V68.24c0-.657-.012-1.196-.034-1.615-.012-.43-.04-.725-.085-.884-.057-.26-.187-.436-.391-.527-.204-.102-.59-.153-1.156-.153v-.595l3.332-.646v6.477Zm-1.955-9.928c0-.295.102-.544.306-.748.204-.204.453-.306.748-.306.294 0 .544.102.748.306.204.204.306.453.306.748s-.102.544-.306.748a1.017 1.017 0 0 1-.748.306c-.295 0-.544-.102-.748-.306a1.017 1.017 0 0 1-.306-.748Zm7.205 9.962c0 .465.011.833.034 1.105.022.26.079.465.17.612a.734.734 0 0 0 .425.272c.192.045.453.08.782.102V73H60.47v-.578c.317-.023.566-.057.748-.102a.742.742 0 0 0 .442-.272c.102-.136.164-.329.187-.578.034-.25.05-.59.05-1.02v-2.261c0-1.349-.033-2.17-.101-2.465a1.175 1.175 0 0 0-.136-.357.421.421 0 0 0-.221-.221.94.94 0 0 0-.391-.102 4.472 4.472 0 0 0-.612-.034v-.544l2.72-.646.204 1.683h.068c.43-.533.935-.946 1.513-1.241a4.094 4.094 0 0 1 1.887-.442c.521 0 .997.085 1.428.255.43.17.759.402.986.697.192.26.328.6.408 1.02.079.408.119.975.119 1.7v2.839c0 .465.011.833.034 1.105.034.26.096.465.187.612a.66.66 0 0 0 .408.272c.192.045.442.08.748.102V73h-4.403v-.578c.317-.011.566-.04.748-.085a.737.737 0 0 0 .425-.289c.102-.136.164-.329.187-.578a8.2 8.2 0 0 0 .05-1.02v-2.244c0-.646-.033-1.19-.101-1.632-.068-.442-.182-.799-.34-1.071a1.273 1.273 0 0 0-.595-.578c-.25-.125-.55-.187-.901-.187-.51 0-.98.136-1.411.408-.42.26-.748.623-.986 1.088a8.05 8.05 0 0 0-.153.323 2.374 2.374 0 0 0-.085.357 4.55 4.55 0 0 0-.051.476c-.012.17-.017.391-.017.663v2.278Zm16.582 1.088c-.963 1.167-2.159 1.751-3.587 1.751a4.905 4.905 0 0 1-1.819-.323 4.322 4.322 0 0 1-1.41-.935 4.393 4.393 0 0 1-.902-1.445 5.226 5.226 0 0 1-.323-1.87c0-.691.114-1.332.34-1.921a4.41 4.41 0 0 1 .952-1.513c.42-.42.913-.748 1.48-.986a4.908 4.908 0 0 1 1.886-.357c1.1 0 1.95.3 2.55.901.601.59.901 1.44.901 2.55 0 .159-.034.255-.102.289-.056.034-.198.051-.425.051h-5.593c-.022.09-.04.204-.05.34a4.753 4.753 0 0 0-.018.425c0 .59.068 1.128.204 1.615.148.476.352.884.612 1.224.272.34.59.606.952.799.374.181.788.272 1.241.272.476 0 .918-.102 1.326-.306.408-.215.828-.561 1.258-1.037l.527.476Zm-2.805-4.59c.227 0 .408-.006.544-.017a.875.875 0 0 0 .306-.068.264.264 0 0 0 .136-.136.816.816 0 0 0 .034-.255c0-.521-.17-.935-.51-1.241-.328-.317-.782-.476-1.36-.476-1.224 0-1.983.731-2.278 2.193h3.128ZM82.088 73h-.373v-2.924h.424c.443 1.598 1.247 2.397 2.415 2.397.453 0 .81-.108 1.07-.323.273-.227.409-.567.409-1.02a.947.947 0 0 0-.085-.425.93.93 0 0 0-.29-.374 3.782 3.782 0 0 0-.594-.459c-.25-.17-.584-.385-1.003-.646a17.18 17.18 0 0 1-1.004-.663 4.985 4.985 0 0 1-.713-.612 2.494 2.494 0 0 1-.442-.68 2.333 2.333 0 0 1-.136-.833c0-.385.062-.737.186-1.054a2.394 2.394 0 0 1 1.343-1.36c.306-.136.64-.204 1.004-.204.305 0 .623.051.951.153.33.09.618.215.868.374l.34-.357h.323v2.448h-.443c-.249-.691-.52-1.184-.816-1.479a1.479 1.479 0 0 0-1.088-.442c-.385 0-.697.102-.934.306-.227.204-.34.487-.34.85 0 .193.028.363.085.51.067.136.17.272.305.408.136.136.306.278.51.425.216.136.47.295.766.476.487.306.9.578 1.24.816.352.238.635.476.85.714.216.227.374.465.477.714.102.25.153.533.153.85 0 .805-.261 1.44-.783 1.904-.52.453-1.207.68-2.056.68-.884 0-1.644-.255-2.278-.765l-.34.595Zm7.38 0h-.374v-2.924h.425c.442 1.598 1.247 2.397 2.414 2.397.453 0 .81-.108 1.071-.323.272-.227.408-.567.408-1.02a.946.946 0 0 0-.085-.425.929.929 0 0 0-.289-.374 3.777 3.777 0 0 0-.595-.459c-.25-.17-.584-.385-1.003-.646-.385-.238-.72-.459-1.003-.663a4.996 4.996 0 0 1-.714-.612 2.494 2.494 0 0 1-.442-.68 2.333 2.333 0 0 1-.136-.833c0-.385.063-.737.187-1.054a2.395 2.395 0 0 1 1.343-1.36 2.44 2.44 0 0 1 1.003-.204c.306 0 .624.051.952.153.329.09.618.215.867.374l.34-.357h.323v2.448h-.442c-.25-.691-.521-1.184-.816-1.479a1.479 1.479 0 0 0-1.088-.442c-.385 0-.697.102-.935.306-.227.204-.34.487-.34.85 0 .193.028.363.085.51.068.136.17.272.306.408.136.136.306.278.51.425.216.136.47.295.765.476.487.306.901.578 1.241.816.352.238.635.476.85.714.215.227.374.465.476.714.102.25.153.533.153.85 0 .805-.26 1.44-.782 1.904-.521.453-1.207.68-2.057.68-.884 0-1.643-.255-2.278-.765l-.34.595Zm14.703.17h-.629l-2.21-7.072a6.532 6.532 0 0 0-.289-.765 1.422 1.422 0 0 0-.323-.459.907.907 0 0 0-.442-.221 2.479 2.479 0 0 0-.629-.068v-.595h4.505v.595c-.442 0-.753.051-.935.153-.181.102-.272.278-.272.527 0 .113.017.25.051.408.034.147.08.334.136.561l1.156 4.063h.068l2.499-6.307h.527l2.261 6.307h.068l1.02-2.754.34-.935c.091-.26.159-.476.204-.646.057-.181.097-.329.119-.442.023-.113.034-.221.034-.323 0-.25-.073-.414-.221-.493-.147-.08-.453-.119-.918-.119v-.595h3.4v.595c-.17 0-.317.028-.442.085-.113.045-.232.142-.357.289a3.373 3.373 0 0 0-.357.629c-.124.272-.277.629-.459 1.071l-2.635 6.511h-.629l-2.074-6.273h-.068l-2.499 6.273Zm13.287-2.873c0 .442.017.799.051 1.071.045.26.125.47.238.629.113.147.272.25.476.306.204.057.476.09.816.102V73h-4.879v-.595c.34-.011.618-.045.833-.102.215-.068.38-.17.493-.306.125-.147.204-.346.238-.595.045-.26.068-.59.068-.986V68.24c0-.657-.011-1.196-.034-1.615-.011-.43-.04-.725-.085-.884-.057-.26-.187-.436-.391-.527-.204-.102-.589-.153-1.156-.153v-.595l3.332-.646v6.477Zm-1.955-9.928c0-.295.102-.544.306-.748.204-.204.453-.306.748-.306s.544.102.748.306c.204.204.306.453.306.748s-.102.544-.306.748a1.017 1.017 0 0 1-.748.306c-.295 0-.544-.102-.748-.306a1.017 1.017 0 0 1-.306-.748Zm4.213 4.692v-.629c.601-.351 1.071-.703 1.411-1.054.34-.351.601-.77.782-1.258h.493v2.142h2.278v.799h-2.278v5.168c0 .397.017.731.051 1.003.045.272.113.493.204.663.091.159.21.272.357.34s.334.102.561.102c.283 0 .521-.057.714-.17.204-.125.402-.329.595-.612l.425.323c-.159.42-.436.742-.833.969-.385.215-.867.323-1.445.323-.748 0-1.32-.176-1.717-.527-.385-.363-.578-.878-.578-1.547v-6.035h-1.02Zm8.941 5.236c0 .465.011.833.034 1.105.022.272.079.482.17.629a.732.732 0 0 0 .425.272c.181.045.436.08.765.102V73h-4.522v-.595c.328-.023.589-.057.782-.102a.744.744 0 0 0 .442-.272c.102-.136.164-.329.187-.578.034-.26.051-.606.051-1.037v-7.123c0-.669-.012-1.201-.034-1.598a5.237 5.237 0 0 0-.085-.901.784.784 0 0 0-.119-.323.436.436 0 0 0-.221-.204 1.164 1.164 0 0 0-.408-.119 4.874 4.874 0 0 0-.629-.034v-.578l3.128-.646v6.477h.068c.17-.227.379-.43.629-.612a4.7 4.7 0 0 1 .833-.493c.294-.136.6-.244.918-.323.328-.08.646-.119.952-.119.521 0 .997.09 1.428.272.442.181.782.425 1.02.731.192.26.334.606.425 1.037.09.42.136.992.136 1.717v2.72c0 .465.011.833.034 1.105.022.26.079.465.17.612a.705.705 0 0 0 .425.289c.181.045.436.08.765.102V73h-4.505v-.595c.317-.011.572-.04.765-.085a.74.74 0 0 0 .425-.289c.102-.136.164-.329.187-.578.034-.26.051-.606.051-1.037v-2.142c0-1.27-.148-2.17-.442-2.703-.295-.544-.788-.816-1.479-.816-.533 0-1.02.136-1.462.408a2.87 2.87 0 0 0-1.02 1.122 7.685 7.685 0 0 0-.153.357 2.291 2.291 0 0 0-.085.357 4.54 4.54 0 0 0-.051.476v2.822Z" fill="#222"/><path d="M10 90a2 2 0 0 1 2-2h137a2 2 0 0 1 2 2v21H10V90Z" fill="#45BE8B"/><path d="M28.244 104v-8.727h5.88v1.521H30.09v2.08h3.733v1.521H30.09v2.084h4.053V104h-5.898Zm18.247-8.727V104h-1.593L41.1 98.507h-.064V104h-1.845v-8.727h1.619l3.767 5.488h.077v-5.488h1.836Zm4.793 1.521v-1.521h7.167v1.521H55.78V104h-1.824v-7.206h-2.671ZM63.232 104v-8.727h3.443c.659 0 1.221.118 1.687.353.469.233.826.564 1.07.993.247.427.37.928.37 1.505 0 .58-.124 1.078-.374 1.495-.25.415-.613.733-1.087.955-.472.221-1.043.332-1.713.332h-2.305v-1.483h2.007c.352 0 .645-.048.877-.145.233-.096.407-.241.52-.434.117-.193.175-.433.175-.72 0-.29-.058-.534-.175-.733a1.071 1.071 0 0 0-.524-.452c-.233-.105-.527-.158-.882-.158h-1.244V104h-1.845Zm4.713-3.972L70.114 104h-2.037l-2.122-3.972h1.99ZM74.707 104v-8.727h5.88v1.521h-4.035v2.08h3.733v1.521h-3.733v2.084h4.052V104h-5.897Zm10.947 0v-8.727h3.443c.662 0 1.226.126 1.692.379.466.25.821.598 1.066 1.044.247.443.37.955.37 1.534 0 .58-.125 1.091-.375 1.534-.25.443-.612.789-1.086 1.036-.472.247-1.043.37-1.713.37h-2.195v-1.478h1.896c.355 0 .648-.061.878-.183.233-.126.406-.297.52-.516.116-.222.175-.476.175-.763 0-.29-.059-.543-.175-.758a1.167 1.167 0 0 0-.52-.507c-.233-.123-.528-.184-.886-.184h-1.245V104h-1.845Zm11.37 0v-8.727h3.443c.659 0 1.222.118 1.687.353.469.233.826.564 1.07.993.247.427.371.928.371 1.505 0 .58-.125 1.078-.375 1.495-.25.415-.612.733-1.087.955-.471.221-1.042.332-1.713.332h-2.305v-1.483h2.007c.352 0 .645-.048.878-.145.233-.096.406-.241.519-.434.117-.193.175-.433.175-.72 0-.29-.058-.534-.175-.733a1.068 1.068 0 0 0-.524-.452c-.233-.105-.527-.158-.882-.158h-1.244V104h-1.845Zm4.713-3.972 2.169 3.972h-2.037l-2.122-3.972h1.99Zm8.607-4.755V104h-1.845v-8.727h1.845Zm9.852 2.51a1.08 1.08 0 0 0-.439-.802c-.258-.19-.609-.285-1.052-.285-.301 0-.555.043-.763.128a1.075 1.075 0 0 0-.477.345.83.83 0 0 0-.162.503.716.716 0 0 0 .098.409c.074.116.175.217.303.302.127.083.275.155.443.218.167.06.346.11.537.153l.784.188c.38.085.73.199 1.048.34.318.143.594.317.827.525.233.207.413.452.541.733.131.281.197.603.2.967-.003.534-.139.997-.409 1.389-.267.39-.653.692-1.159.908-.503.213-1.109.32-1.82.32-.704 0-1.318-.108-1.84-.324-.52-.216-.927-.536-1.219-.959-.29-.426-.442-.953-.456-1.581h1.785c.02.293.104.537.252.733.15.193.351.339.601.439.252.096.538.145.856.145.313 0 .584-.046.814-.137.233-.091.413-.217.541-.379a.875.875 0 0 0 .192-.558.721.721 0 0 0-.175-.494 1.304 1.304 0 0 0-.503-.341 5.09 5.09 0 0 0-.805-.256l-.95-.239c-.736-.179-1.317-.459-1.743-.84-.426-.38-.638-.893-.635-1.537-.003-.529.138-.99.422-1.386.287-.394.68-.703 1.18-.924.5-.222 1.068-.333 1.705-.333.647 0 1.213.111 1.696.333.486.221.863.53 1.133.924.27.395.409.853.418 1.373h-1.769Zm6.729 6.217v-8.727h5.881v1.521h-4.036v2.08h3.733v1.521h-3.733v2.084h4.053V104h-5.898Z" fill="#fff"/><path d="M94.329 25.087 81.992 32.1a3 3 0 0 1-2.974-.005l-12.51-7.167A3 3 0 0 1 65 22.325V3a3 3 0 0 1 3-3h24.846a3 3 0 0 1 3 3v19.48a3 3 0 0 1-1.517 2.607Z" fill="#FF492C"/><path d="M82.442 5.46c-.646-.16-1.292-.16-1.938-.16h-.807c-5.168.161-9.044 4.522-8.883 9.69.162 5.168 4.522 9.044 9.69 8.882a9.79 9.79 0 0 0 5.653-1.776l-2.1-3.553a5.644 5.644 0 0 1-3.553 1.292h-.646c-2.907-.162-5.168-2.746-5.006-5.653.161-2.907 2.745-5.168 5.652-5.006l1.938-3.715Z" fill="#fff"/><path d="m89.548 17.248-2.422-4.037h-4.522l-2.423 4.037h4.684l2.26 3.876 2.423-3.876ZM83.734 9.98c-.322.485-.484 1.131-.484 1.777l4.36.162v-1.13h-2.906c.161-.485.484-.647.969-.97l.484-.323c.969-.323 1.454-.969 1.454-1.776 0-.485-.324-.97-.647-1.292-.323-.323-.968-.485-1.453-.485-.484 0-.969 0-1.453.323-.324.323-.647.646-.808.97l.808.807c.322-.646.807-.97 1.453-.97.323 0 .808.324.808.647s-.162.484-.808.807l-.323.162c-.484.323-1.13.807-1.454 1.292Z" fill="#fff"/><path d="M10 111h5v5l-5-5Zm141 0h-5v5l5-5Z" fill="#237452"/></svg>