<svg width="160" height="176" fill="none" xmlns="http://www.w3.org/2000/svg"><path d="M159.575 114.48a1 1 0 0 1-.854 1.52H141a1 1 0 0 1-1-1V94a1 1 0 0 1 1-1h17.721a1 1 0 0 1 .854 1.52l-5.759 9.46a1.002 1.002 0 0 0 0 1.04l5.759 9.46ZM.925 94.52A1 1 0 0 1 1.78 93H19.5a1 1 0 0 1 1 1v21a1 1 0 0 1-1 1H1.78a1 1 0 0 1-.855-1.52l5.759-9.46a1 1 0 0 0 0-1.04L.925 94.52Z" fill="#DF3F25"/><path d="M15 17c0-6.627 5.373-12 12-12h107c6.627 0 12 5.373 12 12v112.596a12 12 0 0 1-5.825 10.29l-53.953 32.38a12.002 12.002 0 0 1-12.42-.042l-53.047-32.327A12 12 0 0 1 15 129.65V17Z" fill="#FEF6F4"/><path d="M146 45.5 39.923 151.577l-19.168-11.68A12 12 0 0 1 15 129.65V104l99-99h20c6.627 0 12 5.373 12 12v28.5Z" fill="#fff"/><path opacity=".8" d="m55.456 161.044-10.252-6.248L146 54v16.5l-90.543 90.544Z" fill="#fff"/><path d="M27 6.5h107c5.799 0 10.5 4.701 10.5 10.5v112.596c0 3.688-1.935 7.106-5.097 9.004l-53.952 32.379a10.501 10.501 0 0 1-10.868-.036l-53.047-32.327a10.5 10.5 0 0 1-5.036-8.966V17c0-5.799 4.701-10.5 10.5-10.5Z" stroke="#DEB4B2" stroke-width="3"/><path d="M10 90a2 2 0 0 1 2-2h137a2 2 0 0 1 2 2v21H10V90Z" fill="#FF4C2F"/><path d="m49.193 104-2.497-8.727h2.016l1.444 6.064h.073l1.594-6.064h1.725l1.59 6.076h.077l1.444-6.076h2.016L56.178 104h-1.799l-1.661-5.706h-.069L50.992 104h-1.799Zm16.155-8.727V104h-1.846v-8.727h1.846Zm12.657 0V104h-1.593l-3.797-5.493h-.064V104h-1.845v-8.727h1.619l3.767 5.488h.077v-5.488h1.836Zm5.032 1.521v-1.521h7.168v1.521h-2.672V104H85.71v-7.206h-2.672ZM95.226 104v-8.727h5.88v1.521h-4.035v2.08h3.733v1.521h-3.733v2.084h4.052V104h-5.897Zm11.187 0v-8.727h3.443c.659 0 1.222.118 1.688.353.469.233.825.564 1.069.993.248.427.371.928.371 1.505 0 .58-.125 1.078-.375 1.495-.25.415-.612.733-1.086.955-.472.221-1.043.332-1.713.332h-2.306v-1.483h2.007c.352 0 .645-.048.878-.145.233-.096.406-.241.52-.434.116-.193.175-.433.175-.72 0-.29-.059-.534-.175-.733a1.072 1.072 0 0 0-.524-.452c-.233-.105-.527-.158-.882-.158h-1.245V104h-1.845Zm4.713-3.972 2.169 3.972h-2.037l-2.122-3.972h1.99Z" fill="#fff"/><path d="M94.329 25.087 81.992 32.1a3 3 0 0 1-2.974-.005l-12.51-7.167A3 3 0 0 1 65 22.325V3a3 3 0 0 1 3-3h24.846a3 3 0 0 1 3 3v19.48a3 3 0 0 1-1.517 2.607Z" fill="#FF492C"/><path d="M82.442 5.46c-.646-.16-1.292-.16-1.938-.16h-.807c-5.168.161-9.044 4.522-8.883 9.69.162 5.168 4.522 9.044 9.69 8.882a9.79 9.79 0 0 0 5.653-1.776l-2.1-3.553a5.644 5.644 0 0 1-3.553 1.292h-.646c-2.907-.162-5.168-2.746-5.006-5.653.161-2.907 2.745-5.168 5.652-5.006l1.938-3.715Z" fill="#fff"/><path d="m89.548 17.248-2.422-4.037h-4.522l-2.423 4.037h4.684l2.26 3.876 2.423-3.876ZM83.734 9.98c-.322.485-.484 1.131-.484 1.777l4.36.162v-1.13h-2.906c.161-.485.484-.647.969-.97l.484-.323c.969-.323 1.454-.969 1.454-1.776 0-.485-.324-.97-.647-1.292-.323-.323-.968-.485-1.453-.485-.484 0-.969 0-1.453.323-.324.323-.647.646-.808.97l.808.807c.322-.646.807-.97 1.453-.97.323 0 .808.324.808.647s-.162.484-.808.807l-.323.162c-.484.323-1.13.807-1.454 1.292Z" fill="#fff"/><path d="M10 111h5v5l-5-5Zm141 0h-5v5l5-5Z" fill="#BF3721"/><path d="M51.654 70H33.566v-1.064c.654-.019 1.176-.075 1.568-.168.41-.093.728-.252.952-.476.224-.224.374-.541.448-.952.075-.41.112-.943.112-1.596V52.696c0-.653-.037-1.176-.112-1.568-.056-.41-.186-.728-.392-.952-.186-.243-.466-.401-.84-.476-.373-.093-.858-.159-1.456-.196V48.44h8.512v1.064c-.597.019-1.082.075-1.456.168-.354.093-.634.261-.84.504-.186.243-.317.579-.392 1.008-.056.43-.084.999-.084 1.708V64.96c0 .784.075 1.428.224 1.932.168.485.439.868.812 1.148.392.261.906.448 1.54.56.635.093 1.438.14 2.408.14 1.064 0 1.96-.056 2.688-.168.728-.13 1.335-.345 1.82-.644a3.263 3.263 0 0 0 1.176-1.288c.299-.56.55-1.279.756-2.156h1.064L51.654 70Zm15.052-2.604c-1.587 1.923-3.556 2.884-5.908 2.884-1.101 0-2.1-.177-2.996-.532a7.118 7.118 0 0 1-2.324-1.54 7.231 7.231 0 0 1-1.484-2.38c-.355-.933-.532-1.96-.532-3.08 0-1.139.187-2.193.56-3.164a7.267 7.267 0 0 1 1.568-2.492 7.53 7.53 0 0 1 2.436-1.624c.952-.392 1.988-.588 3.108-.588 1.81 0 3.21.495 4.2 1.484.99.97 1.484 2.37 1.484 4.2 0 .261-.056.42-.168.476-.093.056-.327.084-.7.084h-9.212a3.6 3.6 0 0 0-.084.56 7.795 7.795 0 0 0-.028.7c0 .97.112 1.857.336 2.66.243.784.579 1.456 1.008 2.016.448.56.97.999 1.568 1.316a4.622 4.622 0 0 0 2.044.448c.784 0 1.512-.168 2.184-.504.672-.355 1.363-.924 2.072-1.708l.868.784Zm-4.62-7.56c.373 0 .672-.01.896-.028.224-.019.392-.056.504-.112a.436.436 0 0 0 .224-.224c.037-.112.056-.252.056-.42 0-.859-.28-1.54-.84-2.044-.541-.523-1.288-.784-2.24-.784-2.016 0-3.267 1.204-3.752 3.612h5.152Zm15.267 1.876a26.26 26.26 0 0 0-2.716 1.204c-.728.392-1.316.784-1.764 1.176-.448.392-.775.784-.98 1.176-.187.392-.28.793-.28 1.204 0 .616.205 1.12.616 1.512.41.392.952.588 1.624.588.485 0 .933-.121 1.344-.364.43-.243.802-.57 1.12-.98.317-.43.57-.924.756-1.484a5.89 5.89 0 0 0 .28-1.82v-2.212Zm0-1.204V59.36c0-2.277-.97-3.416-2.912-3.416-.317 0-.588.028-.812.084a1.32 1.32 0 0 0-.56.28c-.15.13-.29.317-.42.56a7.717 7.717 0 0 0-.336.896c-.206.541-.41.905-.616 1.092-.187.168-.467.252-.84.252-.933 0-1.4-.467-1.4-1.4 0-.896.476-1.587 1.428-2.072.952-.504 2.305-.756 4.06-.756 1.867 0 3.192.336 3.976 1.008.784.653 1.176 1.773 1.176 3.36v6.272c0 2.128.42 3.192 1.26 3.192.261 0 .513-.028.756-.084.243-.075.448-.252.616-.532l.392.672c-.224.43-.635.793-1.232 1.092-.597.28-1.223.42-1.876.42-.822 0-1.438-.261-1.848-.784-.392-.523-.588-1.26-.588-2.212h-.14a5.68 5.68 0 0 1-2.016 2.184 5.386 5.386 0 0 1-2.856.784c-1.176 0-2.1-.299-2.772-.896-.672-.597-1.008-1.4-1.008-2.408 0-.448.075-.877.224-1.288.168-.41.43-.803.784-1.176.354-.373.821-.737 1.4-1.092a15.798 15.798 0 0 1 2.128-1.12l4.032-1.764Zm18.724 7.14h-.112c-.672.952-1.391 1.633-2.156 2.044-.747.392-1.634.588-2.66.588-1.064 0-2.044-.187-2.94-.56a7.352 7.352 0 0 1-2.296-1.596A7.814 7.814 0 0 1 84.4 65.66c-.355-.952-.532-1.988-.532-3.108 0-1.101.177-2.119.532-3.052.373-.952.877-1.764 1.512-2.436a6.714 6.714 0 0 1 2.324-1.596 7.185 7.185 0 0 1 2.912-.588c.896 0 1.689.15 2.38.448.709.299 1.39.775 2.044 1.428V53.9c0-1.064-.019-1.95-.056-2.66-.019-.71-.056-1.195-.112-1.456-.094-.41-.355-.7-.784-.868-.43-.168-1.13-.252-2.1-.252v-.84l5.74-1.064v16.156c0 1.288.009 2.352.028 3.192.018.821.074 1.41.168 1.764.056.224.121.41.196.56.093.15.214.27.364.364.168.075.382.13.644.168.28.037.634.056 1.064.056v.952l-4.648.308v-2.632Zm-.56-6.188c0-.97-.056-1.708-.168-2.212a2.92 2.92 0 0 0-.588-1.316 3.96 3.96 0 0 0-1.652-1.26 4.68 4.68 0 0 0-1.96-.448c-1.344 0-2.371.56-3.08 1.68-.691 1.101-1.036 2.604-1.036 4.508 0 .99.084 1.885.252 2.688.186.803.448 1.493.784 2.072.354.56.784.999 1.288 1.316.522.299 1.12.448 1.792.448.336 0 .672-.037 1.008-.112.354-.075.69-.187 1.008-.336.336-.168.644-.355.924-.56.28-.224.513-.476.7-.756.261-.41.448-.905.56-1.484.112-.579.168-1.372.168-2.38V61.46Zm19.958 5.936c-1.586 1.923-3.556 2.884-5.908 2.884-1.101 0-2.1-.177-2.996-.532a7.126 7.126 0 0 1-2.324-1.54 7.248 7.248 0 0 1-1.484-2.38c-.354-.933-.532-1.96-.532-3.08 0-1.139.187-2.193.56-3.164.374-.97.896-1.801 1.568-2.492a7.536 7.536 0 0 1 2.436-1.624c.952-.392 1.988-.588 3.108-.588 1.811 0 3.211.495 4.2 1.484.99.97 1.484 2.37 1.484 4.2 0 .261-.056.42-.168.476-.093.056-.326.084-.7.084h-9.212c-.037.15-.065.336-.084.56a8.065 8.065 0 0 0-.028.7c0 .97.112 1.857.336 2.66.243.784.579 1.456 1.008 2.016.448.56.971.999 1.568 1.316a4.624 4.624 0 0 0 2.044.448c.784 0 1.512-.168 2.184-.504.672-.355 1.363-.924 2.072-1.708l.868.784Zm-4.62-7.56c.374 0 .672-.01.896-.028.224-.019.392-.056.504-.112a.435.435 0 0 0 .224-.224c.038-.112.056-.252.056-.42 0-.859-.28-1.54-.84-2.044-.541-.523-1.288-.784-2.24-.784-2.016 0-3.266 1.204-3.752 3.612h5.152Zm11.711 5.712c0 .765.019 1.372.056 1.82.037.448.131.793.28 1.036.168.224.401.373.7.448.299.075.719.13 1.26.168V70h-7.448v-.98c.541-.019.971-.065 1.288-.14.317-.093.56-.252.728-.476.168-.224.271-.541.308-.952.056-.43.084-.999.084-1.708v-3.276c0-1.27-.019-2.259-.056-2.968-.019-.71-.112-1.232-.28-1.568-.149-.336-.392-.532-.728-.588-.336-.075-.803-.112-1.4-.112v-.98l4.9-1.064.392 3.472h.112c.243-.56.541-1.073.896-1.54a6.489 6.489 0 0 1 1.204-1.176 5.474 5.474 0 0 1 1.344-.784 3.81 3.81 0 0 1 1.428-.28c.597 0 1.064.15 1.4.448.355.28.532.663.532 1.148 0 .448-.14.803-.42 1.064-.28.243-.681.364-1.204.364-.299 0-.551-.037-.756-.112a8.81 8.81 0 0 1-.56-.224 5.435 5.435 0 0 0-.448-.252.887.887 0 0 0-.448-.112c-.504 0-1.008.327-1.512.98-.504.635-.896 1.447-1.176 2.436a14.083 14.083 0 0 0-.364 1.848 19.206 19.206 0 0 0-.112 2.128v.952Zm-60.67 72.688h3.582c.288 0 .54-.024.756-.072.216-.06.408-.168.576-.324.168-.156.318-.366.45-.63a8.08 8.08 0 0 0 .396-1.044h.666L67.638 140h-8.37v-.594c1.368-1.224 2.49-2.292 3.366-3.204.888-.924 1.584-1.752 2.088-2.484s.852-1.404 1.044-2.016a6.394 6.394 0 0 0 .288-1.89c0-.936-.222-1.674-.666-2.214-.432-.54-1.026-.81-1.782-.81-.72 0-1.308.234-1.764.702-.444.468-.666 1.074-.666 1.818 0 .648.174 1.164.522 1.548.36.384.846.576 1.458.576-.06.288-.216.522-.468.702-.252.168-.564.252-.936.252a2.22 2.22 0 0 1-.936-.198 2.355 2.355 0 0 1-.738-.558 2.787 2.787 0 0 1-.486-.846 3.57 3.57 0 0 1-.162-1.098c0-.54.114-1.038.342-1.494.228-.456.54-.846.936-1.17a4.45 4.45 0 0 1 1.404-.792 5.388 5.388 0 0 1 1.782-.288c.636 0 1.218.096 1.746.288.528.192.984.462 1.368.81.384.348.678.762.882 1.242.216.468.324.99.324 1.566 0 .744-.168 1.476-.504 2.196a9.568 9.568 0 0 1-1.35 2.106 18.884 18.884 0 0 1-2.016 2.034c-.768.66-1.59 1.314-2.466 1.962l.018.09Zm13.99-12.276c.732 0 1.422.186 2.07.558a5.522 5.522 0 0 1 1.692 1.53c.48.648.858 1.41 1.134 2.286.288.876.432 1.824.432 2.844 0 .972-.144 1.884-.432 2.736-.276.852-.654 1.596-1.134 2.232a5.714 5.714 0 0 1-1.692 1.494c-.648.36-1.338.54-2.07.54-.732 0-1.422-.18-2.07-.54a5.714 5.714 0 0 1-1.692-1.494 7.841 7.841 0 0 1-1.152-2.232 8.826 8.826 0 0 1-.414-2.736c0-1.02.138-1.968.414-2.844.288-.876.672-1.638 1.152-2.286a5.522 5.522 0 0 1 1.692-1.53 4.092 4.092 0 0 1 2.07-.558Zm0 13.356c.468 0 .882-.096 1.242-.288.372-.192.684-.522.936-.99.264-.468.462-1.092.594-1.872.144-.78.216-1.758.216-2.934 0-1.224-.072-2.244-.216-3.06-.132-.816-.324-1.47-.576-1.962-.252-.504-.564-.858-.936-1.062a2.463 2.463 0 0 0-1.26-.324c-.468 0-.888.108-1.26.324-.372.204-.684.558-.936 1.062-.252.492-.45 1.146-.594 1.962-.132.816-.198 1.836-.198 3.06 0 1.176.066 2.154.198 2.934.144.78.342 1.404.594 1.872.252.468.564.798.936.99.372.192.792.288 1.26.288Zm9.952-1.08h3.582c.288 0 .54-.024.756-.072.216-.06.408-.168.576-.324.168-.156.318-.366.45-.63a8.08 8.08 0 0 0 .396-1.044h.666L91.58 140h-8.37v-.594c1.368-1.224 2.49-2.292 3.366-3.204.888-.924 1.584-1.752 2.088-2.484s.852-1.404 1.044-2.016a6.394 6.394 0 0 0 .288-1.89c0-.936-.222-1.674-.666-2.214-.432-.54-1.026-.81-1.782-.81-.72 0-1.308.234-1.764.702-.444.468-.666 1.074-.666 1.818 0 .648.174 1.164.522 1.548.36.384.846.576 1.458.576-.06.288-.216.522-.468.702-.252.168-.564.252-.936.252a2.22 2.22 0 0 1-.936-.198 2.355 2.355 0 0 1-.738-.558 2.787 2.787 0 0 1-.486-.846 3.57 3.57 0 0 1-.162-1.098c0-.54.114-1.038.342-1.494.228-.456.54-.846.936-1.17a4.45 4.45 0 0 1 1.404-.792 5.388 5.388 0 0 1 1.782-.288c.636 0 1.218.096 1.746.288.528.192.984.462 1.368.81.384.348.678.762.882 1.242.216.468.324.99.324 1.566 0 .744-.168 1.476-.504 2.196a9.568 9.568 0 0 1-1.35 2.106 18.884 18.884 0 0 1-2.016 2.034c-.768.66-1.59 1.314-2.466 1.962l.018.09Zm11.127-6.912.036.054c.18-.132.444-.24.792-.324a3.91 3.91 0 0 1 1.044-.144 3.4 3.4 0 0 1 1.476.324c.456.204.846.492 1.17.864.336.372.6.816.792 1.332.192.504.288 1.05.288 1.638 0 .72-.138 1.392-.414 2.016a5.018 5.018 0 0 1-1.116 1.62 5.159 5.159 0 0 1-1.674 1.08 5.346 5.346 0 0 1-2.07.396 5.23 5.23 0 0 1-1.404-.18 4.002 4.002 0 0 1-1.116-.522c-.3-.216-.54-.474-.72-.774a2.093 2.093 0 0 1-.252-1.008c0-.324.072-.576.216-.756.156-.18.372-.27.648-.27.252 0 .438.066.558.198.132.132.234.3.306.504.072.204.138.426.198.666.06.228.144.444.252.648a1.5 1.5 0 0 0 .486.504c.216.132.51.198.882.198.468 0 .888-.108 1.26-.324a2.85 2.85 0 0 0 .936-.954c.252-.42.444-.918.576-1.494a8.255 8.255 0 0 0 .216-1.962c0-1.02-.144-1.77-.432-2.25-.276-.48-.744-.72-1.404-.72-.504 0-.918.138-1.242.414-.312.264-.57.696-.774 1.296-.072.216-.138.354-.198.414a.317.317 0 0 1-.234.09c-.264 0-.396-.12-.396-.36 0-.06.006-.108.018-.144l1.926-7.434c.264.108.564.192.9.252.336.048.738.072 1.206.072 1.116 0 1.914-.114 2.394-.342l.108.018c-.144.684-.462 1.212-.954 1.584-.48.372-1.098.558-1.854.558h-1.584l-.846 3.222Z" fill="#222"/></svg>