<svg width="160" height="176" fill="none" xmlns="http://www.w3.org/2000/svg"><path d="M159.575 114.48a1 1 0 0 1-.854 1.52H141a1 1 0 0 1-1-1V94a1 1 0 0 1 1-1h17.721a1 1 0 0 1 .854 1.52l-5.759 9.46a1.002 1.002 0 0 0 0 1.04l5.759 9.46ZM.925 94.52A1 1 0 0 1 1.78 93H19.5a1 1 0 0 1 1 1v21a1 1 0 0 1-1 1H1.78a1 1 0 0 1-.855-1.52l5.759-9.46a1 1 0 0 0 0-1.04L.925 94.52Z" fill="#852E94"/><path d="M15 17c0-6.627 5.373-12 12-12h107c6.627 0 12 5.373 12 12v112.596a12 12 0 0 1-5.825 10.29l-53.953 32.38a12.002 12.002 0 0 1-12.42-.042l-53.047-32.327A12 12 0 0 1 15 129.65V17Z" fill="#FBF2FD"/><path d="M146 45.5 39.923 151.577l-19.168-11.68A12 12 0 0 1 15 129.65V104l99-99h20c6.627 0 12 5.373 12 12v28.5Z" fill="#fff"/><path d="M72.425 52.138c0 .456.024.828.072 1.116.048.276.138.492.27.648.144.144.342.246.594.306.264.06.606.096 1.026.108V55h-5.832v-.684c.42-.012.756-.048 1.008-.108.264-.06.468-.162.612-.306.144-.144.24-.348.288-.612.048-.264.072-.606.072-1.026v-3.906h-7.29v3.78c0 .456.024.828.072 1.116.048.276.138.492.27.648.144.144.342.246.594.306.264.06.606.096 1.026.108V55h-5.832v-.684c.42-.012.756-.048 1.008-.108.264-.06.468-.162.612-.306.144-.144.24-.348.288-.612.048-.264.072-.606.072-1.026v-8.388c0-.42-.024-.756-.072-1.008-.036-.264-.12-.468-.252-.612-.12-.156-.3-.258-.54-.306a5.362 5.362 0 0 0-.936-.126v-.684h5.472v.684a4.567 4.567 0 0 0-.936.108c-.228.06-.408.168-.54.324-.12.156-.204.372-.252.648a8.868 8.868 0 0 0-.054 1.098v3.456h7.29v-3.582c0-.42-.024-.756-.072-1.008-.036-.264-.12-.468-.252-.612-.12-.156-.3-.258-.54-.306a5.362 5.362 0 0 0-.936-.126v-.684h5.472v.684a4.567 4.567 0 0 0-.936.108c-.228.06-.408.168-.54.324-.12.156-.204.372-.252.648a8.868 8.868 0 0 0-.054 1.098v8.136Zm6.53 0c0 .468.019.846.055 1.134.048.276.132.498.252.666.12.156.288.264.504.324.216.06.504.096.864.108V55h-5.166v-.63c.36-.012.654-.048.882-.108.228-.072.402-.18.522-.324.132-.156.216-.366.252-.63.048-.276.072-.624.072-1.044V49.96c0-.696-.012-1.266-.036-1.71-.012-.456-.042-.768-.09-.936-.06-.276-.198-.462-.414-.558-.216-.108-.624-.162-1.224-.162v-.63l3.528-.684v6.858Zm-2.07-10.512c0-.312.109-.576.325-.792.216-.216.48-.324.792-.324.312 0 .576.108.792.324.216.216.324.48.324.792 0 .312-.108.576-.324.792-.216.216-.48.324-.792.324-.312 0-.576-.108-.792-.324a1.077 1.077 0 0 1-.324-.792Zm8.674 9.504c.504 0 .894-.228 1.17-.684.288-.456.432-1.098.432-1.926 0-.816-.144-1.446-.432-1.89-.276-.456-.672-.684-1.188-.684-.516 0-.93.228-1.242.684-.3.456-.45 1.08-.45 1.872s.156 1.428.468 1.908c.312.48.726.72 1.242.72Zm-.99 2.106c.288.024.552.048.792.072l.702.072c.24.024.474.054.702.09.24.036.498.072.774.108.864.132 1.554.468 2.07 1.008.528.528.792 1.194.792 1.998 0 1.008-.402 1.776-1.206 2.304-.792.528-1.944.792-3.456.792-.672 0-1.29-.06-1.854-.18a4.945 4.945 0 0 1-1.422-.522 2.786 2.786 0 0 1-.936-.792 1.764 1.764 0 0 1-.324-1.026c0-.252.042-.486.126-.702a1.98 1.98 0 0 1 .342-.576c.144-.156.312-.282.504-.378.204-.096.414-.144.63-.144.408 0 .774.126 1.098.378a1.313 1.313 0 0 0-.792.522 1.641 1.641 0 0 0-.306.972c0 .528.258.936.774 1.224.528.288 1.272.432 2.232.432 2.052 0 3.078-.63 3.078-1.89 0-.48-.162-.882-.486-1.206a2.01 2.01 0 0 0-1.152-.558 32.16 32.16 0 0 1-.9-.126l-.9-.108a27.814 27.814 0 0 0-.81-.09 11.135 11.135 0 0 1-.612-.072c-.672-.072-1.182-.252-1.53-.54-.348-.288-.522-.684-.522-1.188 0-.42.174-.792.522-1.116.348-.324.786-.528 1.314-.612v-.072a2.77 2.77 0 0 1-.738-.45 3.578 3.578 0 0 1-.594-.684 3.84 3.84 0 0 1-.378-.81 2.995 2.995 0 0 1-.144-.918c0-.456.084-.876.252-1.26.18-.384.426-.714.738-.99.324-.288.702-.51 1.134-.666a3.891 3.891 0 0 1 1.422-.252c.528 0 1.026.084 1.494.252.468.156.87.39 1.206.702.408-.336.768-.576 1.08-.72.312-.156.606-.234.882-.234.432 0 .774.102 1.026.306a.926.926 0 0 1 .396.792.6.6 0 0 1-.216.486.72.72 0 0 1-.504.18.846.846 0 0 1-.414-.09c-.108-.06-.21-.12-.306-.18a2.23 2.23 0 0 0-.27-.198.668.668 0 0 0-.36-.09c-.288 0-.582.102-.882.306.288.444.432 1.002.432 1.674 0 1.02-.318 1.824-.954 2.412-.636.576-1.59.912-2.862 1.008-.732.06-1.242.138-1.53.234-.288.096-.432.27-.432.522 0 .192.108.336.324.432.216.084.534.138.954.162Zm10.217-1.098c0 .492.012.882.036 1.17.024.288.084.51.18.666.108.144.258.24.45.288.192.048.462.084.81.108V55h-4.788v-.63a5.4 5.4 0 0 0 .828-.108.786.786 0 0 0 .468-.288c.108-.144.174-.348.198-.612.036-.276.054-.642.054-1.098v-7.542c0-.708-.012-1.272-.036-1.692-.012-.42-.042-.738-.09-.954a.816.816 0 0 0-.126-.342.459.459 0 0 0-.234-.216 1.232 1.232 0 0 0-.432-.126 5.164 5.164 0 0 0-.666-.036v-.612l3.312-.684v6.858h.072c.18-.24.402-.456.666-.648.276-.204.57-.378.882-.522.312-.144.636-.258.972-.342a4.292 4.292 0 0 1 1.008-.126c.552 0 1.056.096 1.512.288.468.192.828.45 1.08.774.204.276.354.642.45 1.098.096.444.144 1.05.144 1.818v2.88c0 .492.012.882.036 1.17.024.276.084.492.18.648a.748.748 0 0 0 .45.306c.192.048.462.084.81.108V55h-4.77v-.63c.336-.012.606-.042.81-.09a.78.78 0 0 0 .45-.306c.108-.144.174-.348.198-.612.036-.276.054-.642.054-1.098v-2.268c0-1.344-.156-2.298-.468-2.862-.312-.576-.834-.864-1.566-.864-.564 0-1.08.144-1.548.432a3.043 3.043 0 0 0-1.08 1.188c-.06.132-.114.258-.162.378a2.509 2.509 0 0 0-.09.378 5.004 5.004 0 0 0-.054.504v2.988ZM46.041 62.614c0 .636-.102 1.206-.306 1.71-.204.504-.528.93-.972 1.278-.432.348-1.002.618-1.71.81-.696.192-1.548.288-2.556.288h-1.62v3.474c0 .444.024.81.072 1.098.06.276.174.492.342.648.18.156.432.264.756.324.336.048.774.072 1.314.072V73h-6.354v-.684c.42-.012.756-.048 1.008-.108.264-.06.468-.162.612-.306.144-.144.24-.348.288-.612.048-.264.072-.606.072-1.026v-8.388c0-.42-.024-.756-.072-1.008-.036-.264-.12-.468-.252-.612-.12-.156-.3-.258-.54-.306a5.362 5.362 0 0 0-.936-.126v-.684h5.652c1.656 0 2.934.306 3.834.918.912.612 1.368 1.464 1.368 2.556ZM38.877 65.8h1.278c1.2 0 2.088-.228 2.664-.684.588-.468.882-1.23.882-2.286 0-1.02-.234-1.746-.702-2.178-.456-.444-1.176-.666-2.16-.666h-1.656c-.204 0-.306.102-.306.306V65.8Zm16.168 5.526c-1.02 1.236-2.286 1.854-3.798 1.854-.708 0-1.35-.114-1.926-.342a4.576 4.576 0 0 1-1.494-.99 4.649 4.649 0 0 1-.954-1.53 5.532 5.532 0 0 1-.342-1.98c0-.732.12-1.41.36-2.034a4.669 4.669 0 0 1 1.008-1.602 4.84 4.84 0 0 1 1.566-1.044 5.197 5.197 0 0 1 1.998-.378c1.164 0 2.064.318 2.7.954.636.624.954 1.524.954 2.7 0 .168-.036.27-.108.306-.06.036-.21.054-.45.054h-5.922a2.31 2.31 0 0 0-.054.36 5.02 5.02 0 0 0-.018.45c0 .624.072 1.194.216 1.71.156.504.372.936.648 1.296.288.36.624.642 1.008.846.396.192.834.288 1.314.288.504 0 .972-.108 1.404-.324.432-.228.876-.594 1.332-1.098l.558.504Zm-2.97-4.86c.24 0 .432-.006.576-.018a.928.928 0 0 0 .324-.072.28.28 0 0 0 .144-.144.865.865 0 0 0 .036-.27c0-.552-.18-.99-.54-1.314-.348-.336-.828-.504-1.44-.504-1.296 0-2.1.774-2.412 2.322h3.312Zm7.529 3.672c0 .492.012.882.036 1.17.024.288.084.51.18.666.108.144.258.24.45.288.192.048.462.084.81.108V73h-4.788v-.63c.348-.012.624-.042.828-.09a.87.87 0 0 0 .468-.306c.108-.144.174-.348.198-.612.036-.276.054-.642.054-1.098v-2.106c0-.816-.012-1.452-.036-1.908-.012-.456-.072-.792-.18-1.008a.6.6 0 0 0-.468-.378 4.367 4.367 0 0 0-.9-.072v-.63l3.15-.684.252 2.232h.072c.156-.36.348-.69.576-.99.24-.3.498-.552.774-.756.276-.216.564-.384.864-.504.3-.12.606-.18.918-.18.384 0 .684.096.9.288.228.18.342.426.342.738 0 .288-.09.516-.27.684-.18.156-.438.234-.774.234-.192 0-.354-.024-.486-.072a5.613 5.613 0 0 1-.36-.144 3.481 3.481 0 0 0-.288-.162.57.57 0 0 0-.288-.072c-.324 0-.648.21-.972.63-.324.408-.576.93-.756 1.566a9.055 9.055 0 0 0-.234 1.188 12.4 12.4 0 0 0-.072 1.368v.612Zm4.618-6.39h2.034v-1.296c0-1.38.36-2.454 1.08-3.222.732-.78 1.77-1.17 3.114-1.17.744 0 1.35.114 1.818.342.468.228.702.522.702.882 0 .24-.078.444-.234.612a.725.725 0 0 1-.558.234c-.144 0-.3-.042-.468-.126a6.29 6.29 0 0 1-.63-.468c-.3-.252-.534-.414-.702-.486a1.313 1.313 0 0 0-.594-.126c-.72 0-1.236.366-1.548 1.098-.108.24-.186.534-.234.882-.036.348-.054.828-.054 1.44v1.404h2.898v.846h-2.898v5.508c0 .444.024.81.072 1.098.06.288.156.522.288.702.144.168.336.288.576.36.24.06.552.096.936.108V73h-5.112v-.63c.336-.012.606-.042.81-.09a.87.87 0 0 0 .468-.306c.108-.156.18-.366.216-.63.036-.276.054-.642.054-1.098v-5.652h-2.034v-.846Zm12.3-.468c.685 0 1.333.126 1.945.378.612.24 1.146.576 1.602 1.008.468.432.834.948 1.098 1.548.276.588.414 1.236.414 1.944 0 .732-.138 1.404-.414 2.016a4.75 4.75 0 0 1-1.098 1.584 5 5 0 0 1-1.602 1.044 5.055 5.055 0 0 1-1.944.378c-.672 0-1.314-.12-1.926-.36-.6-.252-1.128-.6-1.584-1.044a4.884 4.884 0 0 1-1.08-1.584 5.166 5.166 0 0 1-.396-2.034c0-.708.132-1.362.396-1.962a4.73 4.73 0 0 1 1.08-1.548 4.955 4.955 0 0 1 1.584-1.008 5.228 5.228 0 0 1 1.926-.36Zm0 .864c-.443 0-.851.096-1.223.288-.36.192-.672.468-.936.828-.252.348-.45.774-.594 1.278a6.317 6.317 0 0 0-.198 1.638c0 .624.066 1.188.198 1.692.144.504.342.936.594 1.296.264.348.576.618.936.81.36.192.768.288 1.224.288.456 0 .87-.096 1.242-.288.372-.192.69-.468.954-.828.264-.36.468-.792.612-1.296a6.083 6.083 0 0 0 .216-1.674c0-.6-.072-1.146-.216-1.638a3.854 3.854 0 0 0-.612-1.26 2.727 2.727 0 0 0-.954-.828 2.54 2.54 0 0 0-1.242-.306Zm9.564 5.994c0 .492.012.882.036 1.17.024.288.084.51.18.666.108.144.258.24.45.288.192.048.462.084.81.108V73h-4.788v-.63c.348-.012.624-.042.828-.09a.87.87 0 0 0 .468-.306c.108-.144.174-.348.198-.612.036-.276.054-.642.054-1.098v-2.106c0-.816-.012-1.452-.036-1.908-.012-.456-.072-.792-.18-1.008a.6.6 0 0 0-.468-.378 4.367 4.367 0 0 0-.9-.072v-.63l3.15-.684.252 2.232h.072c.156-.36.348-.69.576-.99.24-.3.498-.552.774-.756.276-.216.564-.384.864-.504.3-.12.606-.18.918-.18.384 0 .684.096.9.288.228.18.342.426.342.738 0 .288-.09.516-.27.684-.18.156-.438.234-.774.234-.192 0-.354-.024-.486-.072a5.613 5.613 0 0 1-.36-.144 3.481 3.481 0 0 0-.288-.162.57.57 0 0 0-.288-.072c-.324 0-.648.21-.972.63-.324.408-.576.93-.756 1.566a9.055 9.055 0 0 0-.234 1.188 12.4 12.4 0 0 0-.072 1.368v.612Zm8.2-.018c0 .504.012.9.036 1.188.024.288.084.51.18.666.108.144.258.24.45.288.192.048.462.084.81.108V73h-4.788v-.63a5.4 5.4 0 0 0 .828-.108.786.786 0 0 0 .468-.288c.108-.144.174-.348.198-.612.036-.276.054-.642.054-1.098V67.96c0-.684-.012-1.254-.036-1.71-.012-.456-.042-.768-.09-.936a1.366 1.366 0 0 0-.126-.36.459.459 0 0 0-.234-.216 1.035 1.035 0 0 0-.432-.108 4.911 4.911 0 0 0-.666-.036v-.63l2.934-.684.234 1.8h.09c.54-.612 1.104-1.062 1.692-1.35.6-.3 1.26-.45 1.98-.45.756 0 1.392.156 1.908.468.516.3.876.738 1.08 1.314h.072a4.64 4.64 0 0 1 1.62-1.314 4.558 4.558 0 0 1 2.034-.468c.564 0 1.074.096 1.53.288.468.18.822.432 1.062.756.216.276.366.642.45 1.098.096.444.144 1.056.144 1.836v2.862c0 .492.012.882.036 1.17.036.288.102.51.198.666.096.156.24.258.432.306a5.4 5.4 0 0 0 .828.108V73h-4.788v-.63c.336-.012.606-.042.81-.09a.87.87 0 0 0 .468-.306c.108-.156.174-.366.198-.63.036-.264.054-.624.054-1.08v-2.268c0-.684-.036-1.26-.108-1.728-.072-.48-.192-.864-.36-1.152-.168-.3-.39-.516-.666-.648-.264-.132-.588-.198-.972-.198-.528 0-1.026.15-1.494.45a3.076 3.076 0 0 0-1.242 1.53 2.509 2.509 0 0 0-.09.378 4.265 4.265 0 0 0-.054.486v3.006c0 .492.012.882.036 1.17.024.288.084.51.18.666a.755.755 0 0 0 .468.306 5.4 5.4 0 0 0 .828.108V73h-4.788v-.63c.336-.024.606-.06.81-.108a.708.708 0 0 0 .45-.288c.108-.144.174-.348.198-.612.036-.276.054-.642.054-1.098v-2.268c0-.696-.036-1.278-.108-1.746-.072-.48-.192-.864-.36-1.152-.156-.3-.366-.51-.63-.63-.264-.132-.588-.198-.972-.198-.54 0-1.05.15-1.53.45a2.778 2.778 0 0 0-1.062 1.17c-.06.12-.114.24-.162.36a2.509 2.509 0 0 0-.09.378 4.265 4.265 0 0 0-.054.486v3.006Zm24.377 1.206c-1.02 1.236-2.286 1.854-3.798 1.854-.708 0-1.35-.114-1.926-.342a4.576 4.576 0 0 1-1.494-.99 4.649 4.649 0 0 1-.954-1.53 5.532 5.532 0 0 1-.342-1.98c0-.732.12-1.41.36-2.034a4.669 4.669 0 0 1 1.008-1.602 4.84 4.84 0 0 1 1.566-1.044 5.197 5.197 0 0 1 1.998-.378c1.164 0 2.064.318 2.7.954.636.624.954 1.524.954 2.7 0 .168-.036.27-.108.306-.06.036-.21.054-.45.054h-5.922a2.31 2.31 0 0 0-.054.36 5.02 5.02 0 0 0-.018.45c0 .624.072 1.194.216 1.71.156.504.372.936.648 1.296.288.36.624.642 1.008.846.396.192.834.288 1.314.288.504 0 .972-.108 1.404-.324.432-.228.876-.594 1.332-1.098l.558.504Zm-2.97-4.86c.24 0 .432-.006.576-.018a.928.928 0 0 0 .324-.072.28.28 0 0 0 .144-.144.865.865 0 0 0 .036-.27c0-.552-.18-.99-.54-1.314-.348-.336-.828-.504-1.44-.504-1.296 0-2.1.774-2.412 2.322h3.312Zm7.528 3.672c0 .492.012.882.036 1.17.024.288.084.51.18.666.108.144.258.24.45.288.192.048.462.084.81.108V73h-4.788v-.63c.348-.012.624-.042.828-.09a.87.87 0 0 0 .468-.306c.108-.144.174-.348.198-.612.036-.276.054-.642.054-1.098v-2.106c0-.816-.012-1.452-.036-1.908-.012-.456-.072-.792-.18-1.008a.6.6 0 0 0-.468-.378 4.367 4.367 0 0 0-.9-.072v-.63l3.15-.684.252 2.232h.072c.156-.36.348-.69.576-.99.24-.3.498-.552.774-.756.276-.216.564-.384.864-.504.3-.12.606-.18.918-.18.384 0 .684.096.9.288.228.18.342.426.342.738 0 .288-.09.516-.27.684-.18.156-.438.234-.774.234-.192 0-.354-.024-.486-.072a5.613 5.613 0 0 1-.36-.144 3.481 3.481 0 0 0-.288-.162.57.57 0 0 0-.288-.072c-.324 0-.648.21-.972.63-.324.408-.576.93-.756 1.566a9.055 9.055 0 0 0-.234 1.188 12.4 12.4 0 0 0-.072 1.368v.612Z" fill="#222"/><path opacity=".8" d="m55.456 161.044-10.252-6.248L146 54v16.5l-90.543 90.544Z" fill="#fff"/><path d="M27 6.5h107c5.799 0 10.5 4.701 10.5 10.5v112.596c0 3.688-1.935 7.106-5.097 9.004l-53.952 32.379a10.501 10.501 0 0 1-10.868-.036l-53.047-32.327a10.5 10.5 0 0 1-5.036-8.966V17c0-5.799 4.701-10.5 10.5-10.5Z" stroke="#D9BADE" stroke-width="3"/><path d="m49.193 104-2.497-8.727h2.016l1.444 6.064h.073l1.594-6.064h1.725l1.59 6.076h.077l1.444-6.076h2.016L56.178 104h-1.799l-1.661-5.706h-.069L50.992 104h-1.799Zm16.155-8.727V104h-1.846v-8.727h1.846Zm12.657 0V104h-1.593l-3.797-5.493h-.064V104h-1.845v-8.727h1.619l3.767 5.488h.077v-5.488h1.836Zm5.032 1.521v-1.521h7.168v1.521h-2.672V104H85.71v-7.206h-2.672ZM95.226 104v-8.727h5.88v1.521h-4.035v2.08h3.733v1.521h-3.733v2.084h4.052V104h-5.897Zm11.187 0v-8.727h3.443c.659 0 1.222.118 1.688.353.469.233.825.564 1.069.993.248.427.371.928.371 1.505 0 .58-.125 1.078-.375 1.495-.25.415-.612.733-1.086.955-.472.221-1.043.332-1.713.332h-2.306v-1.483h2.007c.352 0 .645-.048.878-.145.233-.096.406-.241.52-.434.116-.193.175-.433.175-.72 0-.29-.059-.534-.175-.733a1.072 1.072 0 0 0-.524-.452c-.233-.105-.527-.158-.882-.158h-1.245V104h-1.845Zm4.713-3.972 2.169 3.972h-2.037l-2.122-3.972h1.99Z" fill="#fff"/><path d="M71.775 128.774c0 .355.018.644.056.868.046.215.14.383.28.504.14.112.336.191.588.238.261.047.602.075 1.022.084V131h-4.956v-.532c.326-.009.588-.037.784-.084a.959.959 0 0 0 .476-.238.877.877 0 0 0 .224-.476c.037-.205.056-.471.056-.798v-6.524c0-.327-.019-.588-.056-.784-.028-.205-.094-.364-.196-.476a.673.673 0 0 0-.42-.238 4.172 4.172 0 0 0-.728-.098v-.532h8.092l.154 2.674h-.49c-.056-.401-.145-.728-.266-.98a1.461 1.461 0 0 0-.518-.616c-.215-.149-.49-.252-.826-.308a6.792 6.792 0 0 0-1.26-.098h-1.778c-.159 0-.238.079-.238.238v4.228c.448 0 .83-.023 1.148-.07.326-.056.592-.149.798-.28a1.29 1.29 0 0 0 .49-.532c.112-.224.182-.513.21-.868h.49v4.102h-.49a3.27 3.27 0 0 0-.224-.882 1.21 1.21 0 0 0-.462-.546c-.196-.131-.453-.224-.77-.28a7.024 7.024 0 0 0-1.19-.084v2.856Zm10.119-1.918a13.05 13.05 0 0 0-1.358.602 4.805 4.805 0 0 0-.882.588 2.101 2.101 0 0 0-.49.588c-.094.196-.14.397-.14.602 0 .308.102.56.308.756.205.196.476.294.812.294a1.3 1.3 0 0 0 .672-.182c.215-.121.401-.285.56-.49.158-.215.284-.462.378-.742.093-.289.14-.593.14-.91v-1.106Zm0-.602v-.574c0-1.139-.486-1.708-1.456-1.708-.159 0-.294.014-.406.042a.665.665 0 0 0-.28.14.994.994 0 0 0-.21.28 3.858 3.858 0 0 0-.168.448c-.103.271-.206.453-.308.546-.094.084-.234.126-.42.126-.467 0-.7-.233-.7-.7 0-.448.238-.793.714-1.036.476-.252 1.153-.378 2.03-.378.933 0 1.596.168 1.988.504.392.327.588.887.588 1.68v3.136c0 1.064.21 1.596.63 1.596.13 0 .257-.014.378-.042a.556.556 0 0 0 .308-.266l.196.336c-.112.215-.318.397-.616.546-.299.14-.612.21-.938.21-.41 0-.719-.131-.924-.392-.196-.261-.294-.63-.294-1.106h-.07a2.846 2.846 0 0 1-1.008 1.092 2.7 2.7 0 0 1-1.428.392c-.588 0-1.05-.149-1.386-.448-.336-.299-.504-.7-.504-1.204 0-.224.037-.439.112-.644.084-.205.215-.401.392-.588a3.42 3.42 0 0 1 .7-.546 7.93 7.93 0 0 1 1.064-.56l2.016-.882Zm5.792 2.562c0 .355.014.639.042.854.028.215.084.383.168.504.093.121.22.205.378.252.168.047.387.075.658.084v.49h-3.864v-.49c.28-.009.504-.037.672-.084a.842.842 0 0 0 .392-.252.842.842 0 0 0 .196-.462c.037-.205.056-.471.056-.798v-6.034c0-.504-.01-.924-.028-1.26-.01-.345-.028-.579-.056-.7-.047-.215-.159-.359-.336-.434-.168-.075-.476-.112-.924-.112v-.476l2.646-.518v9.436Zm4.552 0c0 .355.014.639.043.854.027.215.084.383.167.504.094.121.22.205.379.252.168.047.387.075.657.084v.49h-3.863v-.49c.28-.009.504-.037.672-.084a.842.842 0 0 0 .391-.252.841.841 0 0 0 .197-.462c.037-.205.055-.471.055-.798v-6.034c0-.504-.009-.924-.028-1.26-.009-.345-.028-.579-.055-.7-.047-.215-.16-.359-.337-.434-.168-.075-.476-.112-.924-.112v-.476l2.647-.518v9.436Zm-26.213 18.812h2.786c.224 0 .42-.019.588-.056a1.08 1.08 0 0 0 .448-.252c.13-.121.248-.285.35-.49a6.3 6.3 0 0 0 .308-.812h.518L70.491 149h-6.51v-.462a49.204 49.204 0 0 0 2.618-2.492c.69-.719 1.232-1.363 1.624-1.932.392-.569.663-1.092.812-1.568a4.97 4.97 0 0 0 .224-1.47c0-.728-.172-1.302-.518-1.722-.336-.42-.798-.63-1.386-.63-.56 0-1.017.182-1.372.546-.345.364-.518.835-.518 1.414 0 .504.136.905.406 1.204.28.299.658.448 1.134.448a.872.872 0 0 1-.364.546c-.196.131-.438.196-.728.196a1.72 1.72 0 0 1-.728-.154 1.831 1.831 0 0 1-.574-.434 2.17 2.17 0 0 1-.378-.658 2.776 2.776 0 0 1-.126-.854c0-.42.089-.807.266-1.162a2.76 2.76 0 0 1 .728-.91 3.46 3.46 0 0 1 1.092-.616c.43-.149.892-.224 1.386-.224.495 0 .948.075 1.358.224.41.149.766.359 1.064.63.299.271.528.593.686.966.168.364.252.77.252 1.218a4 4 0 0 1-.392 1.708 7.427 7.427 0 0 1-1.05 1.638c-.448.532-.97 1.059-1.568 1.582a33.78 33.78 0 0 1-1.918 1.526l.014.07Zm10.881-9.548c.57 0 1.106.145 1.61.434a4.29 4.29 0 0 1 1.316 1.19 5.95 5.95 0 0 1 .882 1.778c.224.681.336 1.419.336 2.212 0 .756-.112 1.465-.336 2.128a5.847 5.847 0 0 1-.882 1.736 4.444 4.444 0 0 1-1.316 1.162c-.504.28-1.04.42-1.61.42-.57 0-1.106-.14-1.61-.42a4.444 4.444 0 0 1-1.316-1.162 6.1 6.1 0 0 1-.896-1.736 6.865 6.865 0 0 1-.322-2.128c0-.793.108-1.531.322-2.212a6.237 6.237 0 0 1 .896-1.778 4.29 4.29 0 0 1 1.316-1.19 3.186 3.186 0 0 1 1.61-.434Zm0 10.388c.364 0 .686-.075.966-.224.29-.149.532-.406.728-.77.206-.364.36-.849.462-1.456.112-.607.168-1.367.168-2.282 0-.952-.056-1.745-.168-2.38-.102-.635-.252-1.143-.448-1.526-.196-.392-.439-.667-.728-.826a1.915 1.915 0 0 0-.98-.252c-.364 0-.69.084-.98.252-.29.159-.532.434-.728.826-.196.383-.35.891-.462 1.526-.103.635-.154 1.428-.154 2.38 0 .915.052 1.675.154 2.282.112.607.266 1.092.462 1.456.196.364.439.621.728.77.29.149.616.224.98.224Zm7.74-.84h2.786c.224 0 .42-.019.588-.056.168-.047.318-.131.448-.252.131-.121.248-.285.35-.49a6.27 6.27 0 0 0 .308-.812h.518L89.112 149h-6.51v-.462a49.166 49.166 0 0 0 2.618-2.492c.691-.719 1.232-1.363 1.624-1.932.392-.569.663-1.092.812-1.568.15-.485.224-.975.224-1.47 0-.728-.172-1.302-.518-1.722-.336-.42-.798-.63-1.386-.63-.56 0-1.017.182-1.372.546-.345.364-.518.835-.518 1.414 0 .504.136.905.406 1.204.28.299.658.448 1.134.448a.872.872 0 0 1-.364.546c-.196.131-.438.196-.728.196-.261 0-.504-.051-.728-.154a1.832 1.832 0 0 1-.574-.434 2.174 2.174 0 0 1-.378-.658 2.776 2.776 0 0 1-.126-.854c0-.42.089-.807.266-1.162a2.76 2.76 0 0 1 .728-.91 3.46 3.46 0 0 1 1.092-.616 4.2 4.2 0 0 1 1.386-.224c.495 0 .948.075 1.358.224.411.149.766.359 1.064.63.299.271.528.593.686.966.168.364.252.77.252 1.218a4 4 0 0 1-.392 1.708 7.427 7.427 0 0 1-1.05 1.638c-.448.532-.97 1.059-1.568 1.582a33.71 33.71 0 0 1-1.918 1.526l.014.07Zm6.135-1.834 4.928-7.714h.434v7.742c.29-.009.518-.028.686-.056.178-.037.308-.098.392-.182a.685.685 0 0 0 .182-.378c.028-.168.042-.387.042-.658h.49v3.122h-.49a3.67 3.67 0 0 0-.042-.616.615.615 0 0 0-.182-.364c-.084-.093-.214-.154-.392-.182a3.889 3.889 0 0 0-.686-.07v.294c0 .364.014.658.042.882.028.224.08.401.154.532a.651.651 0 0 0 .336.252c.15.047.341.07.574.07V149h-3.934v-.532c.308 0 .556-.023.742-.07a.816.816 0 0 0 .448-.252 1.04 1.04 0 0 0 .21-.504 4.8 4.8 0 0 0 .056-.812v-.336h-3.99v-.7Zm3.99-4.984h-.07l-3.22 4.984h3.29v-4.984Z" fill="#222"/><path d="M10 90a2 2 0 0 1 2-2h137a2 2 0 0 1 2 2v21H10V90Z" fill="#9132A2"/><path d="M48.018 104v-8.727H53.9v1.521h-4.035v2.08h3.732v1.521h-3.732v2.084h4.052V104h-5.898Zm16.339-8.727h1.845v5.667c0 .637-.152 1.194-.456 1.671a3.05 3.05 0 0 1-1.266 1.116c-.543.264-1.175.397-1.896.397-.725 0-1.358-.133-1.9-.397a3.051 3.051 0 0 1-1.266-1.116c-.301-.477-.452-1.034-.452-1.671v-5.667h1.845v5.51c0 .332.073.628.217.886.148.259.356.462.623.609.267.148.578.222.933.222.358 0 .669-.074.933-.222.267-.147.473-.35.618-.609a1.75 1.75 0 0 0 .222-.886v-5.51ZM71.32 104v-8.727h3.443c.66 0 1.222.118 1.688.353a2.45 2.45 0 0 1 1.07.993c.246.427.37.928.37 1.505 0 .58-.125 1.078-.375 1.495-.25.415-.612.733-1.087.955-.471.221-1.042.332-1.713.332h-2.305v-1.483h2.007c.352 0 .645-.048.878-.145.233-.096.406-.241.52-.434.116-.193.174-.433.174-.72 0-.29-.058-.534-.174-.733a1.072 1.072 0 0 0-.525-.452c-.233-.105-.526-.158-.882-.158h-1.244V104H71.32Zm4.713-3.972L78.202 104h-2.037l-2.122-3.972h1.99Zm14.782-.392c0 .952-.18 1.762-.541 2.429a3.749 3.749 0 0 1-1.466 1.53c-.617.35-1.31.524-2.08.524-.775 0-1.471-.176-2.088-.528-.617-.352-1.104-.862-1.462-1.53-.358-.668-.537-1.476-.537-2.425 0-.951.18-1.761.537-2.429.358-.667.846-1.176 1.462-1.525.617-.353 1.313-.529 2.088-.529.77 0 1.463.176 2.08.529.619.35 1.108.858 1.465 1.525.361.668.542 1.478.542 2.43Zm-1.871 0c0-.616-.092-1.136-.277-1.56-.182-.423-.439-.744-.771-.962a2.076 2.076 0 0 0-1.168-.329c-.446 0-.835.11-1.167.329-.333.218-.591.54-.776.963-.182.423-.273.943-.273 1.56 0 .616.091 1.136.273 1.559.185.423.443.744.776.963.332.219.721.328 1.167.328.446 0 .835-.109 1.168-.328.332-.219.59-.54.771-.963.185-.423.277-.943.277-1.56ZM95.782 104v-8.727h3.443c.662 0 1.226.126 1.692.379.465.25.821.598 1.065 1.044.247.443.371.955.371 1.534 0 .58-.125 1.091-.375 1.534a2.59 2.59 0 0 1-1.087 1.036c-.472.247-1.043.37-1.713.37h-2.195v-1.478h1.897c.355 0 .647-.061.877-.183a1.21 1.21 0 0 0 .52-.516 1.61 1.61 0 0 0 .175-.763c0-.29-.058-.543-.175-.758a1.162 1.162 0 0 0-.52-.507c-.233-.123-.528-.184-.886-.184h-1.244V104h-1.845Zm11.369 0v-8.727h5.881v1.521h-4.036v2.08h3.733v1.521h-3.733v2.084h4.053V104h-5.898Z" fill="#fff"/><path d="M94.329 25.087 81.992 32.1a3 3 0 0 1-2.974-.005l-12.51-7.167A3 3 0 0 1 65 22.325V3a3 3 0 0 1 3-3h24.846a3 3 0 0 1 3 3v19.48a3 3 0 0 1-1.517 2.607Z" fill="#9132A2"/><path d="M82.442 5.46c-.646-.16-1.292-.16-1.938-.16h-.807c-5.168.161-9.044 4.522-8.883 9.69.162 5.168 4.522 9.044 9.69 8.882a9.79 9.79 0 0 0 5.653-1.776l-2.1-3.553a5.644 5.644 0 0 1-3.553 1.292h-.646c-2.907-.162-5.168-2.746-5.006-5.653.161-2.907 2.745-5.168 5.652-5.006l1.938-3.715Z" fill="#fff"/><path d="m89.548 17.248-2.422-4.037h-4.522l-2.423 4.037h4.684l2.26 3.876 2.423-3.876ZM83.734 9.98c-.322.485-.484 1.131-.484 1.777l4.36.162v-1.13h-2.906c.161-.485.484-.647.969-.97l.484-.323c.969-.323 1.454-.969 1.454-1.776 0-.485-.324-.97-.647-1.292-.323-.323-.968-.485-1.453-.485-.484 0-.969 0-1.453.323-.324.323-.647.646-.808.97l.808.807c.322-.646.807-.97 1.453-.97.323 0 .808.324.808.647s-.162.484-.808.807l-.323.162c-.484.323-1.13.807-1.454 1.292Z" fill="#fff"/><path d="M10 111h5v5l-5-5Zm141 0h-5v5l5-5Z" fill="#70267D"/></svg>