<svg width="388" height="84" viewBox="0 0 388 84" fill="none" xmlns="http://www.w3.org/2000/svg">
<g clip-path="url(#clip0_14547_13526)">
<path fill-rule="evenodd" clip-rule="evenodd" d="M153.26 53.9329C154.88 52.3688 155.692 50.3418 155.692 47.8527C155.692 45.3654 154.88 43.3386 153.26 41.7725C151.639 40.2081 149.791 39.4253 147.718 39.4253C145.568 39.4253 143.674 40.1985 142.033 41.7455C140.392 43.2906 139.572 45.327 139.572 47.8527C139.572 50.3802 140.392 52.4148 142.033 53.9617C143.674 55.5071 145.568 56.2801 147.718 56.2801C149.791 56.2801 151.639 55.4973 153.26 53.9329ZM158.488 37.1914C161.449 39.9626 162.929 43.5169 162.929 47.8525C162.929 52.1901 161.449 55.7428 158.488 58.5142C155.528 61.2856 151.937 62.6712 147.715 62.6712C143.416 62.6712 139.777 61.2856 136.798 58.5142C133.82 55.7428 132.33 52.1901 132.33 47.8525C132.33 43.5169 133.82 39.9626 136.798 37.1914C139.777 34.42 143.416 33.0342 147.715 33.0342C151.937 33.0342 155.528 34.42 158.488 37.1914Z" fill="#2F2F96"/>
<path fill-rule="evenodd" clip-rule="evenodd" d="M186.857 53.9331C188.479 52.3688 189.288 50.342 189.288 47.8529C189.288 45.3656 188.479 43.329 186.857 41.7457C185.235 40.1621 183.369 39.3697 181.258 39.3697C178.957 39.3697 177.063 40.1429 175.574 41.6881C174.084 43.2351 173.339 45.2888 173.339 47.8529C173.339 50.4172 174.084 52.4629 175.574 53.9903C177.063 55.5164 178.957 56.2801 181.258 56.2801C183.369 56.2801 185.235 55.4972 186.857 53.9331ZM196.753 61.9368H189.287V59.7313C186.761 61.7674 183.65 62.7848 179.956 62.7848C176.223 62.7848 172.979 61.3704 170.227 58.5432C167.474 55.7144 166.098 52.1521 166.098 47.8529C166.098 43.5557 167.484 39.9823 170.256 37.1356C173.027 34.2895 176.261 32.8652 179.956 32.8652C183.688 32.8652 186.8 33.902 189.287 35.9765V33.7139H196.753V61.9368Z" fill="#2F2F96"/>
<path fill-rule="evenodd" clip-rule="evenodd" d="M261.412 36.1742C263.486 38.3797 264.523 41.2355 264.523 44.7434V61.9367H257.056V46.3267C257.056 44.3271 256.539 42.7248 255.502 41.5191C254.466 40.312 253.081 39.7098 251.346 39.7098C246.67 39.7098 244.331 42.9509 244.331 49.4364V61.9367H236.866V21.2139H244.331V36.2588C246.592 33.9962 249.554 32.8654 253.211 32.8654C256.603 32.8654 259.339 33.9687 261.412 36.1742Z" fill="#2F2F96"/>
<path fill-rule="evenodd" clip-rule="evenodd" d="M305.026 61.9367H297.335V45.2394H279.237V61.9367H271.545V21.2139H279.237V38.2821H297.335V21.2139H305.026V61.9367Z" fill="#2F2F96"/>
<path fill-rule="evenodd" clip-rule="evenodd" d="M339.648 61.9367H332.181V59.3916C329.92 61.6544 326.96 62.785 323.301 62.785C319.909 62.785 317.175 61.6814 315.102 59.4764C313.026 57.2709 311.991 54.4147 311.991 50.9084V33.7139H319.456V49.323C319.456 51.3228 319.975 52.9253 321.013 54.131C322.048 55.3381 323.433 55.9408 325.168 55.9408C329.845 55.9408 332.181 52.6988 332.181 46.2138V33.7139H339.648V61.9367Z" fill="#2F2F96"/>
<path fill-rule="evenodd" clip-rule="evenodd" d="M368.528 53.9911C370.016 52.4634 370.761 50.4176 370.761 47.8535C370.761 45.2894 370.016 43.2355 368.528 41.6887C367.038 40.1438 365.143 39.3701 362.844 39.3701C360.732 39.3701 358.866 40.1626 357.244 41.7461C355.623 43.3294 354.811 45.366 354.811 47.8535C354.811 50.3427 355.623 52.3692 357.244 53.9338C358.866 55.4981 360.732 56.281 362.844 56.281C365.143 56.281 367.038 55.5173 368.528 53.9911ZM373.845 37.136C376.617 39.9822 378.002 43.5557 378.002 47.8533C378.002 52.1525 376.626 55.7143 373.874 58.5434C371.122 61.3708 367.879 62.785 364.146 62.785C360.45 62.785 357.34 61.7678 354.814 59.7312V61.9367H347.349V21.2139H354.814V35.977C357.303 33.9024 360.414 32.8656 364.146 32.8656C367.84 32.8656 371.074 34.2894 373.845 37.136Z" fill="#2F2F96"/>
<mask id="mask0_14547_13526" style="mask-type:alpha" maskUnits="userSpaceOnUse" x="10" y="11" width="29" height="62">
<path fill-rule="evenodd" clip-rule="evenodd" d="M10 11.3672H38.6053V72.6318H10V11.3672Z" fill="white"/>
</mask>
<g mask="url(#mask0_14547_13526)">
<path fill-rule="evenodd" clip-rule="evenodd" d="M10 41.9993C10 58.2533 22.6274 71.5461 38.6053 72.632V11.3672C22.6274 12.453 10 25.7458 10 41.9993Z" fill="#FC5739"/>
</g>
<mask id="mask1_14547_13526" style="mask-type:alpha" maskUnits="userSpaceOnUse" x="46" y="11" width="26" height="27">
<path fill-rule="evenodd" clip-rule="evenodd" d="M46.8394 11.3672H71.2848V37.3634H46.8394V11.3672Z" fill="white"/>
</mask>
<g mask="url(#mask1_14547_13526)">
<path fill-rule="evenodd" clip-rule="evenodd" d="M46.8394 31.5309V11.3672C59.9134 14.0134 69.9744 23.9228 71.2848 37.3634L52.5406 37.2629C49.3868 37.2459 46.8394 34.6846 46.8394 31.5309Z" fill="#FC5739"/>
</g>
<mask id="mask2_14547_13526" style="mask-type:alpha" maskUnits="userSpaceOnUse" x="46" y="46" width="26" height="27">
<path fill-rule="evenodd" clip-rule="evenodd" d="M46.8394 46.6357H71.2848V72.6319H46.8394V46.6357Z" fill="white"/>
</mask>
<g mask="url(#mask2_14547_13526)">
<path fill-rule="evenodd" clip-rule="evenodd" d="M46.8394 52.4684V72.6321C59.9134 69.9859 69.9744 60.0764 71.2848 46.6357L52.5406 46.7363C49.3868 46.7532 46.8394 49.3146 46.8394 52.4684Z" fill="#FC5739"/>
</g>
<path fill-rule="evenodd" clip-rule="evenodd" d="M120.456 48.3554C119.7 50.3908 118.586 51.9965 117.108 53.1673C115.11 54.7506 112.717 55.5435 109.926 55.5435C106.533 55.5435 103.658 54.336 101.301 51.9232C98.9444 49.5092 97.7657 46.511 97.7657 42.9298C97.7657 39.3488 98.9348 36.36 101.272 33.9652C103.61 31.5717 106.495 30.3738 109.926 30.3738C112.678 30.3738 115.062 31.1651 117.081 32.7501C118.565 33.9149 119.684 35.5024 120.443 37.5042H128.533C127.566 33.1245 125.403 29.6408 122.029 27.0653C118.597 24.4452 114.563 23.1348 109.926 23.1348C104.345 23.1348 99.6318 25.048 95.7867 28.8752C91.9408 32.7021 90.0178 37.3872 90.0178 42.9298C90.0178 48.5106 91.9408 53.2036 95.7867 57.0132C99.6318 60.8212 104.345 62.725 109.926 62.725C114.602 62.725 118.655 61.3871 122.086 58.7099C125.322 56.1851 127.42 52.7261 128.408 48.3554H120.456Z" fill="#2F2F96"/>
<path fill-rule="evenodd" clip-rule="evenodd" d="M223.569 52.4883C222.214 54.7391 220.128 55.8808 217.289 55.8808C214.95 55.8808 213.056 55.1361 211.605 53.6469C210.153 52.1576 209.427 50.2076 209.427 47.7928C209.427 45.3804 210.153 43.4188 211.605 41.9123C213.056 40.4037 214.95 39.6497 217.289 39.6497C220.158 39.6497 222.188 40.79 223.398 43.0419H231.369C230.415 39.9937 228.675 37.5301 226.14 35.6616C223.556 33.7576 220.607 32.8057 217.289 32.8057C213.066 32.8057 209.492 34.2101 206.571 37.0184C203.648 39.8282 202.188 43.4188 202.188 47.7928C202.188 52.1672 203.648 55.7503 206.571 58.5393C209.492 61.3295 213.066 62.7249 217.289 62.7249C220.681 62.7249 223.689 61.7635 226.309 59.8401C228.835 57.9868 230.503 55.5322 231.329 52.4883H223.569Z" fill="#2F2F96"/>
</g>
<defs>
<clipPath id="clip0_14547_13526">
<rect width="368" height="64" fill="white" transform="translate(10 10)"/>
</clipPath>
</defs>
</svg>
