<svg width="253" height="130" viewBox="0 0 253 130" fill="none" xmlns="http://www.w3.org/2000/svg">
<path fill-rule="evenodd" clip-rule="evenodd" d="M10 109.485V120H17.5678V119.58H17.5678V119.579L17.9882 117.897H12.1022V115.794L17.1474 115.374V114.112L12.1022 113.691V111.588L17.5678 111.168V109.906H10.4204V109.906H17.5678L10 109.485ZM12.1022 117.897L17.5678 118.318V118.318L12.1022 117.897V117.897ZM31.8627 109.906H32.283V110.326H32.2829L32.2831 110.327L32.2831 110.327H32.7035V110.747H32.7034L32.7035 110.747L33.124 111.588L33.124 111.588H33.5445V112.009H33.5443L33.5444 112.009L33.5445 112.009H33.5445H33.9649V112.429H33.9648L33.9648 112.43L34.3853 113.271L34.3854 113.271H34.8057V113.691H34.8057L34.8057 113.691L34.8059 113.691H35.2262V114.112L35.2263 114.112H35.6466V114.533L36.067 115.374L36.0672 115.374H36.4874L36.4874 115.794H36.9078V115.794H36.9079V109.906H38.5896V109.906H36.9078L39.01 109.485L38.5896 119.578V119.58H37.3283L36.4875 118.738L36.4873 118.738H36.067V118.318L36.0668 118.318H35.6466V117.897L35.2261 117.056L35.2259 117.056H34.8057V116.636L34.8057 116.635L34.8054 116.635H34.3853V116.215L34.3853 116.215L34.385 116.215H33.9649V115.794L33.9648 115.794L33.5444 114.953H33.124V114.533H33.1242L33.124 114.533L33.1239 114.532V114.533H32.7034V114.112H32.7037L32.7035 114.112L32.2831 113.271H31.8627V119.58H30.1809V109.906H31.8626H31.8627ZM239.978 109.906H240.399V110.326L240.399 110.327L240.819 110.327H241.24V110.747L241.24 110.747H241.66V111.168H241.66L241.66 111.168V111.588L242.08 112.43V113.691L242.08 113.691H242.081V114.112L241.66 114.112V114.533L241.66 114.533H241.66V114.953H241.24L241.24 114.953V115.374H240.819L240.819 115.374V115.794H240.399V115.794L240.399 115.794H239.978L239.978 116.215L239.978 116.215L240.399 117.056L240.819 117.056V117.476L241.24 117.477V117.897H241.239L241.24 117.897L241.24 118.318H241.66V118.738L242.081 118.738V119.159H242.08L242.08 119.159V119.58L239.978 119.579H239.558L239.558 119.159L239.137 118.318L238.717 118.318V117.897L238.297 117.056L238.296 117.056H237.876L237.876 116.635L237.875 116.635H235.774L235.354 119.579V119.58H233.672V109.906H239.978ZM174.811 111.588L174.811 111.588V111.168H174.39L174.39 111.168L174.39 111.168V110.747H173.97L173.97 110.747L173.97 110.747V110.327L173.55 110.327L173.129 109.906H171.447V119.58H173.129V119.579L173.97 113.692V114.112H174.39V114.112L174.39 114.112L174.811 114.953L174.811 114.953V115.374L175.231 115.374L175.231 115.374V115.794L175.652 115.794L176.072 116.635L176.072 117.056H176.492L176.493 117.056V117.476H176.913H176.913V117.477L177.333 118.318L177.333 118.738H177.754H177.754L177.754 118.738L177.754 119.159H178.174L178.174 119.159L178.174 119.579H178.595L178.595 119.58H180.276V109.906H178.595L178.595 116.215V109.906H180.276L178.174 109.485L177.754 115.794L177.754 115.374V114.953H177.334L177.333 114.953V114.533H176.913H176.913L176.913 114.533V114.112H176.493H176.493V114.112L176.072 113.271V112.85H175.652L175.652 112.85L175.652 112.43H175.231L175.231 112.43L174.811 111.588ZM173.129 113.271L173.97 113.691H173.97L173.97 113.691L173.129 113.271L173.129 113.271ZM77.2697 116.635H77.6901V117.056H77.6899L77.6901 117.056H78.1105V117.476H78.1103L78.1106 117.477L78.531 118.318L78.5311 118.318V118.318H78.9515V118.738H78.9513L78.9515 118.738H79.372V119.159H79.3717L79.3719 119.159V119.58H77.2697L77.2697 119.579H77.2696H76.8492L76.8493 119.159L76.4288 118.318L76.4286 118.318H76.0084V117.897L76.0082 117.897H75.588L75.588 117.477V117.056L75.5877 117.056H75.1676L75.1675 116.635L75.1668 116.635H73.0653L72.6449 119.579V119.58H70.9632V109.906H77.2697H77.2697H77.6901V110.326L77.6901 110.327H78.1106L78.5309 110.327V110.747L78.5311 110.747H78.9515V111.168H78.9513L78.9514 111.168V114.533L78.9513 114.533H78.9515V114.953H78.5311V114.953L78.5308 114.953H78.5309V115.374H78.1105L78.1103 115.374H78.1105V115.794H77.6901V115.794H77.2697V116.635ZM137.812 116.635H137.392L137.392 116.215L137.392 115.794H137.812L138.233 115.794V115.374V115.374H138.233H138.653V114.953L138.653 114.953H138.653H139.074V114.533L139.074 114.533V111.588L138.653 110.747L138.653 110.747V110.327L138.233 110.327H137.812L137.812 110.326V109.906H137.392H131.086V119.58H132.767V119.579L133.188 116.635H135.289L135.29 116.635L135.71 117.477L135.71 117.897H136.131H136.131L136.131 117.897V118.318H136.551H136.551V118.318V118.738L136.551 119.159H136.971H136.972L136.972 119.159V119.579H137.392L137.392 119.58H139.494V119.159L139.494 119.159V118.738H139.074L139.074 118.738V118.318H138.653L138.233 117.477L138.233 117.476V117.056H137.812L137.812 117.056V116.635ZM218.116 117.477H218.536L218.536 117.056H218.957L218.957 116.635L219.377 115.794V109.906H221.059V116.215V117.056L220.638 117.897L220.218 118.738L220.218 119.159H219.798L219.797 119.159H219.377L219.377 119.579H218.957L218.957 119.58H218.536V120H217.695L217.695 120H216.013L215.173 120V119.58L215.551 119.769L215.173 119.58H214.752L214.332 119.579L214.332 119.159L213.491 118.318L213.07 118.318L213.07 117.897V117.476H212.65V117.056V109.906H214.332L214.752 116.635L214.752 117.056H215.173L215.173 117.477H215.593V117.897L215.593 117.897H216.013H217.695L218.116 117.897V117.477ZM118.893 111.168H118.472H118.472L117.632 110.326V109.906H117.211H111.325V119.58H113.007L113.427 116.635H115.95L116.791 116.215H117.211L117.211 116.215H117.632L117.632 115.794H118.052L118.472 115.794V115.374L118.472 115.374V114.953L118.893 114.953V114.533L118.893 114.533V111.588L118.893 111.588V111.168ZM59.191 109.485L50.7823 109.906H58.7705V109.906H50.7823V111.588H53.7253L54.1457 119.58H55.8275V111.588H58.7705L59.191 109.485ZM151.687 109.906L159.255 109.485V111.588H153.789V113.691L158.414 114.112V115.374H153.369L153.369 115.374H158.414L153.789 115.795V117.898L159.251 118.318H159.255V119.58H151.687V117.056H153.369V117.056H151.687V116.635V116.635V114.112V113.691V113.691V109.906H158.834V109.906H151.687ZM77.2697 113.691L77.2695 113.691H76.8493V114.112H76.4288V114.532H76.429L76.4288 114.533H73.0653V111.588H76.4288L76.4289 111.588H76.4288V112.009H76.8491L76.8492 112.009V112.429H77.2697L77.2697 112.43V113.691ZM91.5645 119.58V109.906H99.1324V111.168H93.2463V111.168H99.1323L93.6666 111.588V113.691L98.2908 114.112H98.2915V115.374H93.2463V115.374H98.2914L93.6666 115.795V117.898L99.1293 118.318H99.1324V119.58H91.5645ZM117.211 113.691H117.211V113.691V112.43L116.791 112.429V112.009L116.791 112.009H116.79H116.37V111.588H113.427V114.533H116.37V114.532V114.112H116.791V113.691H117.211ZM137.392 113.691V112.43L137.392 112.429H136.972V112.009L136.972 112.009H136.971H136.551V111.588L133.188 111.588V114.533H136.551L136.551 114.532V114.112H136.972V113.691H137.392H137.392L137.392 113.691ZM200.457 119.58H192.89V109.906H200.457V111.168L194.992 111.588V113.691L199.616 114.112V115.374H194.571L194.571 115.374H199.616L194.992 115.795V117.897L194.992 117.897L200.457 118.318V119.58ZM239.137 111.588L235.774 111.588V114.533L239.137 114.532V114.112H239.558V113.691L239.978 113.691L239.978 112.429H239.558V112.009L239.558 112.009H239.558H239.137V111.588ZM30.1809 120V119.58H31.8627V120H30.1809ZM37.3282 119.58V120H38.5896V119.58H37.3282ZM54.1458 120V119.58H55.8275V120H54.1458ZM70.9632 119.58V120H72.6449V119.58H70.9632ZM77.2697 120V119.58H79.3718V120H77.2697ZM91.5645 119.58V120H99.1324V119.58H91.5645ZM111.325 120V119.58H113.007V120H111.325ZM131.086 119.58V120H132.767V119.58H131.086ZM137.392 120V119.58H139.494V120H137.392ZM151.687 119.58V120H159.255V119.58H151.687ZM171.447 120V119.58H173.129V120H171.447ZM178.595 119.58V120H180.276V119.58H178.595ZM192.89 120V119.58H200.457V120H192.89ZM233.672 119.58V120H235.354V119.58H233.672ZM239.978 120V119.58H242.08V120H239.978Z" fill="#4A4A49"/>
<path fill-rule="evenodd" clip-rule="evenodd" d="M197.935 67.2009L198.776 66.7803H205.923L206.343 67.2009H207.184L208.025 68.0421H208.446L209.707 69.3038V69.7244L210.127 70.145V70.5656L210.548 70.9862V71.8274L210.968 92.4365V94.96L211.389 95.8012V96.2218L211.809 96.6424L214.332 97.4836L214.752 97.063H215.173L216.013 96.2218H217.275L217.695 96.6424V98.3248L217.275 98.7454V99.166L215.173 101.269H214.752L214.332 101.69H213.911L213.491 102.11H209.707L208.866 101.69H208.446L206.343 99.5866V99.166L205.923 98.7454V98.3248L205.503 97.4836L204.241 97.9042L202.98 99.166L202.139 99.5866L201.719 100.007H201.298L200.878 100.428H200.457L200.037 100.848H199.616L199.196 101.269H198.355L197.935 101.69H197.514L196.673 102.11H191.208L190.787 101.69H190.367L188.685 100.007V99.5866L188.265 99.166V98.7454L187.844 97.9042V93.2777L188.265 92.4365V92.0159L188.685 91.5953V91.1747L189.106 90.7541V90.3335L191.628 87.8099H192.049L192.89 86.9688H193.31L193.73 86.5482H194.151L194.571 86.1276H194.992L195.412 85.707H195.833L196.253 85.2864H196.673L197.094 84.8658H197.935L198.355 84.4452H198.776L199.196 84.0246H199.616L200.037 83.604H200.457L200.878 83.1834H201.298L201.719 82.7628H202.139L202.56 82.3422H202.98L203.4 81.9216L204.241 81.501L204.662 81.0804V73.5098L204.241 72.6686V72.248L203.821 71.8274V71.4068L203.4 70.9862L202.56 70.5656L202.139 70.145H201.719L200.457 69.7244H197.514L196.253 70.145H195.833L195.412 70.5656H194.992L194.571 70.9862H194.151L193.31 71.8274V76.8745L192.89 77.7157V78.1363L192.049 78.9775H191.628L191.208 79.3981H187.844L187.424 78.9775V78.5569L187.003 78.1363V76.0333L187.424 75.1921V74.7715L187.844 74.351V73.9304L188.265 73.5098L188.685 72.6686L191.208 70.145H191.628L192.469 69.3038H192.89L193.31 68.8832H193.73L194.151 68.4626H194.571L194.992 68.0421H195.412L195.833 67.6215H196.253L197.094 67.2009H197.935ZM202.98 84.8658H202.56L202.139 85.2864H201.719L200.878 85.707L200.457 86.1276H200.037L199.616 86.5482H199.196L198.776 86.9688L197.935 87.3893L194.992 90.3335V90.7541L194.571 91.1747V92.0159L194.151 92.8571V94.96L194.571 95.8012V96.2218L196.253 97.9042H196.673L197.514 98.3248H198.776L199.616 97.9042H200.457L200.878 97.4836L201.719 97.063L202.139 96.6424L202.98 96.2218L204.241 94.96V94.5394L204.662 94.1188V84.0246H204.241L203.4 84.4452L202.98 84.8658Z" fill="#A47850"/>
<path fill-rule="evenodd" clip-rule="evenodd" d="M89.042 67.2009L89.8828 66.7803H97.4507L98.2915 67.2009H98.712L99.5528 67.6215H99.9733L100.814 68.4626H101.235L103.757 70.9862V71.4068L104.598 72.248V72.6686L105.019 73.0892V73.5098L105.439 73.9304V74.7715L105.859 75.1921V76.0333L106.28 76.8745V78.9775L105.439 79.8187H84.4172L83.9967 80.2393V86.1276L84.4172 87.3893V88.2305L84.8376 89.0717V89.4923L85.258 89.9129V90.3335L85.6785 91.1747L86.0989 91.5953V92.0159L86.5193 92.4365L86.9398 93.2777L89.042 95.3806H89.4624L90.3033 96.2218H90.7237L91.1441 96.6424H91.5646L92.4054 97.063H98.2915L99.1324 96.6424H99.5528L101.235 95.8012L101.655 95.3806H102.075L104.178 93.2777L104.598 92.4365L105.439 91.5953H106.28L107.121 92.4365V92.8571L106.7 93.6982V94.1188L106.28 94.5394L105.859 95.3806L105.439 95.8012L105.019 96.6424L102.075 99.5866L101.235 100.007L100.814 100.428H100.394L99.9733 100.848H99.5528L99.1324 101.269H98.712L97.8711 101.69H97.4507L96.6098 102.11H90.7237L89.4624 101.69H88.6215L87.7806 101.269H87.3602L86.9398 100.848H86.5193L86.0989 100.428H85.6785L85.258 100.007H84.8376L84.4172 99.5866L83.5763 99.166L81.4741 97.063V96.6424L80.6332 95.8012V95.3806L80.2128 94.96V94.5394L79.3719 93.6982V93.2777L78.9515 92.4365V92.0159L78.5311 91.5953V90.7541L78.1106 89.9129V89.0717L77.6902 86.9688V81.501L78.1106 80.2393V78.9775L78.5311 78.1363V77.7157L78.9515 76.8745V76.4539L79.3719 76.0333V75.6127L79.7924 75.1921V74.7715L80.2128 74.351V73.9304L81.0537 73.0892V72.6686L84.8376 68.8832H85.258L85.6785 68.4626H86.0989L86.5193 68.0421H86.9398L87.3602 67.6215H87.7806L88.6215 67.2009H89.042ZM89.042 70.145L86.0989 73.0892V73.5098L85.6785 73.9304V74.351L85.258 74.7715V75.1921L84.8376 75.6127V77.2951H97.4507L98.2915 76.8745H98.712V73.9304L98.2915 73.0892V72.6686L97.8711 72.248V71.8274L95.7689 69.7244H95.3485L94.9281 69.3038H90.7237L90.3033 69.7244L89.042 70.145Z" fill="#A47850"/>
<path d="M10 44.0684V47.0125H14.2044L15.8861 47.4331H16.3065L16.727 47.8537L17.1474 48.2743V48.6949L17.5678 49.5361V59.2097V82.3424V95.8013L17.1474 96.6425V97.0631L16.727 97.4837L16.3065 97.9043L10.4204 98.3249L10 101.269H15.8861H27.2379H32.7035L32.2831 98.3249L26.8174 97.9043H26.397L25.9766 97.4837V97.0631L25.5561 96.6425V86.9689V73.0893H25.9766H57.0888L57.5092 89.913L57.0888 96.6425V97.0631L56.6684 97.4837L56.2479 97.9043L49.9414 98.3249L49.521 101.269H55.8275H67.5997H72.6449V98.3249L67.1793 97.9043H66.7588L66.3384 97.4837L65.918 97.0631V96.6425L65.4975 96.2219V91.1748V49.1155V48.6949L65.918 47.8537L66.3384 47.4331L68.0201 47.0125H72.2245V44.0684H65.0771H57.0888H49.9414V47.0125H54.5662L55.8275 47.4331H56.2479L56.6684 47.8537L57.0888 48.2743V49.1155L57.5092 55.4244V69.304L57.0888 69.7246L25.5561 69.304V59.2097V49.5361L25.9766 48.6949V48.2743L26.397 47.8537L26.8174 47.4331H27.2379L28.4992 47.0125H33.124L33.5444 46.5919V44.0684H25.9766H17.1474H10Z" fill="#A47850"/>
<path d="M94.5076 10V10.4206V11.2618L94.928 11.6824V12.103L95.3484 12.9442V13.3647L95.7689 13.7853V14.2059L96.1893 15.0471V15.4677L96.6097 15.8883V16.3089L97.0302 17.1501V17.5707L97.4506 17.9913V18.4119L97.8711 19.2531V19.6736L98.2915 20.0942V20.9354L98.7119 21.356V21.7766L99.1324 22.6178V23.0384L99.5528 23.459V23.8796L99.9732 24.7208V25.1414L100.394 25.9825V26.4031L100.814 27.2443V27.6649L101.235 28.0855V28.9267L101.655 29.7679V30.1885L102.075 31.0297V31.4503L102.496 32.2914V32.712L102.916 33.5532V34.3944L103.337 35.2356V36.0768L103.757 36.918V37.3386L104.178 38.1798V39.0209L104.598 39.8621V40.7033L105.018 41.5445V42.3857L105.439 43.2269V44.0681L105.859 44.9092V45.7504L106.28 46.5916V47.4328L106.7 48.274V49.1152L107.121 49.9564V50.7976L107.541 51.6387V52.4799L107.962 53.3211V53.7417L108.382 54.5829V55.0035L108.802 55.8447V56.2653L109.223 56.6859V57.527L109.643 57.9476V58.3682L110.064 58.7888V59.2094L110.484 59.63V60.0506L110.905 60.4712V60.8918L111.325 61.3124L111.745 61.733V62.1536L112.166 62.5742L112.586 62.9948L113.007 63.8359L113.427 64.2565L113.848 64.6771L114.268 65.0977L114.688 65.5183L115.109 65.9389L115.529 66.3595L115.95 66.7801L116.37 67.2007L117.211 67.6213L117.632 68.0419L118.052 68.4625H118.472L118.893 68.8831L119.313 69.7243V72.2478L119.734 75.6126V84.445L119.313 88.2304V90.7539L118.893 93.2775V94.9599L118.472 96.6422V98.3246L118.052 99.5864V100.848L117.632 102.11V103.372V104.213H120.154L120.575 103.372V102.531L120.995 101.689V100.848L121.415 100.428V99.5864L121.836 98.7452V98.3246L122.256 97.4834V96.6422L122.677 96.2216V95.3804L123.097 94.9599V94.1187L123.518 93.6981V93.2775L123.938 92.4363V92.0157L124.359 91.5951V90.7539L124.779 90.3333V89.9127L125.199 89.0715V88.6509L125.62 88.2304V87.8098L126.04 87.3892V86.9686L126.461 86.1274V85.7068L126.881 85.2862V84.8656L127.302 84.445V84.0244L127.722 83.6038V83.1832L128.142 82.7626L129.404 81.9215L131.085 81.5009H131.926L132.347 81.0803H133.188L133.608 80.6597H134.029L134.449 80.2391H134.869L135.29 79.8185H135.71L136.131 79.3979H136.551L136.972 78.9773L137.812 78.5567L138.233 78.1361L139.074 77.7155L139.494 77.2949L139.915 76.8743L140.335 76.4537L141.176 76.0331L141.596 75.6126L142.017 75.192L142.437 74.7714L142.858 74.3508L143.278 73.9302L143.699 73.5096L144.119 73.089L144.539 72.6684L144.96 72.2478L145.38 71.8272L145.801 71.4066L146.221 70.986L146.642 70.5654L147.062 70.1448L147.482 69.7243L147.903 69.3037L148.323 68.8831L148.744 68.4625L149.164 68.0419L149.585 67.6213L150.005 67.2007L150.426 66.7801L150.846 66.3595L151.266 65.9389L151.687 65.5183L152.107 65.0977L152.528 64.6771L152.948 64.2565L153.369 63.8359L154.209 63.4154L154.63 62.9948L155.05 62.5742L155.471 62.1536L156.312 61.733L156.732 61.3124L157.152 60.8918L157.993 60.4712L158.414 60.0506L158.834 59.63H159.255L159.675 59.2094L160.096 58.7888H160.516L160.936 58.3682L161.357 57.9476H161.777L162.198 57.527L162.618 57.1065H163.039L163.459 56.6859H163.879L164.3 56.2653L164.72 55.8447H165.141L165.561 55.4241H165.982L166.402 55.0035L166.823 54.5829H167.243L167.663 54.1623H168.084L168.504 53.7417H168.925L169.345 53.3211H169.766L170.186 52.9005L171.027 52.4799L171.447 52.0593H171.868L172.288 51.6387H172.709L173.129 51.2181H173.549L173.97 50.7976H174.39L174.811 50.377H175.231L175.652 49.9564H176.072L176.493 49.5358H176.913L177.333 49.1152H177.754L178.174 48.6946H178.595L179.015 48.274H179.436L179.856 47.8534H180.697L181.117 47.4328H181.538L181.958 47.0122H182.379V46.5916H174.811H169.766L167.243 47.0122H164.72L163.039 47.4328H161.357L160.096 47.8534H158.834L157.573 48.274H156.732L155.891 48.6946H154.63L153.789 49.1152H152.948L152.528 49.5358H151.687L150.846 49.9564H150.426H150.005L149.585 50.377H149.164H148.744L148.323 50.7976H147.903L147.062 51.2181H146.642L146.221 51.6387H145.801L145.38 52.0593H144.539L144.119 52.4799H143.699L143.278 52.9005H142.858L142.437 53.3211H142.017L141.596 53.7417L141.176 54.1623H140.755L140.335 54.5829H139.915L139.494 55.0035L139.074 55.4241H138.653L138.233 55.8447L137.812 56.2653L136.972 56.6859L136.551 57.1065L136.131 57.527L135.71 57.9476L135.29 58.3682L133.608 60.0506L133.188 60.4712L132.767 60.8918L132.347 61.3124L131.926 61.733L131.506 62.1536V62.5742L131.085 62.9948L130.665 63.4154L130.245 64.2565L129.824 64.6771V65.0977L129.404 65.5183V65.9389L128.983 66.3595V66.7801L128.563 67.2007V67.6213L128.142 68.0419V68.4625L127.722 68.8831V69.3037L127.302 70.1448V70.5654L126.881 71.4066V71.8272L126.461 72.6684V73.089L126.04 74.3508V75.192L125.62 76.0331V77.2949L126.04 78.1361V77.7155L126.461 77.2949L126.881 76.8743V76.4537L127.302 76.0331L127.722 75.6126V75.192L128.142 74.7714L128.563 74.3508L128.983 73.5096L129.404 73.089L129.824 72.6684L130.245 71.8272L130.665 71.4066L131.085 70.986L131.506 70.5654L131.926 69.7243L132.347 69.3037L132.767 68.8831L133.188 68.4625L133.608 68.0419L134.029 67.6213L134.449 67.2007L134.869 66.7801L135.29 66.3595L135.71 65.9389L136.131 65.5183L136.551 65.0977L136.972 64.6771L137.392 64.2565L137.812 63.8359L138.233 63.4154L138.653 62.9948L139.074 62.5742L139.915 62.1536L140.335 61.733L140.755 61.3124L141.176 60.8918H141.596L142.017 60.4712L142.437 60.0506L143.278 59.63L143.699 59.2094L144.119 58.7888H144.539L144.96 58.3682L145.801 57.9476L146.221 57.527H146.642L147.062 57.1065L147.903 56.6859L148.323 56.2653H148.744L149.164 55.8447H149.585L150.005 55.4241H150.426L150.846 55.0035H151.266L152.528 54.5829L151.266 55.4241H150.846L150.426 55.8447L150.005 56.2653H149.585L149.164 56.6859L148.744 57.1065H148.323L147.903 57.527L147.482 57.9476L146.642 58.3682L146.221 58.7888L145.801 59.2094L144.96 59.63L144.539 60.0506L144.119 60.4712L143.699 60.8918L143.278 61.3124L142.437 61.733L142.017 62.1536L141.596 62.5742L141.176 62.9948L140.755 63.4154L140.335 63.8359L139.915 64.2565L139.494 64.6771L139.074 65.0977L138.653 65.5183L138.233 65.9389L137.812 66.3595L137.392 66.7801L136.972 67.2007L136.551 67.6213L135.71 68.8831L135.29 69.3037L134.869 69.7243L134.449 70.1448L134.029 70.5654V70.986L133.608 71.4066L133.188 71.8272L132.767 72.2478L132.347 73.089L131.926 73.5096L131.506 73.9302L131.085 74.7714L130.665 75.192L130.245 75.6126V76.0331L129.824 76.4537L129.404 76.8743L128.983 77.7155L128.563 78.1361L128.142 78.9773L127.722 79.3979V79.8185L127.302 80.2391L126.881 80.6597V81.0803L126.461 81.5009L126.04 82.342L125.62 82.7626V83.1832L125.199 83.6038V84.0244L124.779 84.445L124.359 84.8656V85.2862L123.938 85.7068V86.1274L123.518 86.548V86.9686L123.097 87.8098V88.2304L122.256 89.9127L122.677 86.9686V79.3979L122.256 76.0331V73.5096L121.836 71.8272V70.1448L121.415 68.4625V67.2007L120.995 65.9389V64.6771L120.575 63.8359V62.5742L120.154 61.733V60.4712L119.734 59.63V58.7888L119.313 57.9476V57.1065L118.893 56.2653V55.4241L118.472 55.0035V54.1623L118.052 53.3211V52.4799L117.632 52.0593V51.2181L117.211 50.7976V49.9564L116.791 49.5358V48.6946L116.37 48.274V47.8534L115.95 47.0122V46.5916L115.529 45.7504V45.3298L115.109 44.9092V44.4887L114.688 43.6475V43.2269L114.268 42.8063V42.3857L113.848 41.5445V41.1239L113.427 40.7033V40.2827L113.007 39.8621V39.4415L112.586 39.0209V38.6003L112.166 37.7592L113.007 38.6003V39.0209L113.427 39.4415V39.8621L113.848 40.2827V40.7033L114.268 41.1239L114.688 41.5445V41.9651L115.109 42.3857V42.8063L115.529 43.2269V43.6475L115.95 44.0681V44.4887L116.37 44.9092V45.3298L116.791 46.171V46.5916L117.211 47.0122V47.4328L117.632 47.8534V48.274L118.052 48.6946V49.5358L118.472 49.9564V50.377L118.893 51.2181V51.6387L119.313 52.0593V52.9005L119.734 53.3211V54.1623L120.154 54.5829V55.4241L120.575 55.8447V56.6859L120.995 57.527V57.9476L121.415 58.7888V59.63L121.836 60.4712V61.3124L122.256 62.5742V63.4154L122.677 64.6771V65.5183L123.518 65.9389V64.6771L123.938 63.4154V61.733L124.359 59.63V51.6387L123.938 49.9564V48.6946L123.518 47.8534V46.5916L123.097 46.171V45.3298L122.677 44.4887V44.0681L122.256 43.6475V43.2269L121.836 42.3857V41.9651L121.415 41.5445V41.1239L120.995 40.7033V40.2827L120.575 39.8621V39.4415L120.154 39.0209V38.6003L119.734 38.1798L119.313 37.7592V37.3386L118.893 36.918L118.472 36.4974V36.0768L118.052 35.6562L117.632 35.2356V34.815L117.211 34.3944L116.791 33.9738L116.37 33.1326L115.95 32.712L115.529 32.2914L115.109 31.4503L114.688 31.0297L114.268 30.6091L113.848 29.7679L113.427 29.3473L113.007 28.9267L112.586 28.5061L112.166 27.6649L111.745 27.2443L111.325 26.8237L110.905 26.4031L110.484 25.562L110.064 25.1414L109.643 24.7208L109.223 24.3002L108.802 23.8796L108.382 23.459L107.962 23.0384L107.541 22.1972L107.121 21.7766L106.7 21.356L106.28 20.9354L105.859 20.5148L105.439 20.0942L105.018 19.6736L104.598 19.2531L104.178 18.8325L103.757 18.4119L103.337 17.9913L102.916 17.5707L102.496 17.1501L102.075 16.7295L101.655 16.3089L101.235 15.8883L100.814 15.4677L100.394 15.0471L99.9732 14.6265L99.5528 14.2059L99.1324 13.7853L98.7119 13.3647L98.2915 12.9442L97.8711 12.5236L97.4506 12.103L97.0302 11.6824L96.6097 11.2618L95.7689 10.8412L95.3484 10.4206L94.928 10H94.5076Z" fill="#4C8446"/>
<path d="M152.107 36.0771L151.687 36.4977L151.266 36.9183H150.846L150.426 37.3389H150.005L149.585 37.7595H149.164L148.744 38.1801H148.323L147.903 38.6007H147.483L147.062 39.0213H146.642L146.221 39.4419H145.801L145.38 39.8625H144.96L144.539 40.2831H144.119L143.699 40.7037H142.858L142.437 41.1243H142.017L141.596 41.5449L142.017 42.8066L142.858 43.2272H143.278L144.119 43.6478H144.539L144.96 44.0684H145.38L145.801 44.489L146.221 44.9096L146.642 45.3302L147.062 45.7508V46.1714L147.483 46.592V47.0126L147.903 48.6949L148.323 50.3773L149.164 49.9567H149.585L150.426 49.5361H150.846L151.687 49.1155H152.107L152.948 48.6949H153.789L154.21 46.592V36.0771H152.528H152.107Z" fill="#A47850"/>
<path d="M234.933 36.4971L234.092 36.9177H233.672L233.251 37.3383L232.831 37.7589H232.411L231.99 38.1794H231.57L231.149 38.6L230.729 39.0206H230.308L229.888 39.4412H229.467L229.047 39.8618H228.206L227.786 40.2824H227.365L226.945 40.703H226.524L226.104 41.1236H225.684L225.263 41.5442H224.843L224.002 41.9648H223.581L223.161 42.3854V43.2266L223.581 43.6472H224.002L224.422 44.0677H225.263L225.684 44.4883H226.104L226.945 44.9089L227.365 45.3295H227.786L228.206 45.7501L228.627 46.5913L229.047 47.0119V47.8531L229.467 49.1149V61.7327V92.436V97.4831L229.047 97.9037L228.627 98.3243H224.002L223.161 98.7449L222.74 99.1655V100.848L223.161 101.268H227.786H237.456H242.081V98.7449L241.24 98.3243H236.615L236.194 97.9037V97.4831L235.774 97.0625V94.5389V59.6297V41.5442V36.9177L235.354 36.4971H234.933Z" fill="#A47850"/>
<path fill-rule="evenodd" clip-rule="evenodd" d="M153.368 64.6774L154.209 64.2568V70.5657L155.05 69.7245L155.891 69.304L156.312 68.8834H156.732L157.152 68.4628H157.573L157.993 68.0422H158.414L158.834 67.6216H159.675L160.095 67.201H160.936L161.777 66.7804H168.504L169.345 67.201H169.765L170.606 67.6216H171.027L171.447 68.0422H171.868L172.288 68.4628H172.709L173.549 69.304H173.97L176.492 71.8275L176.913 72.6687L177.754 73.5099V73.9305L178.174 74.3511V74.7717L178.595 75.1923V75.6129L179.015 76.0334V76.8746L179.435 77.2952V78.1364L179.856 78.9776V80.2394L180.276 81.9218V85.7071L179.856 86.9689V88.2307L179.435 89.0718V89.4924L179.015 90.3336V90.7542L178.595 91.1748V91.5954L178.174 92.016V92.4366L177.754 92.8572V93.2778L177.333 93.6984V94.119L176.492 94.9601L176.072 95.8013L172.709 99.1661H172.288L171.447 100.007H171.027L170.606 100.428H170.186L169.765 100.848H169.345L168.925 101.269H168.504L167.663 101.69H166.822L165.982 102.11H159.675L158.414 101.69H157.573L156.732 101.269H156.312L155.471 100.848H155.05L154.63 100.428H153.368L152.948 100.848H152.528L152.107 101.269H151.687L151.266 101.69H150.846L150.425 102.11H148.744L148.323 101.69V69.7245L153.368 64.6774ZM158.414 70.9863L157.573 71.4069H157.152L156.732 71.8275H156.312L155.471 72.6687H155.05L154.63 73.0893V92.016L155.05 93.2778V94.119L155.471 94.9601V95.3807L155.891 95.8013V96.2219L157.152 97.4837L157.993 97.9043L158.414 98.3249H158.834L159.255 98.7455H159.675L160.516 99.1661H165.982L166.822 98.7455H167.243L167.663 98.3249H168.084L168.504 97.9043L169.345 97.4837L171.027 95.8013L171.447 94.9601L171.868 94.5396V94.119L172.288 93.6984V93.2778L172.709 92.8572V92.4366L173.129 91.5954V91.1748L173.549 89.913V81.5012L173.129 80.66V79.8188L172.709 78.9776V78.557L172.288 78.1364V77.7158L171.868 77.2952V76.8746L171.447 76.454V76.0334L170.606 75.1923V74.7717L168.504 72.6687L167.663 72.2481L167.243 71.8275H166.822L166.402 71.4069H165.982L165.141 70.9863H164.72L163.459 70.5657H160.516L159.255 70.9863H158.414Z" fill="#A47850"/>
</svg>
