<svg width="257" height="84" viewBox="0 0 257 84" fill="none" xmlns="http://www.w3.org/2000/svg">
<g clip-path="url(#clip0_14547_12500)">
<path fill-rule="evenodd" clip-rule="evenodd" d="M17.6232 19.6001H25.2826C37.0968 19.6001 46.671 25.0195 46.671 41.3137C46.671 57.6079 36.7716 63.6775 21.7781 63.6775H17.2981V19.6001H17.6232ZM12.4929 68.1214H21.742C39.3007 68.1214 52.0542 60.7872 52.0542 41.6388C52.0542 22.4904 44.431 15.1201 25.6078 15.1201H12.4929V68.1214Z" fill="black"/>
<path d="M62.9292 68.1214H68.0234V15.1201H62.9292V68.1214Z" fill="black"/>
<path fill-rule="evenodd" clip-rule="evenodd" d="M74.7437 68.1214H79.8378L85.5824 53.7421H112.39L118.135 68.1214H123.554L102.527 15.1201H96.4572L74.7437 68.1214ZM110.837 49.2982H87.8585L99.3475 19.9253L110.837 49.2982Z" fill="black"/>
<path d="M130.636 68.1214H157.443V63.6414H136.055V15.1201H130.636V68.1214ZM199.57 29.1743H189.345V48.3227C189.345 53.4169 187.756 61.4014 180.422 61.4014C173.087 61.4014 173.702 55.0066 173.702 50.2375V29.1743H163.477V53.7421C163.477 62.6659 167.632 69.0608 176.881 69.0608C186.13 69.0608 186.78 66.4956 189.634 62.6659V68.0853H199.209V28.8491L199.534 29.1743H199.57ZM219.043 47.6724L205.64 68.1214H216.803L225.438 53.453L234.362 68.1214H246.502L233.423 47.6724L244.912 29.1382H234.073L226.739 41.8917L219.08 29.1382H206.94L219.08 47.6724H219.043Z" fill="black"/>
</g>
<defs>
<clipPath id="clip0_14547_12500">
<rect width="236.645" height="56" fill="white" transform="translate(10 14)"/>
</clipPath>
</defs>
</svg>
