<svg width="315" height="122" viewBox="0 0 315 122" fill="none" xmlns="http://www.w3.org/2000/svg">
<path d="M282.853 47.2564H281.7V46.879H284.509V47.2564H283.335V50.3801H282.853V47.2564Z" fill="black"/>
<path d="M287.761 46.879L286.65 49.8351L285.539 46.879H284.91V50.3801H285.35V47.4661L286.461 50.3801H286.859L287.949 47.4661V50.3801H288.39V46.879H287.761Z" fill="black"/>
<path d="M267.465 51.5961H263.608V46.879H272.287V50.3801C274.069 47.3822 276.396 47.0258 280.044 46.879V52.5605C274.803 52.5605 272.455 55.6423 272.455 61.8059V71.0513H276.249V75.8732H263.461V71.0513H267.465V51.5961Z" fill="black"/>
<path d="M153.402 58.6602C152.123 54.3205 148.643 51.7209 144.471 51.7209C140.299 51.7209 136.923 54.2786 135.477 58.6602H153.402ZM144.471 75.8722C140.592 75.8722 136.965 74.3837 134.198 71.6374C131.452 68.891 129.9 65.2641 129.9 61.3647C129.9 57.4862 131.431 53.8593 134.198 51.092C136.965 48.3456 140.592 46.8571 144.471 46.8571C149.376 46.8571 153.821 49.2052 156.525 53.2933C158.161 55.7461 158.936 58.4087 158.936 61.3018C158.936 61.9726 158.894 62.6226 158.831 63.2934H135.267C136.399 68.0524 140.11 70.9455 144.45 70.9455C147.678 70.9455 150.425 69.3732 152.416 66.3543H158.077C155.75 72.3502 150.529 75.8722 144.471 75.8722Z" fill="black"/>
<path d="M175.685 71.0503C181.178 71.0503 185.078 66.9832 185.078 61.4066C185.078 55.8298 181.178 51.6998 175.685 51.6998C170.549 51.6998 166.335 55.9556 166.335 61.4066C166.356 66.8364 170.549 71.0503 175.685 71.0503ZM175.476 75.8722C171.576 75.8722 168.18 74.4257 165.413 71.7212C162.645 68.9539 161.094 65.3689 161.094 61.4066C161.094 57.4443 162.645 53.8593 165.413 51.092C168.18 48.3666 171.576 46.9408 175.476 46.9408C179.522 46.9408 182.562 48.1779 184.973 50.9452V41.9724H180.822V37.2342H189.962V75.8722H185.036V71.7631C182.562 74.5305 179.438 75.8722 175.476 75.8722Z" fill="black"/>
<path d="M199.4 66.2714V66.3762C199.4 69.2903 201.391 71.3029 204.117 71.3029C206.989 71.3029 208.729 69.8773 208.729 67.6131C208.729 65.1393 207.387 64.2797 204.305 63.3992C201.182 62.4768 198.959 61.9526 197.848 61.2398C195.437 59.6885 194.305 57.6968 194.305 54.9295C194.305 50.2544 197.744 46.879 202.628 46.879C204.746 46.879 206.528 47.5918 208.016 49.0384V46.879H212.272V54.6779H207.45C207.136 52.4766 205.605 51.1349 203.236 51.1349C200.825 51.1349 199.274 52.6653 199.274 54.5311C199.274 57.5501 202.104 57.5501 206.821 59.1014C211.685 60.6948 213.844 62.8541 213.844 67.3196C213.844 72.2882 210.197 75.8941 204.871 75.8941C202.314 75.8941 200.343 75.1813 198.708 73.4832V75.8941H194.075V66.2923L199.4 66.2714Z" fill="black"/>
<path d="M220.441 51.597H216.081V46.88H220.441V40.8002H225.431V46.88H229.477V51.597H225.431V71.0942H229.477V75.8741H220.441V51.597Z" fill="black"/>
<path d="M246.527 71.0509C251.663 71.0509 255.877 66.837 255.877 61.4072C255.877 55.9564 251.663 51.7005 246.527 51.7005C241.349 51.7005 237.135 55.9564 237.135 61.4072C237.135 66.837 241.349 71.0509 246.527 71.0509ZM236.213 51.0716C238.98 48.3043 242.628 46.8158 246.527 46.8158C250.427 46.8158 254.074 48.3043 256.842 51.0716C259.609 53.8389 261.098 57.4449 261.098 61.3862C261.098 65.3276 259.609 68.9335 256.842 71.7008C254.074 74.4682 250.427 75.9566 246.527 75.9566C242.628 75.9566 238.98 74.4682 236.213 71.7008C233.445 68.9335 231.894 65.2856 231.894 61.3862C231.894 57.4868 233.445 53.8389 236.213 51.0716Z" fill="black"/>
<path d="M115.575 51.5961H111.718V46.879H120.397V50.3801C122.179 47.3822 124.506 47.0258 128.154 46.879V52.5605C122.913 52.5605 120.565 55.6423 120.565 61.8059V71.0513H124.359V75.8732H111.571V71.0513H115.575V51.5961Z" fill="black"/>
<path d="M37.1524 26C37.1738 26.0214 37.2165 26.0642 37.2379 26.0855C37.2165 26.0642 37.1951 26.0428 37.1524 26Z" fill="black"/>
<path d="M96.4152 37.1718L85.262 26.0186C78.6372 32.6434 70.0836 35.9769 61.551 35.9769C55.0939 35.9559 48.6997 34.2577 43.1231 30.7566C47.6305 36.8364 50.5655 43.7338 51.9492 50.8408C55.1358 51.4488 58.3434 51.7632 61.551 51.7632C74.2136 51.7632 86.8344 46.7527 96.4152 37.1718Z" fill="black"/>
<path d="M51.7656 61.2206C51.7656 48.495 46.8809 35.7066 37.1742 26L26 37.1532C32.6668 43.8199 35.9582 52.4783 35.9792 61.1996C35.9792 67.4052 34.302 73.5688 30.9477 79.0196C36.9855 74.617 43.82 71.7239 50.9061 70.4031C51.4721 67.3632 51.7656 64.3024 51.7656 61.2206Z" fill="black"/>
<path d="M60.9272 70.6745H60.8853C48.2016 70.6745 35.5808 75.6851 26 85.2659L36.7339 96H37.6144C44.1764 89.6685 52.5413 86.482 60.8853 86.4611C67.2585 86.482 73.5479 88.1381 79.0616 91.5343C74.659 85.4755 71.7869 78.6413 70.4451 71.5762C67.3004 70.9892 64.0929 70.6745 60.9272 70.6745Z" fill="black"/>
<path d="M91.4879 43.3985C85.4501 47.8011 78.6156 50.6942 71.5296 52.015C70.9635 55.0549 70.6491 58.1367 70.67 61.2185C70.67 73.7554 75.4081 86.3551 84.8421 95.9989H85.7017L96.4356 85.265C89.7688 78.5772 86.4774 69.9398 86.4564 61.2185C86.4564 55.013 88.1336 48.8493 91.4879 43.3985Z" fill="black"/>
</svg>
