<svg width="359" height="102" viewBox="0 0 359 102" fill="none" xmlns="http://www.w3.org/2000/svg">
<g clip-path="url(#clip0_14810_9309)">
<path d="M112.992 45.4712C112.185 47.0209 111.359 48.5571 110.582 50.1235C110.338 50.6155 110.057 50.823 109.494 50.7895C108.634 50.7393 107.767 50.7527 106.904 50.7862C106.405 50.8063 106.214 50.659 106.231 50.1335C106.332 47.3589 106.526 44.5876 106.807 41.8264C106.981 40.1161 107.235 38.4125 107.376 36.6989C107.429 36.0329 107.674 35.8555 108.3 35.889C109.19 35.9358 110.084 35.9191 110.974 35.8923C111.452 35.8789 111.613 36.0262 111.539 36.5182C111.165 38.9581 110.813 41.4014 110.458 43.8446C110.412 44.1693 110.395 44.5006 110.365 44.8454C110.756 44.8286 110.766 44.5174 110.867 44.3199C111.603 42.8539 112.316 41.3779 113.039 39.9086C113.317 39.343 114.766 38.9447 115.261 39.2928C115.449 39.4233 115.409 39.6375 115.432 39.825C115.603 41.2574 115.77 42.6899 115.944 44.1224C115.981 44.4203 116.051 44.7148 116.245 45.0261C116.697 43.1786 117.152 41.3311 117.604 39.4802C117.842 38.5096 118.086 37.5423 118.307 36.5684C118.411 36.1099 118.585 35.8521 119.134 35.8823C120.021 35.9325 120.918 35.909 121.808 35.889C122.256 35.8789 122.461 35.9258 122.317 36.4814C121.118 41.1035 119.81 45.6955 118.26 50.2139C118.126 50.6021 117.949 50.8029 117.494 50.7862C116.52 50.7494 115.542 50.7561 114.568 50.7862C114.093 50.7996 113.969 50.6054 113.909 50.1636C113.698 48.6073 113.434 47.0577 113.193 45.5081C113.129 45.498 113.062 45.4846 112.999 45.4746L112.992 45.4712ZM110.325 45.2035L110.355 45.1533L110.311 45.1466L110.325 45.2035Z" fill="#7984A0"/>
<path d="M229.69 39.9725C230.379 39.5139 230.935 39.1056 231.527 38.7575C233.927 37.3485 235.878 38.2086 236.45 40.9096C237.157 44.2365 235.242 48.4703 232.277 50.1538C231.059 50.8467 229.74 51.1479 228.351 51.0776C227.812 51.0508 227.605 51.255 227.524 51.7403C227.387 52.5603 227.213 53.377 227.076 54.1969C227.005 54.6153 226.825 54.7961 226.366 54.8027C225.476 54.8128 224.586 54.8764 223.702 54.9634C223.103 55.0236 223.016 54.8195 223.123 54.2672C223.729 51.2215 224.314 48.1691 224.883 45.1134C225.228 43.2592 225.556 41.4016 225.827 39.534C225.941 38.7508 226.199 38.3492 227.069 38.4262C227.758 38.4864 228.468 38.463 229.154 38.3592C229.77 38.2655 229.911 38.4697 229.814 39.0119C229.767 39.283 229.74 39.5574 229.686 39.9725H229.69ZM232.501 43.7947C232.514 42.4492 232.193 41.8568 231.534 41.7497C230.787 41.6292 229.412 42.3287 229.261 42.9847C228.967 44.2833 228.739 45.5953 228.488 46.904C228.441 47.155 228.435 47.3759 228.736 47.5298C229.7 48.0252 230.764 47.8043 231.41 46.904C232.126 45.9032 232.431 44.7586 232.501 43.7913V43.7947Z" fill="#7984A0"/>
<path d="M244.62 48.9855C244.018 49.4072 243.439 49.8256 242.85 50.2306C242.388 50.5485 241.889 50.7928 241.347 50.9401C239.791 51.3652 238.579 50.756 238.05 49.2231C237.465 47.5229 237.659 45.8226 238.178 44.1492C239.382 40.2567 242.549 37.9373 246.394 38.1347C247.505 38.1916 248.597 38.4125 249.674 38.7137C250.17 38.851 250.263 39.0652 250.166 39.5471C249.694 41.8866 249.263 44.2328 248.804 46.5724C248.573 47.7471 248.65 47.8609 249.825 47.6969C250.227 47.64 250.414 47.6969 250.397 48.122C250.397 48.1488 250.397 48.1789 250.401 48.2057C250.551 49.7017 250.555 49.7084 249.149 50.2975C248.637 50.5117 248.115 50.7226 247.579 50.8631C245.661 51.3652 244.962 50.92 244.62 48.9888V48.9855ZM241.832 45.6285C241.893 46.2544 241.699 47.0476 242.609 47.3187C243.345 47.5396 244.838 46.6661 244.995 45.9231C245.246 44.7282 245.471 43.53 245.691 42.3318C245.735 42.0975 245.788 41.8632 245.474 41.6992C244.57 41.2206 243.549 41.4114 242.934 42.2414C242.201 43.2321 241.873 44.3634 241.829 45.6285H241.832Z" fill="#7984A0"/>
<path d="M141.574 48.9521C140.922 49.4206 140.349 49.8624 139.747 50.2507C139.375 50.4883 138.971 50.6891 138.555 50.8364C136.735 51.4924 135.249 50.6824 134.847 48.7881C134.332 46.3615 134.804 44.0689 136.102 41.9971C138.244 38.5832 141.387 37.4788 145.758 38.4895C147.237 38.8309 147.227 38.8276 146.936 40.3002C146.518 42.4222 146.11 44.5475 145.718 46.6761C145.524 47.7338 145.634 47.8643 146.715 47.7103C147.164 47.6467 147.304 47.7472 147.361 48.1823C147.552 49.6616 147.569 49.6716 146.183 50.2607C145.621 50.4983 145.042 50.7125 144.453 50.8665C142.568 51.3552 141.892 50.91 141.584 48.9521H141.574ZM141.303 41.4583C140.862 41.4683 140.507 41.6156 140.195 41.8666C139.185 42.6866 138.428 45.3809 138.843 46.6393C138.977 47.051 139.242 47.3121 139.66 47.3723C140.487 47.4961 141.802 46.5556 141.963 45.7323C142.16 44.7282 142.277 43.7007 142.552 42.7201C142.776 41.9168 142.552 41.5854 141.755 41.5486C141.591 41.5419 141.431 41.485 141.3 41.4583H141.303Z" fill="#7984A0"/>
<path d="M215.475 50.9635C214.3 50.9903 213.146 50.8229 211.991 50.6288C211.512 50.5485 211.382 50.3812 211.479 49.9193C211.656 49.0792 211.81 48.2324 211.948 47.3823C212.031 46.8635 212.225 46.6694 212.788 46.8501C213.768 47.1647 214.792 47.3254 215.82 47.399C216.499 47.4492 217.356 47.5463 217.661 46.7798C217.945 46.0603 217.182 45.682 216.727 45.267C216.131 44.7248 215.475 44.2496 214.873 43.7107C212.373 41.4683 212.684 38.1615 215.579 36.4713C216.837 35.7349 218.24 35.4571 219.686 35.6446C222.136 35.9659 223.1 37.6829 223.474 39.8852C223.531 40.2265 223.401 40.3905 223.046 40.4441C222.581 40.5144 222.116 40.6148 221.66 40.7453C220.763 40.9997 219.99 41.1704 219.719 39.8751C219.605 39.3262 219.016 39.0384 218.387 39.0785C217.524 39.1321 217.062 39.942 217.493 40.6884C217.949 41.4816 218.722 41.9669 219.394 42.5426C220.01 43.0681 220.606 43.6069 221.138 44.2194C222.725 46.0469 222.423 48.4098 220.425 49.7787C218.929 50.7995 217.232 51.007 215.475 50.9602V50.9635Z" fill="#7984A0"/>
<path d="M122.286 46.3415C122.296 42.5461 125.121 38.9548 128.699 38.1817C129.389 38.0344 130.095 38.0143 130.774 38.1315C132.126 38.3624 133.191 39.0318 133.549 40.4409C133.914 41.8666 133.596 43.1552 132.468 44.1526C131.075 45.3843 129.332 45.7725 127.568 46.0871C127.431 46.1106 127.27 46.0771 127.156 46.1373C126.872 46.288 126.326 46.0202 126.299 46.5557C126.276 47.0176 126.641 47.3121 127.042 47.4728C127.809 47.7773 128.615 47.8108 129.425 47.7071C130.336 47.5899 131.246 47.4795 132.15 47.3289C132.538 47.2653 132.739 47.359 132.769 47.7606C132.802 48.2024 132.823 48.6475 132.879 49.0893C132.91 49.3337 132.799 49.4542 132.608 49.5412C130.51 50.4616 128.388 51.3351 126.022 50.9703C123.585 50.5955 122.28 48.932 122.286 46.3449V46.3415ZM126.333 44.2631C127.377 44.2129 128.314 43.9953 129.164 43.4899C129.944 43.028 130.209 42.2013 129.807 41.5855C129.442 41.0232 128.605 40.9764 127.872 41.5219C126.982 42.1846 126.564 43.1284 126.33 44.2631H126.333Z" fill="#7984A0"/>
<path d="M169.023 38.0477C170.968 38.0812 172.229 38.9246 172.668 40.5077C173.116 42.1176 172.367 43.8111 170.78 44.7449C169.288 45.6285 167.621 45.9465 165.937 46.2009C165.285 46.2979 165.191 46.5657 165.626 47.0744C166.128 47.6635 166.841 47.7304 167.537 47.7404C168.739 47.7605 169.927 47.5831 171.102 47.3589C171.604 47.2652 171.771 47.3355 171.858 47.8609C172.109 49.3804 172.146 49.3972 170.743 49.9494C168.896 50.6757 167.028 51.3083 164.987 50.9535C162.989 50.6054 161.717 49.3001 161.442 47.2786C160.9 43.3058 163.879 39.0317 167.788 38.1916C168.193 38.1046 168.615 38.0912 169.026 38.041L169.023 38.0477ZM168.032 41.1269C166.965 41.1637 165.318 43.0681 165.459 44.0354C165.485 44.2195 165.596 44.273 165.74 44.2496C166.838 44.0755 167.962 43.945 168.762 43.0413C169.093 42.6665 169.204 42.2146 168.99 41.726C168.796 41.2842 168.421 41.1503 168.036 41.1269H168.032Z" fill="#7984A0"/>
<path d="M264.103 46.2851C264.126 42.4696 266.954 38.9152 270.559 38.1721C271.248 38.0316 271.951 38.0215 272.637 38.142C274.2 38.4131 275.215 39.4038 275.452 40.8296C275.707 42.3458 274.933 43.8854 273.474 44.7489C271.981 45.6325 270.315 45.9504 268.631 46.2048C267.978 46.3018 267.888 46.5729 268.32 47.0783C268.822 47.6674 269.535 47.7343 270.231 47.7444C271.433 47.7645 272.621 47.5871 273.795 47.3628C274.298 47.2658 274.465 47.3427 274.552 47.8682C274.803 49.3877 274.83 49.3844 273.437 49.9601C272.199 50.4721 270.92 50.8303 269.588 51.0177C266.295 51.4863 264.079 49.5919 264.103 46.2851ZM270.716 41.1208C270.633 41.1342 270.522 41.1509 270.415 41.1743C269.451 41.3986 268.193 42.9716 268.163 43.9623C268.156 44.1933 268.25 44.2769 268.444 44.2468C269.515 44.0795 270.609 43.9423 271.409 43.0955C271.777 42.7072 271.908 42.2387 271.677 41.7132C271.496 41.3049 271.148 41.171 270.716 41.1174V41.1208Z" fill="#7984A0"/>
<path d="M178.98 48.263C179.044 46.9577 179.666 45.4717 180.238 43.9622C180.379 43.5907 180.948 43.0318 180.499 42.8443C180.004 42.6368 179.248 42.7105 178.789 43.3263C177.839 44.6048 176.671 45.6825 175.546 46.8004C175.074 47.269 174.726 47.4196 174.334 46.7603C174.251 46.6197 174.127 46.4925 173.996 46.3921C173.565 46.0574 173.682 45.7896 174.033 45.4616C174.763 44.7755 175.399 43.999 176.001 43.1958C176.239 42.8778 176.346 42.7238 175.871 42.4762C174.749 41.8871 174.498 41.0336 175.077 39.8923C175.767 38.5402 176.851 37.6901 178.411 37.5863C179.479 37.516 180.038 37.8942 180.339 38.9117C180.489 39.4204 180.707 39.5242 181.172 39.3401C181.741 39.1192 182.414 39.0489 182.886 38.7042C183.903 37.9578 184.787 38.5067 185.711 38.8079C186.226 38.9753 185.975 39.32 185.855 39.6179C185.162 41.3148 184.445 43.005 183.786 44.7153C183.538 45.3579 183.385 46.044 183.251 46.7234C183.07 47.6338 183.368 47.925 184.298 47.9551C184.643 47.9685 185.162 47.5869 185.306 48.2965C185.53 49.3876 185.386 49.8595 184.686 50.1808C183.773 50.5992 182.822 50.9238 181.825 51.0711C179.907 51.3556 178.957 50.5155 178.983 48.2597L178.98 48.263Z" fill="#7984A0"/>
<path d="M154.273 46.3581C155.197 44.2261 156.127 42.0974 157.041 39.9621C157.697 38.4259 157.69 38.4225 159.354 38.4225C160.124 38.4225 160.897 38.4225 161.797 38.4225C161.225 39.6307 160.723 40.7352 160.177 41.8196C158.765 44.621 157.322 47.409 155.916 50.2171C155.672 50.7024 155.391 50.92 154.829 50.8965C153.744 50.853 152.656 50.8564 151.572 50.8965C151.043 50.9166 150.816 50.7259 150.755 50.2171C150.471 47.8207 150.16 45.4276 149.882 43.0312C149.735 41.7628 149.661 40.4876 149.514 39.2224C149.443 38.62 149.674 38.4459 150.243 38.4426C151.077 38.4392 151.913 38.389 152.74 38.302C153.329 38.2418 153.52 38.4493 153.54 39.0283C153.62 41.4682 153.818 43.8981 154.059 46.3246C154.129 46.3347 154.196 46.3481 154.266 46.3581H154.273Z" fill="#7984A0"/>
<path d="M261.077 43.2625C260.853 43.2625 260.628 43.2424 260.411 43.2658C259.691 43.3462 259.226 43.2658 259.253 42.312C259.276 41.4618 258.59 41.1573 257.76 41.5623C256.589 42.1346 256.157 43.2324 255.946 44.4005C255.504 46.8772 256.354 47.8244 258.888 47.7374C259.665 47.7106 260.441 47.6269 261.207 47.5031C261.649 47.4328 261.837 47.5633 261.873 47.9817C261.877 48.0386 261.887 48.0921 261.894 48.1457C262.084 49.6518 262.088 49.6618 260.675 50.1773C259.367 50.6559 258.025 51.0274 256.622 51.0709C253.694 51.1579 251.903 49.4778 251.769 46.5525C251.622 43.3261 253.697 39.9624 256.649 38.6471C257.713 38.1718 258.831 37.9978 259.986 38.1082C261.696 38.2722 262.707 39.3098 262.914 41.0903C262.914 41.1171 262.914 41.1472 262.918 41.174C263.045 42.5507 262.43 43.2458 261.074 43.2592L261.077 43.2625Z" fill="#7984A0"/>
<path d="M198.071 50.9398C196.476 50.9867 195.678 50.4456 195.678 49.3166C195.678 47.5828 195.678 47.5728 197.419 47.5895C198.175 47.5962 198.921 47.546 199.661 47.4088C200.591 47.2381 200.819 46.7394 200.381 45.9161C199.443 44.1589 199.269 44.1054 197.516 44.9488C196.963 45.2132 196.391 45.4341 195.845 45.7086C195.437 45.9161 195.183 45.8859 195.072 45.3973C195.009 45.1262 194.938 44.8551 194.818 44.6074C194.61 44.1757 194.771 43.9615 195.169 43.7673C195.892 43.4092 196.582 42.9942 197.295 42.616C197.653 42.4286 197.753 42.2144 197.562 41.8228C196.696 40.0221 197.854 38.4892 199.447 37.9805C200.421 37.6692 201.418 37.6056 202.402 37.9002C203.727 38.2951 204.112 39.259 203.47 40.484C203.393 40.6313 203.289 40.7651 203.219 40.9157C203.028 41.3375 202.362 41.5316 202.482 42.0303C202.586 42.4587 202.978 42.8202 203.242 43.2117C203.811 44.0686 204.394 44.9153 204.591 45.9562C204.889 47.5393 204.367 48.8078 202.984 49.6546C201.264 50.7089 199.32 50.8762 198.075 50.9398H198.071Z" fill="#7984A0"/>
<path d="M190.283 42.2616C188.834 42.2616 188.82 42.2616 189.028 40.8358C189.306 38.9481 189.617 37.0638 189.898 35.1761C189.975 34.6674 190.153 34.403 190.742 34.4364C191.682 34.49 192.629 34.4766 193.573 34.4398C194.145 34.4163 194.333 34.5201 194.226 35.1694C193.968 36.7224 193.252 38.108 192.743 39.5673C192.579 40.0392 192.385 40.4977 192.201 40.963C191.578 42.5494 191.977 42.2248 190.28 42.2649L190.283 42.2616Z" fill="#7984A0"/>
<path d="M180.353 70.0512C179.626 71.6041 178.9 73.1605 178.167 74.7101C178.033 74.9946 177.973 75.346 177.511 75.3527C177.042 75.3594 176.808 75.2992 176.855 74.7168C177.093 71.8953 177.454 69.0906 177.816 66.2858C177.839 66.0951 177.909 65.9076 177.926 65.7135C177.949 65.3922 178.12 65.2818 178.421 65.2985C178.826 65.3219 178.733 65.5863 178.699 65.8374C178.492 67.377 178.284 68.9132 178.087 70.4561C177.936 71.6309 177.802 72.809 177.779 74.024C178.502 72.4743 179.228 70.9247 179.951 69.3751C180.035 69.1977 180.105 69.0203 180.199 68.8496C180.349 68.5718 180.403 68.1601 180.871 68.2605C181.316 68.3576 181.156 68.7425 181.179 69.017C181.32 70.6034 181.444 72.1932 181.584 73.9336C182.029 73.2508 182.103 72.5881 182.27 71.9723C182.809 69.9675 183.305 67.9493 183.813 65.9344C183.897 65.6031 183.947 65.2182 184.412 65.3152C184.904 65.419 184.647 65.7805 184.586 66.0449C183.89 68.9534 183.094 71.8384 182.217 74.7001C182.073 75.1753 181.879 75.3996 181.353 75.3494C180.791 75.2958 180.978 74.8841 180.948 74.603C180.798 73.0902 180.667 71.574 180.53 70.0612C180.47 70.0612 180.409 70.0545 180.353 70.0512Z" fill="#7984A0"/>
<path d="M163.902 73.0766C163.236 73.7962 162.764 74.3853 162.078 74.7367C160.646 75.4697 159.387 74.9041 159.016 73.3477C158.373 70.6434 160.813 66.4296 164.769 67.6345C164.95 67.6914 165.127 67.8286 165.305 67.6412C165.509 67.4203 165.72 67.3835 165.954 67.591C166.171 67.7818 166.074 67.9926 166.004 68.2035C165.74 68.99 165.566 69.8234 165.191 70.5564C164.518 71.8684 164.538 73.2339 164.699 74.6162C164.99 77.1063 164.565 77.6753 162.102 78.0535C161.185 78.1941 160.271 78.1573 159.354 78.1305C159.056 78.1238 158.704 78.164 158.745 77.6753C158.785 77.2034 159.123 77.2904 159.421 77.2871C160.452 77.2837 161.482 77.3373 162.507 77.2603C163.852 77.1599 164.126 76.765 163.976 75.4262C163.936 75.0681 163.916 74.7066 163.902 74.3451C163.889 73.9937 163.902 73.6389 163.902 73.0766ZM159.749 72.2466C159.729 73.91 160.696 74.7066 161.981 74.0439C162.982 73.5285 163.695 72.6917 164.013 71.6241C164.27 70.7539 164.411 69.8468 164.739 68.9934C164.873 68.6453 164.749 68.5281 164.438 68.401C163.126 67.8587 161.83 68.1399 160.893 69.2109C160.134 70.0811 159.765 71.0986 159.749 72.2466Z" fill="#7984A0"/>
<path d="M116.503 68.2539C118.337 67.1026 118.755 67.1361 119.278 68.4648C119.686 68.1803 120.061 67.8523 120.493 67.6281C121.51 67.0959 122.256 67.5979 122.196 68.7694C122.123 70.1617 121.694 71.4904 121.39 72.8426C121.292 73.2744 121.192 73.7061 121.125 74.1446C121.068 74.5328 121.045 74.9277 121.661 74.6667C121.868 74.5797 122.123 74.5094 122.22 74.8073C122.317 75.1185 122.015 75.1654 121.831 75.2424C121.403 75.4231 120.938 75.7109 120.499 75.3528C120.101 75.0282 120.215 74.5295 120.292 74.0977C120.59 72.461 121.118 70.8746 121.339 69.2212C121.386 68.8631 121.52 68.4548 121.155 68.2272C120.794 68.0029 120.469 68.2841 120.171 68.4782C119.495 68.9233 119.07 69.489 118.946 70.3391C118.729 71.8184 118.391 73.281 118.106 74.7504C118.039 75.0984 117.949 75.4499 117.487 75.326C117.015 75.1988 117.279 74.8374 117.33 74.5797C117.664 72.8393 118.023 71.1022 118.351 69.3584C118.427 68.9601 118.571 68.4648 118.133 68.2171C117.745 67.9996 117.397 68.3276 117.082 68.5518C116.526 68.9501 116.155 69.412 116.048 70.1617C115.82 71.7214 115.442 73.261 115.154 74.8139C115.087 75.1654 115 75.393 114.589 75.3394C114.06 75.2691 114.364 74.911 114.398 74.7068C114.779 72.5246 115.188 70.3424 115.586 68.1636C115.643 67.8456 115.71 67.5645 116.135 67.5812C116.623 67.6013 116.332 68.013 116.503 68.2539Z" fill="#7984A0"/>
<path d="M331.296 74.0479C330.61 74.6303 329.957 75.0955 329.184 75.3633C328.116 75.7314 327.213 75.3231 326.848 74.2621C325.994 71.7854 327.668 66.9892 331.825 67.4612C332.561 67.5448 332.728 67.2469 332.815 66.6545C332.916 65.9684 333.076 65.2923 333.18 64.6062C333.24 64.1945 333.455 63.9736 333.846 64.064C334.271 64.1611 334.044 64.5192 333.997 64.7501C333.435 67.6352 332.859 70.5169 332.287 73.3986C332.26 73.5358 332.233 73.6731 332.223 73.8103C332.146 74.6772 332.307 74.8043 333.147 74.6169C333.378 74.5667 333.709 74.2086 333.86 74.6035C334.007 75.0018 333.538 75.0554 333.294 75.1725C332.012 75.7883 331.513 75.5239 331.303 74.0479H331.296ZM330.754 68.1305C330.278 68.0803 329.723 68.2912 329.217 68.6727C327.872 69.6768 327.065 72.2038 327.591 73.7835C327.775 74.3324 328.133 74.6939 328.722 74.7374C329.753 74.8144 331.473 73.4488 331.667 72.438C331.861 71.434 332.062 70.4299 332.273 69.4291C332.507 68.3012 332.451 68.2243 331.252 68.154C331.142 68.1473 331.031 68.1439 330.754 68.1305Z" fill="#7984A0"/>
<path d="M196.481 68.7326C197.164 68.3309 197.703 67.8423 198.385 67.5879C199.607 67.1294 200.601 67.5444 200.919 68.7995C201.418 70.7675 200.912 72.5414 199.584 74.0542C198.302 75.5134 196.658 75.7243 194.854 75.3093C194.409 75.2055 194.265 74.998 194.356 74.5529C195.015 71.2394 195.671 67.9259 196.304 64.6091C196.381 64.1974 196.568 63.9699 196.943 64.0502C197.405 64.1472 197.087 64.5254 197.057 64.733C196.893 65.7705 196.672 66.8014 196.471 67.8322C196.417 68.1 196.33 68.3644 196.484 68.7326H196.481ZM196.699 74.7704C197.137 74.8072 197.515 74.7269 197.88 74.5797C199.664 73.85 200.906 70.6939 200.096 68.9434C199.882 68.4815 199.54 68.187 199.008 68.1636C198.024 68.1234 196.123 69.5659 195.936 70.5131C195.745 71.4637 195.571 72.4142 195.4 73.3681C195.166 74.67 195.179 74.6834 196.494 74.7671C196.578 74.7738 196.662 74.7671 196.702 74.7671L196.699 74.7704Z" fill="#7984A0"/>
<path d="M112.272 74.3792C112.293 74.5432 112.306 74.7106 112.339 74.8746C112.393 75.1289 112.359 75.313 112.045 75.3398C111.764 75.3632 111.57 75.3331 111.539 74.975C111.469 74.175 111.335 73.3785 111.275 72.5786C111.242 72.1301 111.091 71.9092 110.622 71.9828C110.596 71.9862 110.566 71.9828 110.539 71.9828C109.538 71.9928 108.38 71.6983 107.58 72.1033C106.773 72.5116 106.633 73.7801 106.144 74.6436C106.034 74.8377 105.974 75.0653 105.833 75.2293C105.672 75.4168 105.401 75.3933 105.204 75.3164C104.892 75.1959 105.14 74.9817 105.207 74.8444C106.757 71.7753 108.323 68.7128 109.869 65.6437C110.11 65.1651 110.499 65.2822 110.87 65.2789C111.285 65.2789 111.242 65.6002 111.275 65.8713C111.62 68.7062 111.968 71.541 112.316 74.3759C112.299 74.3759 112.286 74.3792 112.269 74.3826L112.272 74.3792ZM110.529 65.975C109.578 67.8326 108.728 69.4927 107.814 71.2766C108.785 71.2766 109.608 71.2431 110.428 71.29C111.014 71.3235 111.131 71.0992 111.064 70.5704C110.877 69.1178 110.723 67.6586 110.532 65.975H110.529Z" fill="#7984A0"/>
<path d="M265.478 74.6136C267.192 74.6136 268.748 74.6069 270.308 74.6203C270.542 74.6203 270.934 74.4563 270.947 74.9115C270.96 75.3466 270.629 75.3466 270.301 75.3466C268.521 75.3399 266.737 75.3232 264.956 75.3533C264.253 75.3667 264.3 75.032 264.514 74.5935C264.608 74.3994 264.785 74.2421 264.929 74.0714C266.947 71.665 268.969 69.2585 270.984 66.8487C271.135 66.668 271.429 66.504 271.312 66.2329C271.188 65.9551 270.867 66.0756 270.632 66.0722C269.381 66.0656 268.126 66.0823 266.874 66.0789C266.653 66.0789 266.312 66.1793 266.315 65.7811C266.315 65.4564 266.509 65.2924 266.857 65.2924C268.668 65.2991 270.479 65.3025 272.286 65.2891C272.701 65.2891 272.738 65.4832 272.684 65.8112C272.634 66.1124 272.413 66.2931 272.239 66.5007C270.207 68.9339 268.172 71.3604 266.138 73.7936C265.943 74.0246 265.763 74.2622 265.485 74.6103L265.478 74.6136Z" fill="#7984A0"/>
<path d="M128.18 73.9973C127.528 74.4994 126.905 75.0014 126.159 75.306C124.977 75.788 124.07 75.3596 123.695 74.1413C122.956 71.7382 124.579 68.4716 126.935 67.6382C127.919 67.2901 128.907 67.4273 129.894 67.6415C130.433 67.7587 130.202 68.1636 130.148 68.4448C129.87 69.9409 129.559 71.4302 129.265 72.923C129.211 73.1941 129.158 73.4652 129.124 73.7396C129.004 74.6902 129.178 74.8374 130.115 74.5831C130.339 74.5228 130.627 74.2651 130.764 74.5931C130.918 74.9646 130.493 75.0148 130.275 75.1286C128.913 75.8315 128.425 75.5738 128.18 73.9973ZM124.341 72.8427C124.325 73.8902 124.783 74.65 125.479 74.7337C126.326 74.8374 128.344 73.4551 128.538 72.5883C128.809 71.37 129.02 70.1383 129.268 68.9167C129.352 68.505 129.225 68.3276 128.799 68.244C127.588 67.9963 126.537 68.2138 125.687 69.161C124.743 70.212 124.442 71.4905 124.341 72.846V72.8427Z" fill="#7984A0"/>
<path d="M152.168 68.9533C152.834 68.4781 153.45 67.9091 154.243 67.6413C154.912 67.4171 155.615 67.2062 156.228 67.7116C156.84 68.217 156.814 68.9265 156.646 69.6328C156.325 70.9782 155.994 72.3237 155.679 73.6725C155.435 74.7234 155.595 74.8674 156.626 74.5528C156.837 74.4892 157.065 74.3185 157.205 74.5963C157.352 74.8808 157.078 74.9745 156.887 75.0749C156.69 75.1786 156.489 75.2723 156.281 75.3493C155.167 75.7543 154.558 75.2757 154.795 74.1243C155.076 72.7688 155.438 71.4334 155.746 70.0812C155.886 69.4688 156.137 68.7659 155.495 68.3208C154.882 67.8957 154.24 68.2705 153.698 68.5785C152.57 69.2177 151.616 69.9674 151.529 71.4736C151.462 72.5981 151.107 73.7026 150.903 74.8205C150.839 75.1719 150.722 75.4029 150.317 75.3393C149.828 75.2623 150.069 74.941 150.116 74.7034C150.518 72.5513 150.926 70.4025 151.325 68.2505C151.385 67.9258 151.338 67.5275 151.847 67.5878C152.479 67.6614 151.991 68.1065 152.074 68.3643C152.131 68.535 151.984 68.7391 152.165 68.9567L152.168 68.9533Z" fill="#7984A0"/>
<path d="M338.565 75.4971C336.828 75.5273 335.74 74.4964 335.68 72.7594C335.58 70.0082 337.762 67.4344 340.205 67.421C341.326 67.4143 341.999 67.7992 342.284 68.6058C342.571 69.4258 342.22 70.373 341.37 70.9922C340.185 71.859 338.789 72.1234 337.384 72.3109C336.49 72.428 336.346 72.6121 336.621 73.4555C336.905 74.3291 337.685 74.811 338.803 74.7642C339.643 74.7274 340.443 74.4897 341.226 74.1985C341.447 74.1149 341.738 73.9375 341.852 74.2989C341.939 74.5868 341.621 74.6269 341.44 74.724C340.593 75.1758 339.435 75.4838 338.572 75.4971H338.565ZM340.145 68.1473C338.415 68.0971 337.036 69.5731 336.594 71.4072C336.54 71.6348 336.594 71.8021 336.875 71.772C338.341 71.6013 339.814 71.434 341.015 70.4366C341.517 70.0182 341.698 69.4526 341.48 68.8602C341.259 68.2611 340.697 68.1205 340.145 68.1473Z" fill="#7984A0"/>
<path d="M309.243 70.9852C309.333 69.3921 310.013 67.3806 311.887 65.9146C312.332 65.5666 312.827 65.339 313.38 65.2084C314.21 65.0143 315.023 65.0277 315.625 65.687C316.335 66.4602 316.328 67.4609 316.281 68.4416C316.268 68.6859 316.057 68.7328 315.853 68.7428C315.572 68.7562 315.461 68.6022 315.458 68.3345C315.455 67.9462 315.468 67.5513 315.411 67.1697C315.257 66.1389 314.591 65.7038 313.56 65.9213C312.446 66.1556 311.696 66.8719 311.12 67.7956C310.19 69.295 309.899 70.9384 310.14 72.6688C310.361 74.2418 311.612 75.0451 313.343 74.7472C313.805 74.6669 314.256 74.5129 314.715 74.4058C314.919 74.359 315.194 74.0577 315.307 74.4928C315.378 74.7572 315.284 74.9848 314.993 75.0886C312.195 76.0793 309.146 75.671 309.243 70.9886V70.9852Z" fill="#7984A0"/>
<path d="M276.711 75.4995C275.061 75.5129 274.127 74.6628 273.913 72.9492C273.558 70.1143 276.025 67.2728 278.703 67.4301C279.472 67.4769 280.148 67.738 280.436 68.5011C280.721 69.2575 280.557 69.9804 280.001 70.5862C279.124 71.5401 277.933 71.848 276.741 72.1225C276.256 72.2363 275.754 72.3166 275.259 72.32C274.676 72.3233 274.633 72.6212 274.71 73.0697C274.904 74.2043 275.804 74.8536 277.103 74.7565C277.909 74.6963 278.686 74.4754 279.442 74.1842C279.633 74.1106 279.887 73.9466 280.011 74.2478C280.132 74.539 279.857 74.6159 279.66 74.7097C278.726 75.1515 277.759 75.4862 276.708 75.4995H276.711ZM275.322 71.7878C275.864 71.6807 276.41 71.5836 276.952 71.4631C277.799 71.2757 278.626 71.0247 279.258 70.3955C279.663 69.9905 279.934 69.5018 279.693 68.8994C279.466 68.3304 278.99 68.1664 278.425 68.1463C276.751 68.0894 274.964 69.696 274.827 71.3527C274.79 71.8045 275.021 71.7911 275.325 71.7878H275.322Z" fill="#7984A0"/>
<path d="M232.584 75.5002C230.921 75.5203 229.977 74.6769 229.763 72.98C229.402 70.1385 231.841 67.2902 234.519 67.4308C235.285 67.4709 235.968 67.7186 236.269 68.4784C236.581 69.2649 236.393 70.0012 235.814 70.6305C235.369 71.1091 234.814 71.4203 234.214 71.6546C233.277 72.0194 232.3 72.2805 231.303 72.3073C230.519 72.3307 230.416 72.642 230.61 73.2879C230.921 74.3355 231.758 74.871 233.003 74.7606C233.783 74.6903 234.532 74.4828 235.262 74.205C235.459 74.128 235.717 73.9607 235.848 74.2284C236.012 74.5631 235.674 74.6434 235.463 74.7405C234.549 75.1622 233.612 75.4936 232.588 75.5036L232.584 75.5002ZM234.114 68.147C232.521 68.147 230.811 69.7469 230.68 71.3434C230.66 71.5877 230.643 71.8119 230.985 71.7684C232.42 71.5944 233.866 71.4304 235.034 70.4598C235.496 70.0749 235.787 69.5527 235.543 68.9135C235.292 68.2608 234.737 68.137 234.117 68.147H234.114Z" fill="#7984A0"/>
<path d="M190.105 67.4209C191.146 67.4209 191.899 67.8292 192.16 68.5421C192.458 69.3655 192.137 70.3394 191.297 70.9653C190.048 71.8924 188.572 72.197 187.07 72.3108C186.377 72.3643 186.286 72.6354 186.427 73.2011C186.698 74.2955 187.562 74.8712 188.84 74.7607C189.62 74.6938 190.37 74.4829 191.099 74.2051C191.3 74.1282 191.555 73.9608 191.688 74.2185C191.859 74.5499 191.524 74.6336 191.314 74.734C190.48 75.1222 189.62 75.4402 188.69 75.4904C186.752 75.5874 185.64 74.5833 185.553 72.6622C185.46 70.6139 186.973 68.3313 188.884 67.6184C189.282 67.4711 189.694 67.4242 190.112 67.4209H190.105ZM187.003 71.792C187.572 71.6782 188.147 71.5778 188.713 71.4473C189.53 71.2598 190.33 71.0122 190.942 70.403C191.35 69.998 191.625 69.5127 191.387 68.9069C191.15 68.2978 190.637 68.1505 190.042 68.1438C188.405 68.1204 186.668 69.7136 186.517 71.3435C186.477 71.7786 186.681 71.802 187.003 71.792Z" fill="#7984A0"/>
<path d="M295.45 67.4175C296.816 67.4242 297.793 68.1304 298.074 69.3788C298.506 71.2966 298.074 73.027 296.662 74.426C295.614 75.4635 294.309 75.8551 292.913 75.2694C291.561 74.7038 291.31 73.4654 291.354 72.1434C291.404 70.6975 291.899 69.4357 292.964 68.4316C293.676 67.7589 294.52 67.3807 295.45 67.4175ZM297.392 70.741C297.402 69.3822 296.943 68.522 296.043 68.2208C294.988 67.866 293.71 68.3479 292.987 69.3922C292.328 70.3427 292.12 71.4171 292.177 72.5484C292.227 73.4788 292.485 74.3256 293.486 74.6569C294.54 75.0084 295.464 74.7071 296.22 73.9306C297.077 73.047 297.392 71.9459 297.388 70.741H297.392Z" fill="#7984A0"/>
<path d="M324.723 70.51C324.693 72.3475 324.113 73.8838 322.564 74.9046C321.473 75.6242 320.258 75.8183 319.106 75.102C317.955 74.3891 317.774 73.201 317.881 71.9492C318.019 70.3594 318.594 68.9872 319.953 68.0534C321.008 67.3304 322.166 67.1296 323.337 67.7287C324.472 68.3111 324.706 69.3922 324.726 70.5067L324.723 70.51ZM318.671 71.822C318.651 73.5424 319.117 74.3858 320.077 74.6937C321.111 75.0251 322.343 74.5665 323.066 73.5558C323.735 72.6153 323.986 71.5342 323.919 70.4063C323.862 69.4624 323.588 68.542 322.55 68.2341C321.516 67.9262 320.572 68.2073 319.823 69.014C319.006 69.8942 318.715 70.9719 318.675 71.822H318.671Z" fill="#7984A0"/>
<path d="M287.963 68.5483C287.639 68.6252 287.311 68.7792 286.993 68.7658C285.56 68.7089 284.737 69.4252 284.201 70.6903C283.97 71.2392 283.519 71.6977 283.147 72.183C283.01 72.3638 282.873 72.6951 282.571 72.4374C282.324 72.2266 282.585 72.0324 282.705 71.8751C283.301 71.1053 283.84 70.2954 284.258 69.4185C284.379 69.1641 284.566 68.9231 284.171 68.6654C283.826 68.4412 283.954 68.0663 284.141 67.7718C284.365 67.417 284.63 67.0656 285.112 67.089C285.533 67.1091 285.584 67.4404 285.537 67.7584C285.456 68.2772 285.701 68.3039 286.106 68.2169C286.896 68.0529 287.679 67.8722 288.432 67.5877C288.663 67.5007 288.894 67.3601 289.115 67.6111C289.312 67.8354 289.135 68.0295 289.061 68.2236C288.475 69.7766 287.829 71.3095 287.498 72.9495C287.455 73.167 287.404 73.3846 287.391 73.6021C287.337 74.6297 287.689 74.9041 288.683 74.7167C289.004 74.6564 289.506 74.1711 289.653 74.7234C289.774 75.1786 289.111 75.1719 288.787 75.2756C287.18 75.8011 286.44 75.1752 286.621 73.5118C286.805 71.8082 287.518 70.2652 288.074 68.6721C288.094 68.6319 288.117 68.5951 288.137 68.555C288.077 68.555 288.017 68.5483 287.957 68.5483H287.963Z" fill="#7984A0"/>
<path d="M133.238 74.62C134.73 74.62 136.196 74.6099 137.659 74.63C137.907 74.6334 138.345 74.4192 138.348 74.9446C138.348 75.4032 137.974 75.3429 137.676 75.3429C135.952 75.3429 134.225 75.3329 132.501 75.3496C131.839 75.3563 131.879 75.0383 132.133 74.6334C132.26 74.4258 132.474 74.2719 132.649 74.0912C134.499 72.1365 136.347 70.1819 138.117 68.311C137.016 68.311 135.644 68.3277 134.272 68.2976C134.001 68.2909 133.512 68.5386 133.499 67.9863C133.485 67.481 133.937 67.5881 134.252 67.5881C135.838 67.5814 137.425 67.5814 139.011 67.5881C139.222 67.5881 139.513 67.4843 139.62 67.7119C139.754 67.9897 139.567 68.2441 139.366 68.4482C139.111 68.7059 138.847 68.9503 138.589 69.2013C136.979 70.7743 135.366 72.3474 133.766 73.9272C133.582 74.1112 133.315 74.2418 133.244 74.6166L133.238 74.62Z" fill="#7984A0"/>
<path d="M223.401 68.3641C223.059 68.2001 222.718 68.2972 222.39 68.2671C222.222 68.2503 222.012 68.2503 222.008 68.0395C222.008 67.8587 222.079 67.5743 222.313 67.6144C223.451 67.8219 223.474 66.848 223.829 66.2288C223.966 65.9912 224.067 65.7267 224.217 65.4958C224.314 65.3519 224.498 65.3084 224.669 65.3619C224.883 65.4322 224.826 65.6196 224.813 65.7803C224.813 65.8071 224.806 65.8339 224.8 65.864C224.686 66.4028 224.251 67.099 224.559 67.4404C224.93 67.8521 225.707 67.5408 226.309 67.5843C226.53 67.601 226.754 67.5709 226.979 67.591C227.196 67.6111 227.531 67.4772 227.504 67.9056C227.481 68.2604 227.206 68.2604 226.952 68.2604C226.229 68.2671 225.503 68.2604 224.78 68.2671C224.508 68.2671 224.237 68.2236 224.154 68.6319C223.832 70.205 223.411 71.7613 223.156 73.3444C222.962 74.5459 223.521 74.9676 224.733 74.6865C225.298 74.556 225.851 74.3585 226.406 74.1878C226.617 74.1242 226.851 73.9836 226.965 74.2882C227.059 74.5359 226.841 74.6129 226.661 74.6999C225.851 75.0747 225.034 75.4295 224.13 75.4864C222.812 75.5701 222.122 74.8974 222.299 73.5586C222.457 72.3805 222.771 71.2258 223.022 70.0577C223.143 69.4921 223.27 68.9264 223.397 68.3574L223.401 68.3641Z" fill="#7984A0"/>
<path d="M241.822 69.8268C240.979 70.6167 240.179 71.3061 239.302 71.8952C239.125 72.0157 238.921 72.2132 238.747 71.9253C238.609 71.6977 238.834 71.5839 238.978 71.4634C239.473 71.0585 239.982 70.6736 240.467 70.2552C241.1 69.7096 241.682 69.1574 241.712 68.2069C241.729 67.7216 242.053 67.2697 242.485 66.9685C242.666 66.8447 242.877 66.7376 243.104 66.8848C243.349 67.0421 243.429 67.2731 243.332 67.5341C243.205 67.8688 243.104 68.2437 242.883 68.5081C242.435 69.0336 242.519 69.5021 242.857 70.0176C243.342 70.7606 243.847 71.4936 244.282 72.2667C245.089 73.6925 244.667 74.7066 243.108 75.212C242.027 75.5601 240.915 75.5166 239.804 75.4865C239.506 75.4798 239.332 75.3727 239.352 75.038C239.373 74.6765 239.593 74.6464 239.871 74.6865C240.815 74.8204 241.756 74.8238 242.693 74.6363C243.851 74.4054 244.192 73.7527 243.633 72.7118C243.108 71.7345 242.328 70.9145 241.829 69.8301L241.822 69.8268Z" fill="#7984A0"/>
<path d="M206.499 69.8441C205.669 70.5905 204.855 71.3034 203.958 71.9126C203.811 72.013 203.644 72.2171 203.456 71.9962C203.235 71.7385 203.483 71.6013 203.647 71.4674C204.139 71.0624 204.648 70.6742 205.137 70.2592C205.752 69.737 206.321 69.1982 206.365 68.2945C206.392 67.7858 206.679 67.3507 207.084 67.026C207.279 66.8687 207.499 66.7315 207.767 66.8921C208.028 67.0494 208.025 67.2871 207.981 67.5481C207.918 67.9431 207.747 68.3045 207.496 68.5924C207.111 69.0308 207.185 69.4492 207.453 69.8776C207.904 70.6072 208.386 71.3201 208.832 72.0565C209.832 73.7232 209.27 74.9516 207.359 75.3331C206.452 75.5139 205.538 75.5139 204.621 75.4938C204.293 75.4871 203.995 75.4637 204.042 75.0051C204.089 74.5566 204.4 74.6738 204.665 74.7072C205.582 74.8143 206.492 74.821 207.402 74.6336C208.524 74.3993 208.842 73.7902 208.316 72.7627C207.801 71.7519 206.987 70.9252 206.502 69.8475L206.499 69.8441Z" fill="#7984A0"/>
<path d="M215.512 75.5037C214.113 75.497 213.594 74.8812 213.855 73.7265C214.2 72.217 214.595 70.7176 214.97 69.2148C215.167 68.4149 215.121 68.3647 214.284 68.522C213.738 68.6258 213.196 68.7362 212.651 68.8299C212.466 68.86 212.232 68.9169 212.199 68.6258C212.179 68.4216 212.346 68.3446 212.513 68.3045C213.481 68.0635 214.444 67.8024 215.422 67.5982C215.957 67.4845 216.245 67.5949 216.038 68.2944C215.552 69.9378 215.154 71.6079 214.732 73.2713C214.411 74.5398 214.772 74.9147 216.088 74.6837C216.633 74.5867 217.169 74.4394 217.711 74.3256C217.912 74.2854 218.173 74.1449 218.29 74.436C218.407 74.7339 218.153 74.8009 217.939 74.8778C217.079 75.1925 216.208 75.4803 215.515 75.5037H215.512Z" fill="#7984A0"/>
<path d="M144.524 68.3781C143.58 68.5488 142.766 68.6961 141.95 68.8367C141.796 68.8634 141.602 68.9304 141.528 68.7061C141.444 68.4451 141.638 68.3547 141.829 68.3045C142.797 68.0602 143.76 67.8025 144.734 67.5916C145.354 67.4577 145.571 67.6719 145.374 68.3413C144.915 69.9077 144.51 71.4874 144.105 73.0705C143.724 74.5566 144.065 74.9281 145.554 74.657C146.1 74.5599 146.635 74.4127 147.174 74.2922C147.368 74.2487 147.583 74.2219 147.656 74.4729C147.733 74.7407 147.519 74.7842 147.332 74.8511C146.522 75.1456 145.708 75.4368 144.842 75.487C143.449 75.5707 142.89 74.9214 143.208 73.5324C143.523 72.1568 143.904 70.798 144.256 69.4324C144.336 69.1145 144.413 68.7965 144.52 68.3748L144.524 68.3781Z" fill="#7984A0"/>
<path d="M347.15 75.3396C346.892 75.3061 346.441 75.4634 346.585 74.9346C346.712 74.4627 346.564 73.7096 347.465 73.8402C347.709 73.8736 348.158 73.7465 348.037 74.1849C347.91 74.6501 348.171 75.5136 347.15 75.3396Z" fill="#7984A0"/>
<path d="M249.845 75.3062C249.761 75.2827 249.276 75.5003 249.41 74.9648C249.523 74.4996 249.353 73.7331 250.26 73.8402C250.524 73.8737 251.003 73.7231 250.856 74.2385C250.728 74.6836 250.969 75.5003 249.845 75.3062Z" fill="#7984A0"/>
<path d="M145.173 65.7171C145.25 65.4025 145.38 64.954 145.464 64.4955C145.541 64.0671 145.842 64.057 146.147 64.1106C146.575 64.1876 146.341 64.4788 146.284 64.6863C146.163 65.1348 146.023 65.5799 145.882 66.025C145.799 66.2928 145.568 66.3129 145.343 66.2928C145.035 66.266 145.133 66.0384 145.173 65.7138V65.7171Z" fill="#7984A0"/>
<path d="M215.776 66.0551C215.924 65.379 216.024 64.9238 216.121 64.4686C216.211 64.0536 216.533 64.0569 216.834 64.1172C217.276 64.2075 216.978 64.5255 216.941 64.7062C216.857 65.1346 216.713 65.553 216.576 65.9714C216.482 66.2525 216.255 66.3362 215.984 66.286C215.693 66.2324 215.78 66.0182 215.776 66.0551Z" fill="#7984A0"/>
<path d="M110.324 45.2035L110.308 45.1504L110.354 45.157L110.324 45.2035Z" fill="#E2ECFE"/>
<path d="M287.963 68.5483C288.023 68.5483 288.084 68.555 288.144 68.555C288.12 68.5951 288.1 68.6319 288.08 68.6721C288.04 68.6286 288.003 68.5884 287.963 68.5449V68.5483Z" fill="#E2ECFE"/>
</g>
<g clip-path="url(#clip1_14810_9309)">
<path fill-rule="evenodd" clip-rule="evenodd" d="M47.2814 47.1494C45.6611 46.8462 44.0752 46.3879 42.5341 45.7767C39.2518 44.4751 36.3261 42.5385 33.8387 40.021C32.5901 38.7575 31.8949 37.05 31.9059 35.2742C31.9169 33.4981 32.6329 31.7994 33.8969 30.5513C35.1509 29.3128 36.8427 28.6191 38.6039 28.6191H38.6453C39.2658 28.623 39.8767 28.7129 40.4625 28.8819C40.51 28.8965 40.5571 28.9114 40.6043 28.9271C42.2905 29.4862 43.6852 30.6922 44.482 32.2794C46.0872 35.4768 47.0423 38.8857 47.3214 42.4114C47.4471 44.0017 47.4336 45.5842 47.2814 47.1494Z" fill="#43B9E9" fill-opacity="0.8"/>
<path fill-rule="evenodd" clip-rule="evenodd" d="M32.7572 38.8265C32.7571 38.8263 32.757 38.8262 32.7569 38.826C32.6965 38.6962 32.6341 38.567 32.5695 38.4382C31.7789 36.8636 31.6415 35.0413 32.186 33.3666C32.1903 33.3535 32.1945 33.3407 32.199 33.3277C32.7584 31.6421 33.9649 30.2481 35.553 29.4515C37.1411 28.655 38.9805 28.5215 40.6666 29.0806C42.3531 29.6397 43.7478 30.8452 44.5446 32.432C46.1495 35.6286 47.1046 39.0368 47.3835 42.5617C47.5044 44.0905 47.4963 45.6119 47.3601 47.118C47.1916 48.9812 46.8268 50.8209 46.2678 52.6205C46.2327 52.7338 46.1967 52.847 46.1601 52.9597C45.6555 54.5115 45.0164 55.9961 44.2476 57.4044C43.4582 58.851 42.532 60.2169 41.4741 61.4931C39.2212 64.211 36.4744 66.3939 33.3103 67.9807C31.7222 68.7773 29.8828 68.9108 28.1966 68.3517C26.5102 67.7926 25.1154 66.5873 24.3186 65.0003C23.5279 63.4257 23.3909 61.6033 23.9353 59.9291L23.9481 59.8897C24.1436 59.3011 24.4179 58.7481 24.7598 58.2435C25.3969 57.3034 26.2687 56.532 27.302 56.0136C30.2177 54.5511 32.3847 52.0003 33.4195 48.819C33.4375 48.7634 33.4549 48.7081 33.4722 48.6523C34.4723 45.4333 34.2165 41.9607 32.7572 38.8265Z" fill="#6167AD" fill-opacity="0.8"/>
<path fill-rule="evenodd" clip-rule="evenodd" d="M30.8133 47.081C29.3065 51.7146 20.8163 53.5791 16.1802 52.074C11.544 50.5688 9.00704 45.5926 10.5138 40.959C12.0205 36.3254 17.0003 33.7895 21.6365 35.2947C26.2726 36.7999 32.32 42.4477 30.8133 47.081Z" fill="#6167AD" fill-opacity="0.8"/>
<path fill-rule="evenodd" clip-rule="evenodd" d="M44.2194 57.2327C42.8283 56.638 41.383 56.1605 39.8909 55.8033C36.4503 54.9799 32.9115 54.8354 29.3733 55.3739C27.6168 55.6415 26.0383 56.5951 24.9846 58.0257C23.9312 59.4561 23.4893 61.246 23.7561 63.0017C24.023 64.7575 24.9764 66.335 26.4074 67.3873C26.4184 67.3956 26.4293 67.4036 26.4405 67.4117C27.8658 68.4466 29.6423 68.8787 31.3853 68.6133C31.5278 68.5916 31.6701 68.5723 31.8123 68.5549C35.2463 68.1353 38.6302 68.9645 41.3843 70.9095C41.4321 70.9432 41.4793 70.9767 41.5266 71.0111C44.2339 72.9772 45.9911 75.8251 46.4812 79.0486C46.6549 80.1911 47.1194 81.2581 47.8169 82.1541C48.1914 82.635 48.6327 83.0666 49.1324 83.4342L49.1659 83.4585C50.5907 84.4931 52.3673 84.9256 54.1103 84.6602C55.867 84.3928 57.4453 83.439 58.4989 82.0084C59.5524 80.578 59.9943 78.7881 59.7274 77.0324C59.1959 73.5343 57.9682 70.2489 56.0785 67.2677C55.1913 65.8678 54.1779 64.5655 53.0455 63.3684C51.9431 62.2025 50.728 61.1365 49.4073 60.1776C49.3114 60.1079 49.2148 60.0388 49.1178 59.9705C47.5783 58.8832 45.9403 57.9683 44.2194 57.2327Z" fill="#EB4049" fill-opacity="0.8"/>
<path fill-rule="evenodd" clip-rule="evenodd" d="M39.0644 72.9107C43.0073 75.7738 42.156 84.42 39.2902 88.362C36.4243 92.3043 30.9048 93.1792 26.9619 90.3162C23.0189 87.4531 22.1459 81.9366 25.0118 77.9943C27.8776 74.0523 35.1216 70.0479 39.0644 72.9107Z" fill="#EB4049" fill-opacity="0.8"/>
<path fill-rule="evenodd" clip-rule="evenodd" d="M52.9069 63.3273C51.9111 64.4658 51.0101 65.692 50.2091 66.9999C48.3623 70.0157 47.1313 73.3346 46.5504 76.8641C46.2622 78.6163 46.6819 80.4114 47.7177 81.8549C48.7533 83.2982 50.3201 84.2713 52.0733 84.5602C53.8266 84.8492 55.6224 84.4304 57.066 83.3955C57.0773 83.3876 57.0883 83.3796 57.0994 83.3715C58.5247 82.3366 59.4849 80.7816 59.7709 79.0429C59.7944 78.9007 59.8199 78.7595 59.8473 78.619C60.5092 75.2253 62.344 72.2652 65.0459 70.2485C65.0927 70.2134 65.1393 70.179 65.1866 70.1446C67.8942 68.1789 71.1473 67.3887 74.3663 67.9191C75.5072 68.107 76.6661 67.9952 77.7344 67.6092C78.3077 67.4018 78.8547 67.1157 79.359 66.7543L79.3925 66.73C80.8173 65.6954 81.7779 64.1404 82.0639 62.4017C82.3523 60.6494 81.9324 58.8544 80.8966 57.4109C79.861 55.9676 78.2942 54.9945 76.5409 54.7055C73.0479 54.1298 69.542 54.2814 66.1211 55.1563C64.5148 55.5671 62.9623 56.1279 61.4731 56.8343C60.0231 57.5218 58.6331 58.3474 57.3125 59.3063C57.2165 59.3759 57.1209 59.4464 57.0259 59.5174C55.5155 60.6448 54.1387 61.9189 52.9069 63.3273Z" fill="#F69747" fill-opacity="0.8"/>
<path fill-rule="evenodd" clip-rule="evenodd" d="M66.2328 73.0725C70.1758 70.2095 78.1406 73.6905 81.0064 77.6325C83.8723 81.5748 82.9993 87.0913 79.0564 89.9543C75.1134 92.8174 69.5939 91.9425 66.728 88.0002C63.8622 84.0582 62.29 75.9354 66.2328 73.0725Z" fill="#F69747" fill-opacity="0.8"/>
<path fill-rule="evenodd" clip-rule="evenodd" d="M61.4285 56.939C62.2042 58.2375 63.0926 59.473 64.0897 60.6388C66.3889 63.3267 69.1665 65.5231 72.3452 67.1666C73.9233 67.9823 75.7608 68.1385 77.454 67.6003C79.147 67.0623 80.5566 65.8739 81.3728 64.2968C82.1891 62.7197 82.3451 60.8833 81.8061 59.1911C81.8021 59.1779 81.798 59.1651 81.7937 59.1519C81.2491 57.4772 80.066 56.0837 78.5001 55.2742C78.3721 55.2079 78.2456 55.14 78.1204 55.0705C75.0959 53.392 72.8461 50.7327 71.7615 47.5409C71.7426 47.4856 71.7242 47.4307 71.7061 47.3751C70.6719 44.1937 70.9245 40.8573 72.423 37.9616C72.9541 36.9353 73.2056 35.7992 73.1681 34.6645C73.1478 34.0554 73.0445 33.4469 72.8563 32.8559L72.8435 32.8166C72.2991 31.1424 71.1162 29.7485 69.5503 28.939C67.9721 28.123 66.1347 27.9671 64.4415 28.5053C62.7485 29.0433 61.3389 30.2317 60.5226 31.8088C58.8963 34.9509 57.9582 38.3302 57.7343 41.8523C57.6292 43.5061 57.6834 45.1551 57.8957 46.789C58.1021 48.3799 58.4584 49.9563 58.963 51.5081C58.9997 51.6208 59.0372 51.7335 59.0754 51.8458C59.6817 53.63 60.4688 55.3326 61.4285 56.939Z" fill="#47BA4B" fill-opacity="0.8"/>
<path fill-rule="evenodd" clip-rule="evenodd" d="M74.8097 47.2565C73.3029 42.6229 79.0748 36.128 83.7109 34.6228C88.3471 33.1176 93.3269 35.6535 94.8336 40.2871C96.3404 44.9207 93.8034 49.8969 89.1672 51.4021C84.5311 52.9072 76.3163 51.8898 74.8097 47.2565Z" fill="#47BA4B" fill-opacity="0.8"/>
<path fill-rule="evenodd" clip-rule="evenodd" d="M58.0308 46.9289C57.7886 45.2058 57.7222 43.4652 57.833 41.7194C58.0573 38.1964 58.9955 34.8165 60.6219 31.6735C60.8428 31.2464 61.1076 30.8475 61.4096 30.4824C61.5144 30.3848 61.6181 30.2856 61.7207 30.1844C62.9748 28.9459 64.6662 28.252 66.428 28.252C66.4418 28.252 66.4553 28.252 66.4691 28.2522C68.2458 28.263 69.945 28.979 71.1935 30.2426C72.4421 31.5061 73.1374 33.2136 73.1263 34.9894C73.1153 36.7655 72.3991 38.4642 71.1353 39.7123C68.5895 42.2262 65.6414 44.1878 62.3735 45.5427C60.9562 46.1302 59.506 46.5928 58.0308 46.9289Z" fill="#43B9E9" fill-opacity="0.8"/>
<path fill-rule="evenodd" clip-rule="evenodd" d="M52.1014 47.5935C50.4689 47.5935 48.8588 47.4449 47.2812 47.1494C47.4335 45.5842 47.447 44.0016 47.3212 42.4113C47.0421 38.8856 46.087 35.4768 44.4819 32.2794C43.6851 30.6921 42.2904 29.4862 40.6042 28.9271C40.557 28.9113 40.5098 28.8964 40.4624 28.8818C41.5537 29.197 42.5571 29.7873 43.3696 30.6094C45.662 32.9292 48.7587 34.2008 52.1055 34.2011C52.164 34.2011 52.2219 34.2005 52.2804 34.1997C55.6525 34.1553 58.878 32.8385 61.4096 30.482C61.1076 30.8471 60.8428 31.246 60.6219 31.6731C58.9955 34.8162 58.0572 38.1961 57.833 41.719C57.7221 43.4648 57.7886 45.2054 58.0308 46.9285C56.2058 47.3443 54.3425 47.5662 52.4574 47.5911C52.3388 47.5927 52.22 47.5935 52.1014 47.5935Z" fill="#43B9E9" fill-opacity="0.8"/>
<path fill-rule="evenodd" clip-rule="evenodd" d="M52.9533 31.1893C48.0791 31.1893 43.6824 23.6947 43.6824 18.8224C43.6824 13.9499 47.6335 10 52.5076 10C57.3818 10 61.3329 13.9499 61.3329 18.8224C61.3329 23.6947 57.8272 31.1893 52.9533 31.1893Z" fill="#43B9E9" fill-opacity="0.8"/>
</g>
<defs>
<clipPath id="clip0_14810_9309">
<rect width="243.001" height="43.7211" fill="white" transform="translate(105.053 34.4326)"/>
</clipPath>
<clipPath id="clip1_14810_9309">
<rect width="85.3469" height="82" fill="white" transform="translate(10 10)"/>
</clipPath>
</defs>
</svg>
