<svg width="384" height="74" viewBox="0 0 384 74" fill="none" xmlns="http://www.w3.org/2000/svg">
<path d="M10.0025 10.1253C10.0225 10.0853 10.0425 10.0078 10.065 10.0078C10.2325 9.99778 10.3975 10.0003 10.565 10.0003H374.003V64.0003H10.0025C10.0025 46.1253 10.0025 28.2503 10.0025 10.3753C10.3575 10.3753 10.71 10.3728 11.065 10.3728C121.562 10.3728 232.057 10.3728 342.555 10.3728C352.717 10.3728 362.88 10.3728 373.043 10.3728C373.308 10.3728 373.57 10.3403 373.835 10.3228C373.83 10.2603 373.825 10.1978 373.82 10.1353C373.497 10.1353 373.175 10.1353 372.853 10.1353C257.338 10.1353 141.82 10.1353 26.305 10.1353C20.87 10.1353 15.435 10.1328 10 10.1303L10.0025 10.1253ZM261.195 62.1528C297.848 62.1528 334.5 62.1528 371.152 62.1528C371.731 62.1528 372.02 61.8611 372.02 61.2778C372.02 45.2328 372.02 29.1878 372.02 13.1428C372.02 12.1103 372.158 12.2003 371.095 12.2003C297.833 12.2003 224.568 12.2003 151.305 12.2003C150.705 12.2003 150.405 12.5028 150.405 13.1078C150.405 29.1528 150.405 45.1978 150.405 61.2428C150.405 61.4103 150.355 61.5978 150.42 61.7353C150.497 61.8978 150.647 62.0828 150.807 62.1353C151.012 62.2053 151.26 62.1528 151.49 62.1528C188.06 62.1528 224.628 62.1528 261.198 62.1528H261.195ZM44.915 53.8753C44.715 53.4878 44.5625 53.1528 44.3775 52.8378C44.135 52.4228 44.0925 52.0253 44.2075 51.5378C44.5575 50.0653 44.835 48.5753 45.1425 47.0928C46.4725 40.6753 47.8 34.2603 49.15 27.8478C49.1875 27.6753 49.455 27.4228 49.615 27.4228C52.2775 27.4253 54.94 27.4553 57.6025 27.5103C57.88 27.5153 58.195 27.6753 58.42 27.8553C58.93 28.2603 59.3925 28.7203 59.96 29.2328C60.69 25.7503 61.39 22.4053 62.1 19.0228C61.875 19.0053 61.7125 18.9828 61.55 18.9828C49.4975 18.9828 37.4425 18.9828 25.39 18.9728C24.975 18.9728 24.81 19.1103 24.73 19.5053C24.18 22.1653 23.61 24.8228 23.05 27.4803C22.9275 28.0678 22.82 28.6578 22.705 29.2478C23.4575 28.7828 24.0575 28.2403 24.705 27.7628C24.965 27.5703 25.33 27.4178 25.6475 27.4153C28.29 27.3878 30.935 27.3978 33.58 27.4028C33.7925 27.4028 34.0075 27.4353 34.2625 27.4553C33.5025 31.0578 32.7525 34.5653 32.0225 38.0778C31.0925 42.5453 30.1875 47.0153 29.24 51.4778C29.1475 51.9153 28.8775 52.3353 28.62 52.7178C28.3525 53.1153 28 53.4578 27.6375 53.8803H44.9175L44.915 53.8753ZM136.405 54.1628C136.18 54.0178 136.088 53.9428 135.983 53.8903C134.843 53.3128 133.933 52.5003 133.255 51.4053C132.303 49.8703 131.305 48.3628 130.325 46.8453C129.145 45.0153 127.965 43.1853 126.683 41.1978C126.845 41.1028 127.03 41.0328 127.165 40.9078C130.655 37.7278 134.13 34.5353 137.628 31.3628C139.503 29.6628 141.238 27.7828 143.603 26.7053C143.653 26.6828 143.67 26.5853 143.73 26.4703C139.232 26.4703 134.798 26.4678 130.365 26.4828C130.2 26.4828 129.998 26.6278 129.88 26.7628C129.27 27.4678 128.763 28.2803 128.075 28.8953C124.868 31.7628 121.613 34.5778 118.37 37.4053C117.915 37.8028 117.433 38.1703 116.965 38.5528C116.908 38.5128 116.85 38.4753 116.793 38.4353C117.635 34.3728 118.478 30.3078 119.33 26.1978H105.628C106.513 27.0103 106.725 27.9603 106.548 28.9828C106.32 30.2903 106.02 31.5828 105.753 32.8853C104.86 37.2128 103.97 41.5403 103.08 45.8653C102.73 47.5728 102.46 49.3003 102.007 50.9803C101.713 52.0778 101.155 53.1028 100.713 54.1653H114.638C114.088 52.8153 114.118 51.4728 114.348 50.1378C114.578 48.8103 114.897 47.5003 115.173 46.1803C115.372 45.2178 115.565 44.2553 115.788 43.1603C116.008 43.4803 116.143 43.6578 116.26 43.8478C117.958 46.5603 119.647 49.2753 121.353 51.9828C121.772 52.6503 122.093 53.3203 121.803 54.1628H136.405ZM92.105 47.4928C91.325 47.7028 90.6925 47.8978 90.05 48.0453C86.135 48.9328 82.17 48.9003 78.2 48.6328C76.7925 48.5378 75.88 47.7878 75.77 46.5578C75.7 45.7578 75.935 44.9278 76.0425 44.1128C76.115 43.5703 76.4125 43.3953 76.9775 43.3978C82.16 43.4203 87.345 43.4053 92.5275 43.4228C93.015 43.4228 93.21 43.2853 93.305 42.7978C93.75 40.5178 94.265 38.2528 94.6975 35.9703C95.09 33.8978 95.4975 31.8203 95.7375 29.7278C95.9625 27.7503 94.6575 26.4203 92.6525 26.4153C86.575 26.4028 80.495 26.3928 74.4175 26.4178C71.57 26.4303 68.945 28.7028 68.3875 31.4728C67.41 36.3303 66.3825 41.1778 65.4075 46.0378C65.135 47.3953 64.84 48.7678 64.79 50.1428C64.7 52.6478 66.2975 54.1678 68.81 54.1678C75.6175 54.1678 82.425 54.1678 89.2325 54.1678C89.3575 54.1678 89.4825 54.1578 89.6075 54.1678C89.97 54.2003 90.1775 54.0853 90.2625 53.6903C90.3775 53.1653 90.5725 52.6578 90.7275 52.1428C91.1775 50.6378 91.6225 49.1303 92.11 47.4928H92.105Z" fill="black"/>
<path d="M10.0025 10.1253C15.4375 10.1253 20.8723 10.1304 26.3073 10.1304C141.822 10.1304 257.34 10.1304 372.855 10.1304C373.177 10.1304 373.5 10.1304 373.822 10.1304C373.827 10.1929 373.832 10.2554 373.837 10.3179C373.572 10.3354 373.31 10.3679 373.045 10.3679C362.882 10.3704 352.72 10.3679 342.557 10.3679C232.06 10.3679 121.565 10.3679 11.0673 10.3679C10.7123 10.3679 10.3598 10.3679 10.0048 10.3704V10.1204L10.0025 10.1253Z" fill="black"/>
<path d="M189.715 30.7303C189.893 29.9928 190.178 29.3153 190.198 28.6278C190.248 26.7553 189.393 25.7553 187.563 25.7603C186.063 25.7653 184.565 25.7603 183.065 25.7603C181.7 25.7628 180.678 26.4553 180.325 27.7753C179.975 29.0778 179.728 30.4078 179.493 31.7353C179.35 32.5303 179.89 33.1753 180.833 33.2928C181.988 33.4378 183.155 33.5328 184.318 33.5528C187.398 33.6053 190.478 33.5953 193.558 33.6303C195.248 33.6478 196.925 33.7703 198.548 34.3103C201.105 35.1653 202.093 36.8928 201.515 39.5178C201.128 41.2828 200.803 43.0603 200.36 44.8128C198.95 50.4178 194.305 54.0628 188.47 54.0878C179.62 54.1253 170.773 54.0978 161.923 54.0953C161.74 54.0953 161.56 54.0703 161.32 54.0553C161.725 50.4453 162.125 46.8853 162.543 43.1628C163.193 43.6003 163.755 43.9353 164.265 44.3378C164.798 44.7578 165.35 44.9278 166.04 44.9203C172.368 44.8678 178.698 44.8478 185.028 44.8128C186.645 44.8053 187.968 43.7753 188.205 42.3578C188.335 41.5753 188.053 41.0503 187.29 40.8228C186.9 40.7053 186.473 40.6603 186.063 40.6603C180.128 40.6603 174.195 40.6778 168.26 40.6853C167.845 40.6853 167.423 40.6778 167.018 40.5978C164.545 40.1028 163.23 38.3128 163.673 35.8253C164.26 32.5353 164.948 29.2628 165.658 25.9953C165.925 24.7678 166.188 23.4828 166.773 22.3953C168.13 19.8753 170.498 18.9278 173.248 18.9178C181.41 18.8903 189.573 18.9028 197.735 18.9178C198.415 18.9178 199.108 19.0253 199.77 19.1828C202.535 19.8403 204.025 21.7178 204.295 24.8628C204.46 26.7828 204.048 28.6228 203.41 30.4203C203.353 30.5803 203.093 30.7728 202.928 30.7728C198.575 30.7903 194.225 30.7853 189.873 30.7803C189.818 30.7803 189.76 30.7453 189.715 30.7278V30.7303Z" fill="black"/>
<path d="M346.877 44.4278C345.875 44.5203 344.895 44.6753 343.915 44.6878C339.585 44.7428 335.255 44.7703 330.925 44.7678C330.295 44.7678 329.632 44.6353 329.045 44.4103C327.525 43.8278 326.885 42.5503 327.22 40.9578C328.047 37.0378 328.852 33.1103 329.727 29.2003C329.955 28.1828 329.765 27.4078 328.98 26.7553C328.935 26.7178 328.912 26.6553 328.84 26.5403H342.025C341.855 27.3953 341.692 28.2403 341.517 29.0803C340.795 32.5578 340.067 36.0328 339.35 39.5103C339.102 40.7128 339.487 41.1703 340.722 41.1703C342.262 41.1703 343.805 41.1703 345.345 41.1703C346.602 41.1703 347.195 40.7978 347.512 39.5553C347.92 37.9678 348.212 36.3528 348.545 34.7478C349.082 32.1653 349.612 29.5828 350.145 26.9978C350.21 26.6828 350.252 26.4303 350.71 26.4328C355.125 26.4528 359.537 26.4453 363.952 26.4478C364.01 26.4478 364.07 26.4728 364.142 26.4903C364.135 26.5553 364.152 26.6353 364.12 26.6678C362.732 28.1028 362.142 29.8828 361.76 31.7928C360.86 36.2928 359.895 40.7803 358.952 45.2703C358.687 46.5303 358.457 47.7978 358.132 49.0428C357.257 52.4078 354.877 54.2253 351.417 54.2253C343.235 54.2253 335.052 54.2253 326.867 54.2253H326.027V48.4453C327.005 48.6478 327.947 48.9503 328.905 49.0203C331.352 49.2003 333.805 49.3303 336.257 49.3753C338.92 49.4253 341.587 49.3553 344.252 49.3403C345.622 49.3328 345.85 49.1453 346.135 47.8028C346.385 46.6328 346.647 45.4653 346.877 44.4253V44.4278Z" fill="black"/>
<path d="M212.942 33.0078C213.127 32.0428 213.282 31.2128 213.45 30.3853C213.695 29.1853 213.962 27.9878 214.19 26.7853C214.257 26.4303 214.4 26.2628 214.762 26.3078C214.782 26.3103 214.805 26.3078 214.825 26.3078C221.612 26.3153 228.402 26.2878 235.19 26.3628C236.345 26.3753 237.555 26.6753 238.635 27.1028C241.007 28.0428 242.045 30.3078 241.482 33.0728C240.382 38.4853 239.202 43.8853 238.155 49.3078C237.9 50.6303 237.972 52.0303 237.992 53.3903C238.005 54.2228 238.022 54.3003 237.202 54.3003C234.162 54.3003 231.122 54.3003 228.082 54.3003C227.877 54.3003 227.672 54.3003 227.417 54.3003V51.8328C227.297 51.9278 227.225 51.9628 227.19 52.0178C226.232 53.6303 224.73 54.2653 222.942 54.2903C220.547 54.3253 218.152 54.3503 215.76 54.2728C214.822 54.2428 213.852 54.0428 212.972 53.7178C211.645 53.2253 210.867 52.1728 210.72 50.7478C210.342 47.0503 211.01 43.4903 212.42 40.0928C213.515 37.4578 215.8 36.2728 218.477 35.8528C219.927 35.6253 221.42 35.6278 222.895 35.5978C224.892 35.5578 226.892 35.5803 228.892 35.5903C230.65 35.6003 231.535 34.5703 231.677 32.8128C231.727 32.1853 231.462 31.8953 230.83 31.8078C230.562 31.7703 230.29 31.7728 230.02 31.7728C225.605 31.7728 221.19 31.7878 216.777 31.7578C215.917 31.7528 215.137 31.8853 214.392 32.3128C213.97 32.5553 213.51 32.7403 212.945 33.0078H212.942ZM229.285 40.5403C227.537 40.5403 225.85 40.4378 224.185 40.5753C223.105 40.6653 222.445 41.5003 222.202 42.5653C221.94 43.7203 221.695 44.8778 221.485 46.0428C221.165 47.8128 222.162 49.0178 223.97 49.0553C225.302 49.0828 226.447 48.5678 227.452 47.7353C227.675 47.5528 227.872 47.2578 227.937 46.9803C228.247 45.6678 228.512 44.3428 228.787 43.0228C228.955 42.2153 229.11 41.4078 229.285 40.5378V40.5403Z" fill="black"/>
<path d="M287.113 26.5729H297.88C298.878 31.6829 299.875 36.8054 300.905 42.0829C301.123 41.8504 301.233 41.7704 301.298 41.6629C303.578 37.7979 305.883 33.9504 308.105 30.0529C308.673 29.0579 308.97 27.9079 309.413 26.8379C309.468 26.7054 309.653 26.5404 309.78 26.5379C313.233 26.5229 316.683 26.5254 320.343 26.5254C320.025 27.1679 319.805 27.7104 319.503 28.2029C318.305 30.1479 317.055 32.0629 315.87 34.0179C313.058 38.6554 310.228 43.2804 307.498 47.9654C306.383 49.8804 305.515 51.9379 304.505 53.9129C304.42 54.0804 304.093 54.2129 303.878 54.2154C300.255 54.2329 296.633 54.2279 293.01 54.2279C292.848 54.2279 292.688 54.2029 292.575 54.1954C292.613 50.0579 291.458 46.1254 290.853 42.1204C290.373 38.9379 289.78 35.7729 289.178 32.6129C288.8 30.6304 288.165 28.7154 287.233 26.9129C287.188 26.8279 287.168 26.7304 287.115 26.5779L287.113 26.5729Z" fill="black"/>
<path d="M281.655 26.5704C281.365 27.1553 281.157 27.6679 280.872 28.1329C277.64 33.4128 274.335 38.6504 271.172 43.9729C269.33 47.0779 267.677 50.2953 266.025 53.5079C265.72 54.1003 265.45 54.2454 264.85 54.2404C261.435 54.2154 258.02 54.2279 254.605 54.2279H253.845C253.845 53.3504 253.955 52.5154 253.827 51.7154C253.167 47.6579 252.46 43.6054 251.737 39.5579C251.237 36.7579 250.77 33.9479 250.132 31.1804C249.772 29.6204 249.095 28.1329 248.547 26.5729C248.637 26.5629 248.79 26.5279 248.945 26.5279C252.172 26.5254 255.4 26.5354 258.627 26.5154C259.1 26.5128 259.257 26.6654 259.345 27.1254C260.26 31.8754 261.202 36.6229 262.14 41.3704C262.18 41.5704 262.24 41.7679 262.342 42.1679C265.412 36.9879 268.82 32.1903 270.955 26.5704H281.655Z" fill="black"/>
<path d="M77.4254 37.6679C77.7329 36.1204 77.9504 34.6629 78.3429 33.2579C78.4729 32.7954 78.9854 32.2929 79.4479 32.1004C81.1254 31.4004 82.8904 31.3854 84.6329 31.8654C85.4579 32.0929 86.1379 32.5729 86.3604 33.4879C86.3854 33.5879 86.4329 33.6954 86.4129 33.7904C86.1604 35.0054 85.9079 36.2229 85.6279 37.4329C85.6054 37.5354 85.3879 37.6604 85.2604 37.6604C82.6879 37.6729 80.1129 37.6704 77.4254 37.6704V37.6679Z" fill="black"/>
</svg>
