<svg width="339" height="84" viewBox="0 0 339 84" fill="none" xmlns="http://www.w3.org/2000/svg">
<g clip-path="url(#clip0_14810_8973)">
<mask id="mask0_14810_8973" style="mask-type:luminance" maskUnits="userSpaceOnUse" x="10" y="10" width="319" height="64">
<path d="M328.387 10H10V74H328.387V10Z" fill="white"/>
</mask>
<g mask="url(#mask0_14810_8973)">
<path d="M42.0437 43.3092C41.9233 44.8257 41.6826 46.161 41.3093 47.3937V47.3971C40.9429 48.6521 40.3617 49.7924 39.5275 50.8884C38.7931 51.8475 37.8213 52.6118 36.5556 53.2238C35.3137 53.8257 33.802 54.1283 32.0648 54.1283C30.2349 54.1283 28.7128 53.7984 27.397 53.1094C26.0538 52.4887 24.9549 51.5654 24.0278 50.2797C23.087 49.0505 22.4128 47.5869 21.9639 45.8054C21.5081 43.9862 21.2828 42.0355 21.2828 39.8452C21.2828 37.6551 21.5047 35.7043 21.9639 33.8852C22.4111 32.107 23.0887 30.5786 23.9813 29.339C24.757 28.1936 25.8062 27.2686 27.177 26.5197C28.4583 25.8752 29.8893 25.5623 31.5489 25.5623C36.688 25.5623 39.653 28.6022 40.611 34.8547L40.6781 35.2923L50.2253 31.5223L50.1582 31.2352C49.6973 29.2929 48.9509 27.4345 47.9361 25.7059C46.9146 24.0269 45.6331 22.5788 44.1146 21.3957C42.4823 20.1698 40.6299 19.2192 38.6023 18.5678C36.4488 17.9318 34.0565 17.6104 31.4922 17.6104C28.0283 17.6104 24.9634 18.1985 22.3853 19.3611C19.6781 20.5528 17.3975 22.1497 15.602 24.1056C13.7685 26.159 12.3737 28.5492 11.4587 31.1993C10.4767 33.8698 10.0002 36.6993 10.0002 39.847C10.0002 42.9946 10.4904 45.8635 11.4553 48.4366C12.3961 51.1585 13.8133 53.5316 15.6587 55.4807C17.4629 57.5033 19.7022 59.0762 22.5022 60.2816C25.1904 61.4407 28.3706 62.0289 31.9496 62.0289C34.9389 62.0289 37.627 61.593 39.9454 60.7312C42.1074 59.9294 44.0766 58.7684 45.8017 57.2827C47.5096 55.7543 48.7943 54.1642 49.7214 52.4237C50.7086 50.6285 51.4173 48.753 51.8248 46.8465L51.885 46.5594L42.0798 42.8458L42.0437 43.3126V43.3092Z" fill="#A31E5E"/>
<path d="M74.2519 30.2998C72.0402 30.2998 70.0502 30.7853 68.1583 31.7872C66.5124 32.7122 65.2912 34.1535 64.4484 36.1813V18.4395H54.946V61.2525H65.0246V44.8341C65.0246 42.2422 65.5097 40.3324 66.5072 38.9938C67.4084 37.7661 68.7981 37.1437 70.6367 37.1437C73.2509 37.1437 74.4687 38.4073 74.4687 41.1206V61.2525H84.5472V40.1785C84.5472 37.0685 83.7682 34.6904 82.1583 32.9071C80.545 31.1769 77.8844 30.2998 74.2554 30.2998H74.2519Z" fill="#A31E5E"/>
<path d="M110.131 49.6017C109.79 51.6875 109.178 53.2091 108.26 54.2504C107.346 55.2881 105.936 55.7908 103.939 55.7908C102.159 55.7908 100.769 55.1138 99.8028 53.7665C98.826 52.5252 98.2584 50.494 98.1122 47.7278H118.656L118.651 47.3772C118.593 41.7676 117.344 37.6181 114.836 34.6894C112.293 31.7743 108.471 30.2988 103.48 30.2988C101.18 30.2988 99.0891 30.6699 97.0906 31.4306C95.185 32.154 93.5201 33.226 92.1407 34.6159C90.7355 36.0299 89.6778 37.6626 88.9055 39.6117C88.1179 41.6565 87.7361 43.7988 87.7361 46.1617C87.7361 48.6441 88.1006 50.7694 88.8488 52.6569C89.6072 54.6299 90.6478 56.2661 92.022 57.6492C93.3515 59.0444 95.0388 60.1369 97.0338 60.8961C99.01 61.6466 101.217 62.0278 103.595 62.0278C107.912 62.0278 111.366 61.0892 113.858 59.2444C116.436 57.3928 118.123 54.9582 118.873 52.0105L118.956 51.6892L110.193 49.2134L110.133 49.6033L110.131 49.6017ZM98.322 42.8242C98.6213 40.9265 99.2095 39.3826 100.033 38.338C100.873 37.2728 102.02 36.7564 103.537 36.7564C105.162 36.7564 106.347 37.2386 107.155 38.2251C107.898 39.1791 108.354 40.687 108.547 42.8242H98.3237H98.322Z" fill="#A31E5E"/>
<path d="M145.053 31.9512L145.04 31.9393C144.399 31.3767 143.625 30.9544 142.653 30.6416C141.745 30.4074 140.858 30.2979 139.862 30.2979C138.01 30.2979 136.272 30.9203 134.692 32.153C133.343 33.2541 132.327 34.6167 131.665 36.2135V31.0741H122.162V61.2507H132.241V46.7728C132.241 43.644 132.619 41.1888 133.361 39.4791C134.052 37.8856 135.079 37.1419 136.591 37.1419C137.889 37.1419 138.471 37.7523 138.471 39.1235C138.471 39.8894 138.414 40.5443 138.364 41.052C138.271 41.5051 138.123 42.0164 137.917 42.6164L137.757 43.0832L146.009 42.9019L146.103 42.7105C146.852 41.2145 147.228 39.5611 147.228 37.7933C147.228 36.3777 147.032 35.2253 146.625 34.2712C146.179 33.2883 145.682 32.5514 145.056 31.9495L145.053 31.9512Z" fill="#A31E5E"/>
<path d="M171.813 31.9512L171.8 31.9393C171.158 31.3767 170.384 30.9544 169.413 30.6416C168.505 30.4074 167.618 30.2979 166.623 30.2979C164.771 30.2979 163.033 30.9203 161.453 32.153C160.105 33.2541 159.088 34.6167 158.426 36.2135V31.0741H148.924V61.2507H159.002V46.7728C159.002 43.644 159.381 41.1888 160.122 39.4791C160.813 37.8856 161.84 37.1419 163.352 37.1419C164.65 37.1419 165.232 37.7523 165.232 39.1235C165.232 39.8894 165.176 40.5443 165.125 41.052C165.032 41.5051 164.885 42.0164 164.678 42.6164L164.518 43.0832L172.77 42.9019L172.864 42.7105C173.613 41.2145 173.99 39.5611 173.99 37.7933C173.99 36.3777 173.794 35.2253 173.386 34.2712C172.94 33.2883 172.444 32.5514 171.817 31.9495L171.813 31.9512Z" fill="#A31E5E"/>
<path d="M192.439 50.6977L185.775 31.0752H174.543L187.025 62.2929L186.041 64.832C185.645 65.8681 185.204 66.651 184.732 67.1606C184.286 67.6359 183.641 67.8769 182.816 67.8769C181.649 67.8769 181.108 67.3178 181.108 66.1177C181.108 65.6628 181.158 65.3107 181.277 64.955C181.316 64.7191 181.43 64.4336 181.562 64.1036L181.843 63.3872H175.644L175.537 63.512C175.18 63.9241 174.89 64.4233 174.67 65.0012C174.428 65.6474 174.304 66.451 174.304 67.3932C174.304 69.4003 175.085 71.0195 176.612 72.2026C178.105 73.4131 180.189 74.0012 182.986 74.0012C184.855 74.0012 186.464 73.7703 187.751 73.319C189.005 72.9137 190.134 72.2333 191.107 71.2947C192.083 70.3526 192.895 69.2157 193.59 67.8188C194.246 66.4989 194.925 64.9414 195.724 62.9153L208.195 31.0769H199.555L192.436 50.6993H192.441L192.439 50.6977Z" fill="#A31E5E"/>
<path d="M239.312 34.1118L239.306 34.105C238.161 32.8346 236.823 31.8977 235.213 31.2411C233.731 30.6342 232.077 30.3281 230.305 30.3281C228.093 30.3281 226.058 30.8667 224.26 31.9302C222.512 32.9645 221.227 34.4845 220.445 36.4473V31.1044H210.827V72.5873H220.618V57.7453C221.531 59.1198 222.744 60.1662 224.228 60.8535C225.841 61.6622 227.662 62.0571 229.79 62.0571C231.543 62.0571 233.211 61.7494 234.746 61.1459C236.419 60.4894 237.814 59.5559 239.012 58.289C240.195 57.0391 241.156 55.4251 241.953 53.3547C242.694 51.4347 243.067 49.0257 243.067 46.1945C243.067 43.363 242.734 41.0772 242.071 39.0443C241.386 37.1107 240.455 35.4505 239.309 34.1134L239.312 34.1118ZM232.762 46.191C232.762 49.3693 232.279 51.7527 231.323 53.2692C230.36 54.7617 228.886 55.4884 226.807 55.4884C225.076 55.4884 223.706 54.7738 222.619 53.3051C221.523 51.8228 220.966 49.4103 220.966 46.1363C220.966 43.1238 221.505 40.8003 222.57 39.2324C223.572 37.7569 225.015 37.0064 226.862 37.0064C228.868 37.0064 230.369 37.7347 231.322 39.1674C232.279 40.6857 232.762 43.0486 232.762 46.191Z" fill="#A31E5E"/>
<path d="M255.319 29.4229L245.281 30.3034L248.111 60.3586L258.146 59.4781L255.319 29.4229Z" fill="#A31E5E"/>
<path d="M282.581 42.8983C282.7 45.0458 282.438 46.8564 281.81 48.277C281.168 49.6072 279.906 50.4159 277.954 50.7511C276.063 51.0811 274.493 50.6194 273.287 49.4004C272.06 48.1575 271.145 45.9211 270.57 42.7461C270.002 39.6088 270.077 37.2186 270.794 35.6474C271.493 34.1172 272.719 33.2213 274.544 32.91C276.188 32.628 277.405 32.9272 278.383 33.8504C279.411 34.8234 280.233 36.3244 280.896 38.4343L281.03 38.8548L288.399 34.69L288.294 34.4164C287.749 33.0042 287.052 31.7338 286.162 30.5319C285.303 29.3692 284.285 28.422 283.045 27.634C281.776 26.8764 280.367 26.3585 278.723 26.0524C277.021 25.8079 275.149 25.8593 273.152 26.1995C270.717 26.6167 268.682 27.3227 266.938 28.3572C265.132 29.4239 263.664 30.7644 262.569 32.3442C261.462 34.0129 260.733 35.8149 260.343 37.8478C259.954 39.8892 259.975 42.0606 260.416 44.4849C260.86 46.9281 261.597 48.9592 262.672 50.6913C263.792 52.5394 265.129 53.9722 266.745 55.0613C268.306 56.2119 270.162 57.0018 272.263 57.4122C273.574 57.6686 274.899 57.7694 276.272 57.7131C277.101 57.6788 277.948 57.5882 278.815 57.4395C280.773 57.1044 282.502 56.5452 284.103 55.7298C285.669 54.909 286.909 53.9756 287.903 52.8746C288.966 51.6332 289.724 50.3868 290.21 49.0652C290.727 47.653 291.001 46.1502 291.015 44.5995V44.3226L282.553 42.4401L282.579 42.9L282.581 42.8983Z" fill="#A31E5E"/>
<path d="M311.84 30.568L318.583 17.0697L309.454 19.4907L302.877 35.0115L295.853 10L286.126 12.5783L297.72 53.8681L307.448 51.2897L305.317 43.7037L307.443 39.4209L317.661 48.585L328.387 45.7417L311.841 30.5696L311.84 30.568Z" fill="#A31E5E"/>
<path d="M249.501 27.1008C249.678 27.1008 249.856 27.094 250.035 27.0768C251.568 26.9417 252.958 26.239 253.948 25.0953C254.934 23.9532 255.401 22.5085 255.261 21.0261C254.972 17.9674 252.144 15.7021 248.992 15.9824C247.457 16.1175 246.068 16.8202 245.081 17.964C244.094 19.1061 243.628 20.5508 243.767 22.0349C243.908 23.5155 244.634 24.8559 245.821 25.8099C246.867 26.6511 248.158 27.1008 249.501 27.1008Z" fill="#A31E5E"/>
</g>
</g>
<defs>
<clipPath id="clip0_14810_8973">
<rect width="318.545" height="64" fill="white" transform="translate(10 10)"/>
</clipPath>
</defs>
</svg>
