<svg width="364" height="70" viewBox="0 0 364 70" fill="none" xmlns="http://www.w3.org/2000/svg">
<g clip-path="url(#clip0_14810_9883)">
<path d="M70.5457 50.0481V38.5941C70.5457 36.5299 69.5268 34.5988 67.8229 33.4341L58.0657 26.7638C55.9397 25.3105 53.1404 25.3105 51.0144 26.7638L41.2572 33.4341C39.5533 34.5988 38.5344 36.5299 38.5344 38.5941V50.0481C38.5344 53.4999 41.3319 56.2981 44.7827 56.2981H64.2974C67.7482 56.2981 70.5457 53.4999 70.5457 50.0481Z" fill="#C3EBED"/>
<path d="M45.9541 25.1752L38.9058 29.9935C36.0661 31.9348 34.3678 35.1532 34.3678 38.5935V50.0476C34.3678 52.3926 35.1425 54.5567 36.4498 56.2976H20.1912C16.7403 56.2976 13.9429 53.4995 13.9429 50.0476V19.9551C13.9429 16.5033 16.7404 13.705 20.1912 13.7051H39.7056C43.1566 13.705 45.9541 16.5033 45.9541 19.9551V25.1752Z" fill="#589A9E"/>
<path d="M101.911 19.9443C104.093 19.9443 106.027 20.3893 107.714 21.2792C109.402 22.1554 110.76 23.3464 111.789 24.8524C112.832 26.3584 113.449 28.0354 113.641 29.8837H108.352C108.147 28.7884 107.762 27.8095 107.2 26.947C106.651 26.0845 105.924 25.4 105.019 24.8934C104.113 24.3869 103.029 24.1336 101.767 24.1336C100.19 24.1336 98.8451 24.5101 97.7338 25.2631C96.6363 26.0024 95.7926 27.1798 95.2027 28.7952C94.6265 30.4107 94.3384 32.5054 94.3384 35.0791C94.3384 38.9809 94.9832 41.8216 96.2727 43.6015C97.5624 45.3812 99.3938 46.2712 101.767 46.2712C103.029 46.2712 104.113 45.9973 105.019 45.4496C105.924 44.8884 106.651 44.1491 107.2 43.2318C107.762 42.3009 108.147 41.2877 108.352 40.1926H113.641C113.476 41.5341 113.134 42.8212 112.612 44.0532C112.105 45.2854 111.384 46.3874 110.451 47.3595C109.519 48.3179 108.346 49.0777 106.932 49.639C105.533 50.1866 103.859 50.4604 101.911 50.4604C99.1812 50.4604 96.8352 49.8374 94.8734 48.5916C92.9252 47.3321 91.423 45.5524 90.3666 43.2524C89.324 40.9387 88.8027 38.1937 88.8027 35.0176C88.8027 31.8551 89.324 29.1512 90.3666 26.9059C91.4093 24.6607 92.9048 22.9426 94.8529 21.7515C96.8146 20.5467 99.1674 19.9443 101.911 19.9443Z" fill="white"/>
<path d="M126.548 50.4606C124.518 50.4606 122.748 50.0293 121.239 49.1668C119.73 48.2906 118.557 47.0379 117.72 45.4089C116.897 43.7796 116.485 41.8218 116.485 39.5356C116.485 37.3178 116.883 35.3737 117.678 33.7034C118.488 32.0332 119.647 30.7326 121.156 29.8017C122.665 28.8707 124.469 28.4053 126.568 28.4053C128.599 28.4053 130.362 28.8501 131.857 29.7401C133.353 30.63 134.505 31.9031 135.314 33.5596C136.138 35.2162 136.549 37.2082 136.549 39.5356C136.549 41.685 136.158 43.5811 135.376 45.224C134.608 46.8531 133.476 48.1332 131.981 49.0642C130.499 49.9951 128.688 50.4606 126.548 50.4606ZM126.568 46.6615C127.721 46.6615 128.668 46.3467 129.408 45.7168C130.163 45.0871 130.718 44.2246 131.075 43.1293C131.446 42.0342 131.631 40.7882 131.631 39.3918C131.631 38.0912 131.466 36.8934 131.137 35.7981C130.821 34.7029 130.286 33.8267 129.532 33.1695C128.791 32.4987 127.803 32.1632 126.568 32.1632C125.402 32.1632 124.435 32.4714 123.667 33.0873C122.912 33.6898 122.343 34.5386 121.959 35.6339C121.588 36.7154 121.403 37.9681 121.403 39.3918C121.403 40.6787 121.568 41.8767 121.897 42.9856C122.24 44.0809 122.789 44.9707 123.543 45.6553C124.298 46.3261 125.306 46.6615 126.568 46.6615Z" fill="white"/>
<path d="M140.168 50.0496V28.8157H145.066V31.8551C145.395 31.3075 145.841 30.7804 146.404 30.2739C146.98 29.7673 147.686 29.3565 148.523 29.0417C149.36 28.7268 150.341 28.5693 151.466 28.5693C152.783 28.5693 154.004 28.8295 155.129 29.3496C156.268 29.87 157.18 30.6845 157.866 31.7934C158.566 32.9025 158.915 34.3331 158.915 36.0854V50.0496H153.894V36.6809C153.894 35.2845 153.51 34.2509 152.742 33.5801C151.974 32.8956 151.006 32.5532 149.84 32.5532C149.044 32.5532 148.29 32.6903 147.576 32.964C146.863 33.2242 146.28 33.6279 145.827 34.1756C145.388 34.7095 145.169 35.3804 145.169 36.1881V50.0496H140.168Z" fill="white"/>
<path d="M171.259 50.461C168.447 50.461 166.238 49.4958 164.633 47.5655C163.028 45.635 162.226 42.8902 162.226 39.3306C162.226 37.1127 162.548 35.1892 163.193 33.56C163.851 31.9172 164.812 30.6508 166.074 29.761C167.35 28.8574 168.928 28.4056 170.806 28.4056C171.684 28.4056 172.481 28.5152 173.194 28.7342C173.922 28.9396 174.565 29.2133 175.128 29.5556C175.69 29.8978 176.164 30.2744 176.548 30.685C176.947 31.0958 177.254 31.5064 177.475 31.9172V19.5342H182.495V50.0502H178.792L178.236 45.6967C178.072 46.2033 177.825 46.7372 177.495 47.2985C177.179 47.8461 176.747 48.3596 176.198 48.8386C175.664 49.3178 174.99 49.708 174.181 50.0092C173.372 50.3103 172.398 50.461 171.259 50.461ZM172.289 46.785C174.086 46.785 175.395 46.2033 176.219 45.0396C177.056 43.8622 177.475 41.9181 177.475 39.2074C177.461 37.6603 177.269 36.3597 176.898 35.3056C176.542 34.2514 175.986 33.4574 175.231 32.9235C174.49 32.3896 173.529 32.1225 172.35 32.1225C170.84 32.1225 169.6 32.6771 168.625 33.786C167.651 34.8949 167.164 36.7021 167.164 39.2074C167.164 41.6991 167.611 43.5883 168.501 44.8753C169.394 46.1485 170.656 46.785 172.289 46.785Z" fill="white"/>
<path d="M196.184 50.4606C194.153 50.4606 192.384 50.0293 190.875 49.1668C189.365 48.2906 188.192 47.0379 187.356 45.4089C186.533 43.7796 186.12 41.8218 186.12 39.5356C186.12 37.3178 186.519 35.3737 187.314 33.7034C188.123 32.0332 189.283 30.7326 190.792 29.8017C192.301 28.8707 194.106 28.4053 196.204 28.4053C198.234 28.4053 199.998 28.8501 201.494 29.7401C202.989 30.63 204.14 31.9031 204.95 33.5596C205.773 35.2162 206.186 37.2082 206.186 39.5356C206.186 41.685 205.794 43.5811 205.012 45.224C204.244 46.8531 203.112 48.1332 201.617 49.0642C200.134 49.9951 198.323 50.4606 196.184 50.4606ZM196.204 46.6615C197.356 46.6615 198.303 46.3467 199.044 45.7168C199.798 45.0871 200.354 44.2246 200.711 43.1293C201.081 42.0342 201.267 40.7882 201.267 39.3918C201.267 38.0912 201.101 36.8934 200.773 35.7981C200.458 34.7029 199.922 33.8267 199.167 33.1695C198.426 32.4987 197.439 32.1632 196.204 32.1632C195.039 32.1632 194.072 32.4714 193.303 33.0873C192.548 33.6898 191.979 34.5386 191.595 35.6339C191.225 36.7154 191.039 37.9681 191.039 39.3918C191.039 40.6787 191.204 41.8767 191.533 42.9856C191.876 44.0809 192.425 44.9707 193.179 45.6553C193.934 46.3261 194.942 46.6615 196.204 46.6615Z" fill="white"/>
<path d="M230.211 19.9443C232.392 19.9443 234.327 20.3893 236.014 21.2792C237.702 22.1554 239.059 23.3464 240.089 24.8524C241.131 26.3584 241.748 28.0354 241.941 29.8837H236.652C236.445 28.7884 236.063 27.8095 235.5 26.947C234.95 26.0845 234.223 25.4 233.319 24.8934C232.412 24.3869 231.328 24.1336 230.067 24.1336C228.489 24.1336 227.144 24.5101 226.033 25.2631C224.936 26.0024 224.092 27.1798 223.502 28.7952C222.927 30.4107 222.637 32.5054 222.637 35.0791C222.637 38.9809 223.283 41.8216 224.572 43.6015C225.863 45.3812 227.694 46.2712 230.067 46.2712C231.328 46.2712 232.412 45.9973 233.319 45.4496C234.223 44.8884 234.95 44.1491 235.5 43.2318C236.063 42.3009 236.445 41.2877 236.652 40.1926H241.941C241.777 41.5341 241.433 42.8212 240.911 44.0532C240.405 45.2854 239.684 46.3874 238.752 47.3595C237.819 48.3179 236.645 49.0777 235.231 49.639C233.833 50.1866 232.159 50.4604 230.211 50.4604C227.481 50.4604 225.134 49.8374 223.173 48.5916C221.225 47.3321 219.722 45.5524 218.666 43.2524C217.623 40.9387 217.102 38.1937 217.102 35.0176C217.102 31.8551 217.623 29.1512 218.666 26.9059C219.709 24.6607 221.205 22.9426 223.152 21.7515C225.114 20.5467 227.467 19.9443 230.211 19.9443Z" fill="white"/>
<path d="M254.848 50.4606C252.818 50.4606 251.048 50.0293 249.538 49.1668C248.03 48.2906 246.857 47.0379 246.02 45.4089C245.198 43.7796 244.785 41.8218 244.785 39.5356C244.785 37.3178 245.184 35.3737 245.979 33.7034C246.788 32.0332 247.948 30.7326 249.457 29.8017C250.966 28.8707 252.77 28.4053 254.87 28.4053C256.899 28.4053 258.662 28.8501 260.157 29.7401C261.652 30.63 262.805 31.9031 263.615 33.5596C264.438 35.2162 264.849 37.2082 264.849 39.5356C264.849 41.685 264.459 43.5811 263.676 45.224C262.909 46.8531 261.776 48.1332 260.28 49.0642C258.799 49.9951 256.988 50.4606 254.848 50.4606ZM254.87 46.6615C256.021 46.6615 256.968 46.3467 257.709 45.7168C258.463 45.0871 259.02 44.2246 259.376 43.1293C259.746 42.0342 259.93 40.7882 259.93 39.3918C259.93 38.0912 259.766 36.8934 259.437 35.7981C259.121 34.7029 258.587 33.8267 257.832 33.1695C257.091 32.4987 256.104 32.1632 254.87 32.1632C253.702 32.1632 252.735 32.4714 251.968 33.0873C251.213 33.6898 250.643 34.5386 250.259 35.6339C249.888 36.7154 249.704 37.9681 249.704 39.3918C249.704 40.6787 249.868 41.8767 250.198 42.9856C250.54 44.0809 251.09 44.9707 251.845 45.6553C252.598 46.3261 253.607 46.6615 254.87 46.6615Z" fill="white"/>
<path d="M268.467 50.0496V28.8157H273.365V31.8551C273.695 31.3075 274.14 30.7804 274.703 30.2739C275.279 29.7673 275.986 29.3565 276.821 29.0417C277.659 28.7268 278.64 28.5693 279.765 28.5693C281.082 28.5693 282.303 28.8295 283.428 29.3496C284.567 29.87 285.479 30.6845 286.165 31.7934C286.865 32.9025 287.214 34.3331 287.214 36.0854V50.0496H282.193V36.6809C282.193 35.2845 281.809 34.2509 281.04 33.5801C280.273 32.8956 279.306 32.5532 278.139 32.5532C277.343 32.5532 276.589 32.6903 275.876 32.964C275.162 33.2242 274.579 33.6279 274.126 34.1756C273.687 34.7095 273.468 35.3804 273.468 36.1881V50.0496H268.467Z" fill="white"/>
<path d="M302.775 32.3483H298.022L298.042 44.526C298.042 45.1558 298.111 45.6213 298.249 45.9224C298.399 46.2099 298.631 46.4016 298.947 46.4974C299.277 46.5796 299.716 46.6207 300.264 46.6207H302.878V49.7832C302.603 49.8927 302.186 49.9885 301.624 50.0707C301.074 50.1664 300.333 50.2144 299.4 50.2144C297.713 50.2144 296.403 49.9953 295.47 49.5572C294.55 49.1055 293.913 48.4688 293.556 47.6474C293.2 46.826 293.02 45.8471 293.02 44.7108V32.3483H289.564V28.8161H293.166L294.42 22.5117H298.022V28.7957H302.775V32.3483Z" fill="white"/>
<path d="M306.853 50.0498V28.8159H311.648V33.4159C311.991 32.3618 312.478 31.4651 313.109 30.7257C313.755 29.9728 314.508 29.3978 315.373 29.0007C316.237 28.6037 317.176 28.4053 318.192 28.4053C318.439 28.4053 318.68 28.4189 318.912 28.4464C319.145 28.4737 319.317 28.5217 319.426 28.5901V33.3748C319.276 33.3064 319.076 33.2586 318.83 33.2311C318.597 33.2037 318.391 33.1901 318.212 33.1901C317.184 33.1079 316.272 33.149 315.475 33.3132C314.694 33.4776 314.028 33.7582 313.48 34.1553C312.944 34.5386 312.539 35.0314 312.266 35.6339C311.991 36.2225 311.853 36.9139 311.853 37.7079V50.0498H306.853Z" fill="white"/>
<path d="M331.015 50.4606C328.986 50.4606 327.215 50.0293 325.706 49.1668C324.197 48.2906 323.025 47.0379 322.187 45.4089C321.364 43.7796 320.953 41.8218 320.953 39.5356C320.953 37.3178 321.35 35.3737 322.147 33.7034C322.956 32.0332 324.115 30.7326 325.623 29.8017C327.133 28.8707 328.937 28.4053 331.036 28.4053C333.067 28.4053 334.829 28.8501 336.325 29.7401C337.82 30.63 338.973 31.9031 339.783 33.5596C340.604 35.2162 341.017 37.2082 341.017 39.5356C341.017 41.685 340.626 43.5811 339.844 45.224C339.075 46.8531 337.944 48.1332 336.448 49.0642C334.967 49.9951 333.156 50.4606 331.015 50.4606ZM331.036 46.6615C332.189 46.6615 333.136 46.3467 333.876 45.7168C334.631 45.0871 335.186 44.2246 335.544 43.1293C335.914 42.0342 336.098 40.7882 336.098 39.3918C336.098 38.0912 335.934 36.8934 335.604 35.7981C335.289 34.7029 334.754 33.8267 334 33.1695C333.259 32.4987 332.27 32.1632 331.036 32.1632C329.87 32.1632 328.903 32.4714 328.134 33.0873C327.379 33.6898 326.811 34.5386 326.426 35.6339C326.056 36.7154 325.872 37.9681 325.872 39.3918C325.872 40.6787 326.036 41.8767 326.365 42.9856C326.708 44.0809 327.256 44.9707 328.011 45.6553C328.765 46.3261 329.773 46.6615 331.036 46.6615Z" fill="white"/>
<path d="M350.769 50.3583C349.397 50.3583 348.298 50.1872 347.475 49.8449C346.653 49.5027 346.036 49.0439 345.623 48.4689C345.213 47.8939 344.945 47.2505 344.822 46.5386C344.698 45.813 344.636 45.0738 344.636 44.3208V19.5342H349.534V43.7458C349.534 44.663 349.719 45.375 350.089 45.8814C350.473 46.388 351.091 46.6824 351.941 46.7646L353.011 46.8056V49.9475C352.641 50.0571 352.264 50.153 351.88 50.235C351.495 50.3172 351.125 50.3583 350.769 50.3583Z" fill="white"/>
</g>
<defs>
<clipPath id="clip0_14810_9883">
<rect width="343.75" height="50" fill="white" transform="translate(10 10)"/>
</clipPath>
</defs>
</svg>
