<svg width="620" height="68" viewBox="0 0 620 68" fill="none" xmlns="http://www.w3.org/2000/svg">
<path fill-rule="evenodd" clip-rule="evenodd" d="M538.98 11.4444C539.761 11.1155 541.324 10.6632 542.475 10.4165C543.585 10.2109 546.093 10.0464 548.026 10.0053C549.958 9.96417 552.631 10.1698 553.988 10.3754C555.345 10.6221 557.072 11.1155 557.771 11.4444C557.925 11.5045 558.078 11.5646 558.224 11.6221C558.778 11.8399 559.236 12.0201 559.333 12.0201C559.457 12.0201 560.608 12.7191 561.883 13.5825C563.157 14.4049 564.884 15.7618 565.665 16.543C566.488 17.3654 567.516 18.4756 567.968 19.0101C568.42 19.5857 569.202 20.6959 569.654 21.4771C570.106 22.2584 570.928 24.1087 571.463 25.5889C572.285 27.8504 572.45 29.0428 572.409 33.4013C572.409 36.2384 572.203 39.2811 571.956 40.1857C571.71 41.0903 571.257 42.4883 570.97 43.2696C570.682 44.0508 569.901 45.531 569.243 46.559C568.585 47.5869 567.022 49.4372 565.748 50.6708C564.473 51.9454 562.54 53.5079 561.389 54.1658C560.279 54.8648 558.675 55.646 557.894 55.9338C557.113 56.2217 555.715 56.674 554.81 56.9207C553.906 57.1262 551.11 57.3318 548.643 57.3318C546.176 57.3318 543.297 57.1674 542.269 56.9207C541.241 56.674 539.761 56.2628 538.98 55.975C538.199 55.646 536.348 54.6592 534.868 53.7135C533.388 52.7678 531.414 51.1642 530.469 50.1773C529.523 49.2316 528.084 47.2991 527.303 45.9422C526.48 44.5853 525.493 42.4472 525.082 41.2137C524.589 39.5278 524.383 37.5542 524.383 33.6069C524.383 29.5773 524.589 27.7682 525.123 26.2057C525.534 25.0955 526.151 23.4919 526.562 22.7107C526.932 21.9294 528.002 20.2436 528.947 19.0101C529.893 17.7765 531.62 16.0085 532.853 15.0628C534.087 14.1171 535.608 13.0891 536.307 12.7191C537.006 12.349 538.199 11.7734 538.98 11.4444ZM305.431 10.3754C304.403 10.5398 302.635 10.9921 301.525 11.4444C300.374 11.8556 298.523 12.7602 297.372 13.4592C296.18 14.1171 294.535 15.3506 293.63 16.1318C292.726 16.9131 291.369 18.5167 290.588 19.6268C289.806 20.737 288.861 22.3406 288.491 23.1219C288.121 23.9031 287.504 25.5067 287.093 26.6169C286.558 28.1382 286.394 30.0296 286.352 33.8125C286.352 37.7598 286.517 39.4867 287.134 41.2137C287.545 42.4472 288.244 44.2153 288.696 45.1199C289.148 46.0245 290.094 47.5047 290.793 48.4093C291.492 49.3139 292.726 50.6708 293.507 51.4109C294.288 52.151 295.974 53.3845 297.208 54.1658C298.441 54.947 299.675 55.6049 299.88 55.6049C300.086 55.6049 300.867 55.8927 301.525 56.2217C302.183 56.5917 304.527 57.044 306.665 57.2907C309.543 57.6608 311.475 57.6608 313.984 57.2907C315.834 57.044 318.054 56.5506 318.877 56.1805C319.74 55.8105 320.727 55.3582 321.056 55.1526C321.385 54.947 322.043 54.6181 322.495 54.4125C322.947 54.248 324.386 53.1378 325.661 51.9454C327.429 50.3829 327.964 49.6839 327.758 49.1083C327.594 48.7382 326.936 47.7925 326.237 47.0524C325.538 46.2712 324.51 45.3255 323.934 44.8732C323.435 44.5135 323.178 44.3286 322.928 44.3374C322.663 44.3467 322.407 44.5726 321.878 45.0376C321.303 45.531 320.275 46.3123 319.617 46.7646C318.918 47.2169 317.561 47.9981 316.533 48.4915C315.012 49.2728 313.984 49.4372 310.653 49.4372C307.076 49.4372 306.377 49.3139 303.992 48.2037C302.388 47.4636 300.538 46.1478 299.346 44.9554C298.277 43.8863 297.002 42.1594 296.55 41.1726C296.056 40.1857 295.439 38.7055 295.193 37.9243C294.946 37.143 294.74 35.1694 294.74 33.6069C294.74 32.0444 294.946 30.0708 295.193 29.2895C295.439 28.5083 296.056 27.028 296.55 26.0412C297.002 25.0955 298.441 23.3686 299.675 22.2173C300.908 21.1071 302.882 19.7502 303.992 19.2157C305.143 18.7223 307.24 18.1466 308.721 18.0233C310.201 17.8588 312.586 17.8999 314.066 18.1055C316.245 18.3933 317.314 18.8456 319.822 20.4903C321.508 21.6005 323.235 22.6284 323.646 22.7929C324.181 23.0396 324.839 22.5873 326.401 20.8604C327.511 19.6268 328.457 18.2288 328.457 17.7765C328.457 17.3243 327.635 16.2552 326.483 15.2684C325.414 14.3638 323.276 13.0069 321.673 12.2257C320.069 11.4855 317.684 10.6632 316.327 10.4165C314.97 10.1698 312.38 9.96417 310.571 10.0053C308.762 10.0464 306.459 10.2109 305.431 10.3754ZM350.661 10.4165C349.427 10.6221 347.741 11.0744 346.96 11.4444C346.179 11.7734 345.233 12.2257 344.904 12.4312C344.575 12.6779 343.876 13.048 343.342 13.2536C342.848 13.5003 340.957 15.1039 339.189 16.872C336.845 19.1334 335.529 20.8604 334.46 22.9163C333.679 24.4787 332.857 26.9869 332.61 28.4672C332.363 29.9474 332.158 32.25 332.158 33.6069C332.158 34.9638 332.363 37.2664 332.61 38.7466C332.857 40.2268 333.72 42.8173 334.542 44.5031C335.612 46.6823 336.886 48.4093 338.942 50.4652C340.587 52.1099 342.807 53.8368 344.082 54.4536C345.315 55.0704 347.083 55.8927 347.988 56.2217C348.893 56.5917 351.195 57.044 353.128 57.2496C355.43 57.5374 357.815 57.4963 360.118 57.2496C362.05 57.0029 364.435 56.5095 365.463 56.1394C366.491 55.7694 368.136 54.9059 369.164 54.248C370.192 53.549 371.59 52.6033 372.289 52.151C372.988 51.6576 374.427 50.1773 375.537 48.8205C376.606 47.4636 378.045 45.2021 378.662 43.8041C379.32 42.365 380.06 39.9801 380.307 38.4588C380.594 36.8552 380.677 33.9769 380.553 31.7566C380.43 29.6185 380.019 27.028 379.649 26.0001C379.279 24.9722 378.662 23.4508 378.292 22.5873C377.922 21.765 377.469 21.066 377.264 21.066C377.099 21.066 376.894 20.737 376.812 20.367C376.688 19.9558 375.619 18.5989 374.427 17.3654C373.234 16.0907 371.22 14.4049 369.986 13.5825C368.752 12.8013 366.532 11.7322 365.052 11.1977C363.037 10.4987 361.228 10.252 357.651 10.1286C355.06 10.0875 351.894 10.1698 350.661 10.4165ZM28.503 10.6221C28.0507 10.7454 26.8583 11.1155 25.8303 11.4855C24.8024 11.8145 23.3222 12.4312 22.5409 12.8013C21.7597 13.1714 19.9916 14.2815 18.6758 15.3095C17.319 16.3374 15.4687 18.1877 14.5641 19.4213C13.6184 20.6548 12.5904 22.3406 12.2204 23.1219C11.8503 23.9031 11.1924 25.5067 10.7812 26.6169C10.1645 28.2205 10 29.8241 10 33.8125C10 37.842 10.1645 39.4867 10.8224 41.4193C11.2747 42.7761 12.2204 44.9143 12.9194 46.1478C13.6595 47.3813 15.1397 49.355 16.2088 50.4652C17.319 51.6165 18.7581 52.8911 19.4571 53.3434C20.1561 53.7957 21.0607 54.3714 21.513 54.6592C21.9653 54.947 22.6232 55.2759 22.9521 55.3993C23.1102 55.4784 23.4013 55.6049 23.7386 55.7515L23.7387 55.7516C24.1031 55.91 24.5216 56.0919 24.8846 56.2628C25.6247 56.5917 28.1329 57.1262 30.4355 57.5374C34.3828 58.1542 34.9585 58.1542 39.0703 57.5374C42.2774 57.044 44.3333 56.4272 46.4715 55.3993C48.1162 54.6181 50.3776 53.1789 51.4467 52.2332C52.6391 51.1642 53.4204 50.1362 53.3792 49.6428C53.3792 49.1905 52.1457 47.7514 50.6243 46.3534C49.1441 44.9965 47.6227 43.763 47.2527 43.6396C46.8415 43.4752 45.978 43.9274 44.9501 44.7087C44.0455 45.4488 42.483 46.5179 41.4551 47.0113C39.8515 47.8748 39.0291 47.9981 35.2874 47.9981C31.8746 47.9981 30.6411 47.8336 29.3253 47.2169C28.4208 46.7646 26.8583 45.7366 25.8715 44.9554C24.8435 44.133 23.6511 42.8173 23.1577 42.036C22.6643 41.2548 21.9242 39.5278 21.5541 38.2121C21.184 36.9374 20.8962 35.046 20.8962 34.0181C20.8962 32.9901 21.184 31.0987 21.5541 29.7829C21.9242 28.5083 22.6643 26.7813 23.1577 26.0001C23.6511 25.2189 24.9669 23.7797 26.077 22.834C27.3106 21.765 29.0786 20.7781 30.6411 20.2436C32.0802 19.7913 34.095 19.4213 35.1641 19.4213C36.2743 19.4213 38.3301 19.7913 39.8104 20.2436C41.6196 20.8193 43.1409 21.6827 44.5389 22.8752C46.3481 24.4376 46.7182 24.6021 47.4583 24.1909C47.9517 23.9442 49.473 22.6696 50.8711 21.3949C52.2279 20.0791 53.3792 18.6811 53.3792 18.3111C53.4204 17.8999 52.5569 16.7897 51.5289 15.844C50.501 14.8572 48.8974 13.6648 47.9106 13.1714C46.9649 12.6779 45.2379 11.8967 44.1277 11.4855C42.483 10.8688 40.7561 10.6632 35.6986 10.5809C32.2036 10.4987 28.9553 10.5398 28.503 10.6221ZM71.9645 11.4855C73.0335 11.1566 74.3493 10.8276 74.8427 10.7043C75.3772 10.5398 78.5433 10.4987 81.9561 10.5398C87.178 10.6632 88.4527 10.8276 90.3852 11.5678C91.6188 12.1023 93.5513 13.0069 94.7026 13.6648C95.8128 14.3227 97.7042 15.7207 98.8966 16.8308C100.048 17.8999 101.446 19.4624 101.98 20.2436C102.515 21.0249 103.378 22.6284 103.913 23.7386C104.447 24.8899 105.146 26.8225 105.434 28.056C105.722 29.2895 105.969 32.0855 105.969 34.2237C106.01 37.0197 105.763 38.9522 105.146 41.0081C104.653 42.5706 103.913 44.5442 103.42 45.3255C102.967 46.1067 101.816 47.7514 100.911 48.9849C99.9657 50.1773 98.2798 51.8632 97.1697 52.6855C96.0184 53.549 94.1681 54.6181 93.0579 55.1526C91.9066 55.646 90.7142 56.2217 90.3852 56.4272C90.0563 56.5917 87.8359 57.0851 85.4511 57.4552C81.2982 58.1542 80.9693 58.1542 76.4052 57.4552C73.8148 57.044 71.101 56.4272 70.4431 56.0983C70.2731 56.0183 70.0642 55.9189 69.8306 55.8076C69.1036 55.4615 68.1372 55.0015 67.3593 54.6592C66.3725 54.1658 64.1521 52.3566 62.4251 50.6708C60.4104 48.656 58.9301 46.7235 58.1489 45.1199C57.491 43.763 56.6275 41.2548 56.1752 39.569C55.7641 37.8831 55.4351 35.2927 55.4351 33.8125C55.4351 32.3322 55.8052 29.8241 56.2164 28.2616C56.6275 26.6991 57.491 24.2732 58.1489 22.9163C58.8479 21.5183 60.4515 19.339 62.014 17.7765C63.4942 16.2552 65.2212 14.6927 65.9202 14.2815C66.578 13.8292 67.8116 13.1714 68.5928 12.7602C69.374 12.349 70.8954 11.7734 71.9645 11.4855ZM233.064 10.6221C232.488 10.7454 231.008 11.1977 229.774 11.65C228.541 12.1023 226.608 13.0069 225.457 13.6648C224.347 14.3227 222.579 15.5562 221.551 16.4197C220.523 17.3243 218.96 19.2157 218.015 20.6959C217.11 22.135 216.082 24.1498 215.712 25.1777C215.342 26.2057 214.849 27.8504 214.643 28.8783C214.396 29.9063 214.067 31.551 213.944 32.5789C213.821 33.648 213.985 35.9095 214.355 37.9243C214.725 39.8568 215.301 42.036 215.63 42.7761C215.959 43.4752 216.206 44.1742 216.206 44.2975C216.206 44.4209 216.822 45.4899 217.604 46.6412C218.385 47.8336 219.536 49.3961 220.194 50.0951C220.811 50.753 222.168 51.9865 223.196 52.7678C224.224 53.549 225.868 54.577 226.896 55.0704C227.924 55.5638 229.61 56.2217 230.72 56.5917C231.789 56.9618 234.256 57.4552 236.271 57.7019C239.273 58.1131 240.506 58.072 243.878 57.4963C246.057 57.1262 248.565 56.5506 249.429 56.1394C249.663 56.0338 249.955 55.9048 250.276 55.7629C251.079 55.4073 252.066 54.9707 252.8 54.6181C253.787 54.1247 256.008 52.3566 257.735 50.6708C259.749 48.656 261.23 46.7235 262.011 45.1199C262.669 43.763 263.491 41.6249 263.82 40.3913C264.149 39.1578 264.519 36.8141 264.601 35.2516C264.725 33.4424 264.56 31.1809 264.108 29.0839C263.697 27.2748 262.956 24.8488 262.422 23.7386C261.887 22.5873 260.777 20.737 259.914 19.5857C259.05 18.4756 257.611 16.872 256.707 16.0907C255.802 15.2684 254.774 14.4871 254.445 14.3638C254.116 14.1993 253.17 13.6648 252.389 13.2125C251.608 12.7191 250.045 11.9789 248.894 11.5266C247.208 10.8276 245.687 10.6632 240.465 10.5809C236.97 10.4987 233.64 10.5398 233.064 10.6221ZM112.178 34.6348C112.178 22.9985 112.301 12.8424 112.424 12.1023L112.671 10.7865H121.224L122.704 12.3079C123.526 13.1714 126.322 16.543 128.954 19.8324C131.585 23.1219 134.381 26.5346 135.204 27.4803C135.985 28.3849 137.671 30.3997 138.904 31.9622C140.138 33.4835 141.741 35.4161 143.756 37.7187L144.003 35.6628C144.126 34.5115 144.249 28.755 144.249 22.7929C144.249 16.872 144.332 11.7322 144.455 11.4033C144.62 10.9099 145.565 10.7865 154.323 10.7865L154.652 12.1023C154.817 12.8424 154.94 22.9574 154.94 34.5115C154.94 46.1067 154.858 55.8927 154.735 56.2217C154.57 56.7151 153.665 56.8384 145.689 56.8795L144.044 54.9059C143.18 53.8368 142.317 52.85 142.194 52.7267C142.07 52.6033 141.207 51.6165 140.343 50.4652C140.131 50.2049 139.874 49.8881 139.588 49.5366L139.588 49.5356C138.655 48.3878 137.422 46.8695 136.478 45.7366C135.647 44.7046 134.616 43.4526 133.816 42.4825L133.814 42.4796L133.805 42.469L133.804 42.467L133.79 42.4509L133.777 42.4342C133.446 42.0331 133.158 41.6826 132.942 41.4193C132.202 40.5147 130.434 38.3765 129.036 36.6907C127.638 35.0049 125.829 32.9079 123.485 30.3997L123.074 56.6328L117.934 56.7562C114.151 56.7973 112.712 56.7151 112.507 56.345C112.342 56.0572 112.178 46.2712 112.178 34.6348ZM164.233 12.1023C164.109 12.8424 163.986 22.9163 163.986 34.5115C163.986 46.1067 164.068 55.8516 164.192 56.2217C164.356 56.7151 166.247 56.8384 177.555 56.8384C188.451 56.8384 191.165 56.7151 193.303 56.1394C194.701 55.7694 196.798 55.0704 197.908 54.5358C199.059 54.0424 201.033 52.8089 202.308 51.8221C203.582 50.8352 205.268 49.1905 206.049 48.2037C206.831 47.1758 207.818 45.5722 208.27 44.7087C208.763 43.8041 209.421 41.9949 209.791 40.6791C210.202 39.1578 210.449 36.7318 210.449 33.8125C210.449 30.852 210.243 28.5083 209.791 27.1103C209.462 25.9179 209.01 24.6843 208.804 24.3554C208.599 23.9853 208.064 22.9985 207.612 22.0939C207.119 21.1893 206.132 19.7913 205.433 18.969C204.693 18.1877 203.253 16.872 202.226 16.0496C201.198 15.2684 199.265 14.076 197.908 13.4181C196.551 12.8013 193.879 11.9378 191.946 11.5266C188.986 10.8688 186.601 10.7454 176.486 10.7454L164.479 10.7865L164.233 12.1023ZM388.9 56.7973V33.7714V10.7454H392.724C396.466 10.7454 396.548 10.7454 397.782 12.0612C398.481 12.8013 402.181 17.4887 406.005 22.464C409.829 27.4392 413.036 31.5921 413.201 31.7155C413.324 31.8388 414.188 32.949 415.133 34.1825C415.584 34.7699 416.267 35.665 417.019 36.6502C417.847 37.734 418.758 38.9268 419.533 39.939C421.054 41.8716 422.411 43.4752 422.576 43.5574C422.699 43.5985 422.987 42.9406 423.151 42.1183C423.316 41.2548 423.439 33.8536 423.439 10.7454H427.14C430.676 10.7454 430.881 10.7865 431.046 11.65C431.169 12.1845 431.251 22.5462 431.251 56.7973H422.206L421.178 55.4404C421.054 55.2786 420.771 54.9139 420.365 54.3898L420.364 54.3883C419.016 52.6485 416.309 49.1541 413.53 45.4899C411.463 42.7962 409.554 40.3386 408.253 38.6651L408.247 38.6563L408.245 38.6547C407.248 37.371 406.611 36.5511 406.54 36.444C406.334 36.1973 404.895 34.347 403.332 32.3322C401.729 30.2764 399.755 27.8093 397.329 25.0133L396.918 56.5917L388.9 56.7973ZM438.077 12.0612C437.954 12.8013 437.83 14.2404 437.83 15.2684C437.871 16.2963 438.036 17.4065 438.241 17.7354C438.57 18.2288 439.968 18.3933 445.108 18.5578L451.605 18.7634L452.016 56.5917L460.034 56.7973C460.034 28.0971 460.157 19.5035 460.239 19.1746C460.404 18.6811 461.473 18.5578 466.407 18.5578C469.697 18.5578 472.657 18.4756 472.986 18.3522C473.479 18.1877 473.603 17.3654 473.603 14.446V10.7454H438.324L438.077 12.0612ZM480.716 34.5937C480.634 22.464 480.675 12.1434 480.798 11.65L481.045 10.7043L490.996 10.7454C498.356 10.7454 501.974 10.9099 504.893 11.4033C507.031 11.7734 509.581 12.4312 510.527 12.8424C511.472 13.2536 513.076 14.4049 514.022 15.3506C515.173 16.4608 516.077 17.8999 516.571 19.339C517.188 21.1071 517.352 22.6696 517.352 26.1235C517.311 28.8372 517.064 31.2632 516.735 32.1678C516.447 32.9901 515.584 34.5115 514.844 35.5394C514.104 36.6085 512.624 38.0065 511.554 38.6644C510.485 39.3634 509.375 39.8979 509.087 39.8979C508.8 39.8979 508.553 40.1446 508.553 40.4324C508.553 40.7203 509.869 42.7761 511.431 45.0376C512.479 46.5149 513.667 48.2203 514.582 49.5348L514.585 49.5382C515.069 50.2345 515.478 50.8209 515.748 51.2053C516.489 52.3566 517.64 53.9191 518.216 54.7003C518.791 55.5227 519.285 56.3039 519.285 56.4684C519.285 56.6328 517.064 56.7562 509.416 56.7562L507.443 54.1247C506.374 52.6855 504.647 50.2596 503.66 48.7793C502.632 47.258 501.604 45.8189 501.398 45.5722C501.152 45.2843 500.453 44.3797 498.726 41.9538L489.063 42.1594L488.652 56.5506L480.839 56.5917L480.716 34.5937ZM580.961 11.8145C580.756 12.4312 580.591 22.0528 580.632 34.7171L580.715 56.5917H609.497C609.703 53.0967 609.661 51.452 609.538 50.7119L609.291 49.3961C592.433 49.4372 590.048 49.3139 589.678 48.9027C589.308 48.4915 589.144 43.5985 589.061 29.6596L588.938 10.951C581.372 10.7043 581.331 10.7043 580.961 11.8145ZM543.297 18.1464C542.393 18.5165 541.118 19.1332 540.419 19.5033C539.72 19.8734 538.281 21.0658 537.212 22.1348C536.102 23.245 534.951 24.6841 534.58 25.3831C534.251 26.0821 533.594 27.6446 533.182 28.8781C532.73 30.1117 532.401 32.2087 532.401 33.5245C532.401 34.7991 532.689 36.9372 533.059 38.253C533.429 39.5276 534.416 41.5835 535.238 42.8171C536.061 44.0506 537.459 45.6542 538.363 46.3532C539.268 47.0933 540.542 47.9568 541.241 48.3268C541.94 48.6969 543.38 49.2726 544.531 49.6015C545.641 49.9716 547.327 50.2594 548.232 50.2594C549.136 50.2594 550.781 50.0127 551.932 49.6837C553.042 49.3959 554.81 48.6969 555.838 48.1624C556.866 47.6278 558.511 46.3532 559.539 45.3253C560.567 44.2973 562.047 42.1592 562.787 40.5967C564.062 38.0063 564.226 37.3484 564.226 34.0179C564.267 31.0163 564.062 29.8239 563.239 27.6446C562.54 25.7532 561.513 24.2318 559.909 22.5049C558.634 21.148 556.784 19.6266 555.797 19.1332C554.81 18.6398 553.659 18.1875 553.248 18.1875C552.878 18.1875 552.467 18.0231 552.343 17.7763C552.22 17.5296 550.575 17.3652 548.519 17.4063C546.217 17.4474 544.366 17.6941 543.297 18.1464ZM351.689 18.0231C350.784 18.3109 349.468 18.8865 348.81 19.2977C348.152 19.6678 347.001 20.449 346.343 20.9835C345.685 21.5592 344.452 22.875 343.671 23.944C342.889 24.972 341.903 26.9456 341.45 28.3025C340.833 30.235 340.71 31.5508 340.875 34.8402C341.039 38.0474 341.286 39.3632 342.026 40.8023C342.56 41.8302 343.917 43.6394 345.069 44.873C346.22 46.0654 347.865 47.5045 348.687 48.039C349.55 48.5736 351.319 49.3137 352.593 49.6426C353.909 49.9716 355.677 50.2594 356.499 50.2594C357.363 50.2594 359.131 49.9716 360.406 49.5604C361.721 49.1903 363.448 48.4913 364.229 48.039C365.011 47.5867 366.285 46.641 367.026 45.942C367.807 45.2841 368.999 43.8039 369.78 42.6526C370.521 41.5424 371.425 39.5276 371.795 38.253C372.165 36.9372 372.453 34.9636 372.453 33.8123C372.453 32.7021 372.206 30.7696 371.877 29.6183C371.59 28.4258 370.973 26.6989 370.521 25.7943C370.068 24.8897 368.958 23.4095 368.095 22.4638C367.19 21.5592 365.751 20.3257 364.846 19.7089C363.942 19.1332 362.256 18.352 361.146 17.9819C359.994 17.653 357.815 17.3652 356.212 17.4063C354.608 17.4063 352.593 17.6941 351.689 18.0231ZM488.734 26.4522C488.611 18.9688 488.652 18.6398 489.433 18.4342C489.885 18.3109 493.216 18.2698 496.834 18.352C502.837 18.4342 503.578 18.5165 505.469 19.4622C507.073 20.2434 507.73 20.8602 508.429 22.2993C508.923 23.3272 509.334 24.8897 509.375 25.7943C509.375 26.6989 509.046 28.3025 508.635 29.3716C508.265 30.4406 507.566 31.6742 507.114 32.0853C506.661 32.5376 505.263 33.1955 504.03 33.6067C502.755 33.9767 499.754 34.3879 497.245 34.5113C494.778 34.6346 491.859 34.6346 488.816 34.2235L488.734 26.4522ZM77.8443 19.7089C77.392 19.8322 75.8295 20.4901 74.3904 21.1891C72.8691 21.9704 71.1421 23.2039 70.3198 24.1496C69.5796 25.0542 68.5106 26.6167 68.0583 27.6446C67.277 29.2071 67.1537 30.1939 67.1537 34.0179C67.1948 37.8007 67.3182 38.8698 68.0994 40.5145C68.5928 41.5835 69.8263 43.2694 70.8543 44.2973C71.8822 45.3253 73.5681 46.5588 74.6782 47.0522C76.0351 47.669 77.6798 47.9979 80.3114 48.1213C83.7653 48.3268 84.1764 48.2446 86.6846 47.0933C88.1649 46.3943 89.9329 45.2841 90.5908 44.6674C91.2898 44.0095 92.2355 42.8171 92.7289 42.0358C93.2223 41.2546 93.8802 39.7744 94.2503 38.7464C94.6204 37.7185 94.9082 35.7037 94.9082 34.2235C94.9082 32.7432 94.5792 30.5229 94.1681 29.2893C93.7569 28.0558 92.9756 26.2877 92.4 25.3831C91.8243 24.4785 90.6319 23.2039 89.7273 22.5049C88.8639 21.847 86.9313 20.9013 85.4511 20.3668C83.9297 19.8322 81.915 19.4622 80.7225 19.4622C79.5713 19.5033 78.2966 19.5855 77.8443 19.7089ZM231.214 22.0115C231.871 21.5181 233.557 20.7779 234.914 20.3257C236.271 19.8734 238.204 19.4622 239.232 19.4622C240.259 19.4211 241.986 19.7089 243.138 20.0378C244.248 20.4079 245.934 21.1069 246.838 21.6414C247.743 22.176 249.1 23.2861 249.799 24.1085C250.539 24.9308 251.526 26.37 251.937 27.3568C252.389 28.3025 252.924 29.8239 253.17 30.7284C253.417 31.633 253.623 33.1133 253.623 34.0179C253.623 34.9225 253.253 36.855 252.759 38.3352C252.307 39.8155 251.567 41.5835 251.156 42.2414C250.744 42.9404 249.758 44.0917 248.935 44.8318C248.113 45.5308 246.592 46.5588 245.523 47.0933C243.878 47.8334 242.85 47.9979 239.232 47.9979C235.449 47.9979 234.667 47.8745 232.899 46.97C231.83 46.3943 230.103 45.0785 229.117 44.0095C228.13 42.8993 226.896 41.1724 226.403 40.1033C225.663 38.4997 225.498 37.3484 225.498 34.0179C225.457 30.2761 225.58 29.7005 226.691 27.439C227.348 26.0821 228.376 24.4785 228.952 23.9029C229.528 23.3272 230.556 22.4638 231.214 22.0115ZM175.705 20.0789C174.923 20.2845 174.882 20.6135 175.006 33.8534C175.047 44.1328 175.211 47.4634 175.581 47.669C175.869 47.8334 178.131 48.039 180.639 48.1213C183.229 48.2446 186.107 48.0801 187.423 47.7923C188.657 47.5456 190.014 47.1344 190.384 46.9288C190.795 46.7233 191.412 46.5588 191.741 46.5588C192.069 46.5588 193.262 45.8187 194.413 44.9141C195.523 44.0095 196.921 42.5292 197.497 41.6247C198.073 40.7201 198.772 38.6231 199.101 37.0195C199.594 34.429 199.594 33.6067 199.059 30.934C198.648 29.0426 197.949 27.1101 197.209 25.9999C196.551 24.972 195.071 23.5328 193.879 22.7516C192.686 21.9704 190.918 21.0658 189.89 20.7779C188.78 20.4079 185.737 20.1201 182.283 20.0378C179.117 19.9556 176.157 19.9556 175.705 20.0789Z" fill="#3A80C1"/>
</svg>
